<?xml version="1.0" encoding="UTF-8"?>
<svg version="1.1" xmlns="http://www.w3.org/2000/svg" width="512" height="512">
<path d="M0 0 C24.75 0 49.5 0 75 0 C75 0.66 75 1.32 75 2 C80.61 2 86.22 2 92 2 C92 2.66 92 3.32 92 4 C92.73863281 3.98839844 93.47726562 3.97679687 94.23828125 3.96484375 C101.22453848 3.90270423 108.0562763 4.23455014 115 5 C115 5.66 115 6.32 115 7 C117.64 7 120.28 7 123 7 C123 7.66 123 8.32 123 9 C125.97 9 128.94 9 132 9 C132 9.66 132 10.32 132 11 C138.93 11.495 138.93 11.495 146 12 C146 12.66 146 13.32 146 14 C148.31 14 150.62 14 153 14 C153 14.66 153 15.32 153 16 C154.5778125 15.9690625 154.5778125 15.9690625 156.1875 15.9375 C159.32704904 15.98896802 161.96883396 16.26517187 165 17 C165 17.66 165 18.32 165 19 C166.65 19 168.3 19 170 19 C170 19.66 170 20.32 170 21 C171.65 21 173.3 21 175 21 C175 21.66 175 22.32 175 23 C178.63 23.33 182.26 23.66 186 24 C186 24.66 186 25.32 186 26 C186.99 26 187.98 26 189 26 C189 26.66 189 27.32 189 28 C190.32 28 191.64 28 193 28 C193 28.66 193 29.32 193 30 C196.96 30.495 196.96 30.495 201 31 C201 31.66 201 32.32 201 33 C202.32 33 203.64 33 205 33 C205 33.66 205 34.32 205 35 C207.31 35.33 209.62 35.66 212 36 C212 36.66 212 37.32 212 38 C212.99 38 213.98 38 215 38 C215 38.66 215 39.32 215 40 C216.32 40 217.64 40 219 40 C219 40.66 219 41.32 219 42 C220.65 42.33 222.3 42.66 224 43 C224 43.66 224 44.32 224 45 C224.99 45 225.98 45 227 45 C227 45.66 227 46.32 227 47 C227.66 47 228.32 47 229 47 C229 47.66 229 48.32 229 49 C230.65 49.33 232.3 49.66 234 50 C234 50.66 234 51.32 234 52 C235.32 52 236.64 52 238 52 C239.75 53.375 239.75 53.375 241 55 C241 55.66 241 56.32 241 57 C241.66 57 242.32 57 243 57 C243 57.66 243 58.32 243 59 C243.66 59 244.32 59 245 59 C246.625 60.375 246.625 60.375 248 62 C248 62.66 248 63.32 248 64 C248.66 64 249.32 64 250 64 C250.33 65.32 250.66 66.64 251 68 C252.32 68.33 253.64 68.66 255 69 C255 69.66 255 70.32 255 71 C255.66 71 256.32 71 257 71 C257.12375 71.639375 257.2475 72.27875 257.375 72.9375 C257.684375 73.9584375 257.684375 73.9584375 258 75 C258.66 75.33 259.32 75.66 260 76 C260 77.32 260 78.64 260 80 C261.32 80.33 262.64 80.66 264 81 C264.33 83.97 264.66 86.94 265 90 C265.66 90 266.32 90 267 90 C267 91.32 267 92.64 267 94 C267.66 94 268.32 94 269 94 C269.94128087 98.76015177 270.14613702 103.37979821 270.1328125 108.21484375 C270.13424759 109.37579308 270.13424759 109.37579308 270.13571167 110.56019592 C270.1363892 112.18978965 270.13456483 113.81938614 270.13037109 115.44897461 C270.1250241 117.92633204 270.13032685 120.40350758 270.13671875 122.88085938 C270.13605775 124.47135456 270.13477614 126.06184964 270.1328125 127.65234375 C270.13483673 128.38484848 270.13686096 129.11735321 270.13894653 129.87205505 C270.11882699 134.34543971 269.72889861 138.58498803 269 143 C268.34 143 267.68 143 267 143 C267 144.65 267 146.3 267 148 C266.34 148 265.68 148 265 148 C264.67 151.63 264.34 155.26 264 159 C263.34 159 262.68 159 262 159 C262 159.99 262 160.98 262 162 C261.34 162 260.68 162 260 162 C260 162.99 260 163.98 260 165 C259.34 165 258.68 165 258 165 C257.67 167.31 257.34 169.62 257 172 C256.34 172 255.68 172 255 172 C255 172.66 255 173.32 255 174 C254.34 174 253.68 174 253 174 C253 175.32 253 176.64 253 178 C252.34 178 251.68 178 251 178 C250.67 179.65 250.34 181.3 250 183 C249.34 183 248.68 183 248 183 C248 183.99 248 184.98 248 186 C247.34 186 246.68 186 246 186 C245.67 187.32 245.34 188.64 245 190 C244.34 190 243.68 190 243 190 C243 190.99 243 191.98 243 193 C242.34 193 241.68 193 241 193 C241 193.66 241 194.32 241 195 C240.34 195 239.68 195 239 195 C238.67 195.99 238.34 196.98 238 198 C237.34 198 236.68 198 236 198 C236 198.66 236 199.32 236 200 C235.34 200 234.68 200 234 200 C234 200.99 234 201.98 234 203 C233.34 203 232.68 203 232 203 C231.67 204.32 231.34 205.64 231 207 C230.34 207 229.68 207 229 207 C229 207.66 229 208.32 229 209 C227.625 210.625 227.625 210.625 226 212 C225.34 212 224.68 212 224 212 C224 212.66 224 213.32 224 214 C223.34 214 222.68 214 222 214 C222 214.66 222 215.32 222 216 C220.35 216.33 218.7 216.66 217 217 C217 217.66 217 218.32 217 219 C216.34 219 215.68 219 215 219 C215 219.66 215 220.32 215 221 C214.34 221 213.68 221 213 221 C212.67 221.99 212.34 222.98 212 224 C210.68 224 209.36 224 208 224 C208 224.66 208 225.32 208 226 C207.34 226 206.68 226 206 226 C206 226.66 206 227.32 206 228 C204.35 228.33 202.7 228.66 201 229 C201 229.66 201 230.32 201 231 C200.01 231 199.02 231 198 231 C198 231.66 198 232.32 198 233 C197.34 233 196.68 233 196 233 C196 233.66 196 234.32 196 235 C193.69 235.33 191.38 235.66 189 236 C189 236.66 189 237.32 189 238 C188.01 238 187.02 238 186 238 C186 238.66 186 239.32 186 240 C184.68 240 183.36 240 182 240 C181.67 240.99 181.34 241.98 181 243 C179.68 243 178.36 243 177 243 C177 243.66 177 244.32 177 245 C176.01 245 175.02 245 174 245 C174 245.66 174 246.32 174 247 C172.02 247.33 170.04 247.66 168 248 C168 248.66 168 249.32 168 250 C167.01 250 166.02 250 165 250 C165 250.66 165 251.32 165 252 C164.01 252 163.02 252 162 252 C162 252.66 162 253.32 162 254 C160.02 254.33 158.04 254.66 156 255 C156 255.66 156 256.32 156 257 C155.01 257 154.02 257 153 257 C153 257.66 153 258.32 153 259 C151.68 259 150.36 259 149 259 C149 259.66 149 260.32 149 261 C146.69 261.33 144.38 261.66 142 262 C142 262.66 142 263.32 142 264 C141.01 264 140.02 264 139 264 C139 264.66 139 265.32 139 266 C136.69 266.33 134.38 266.66 132 267 C132 267.66 132 268.32 132 269 C131.01 269 130.02 269 129 269 C129 269.66 129 270.32 129 271 C127.68 271 126.36 271 125 271 C125 271.66 125 272.32 125 273 C122.36 273.33 119.72 273.66 117 274 C117 274.66 117 275.32 117 276 C115.68 276 114.36 276 113 276 C113 276.66 113 277.32 113 278 C112.01 278 111.02 278 110 278 C110 278.66 110 279.32 110 280 C107.03 280.33 104.06 280.66 101 281 C101 281.66 101 282.32 101 283 C100.01 283 99.02 283 98 283 C98 283.66 98 284.32 98 285 C96.68 285 95.36 285 94 285 C94 285.66 94 286.32 94 287 C91.03 287.33 88.06 287.66 85 288 C85 288.66 85 289.32 85 290 C83.35 290 81.7 290 80 290 C80 290.66 80 291.32 80 292 C77.36 292.33 74.72 292.66 72 293 C72 293.66 72 294.32 72 295 C70.02 295 68.04 295 66 295 C66 295.66 66 296.32 66 297 C65.01 297 64.02 297 63 297 C63 297.66 63 298.32 63 299 C59.7 299.33 56.4 299.66 53 300 C53 300.66 53 301.32 53 302 C51.02 302 49.04 302 47 302 C47 302.66 47 303.32 47 304 C45.35 304 43.7 304 42 304 C42 304.66 42 305.32 42 306 C38.7 306.33 35.4 306.66 32 307 C32 307.66 32 308.32 32 309 C29.69 309 27.38 309 25 309 C25 309.66 25 310.32 25 311 C20.9472484 311.98248524 17.16138263 312.08159574 13 312 C13 312.66 13 313.32 13 314 C10.69 314 8.38 314 6 314 C6 314.66 6 315.32 6 316 C1.05 316 -3.9 316 -9 316 C-9 315.34 -9 314.68 -9 314 C-10.65 314 -12.3 314 -14 314 C-14 313.34 -14 312.68 -14 312 C-15.32 311.67 -16.64 311.34 -18 311 C-18.33 309.68 -18.66 308.36 -19 307 C-20.32 306.67 -21.64 306.34 -23 306 C-23 305.34 -23 304.68 -23 304 C-23.66 304 -24.32 304 -25 304 C-25.33 301.03 -25.66 298.06 -26 295 C-26.66 295 -27.32 295 -28 295 C-28 293.35 -28 291.7 -28 290 C-28.66 290 -29.32 290 -30 290 C-31.15316726 283.65758005 -31.09507063 277.43311296 -31 271 C-31.66 271 -32.32 271 -33 271 C-33 265.72 -33 260.44 -33 255 C-33.66 255 -34.32 255 -35 255 C-35 245.43 -35 235.86 -35 226 C-35.66 226 -36.32 226 -37 226 C-37 220.06 -37 214.12 -37 208 C-36.34 208 -35.68 208 -35 208 C-35 200.41 -35 192.82 -35 185 C-34.34 185 -33.68 185 -33 185 C-33 181.7 -33 178.4 -33 175 C-32.34 175 -31.68 175 -31 175 C-31.01160156 174.40832031 -31.02320313 173.81664062 -31.03515625 173.20703125 C-31.08322386 168.99768215 -31.06006883 165.1077667 -30 161 C-29.34 161 -28.68 161 -28 161 C-28 159.35 -28 157.7 -28 156 C-27.34 156 -26.68 156 -26 156 C-25.67 153.03 -25.34 150.06 -25 147 C-24.34 147 -23.68 147 -23 147 C-23 146.01 -23 145.02 -23 144 C-22.34 144 -21.68 144 -21 144 C-21 142.68 -21 141.36 -21 140 C-20.34 140 -19.68 140 -19 140 C-18.67 138.35 -18.34 136.7 -18 135 C-17.34 135 -16.68 135 -16 135 C-16 134.01 -16 133.02 -16 132 C-15.34 132 -14.68 132 -14 132 C-14 131.34 -14 130.68 -14 130 C-13.34 130 -12.68 130 -12 130 C-11.67 128.68 -11.34 127.36 -11 126 C-9.68 125.67 -8.36 125.34 -7 125 C-6.67 123.68 -6.34 122.36 -6 121 C-5.34 121 -4.68 121 -4 121 C-4 120.34 -4 119.68 -4 119 C-2.68 118.67 -1.36 118.34 0 118 C0 117.34 0 116.68 0 116 C0.99 116 1.98 116 3 116 C3 115.34 3 114.68 3 114 C5.475 113.505 5.475 113.505 8 113 C8 112.34 8 111.68 8 111 C9.32 111 10.64 111 12 111 C12 110.34 12 109.68 12 109 C12.99 109 13.98 109 15 109 C15 108.34 15 107.68 15 107 C19.455 106.505 19.455 106.505 24 106 C24 105.34 24 104.68 24 104 C25.65 104 27.3 104 29 104 C29 103.34 29 102.68 29 102 C31.31 102 33.62 102 36 102 C36 101.34 36 100.68 36 100 C45.66039945 98.73306237 55.27721582 98.91015908 65 99 C65 98.34 65 97.68 65 97 C72.26 97 79.52 97 87 97 C87 97.66 87 98.32 87 99 C88.53926147 98.99214478 88.53926147 98.99214478 90.10961914 98.98413086 C118.75390899 98.85197366 147.36511885 99.27943279 176 100 C176 99.34 176 98.68 176 98 C175.01 98 174.02 98 173 98 C173 97.34 173 96.68 173 96 C170.03 95.67 167.06 95.34 164 95 C164 94.34 164 93.68 164 93 C162.35 93 160.7 93 159 93 C159 92.34 159 91.68 159 91 C156.69 91 154.38 91 152 91 C152 90.34 152 89.68 152 89 C145.07 88.505 145.07 88.505 138 88 C138 87.34 138 86.68 138 86 C135.69 86 133.38 86 131 86 C131 85.34 131 84.68 131 84 C128.03 84 125.06 84 122 84 C122 83.34 122 82.68 122 82 C115.73 81.67 109.46 81.34 103 81 C103 80.34 103 79.68 103 79 C99.7 79 96.4 79 93 79 C93 78.34 93 77.68 93 77 C89.04 77 85.08 77 81 77 C81 76.34 81 75.68 81 75 C80.10023438 75.01160156 79.20046875 75.02320313 78.2734375 75.03515625 C66.49196914 75.1177918 54.76400456 74.61162413 43 74 C43 73.34 43 72.68 43 72 C33.43 72 23.86 72 14 72 C14 72.66 14 73.32 14 74 C5.585 74.495 5.585 74.495 -3 75 C-3 75.66 -3 76.32 -3 77 C-4.65 77 -6.3 77 -8 77 C-8 77.66 -8 78.32 -8 79 C-9.65 79 -11.3 79 -13 79 C-13 79.66 -13 80.32 -13 81 C-13.639375 81.12375 -14.27875 81.2475 -14.9375 81.375 C-15.618125 81.58125 -16.29875 81.7875 -17 82 C-17.33 82.66 -17.66 83.32 -18 84 C-19.32 84 -20.64 84 -22 84 C-22 84.66 -22 85.32 -22 86 C-22.99 86 -23.98 86 -25 86 C-25 86.66 -25 87.32 -25 88 C-26.32 88.33 -27.64 88.66 -29 89 C-29 89.66 -29 90.32 -29 91 C-29.99 91 -30.98 91 -32 91 C-32 91.66 -32 92.32 -32 93 C-32.66 93 -33.32 93 -34 93 C-34 93.66 -34 94.32 -34 95 C-35.375 96.625 -35.375 96.625 -37 98 C-37.66 98 -38.32 98 -39 98 C-39 98.66 -39 99.32 -39 100 C-39.66 100 -40.32 100 -41 100 C-41 100.99 -41 101.98 -41 103 C-41.66 103 -42.32 103 -43 103 C-43.495 104.98 -43.495 104.98 -44 107 C-44.66 107 -45.32 107 -46 107 C-46 107.99 -46 108.98 -46 110 C-46.66 110 -47.32 110 -48 110 C-48 110.66 -48 111.32 -48 112 C-48.66 112 -49.32 112 -50 112 C-50.33 114.31 -50.66 116.62 -51 119 C-51.66 119 -52.32 119 -53 119 C-53 119.99 -53 120.98 -53 122 C-53.66 122 -54.32 122 -55 122 C-55.33 124.97 -55.66 127.94 -56 131 C-56.66 131 -57.32 131 -58 131 C-58 131.99 -58 132.98 -58 134 C-58.66 134 -59.32 134 -60 134 C-60 135.65 -60 137.3 -60 139 C-60.66 139 -61.32 139 -62 139 C-62.33 143.62 -62.66 148.24 -63 153 C-63.66 153 -64.32 153 -65 153 C-65 155.97 -65 158.94 -65 162 C-65.66 162 -66.32 162 -67 162 C-67 165.3 -67 168.6 -67 172 C-67.66 172 -68.32 172 -69 172 C-69 201.04 -69 230.08 -69 260 C-68.34 260 -67.68 260 -67 260 C-67 264.95 -67 269.9 -67 275 C-66.34 275 -65.68 275 -65 275 C-65 279.62 -65 284.24 -65 289 C-64.34 289 -63.68 289 -63 289 C-62.14626761 296.02804699 -61.87890689 302.92278069 -62 310 C-61.34 310 -60.68 310 -60 310 C-60 313.3 -60 316.6 -60 320 C-59.34 320 -58.68 320 -58 320 C-58 322.97 -58 325.94 -58 329 C-57.34 329 -56.68 329 -56 329 C-55.1679418 334.72040011 -54.87963336 340.22240116 -55 346 C-54.34 346 -53.68 346 -53 346 C-53 348.31 -53 350.62 -53 353 C-52.34 353 -51.68 353 -51 353 C-50.505 359.93 -50.505 359.93 -50 367 C-49.34 367 -48.68 367 -48 367 C-48 369.64 -48 372.28 -48 375 C-47.34 375 -46.68 375 -46 375 C-46 377.31 -46 379.62 -46 382 C-45.34 382 -44.68 382 -44 382 C-43.67 386.29 -43.34 390.58 -43 395 C-42.34 395 -41.68 395 -41 395 C-41 396.98 -41 398.96 -41 401 C-40.34 401 -39.68 401 -39 401 C-39 402.98 -39 404.96 -39 407 C-38.34 407 -37.68 407 -37 407 C-36.67 411.29 -36.34 415.58 -36 420 C-35.34 420 -34.68 420 -34 420 C-34 422.31 -34 424.62 -34 427 C-34.66 427 -35.32 427 -36 427 C-36.33 428.65 -36.66 430.3 -37 432 C-40.3 432 -43.6 432 -47 432 C-47 431.34 -47 430.68 -47 430 C-47.66 430 -48.32 430 -49 430 C-49.33 428.35 -49.66 426.7 -50 425 C-50.66 425 -51.32 425 -52 425 C-52 424.34 -52 423.68 -52 423 C-52.66 423 -53.32 423 -54 423 C-54 422.01 -54 421.02 -54 420 C-54.66 420 -55.32 420 -56 420 C-56.33 418.68 -56.66 417.36 -57 416 C-57.66 416 -58.32 416 -59 416 C-59 415.01 -59 414.02 -59 413 C-59.66 413 -60.32 413 -61 413 C-61 412.34 -61 411.68 -61 411 C-61.66 411 -62.32 411 -63 411 C-63.33 409.35 -63.66 407.7 -64 406 C-64.66 406 -65.32 406 -66 406 C-66 404.68 -66 403.36 -66 402 C-67.32 401.67 -68.64 401.34 -70 401 C-70.33 399.02 -70.66 397.04 -71 395 C-71.66 395 -72.32 395 -73 395 C-73 394.01 -73 393.02 -73 392 C-73.66 392 -74.32 392 -75 392 C-75.33 390.35 -75.66 388.7 -76 387 C-76.66 387 -77.32 387 -78 387 C-78 386.34 -78 385.68 -78 385 C-78.66 385 -79.32 385 -80 385 C-80 384.01 -80 383.02 -80 382 C-80.66 382 -81.32 382 -82 382 C-82.33 380.02 -82.66 378.04 -83 376 C-84.32 375.67 -85.64 375.34 -87 375 C-87 373.68 -87 372.36 -87 371 C-87.66 371 -88.32 371 -89 371 C-89.33 369.35 -89.66 367.7 -90 366 C-90.66 366 -91.32 366 -92 366 C-92 365.01 -92 364.02 -92 363 C-92.66 363 -93.32 363 -94 363 C-94.33 361.02 -94.66 359.04 -95 357 C-95.66 357 -96.32 357 -97 357 C-97 356.01 -97 355.02 -97 354 C-97.66 354 -98.32 354 -99 354 C-99 353.01 -99 352.02 -99 351 C-99.66 351 -100.32 351 -101 351 C-101.33 349.02 -101.66 347.04 -102 345 C-102.66 345 -103.32 345 -104 345 C-104 344.01 -104 343.02 -104 342 C-104.66 342 -105.32 342 -106 342 C-106 341.34 -106 340.68 -106 340 C-106.66 340 -107.32 340 -108 340 C-108.495 336.535 -108.495 336.535 -109 333 C-109.66 333 -110.32 333 -111 333 C-111 332.01 -111 331.02 -111 330 C-111.66 330 -112.32 330 -113 330 C-113.495 326.535 -113.495 326.535 -114 323 C-114.66 323 -115.32 323 -116 323 C-116 321.68 -116 320.36 -116 319 C-116.66 319 -117.32 319 -118 319 C-118 318.01 -118 317.02 -118 316 C-118.66 316 -119.32 316 -120 316 C-120.33 314.35 -120.66 312.7 -121 311 C-121.66 311 -122.32 311 -123 311 C-123 309.68 -123 308.36 -123 307 C-123.66 307 -124.32 307 -125 307 C-125 305.35 -125 303.7 -125 302 C-125.66 302 -126.32 302 -127 302 C-127.495 298.535 -127.495 298.535 -128 295 C-128.66 295 -129.32 295 -130 295 C-130 294.01 -130 293.02 -130 292 C-130.66 292 -131.32 292 -132 292 C-132 290.68 -132 289.36 -132 288 C-132.66 288 -133.32 288 -134 288 C-134.495 284.04 -134.495 284.04 -135 280 C-135.66 280 -136.32 280 -137 280 C-137 278.68 -137 277.36 -137 276 C-137.66 276 -138.32 276 -139 276 C-139.33 273.03 -139.66 270.06 -140 267 C-140.66 267 -141.32 267 -142 267 C-142 266.01 -142 265.02 -142 264 C-142.66 264 -143.32 264 -144 264 C-144 262.35 -144 260.7 -144 259 C-144.66 259 -145.32 259 -146 259 C-146.33 255.37 -146.66 251.74 -147 248 C-147.66 248 -148.32 248 -149 248 C-149 246.35 -149 244.7 -149 243 C-149.66 243 -150.32 243 -151 243 C-151 241.35 -151 239.7 -151 238 C-151.66 238 -152.32 238 -153 238 C-153.495 233.05 -153.495 233.05 -154 228 C-154.66 228 -155.32 228 -156 228 C-156 225.69 -156 223.38 -156 221 C-156.66 221 -157.32 221 -158 221 C-158.91657981 215.61509359 -159.11138159 210.45769811 -159 205 C-159.66 205 -160.32 205 -161 205 C-161 202.36 -161 199.72 -161 197 C-161.66 197 -162.32 197 -163 197 C-163 192.71 -163 188.42 -163 184 C-163.66 184 -164.32 184 -165 184 C-165 166.18 -165 148.36 -165 130 C-164.34 130 -163.68 130 -163 130 C-163 126.37 -163 122.74 -163 119 C-162.34 119 -161.68 119 -161 119 C-161 117.02 -161 115.04 -161 113 C-160.34 113 -159.68 113 -159 113 C-158.67 109.37 -158.34 105.74 -158 102 C-157.34 102 -156.68 102 -156 102 C-156 100.35 -156 98.7 -156 97 C-155.34 97 -154.68 97 -154 97 C-153.67 94.69 -153.34 92.38 -153 90 C-152.34 90 -151.68 90 -151 90 C-151 89.01 -151 88.02 -151 87 C-150.34 87 -149.68 87 -149 87 C-149 85.68 -149 84.36 -149 83 C-148.34 83 -147.68 83 -147 83 C-146.67 80.69 -146.34 78.38 -146 76 C-144.02 75.505 -144.02 75.505 -142 75 C-142 73.68 -142 72.36 -142 71 C-141.34 71 -140.68 71 -140 71 C-139.505 69.515 -139.505 69.515 -139 68 C-138.34 68 -137.68 68 -137 68 C-137 66.68 -137 65.36 -137 64 C-136.34 64 -135.68 64 -135 64 C-134.67 63.01 -134.34 62.02 -134 61 C-133.34 61 -132.68 61 -132 61 C-132 60.34 -132 59.68 -132 59 C-131.34 59 -130.68 59 -130 59 C-130 58.34 -130 57.68 -130 57 C-129.34 57 -128.68 57 -128 57 C-127.67 56.01 -127.34 55.02 -127 54 C-126.34 54 -125.68 54 -125 54 C-125 53.34 -125 52.68 -125 52 C-124.34 52 -123.68 52 -123 52 C-123 51.34 -123 50.68 -123 50 C-121.625 48.375 -121.625 48.375 -120 47 C-119.34 47 -118.68 47 -118 47 C-118 46.34 -118 45.68 -118 45 C-117.34 45 -116.68 45 -116 45 C-116 44.34 -116 43.68 -116 43 C-113.525 42.505 -113.525 42.505 -111 42 C-111 41.34 -111 40.68 -111 40 C-110.34 40 -109.68 40 -109 40 C-109 39.34 -109 38.68 -109 38 C-108.01 38 -107.02 38 -106 38 C-106 37.34 -106 36.68 -106 36 C-103.525 35.505 -103.525 35.505 -101 35 C-101 34.34 -101 33.68 -101 33 C-100.34 33 -99.68 33 -99 33 C-99 32.34 -99 31.68 -99 31 C-96.69 30.67 -94.38 30.34 -92 30 C-92 29.34 -92 28.68 -92 28 C-91.34 28 -90.68 28 -90 28 C-90 27.34 -90 26.68 -90 26 C-89.01 26 -88.02 26 -87 26 C-87 25.34 -87 24.68 -87 24 C-84.69 23.67 -82.38 23.34 -80 23 C-80 22.34 -80 21.68 -80 21 C-78.35 21 -76.7 21 -75 21 C-75 20.34 -75 19.68 -75 19 C-73.68 19 -72.36 19 -71 19 C-71 18.34 -71 17.68 -71 17 C-67.04 16.505 -67.04 16.505 -63 16 C-63 15.34 -63 14.68 -63 14 C-61.02 14 -59.04 14 -57 14 C-57 13.34 -57 12.68 -57 12 C-53.7 11.67 -50.4 11.34 -47 11 C-47 10.34 -47 9.68 -47 9 C-44.69 9 -42.38 9 -40 9 C-40 8.34 -40 7.68 -40 7 C-37.69 7 -35.38 7 -33 7 C-33 6.34 -33 5.68 -33 5 C-26.62641289 4.03794912 -20.44070471 3.89344422 -14 4 C-14 3.34 -14 2.68 -14 2 C-9.38 2 -4.76 2 0 2 C0 1.34 0 0.68 0 0 Z " fill="#B8182C" transform="translate(178,53)"/>
<path d="M0 0 C0 3 0 3 -2 5.1875 C-2.66 5.785625 -3.32 6.38375 -4 7 C-3.43628586 3.73045798 -2.50037734 2.17424117 0 0 Z M-6 7 C-5.34 7.33 -4.68 7.66 -4 8 C-5.375 10 -5.375 10 -7 12 C-7.66 12 -8.32 12 -9 12 C-7.125 8.125 -7.125 8.125 -6 7 Z " fill="#A71121" transform="translate(35,159)"/>
</svg>
