<?xml version="1.0" encoding="UTF-8"?>
<svg version="1.1" xmlns="http://www.w3.org/2000/svg" width="512" height="512">
<path d="M0 0 C2.75798228 1.88134074 5.30246458 4.00015922 7.875 6.125 C75.96533277 60.63819522 164.30149701 87.48017686 265.1953125 110.23730469 C266.21882813 110.45805664 267.24234375 110.67880859 268.296875 110.90625 C269.18729492 111.09509766 270.07771484 111.28394531 270.99511719 111.47851562 C273 112 273 112 274 113 C274.15620555 114.41327947 274.25056173 115.8335459 274.31640625 117.25390625 C274.35830078 118.10791016 274.40019531 118.96191406 274.44335938 119.84179688 C274.50233398 121.18854492 274.50233398 121.18854492 274.5625 122.5625 C274.60568359 123.46419922 274.64886719 124.36589844 274.69335938 125.29492188 C274.79977984 127.52975156 274.90042481 129.76485486 275 132 C278.96 132.99 282.92 133.98 287 135 C287.14549186 140.36694716 287.28772981 145.73396839 287.42724609 151.10107422 C287.47490405 152.91815386 287.52337619 154.73521237 287.57275391 156.55224609 C287.71595626 161.8331982 287.83545073 167.11396306 287.93701172 172.39587402 C287.99994313 174.99764878 288.10108099 177.5959493 288.20703125 180.19628906 C288.25346064 181.82093929 288.29907186 183.44561317 288.34375 185.0703125 C288.40375183 186.18537674 288.40375183 186.18537674 288.46496582 187.32296753 C288.50585938 189.41455078 288.50585938 189.41455078 288 193 C287.17293045 193.55432709 286.3458609 194.10865417 285.49372864 194.67977905 C282.59738149 196.88358792 282.59738149 196.88358792 282.46842957 200.89294434 C282.48493533 202.49875597 282.52897881 204.1044244 282.59448242 205.70898438 C282.6096994 206.58762146 282.62491638 207.46625854 282.64059448 208.371521 C282.675237 210.27928109 282.72053259 212.18687062 282.77519798 214.09416199 C282.85624057 217.12259164 282.89677913 220.1489849 282.92463684 223.17834473 C283.00648985 231.78984679 283.12395695 240.39902074 283.35961914 249.0078125 C283.5009685 254.27807455 283.56297413 259.54440974 283.57552528 264.81648254 C283.59530956 266.81666179 283.64429626 268.81678898 283.72405052 270.81547546 C284.31642137 286.03385362 284.31642137 286.03385362 280.42671204 291.01457405 C276.63509282 294.6331946 272.40376507 297.381248 267.85034847 299.94545078 C265.55959881 301.25099312 263.45967061 302.75947926 261.3515625 304.33984375 C260.1109421 305.20797298 258.86879398 306.07392379 257.625 306.9375 C249.44760377 312.66576559 241.35096029 318.50098272 233.26611328 324.35888672 C229.513552 327.07648173 225.75656581 329.78794473 222 332.5 C220.49997854 333.58330362 218.99997854 334.66663696 217.5 335.75 C214.5 337.91666667 211.5 340.08333333 208.5 342.25 C207.75717773 342.7864917 207.01435547 343.3229834 206.24902344 343.87573242 C204.75231299 344.95667191 203.25556832 346.03756401 201.75878906 347.1184082 C197.95817363 349.8629754 194.15819702 352.60841966 190.359375 355.35546875 C183.03473968 360.65098213 175.70317074 365.9357873 168.3425293 371.18115234 C162.64479604 375.24520071 156.9731203 379.34518004 151.30273438 383.44726562 C149.8772991 384.47824082 148.44852526 385.50461915 147.01611328 386.52587891 C145.69198081 387.49404454 144.3917947 388.49601362 143.12060547 389.53271484 C138.71859862 393.03428377 138.71859862 393.03428377 135.42089844 392.87695312 C130.73313969 391.67523821 126.38673092 389.88058007 121.92578125 388.01953125 C120.94295166 387.61553101 119.96012207 387.21153076 118.94750977 386.79528809 C116.83569217 385.92649083 114.72501948 385.05490638 112.61538696 384.18081665 C108.13556877 382.32492213 103.65010678 380.48286302 99.1648407 378.6401825 C96.90863903 377.7131992 94.65270837 376.78555602 92.39704895 375.85725403 C83.72301655 372.2890624 75.02758622 368.77897207 66.3125 365.3125 C50.41968882 358.98166709 34.55241156 352.5878462 18.6875 346.1875 C17.35036329 345.64809896 16.01322543 345.10870078 14.67608643 344.56930542 C9.23078972 342.37265989 3.78555152 340.17586941 -1.65957642 337.97880554 C-12.33323441 333.67209593 -23.00774503 329.36750403 -33.68263245 325.06384277 C-34.97925842 324.5410975 -36.27588419 324.01835173 -37.57250977 323.49560547 C-38.21253968 323.23757267 -38.8525696 322.97953987 -39.51199436 322.7136879 C-44.01195109 320.899454 -48.51175349 319.08483771 -53.01147461 317.27001953 C-55.56884574 316.23860202 -58.12621914 315.20719013 -60.68359375 314.17578125 C-61.31377851 313.92161942 -61.94396328 313.66745758 -62.59324455 313.40559387 C-70.34175553 310.28059971 -78.09095379 307.15731971 -85.84114361 304.03649139 C-91.00543916 301.95693599 -96.16937361 299.87648572 -101.33306599 297.79543304 C-104.34833808 296.58029502 -107.36386493 295.36579619 -110.37979126 294.15228271 C-113.70945624 292.81247607 -117.03838668 291.47085824 -120.3671875 290.12890625 C-121.75605919 289.57084541 -121.75605919 289.57084541 -123.17298889 289.00151062 C-134.49136397 284.43406266 -145.73141221 279.69524491 -157 275 C-157 245.63 -157 216.26 -157 186 C-151 183 -151 183 -149 183 C-149 166.5 -149 150 -149 133 C-145.7 131.35 -142.4 129.7 -139 128 C-142.36509333 125.22014029 -145.78837503 122.79370082 -149.5 120.5 C-151.34856827 119.35762635 -153.18231353 118.19089803 -155 117 C-155.86302734 116.45891602 -156.72605469 115.91783203 -157.61523438 115.36035156 C-160.75234148 112.25536062 -160.82262482 109.6544145 -160.875 105.453125 C-160.89401367 104.72309265 -160.91302734 103.9930603 -160.93261719 103.24090576 C-160.9622561 101.69791202 -160.97822747 100.15460315 -160.98144531 98.61132812 C-160.99986887 96.26668797 -161.10331532 93.93576666 -161.2109375 91.59375 C-161.45530426 80.76723671 -161.45530426 80.76723671 -157.82104492 76.35400391 C-154.9812408 74.25915236 -152.13372445 72.61688197 -149 71 C-147.38355926 69.96872922 -145.77494096 68.9250572 -144.17578125 67.8671875 C-142.5581659 66.8641601 -140.93694278 65.86693198 -139.3125 64.875 C-138.41805176 64.32642334 -137.52360352 63.77784668 -136.60205078 63.21264648 C-133.74029609 61.46566521 -130.87179523 59.73042213 -128 58 C-127.05398926 57.42942871 -126.10797852 56.85885742 -125.13330078 56.27099609 C-109.42649493 46.84478176 -93.37468409 38.20665986 -77 30 C-76.11607574 29.55627045 -76.11607574 29.55627045 -75.21429443 29.10357666 C-58.42085631 20.68320968 -41.42891734 12.97887252 -23.91845703 6.14257812 C-21.24910848 5.09752616 -18.5904812 4.02935966 -15.93359375 2.953125 C-14.49793976 2.38404255 -13.06178963 1.81620911 -11.625 1.25 C-10.44164062 0.78078125 -9.25828125 0.3115625 -8.0390625 -0.171875 C-4.60493485 -1.10765271 -3.298136 -1.30926005 0 0 Z " fill="#38C887" transform="translate(192,60)"/>
<path d="M0 0 C2.75798228 1.88134074 5.30246458 4.00015922 7.875 6.125 C46.38913421 36.95945816 92.1289869 57.74839177 138 75 C138 75.66 138 76.32 138 77 C136.58911133 78.25830078 136.58911133 78.25830078 134.58203125 79.6953125 C133.83308594 80.23800781 133.08414062 80.78070313 132.3125 81.33984375 C131.4875 81.92894531 130.6625 82.51804687 129.8125 83.125 C128.05742772 84.39682998 126.30356404 85.6703291 124.55078125 86.9453125 C123.17720459 87.94353027 123.17720459 87.94353027 121.77587891 88.96191406 C117.30306545 92.24591114 112.90251451 95.62267236 108.5 99 C101.11426818 104.65441483 93.66803651 110.21471573 86.1640625 115.7109375 C80.22328567 120.07277032 74.3524674 124.52054548 68.5 129 C61.12440829 134.64524761 53.69006353 140.19864847 46.19702148 145.68676758 C37.40207743 152.14427085 28.74042594 158.77617102 20.08032227 165.4128418 C19.39381592 165.936604 18.70730957 166.46036621 18 167 C17.29222412 167.56307861 16.58444824 168.12615723 15.85522461 168.70629883 C14 170 14 170 12 170 C12 194.09 12 218.18 12 243 C14.97 243.66 17.94 244.32 21 245 C20 248 20 248 16.98580933 249.63702393 C13.94119756 251.59046272 13.94119756 251.59046272 13.43448257 253.81105804 C13.22000261 256.16034527 13.19258808 258.44860472 13.22705078 260.80761719 C13.21642105 261.69577621 13.20579132 262.58393524 13.19483948 263.49900818 C13.16675328 266.43220434 13.18085671 269.36360549 13.1953125 272.296875 C13.18406454 274.33141657 13.17018486 276.36594515 13.15377808 278.40045166 C13.11768754 283.75339377 13.11737324 289.10576535 13.12445068 294.45880127 C13.12536249 299.92185725 13.09252071 305.38469816 13.0625 310.84765625 C13.00858837 321.5651639 12.99246192 332.28237177 13 343 C6.36204387 341.12503592 -0.00788296 338.91771848 -6.37109375 336.26171875 C-7.67037811 335.72655136 -7.67037811 335.72655136 -8.99591064 335.18057251 C-10.84815076 334.41720296 -12.69954197 333.65177082 -14.55014038 332.88442993 C-19.51361905 330.82686282 -24.48383241 328.78566332 -29.453125 326.7421875 C-30.44998825 326.33178726 -31.4468515 325.92138702 -32.47392273 325.49855042 C-40.85751229 322.04992437 -49.26506782 318.66492246 -57.6875 315.3125 C-72.27379353 309.49968917 -86.84340057 303.64575108 -101.40615845 297.77426147 C-103.88128552 296.77636047 -106.35673794 295.7792798 -108.83236694 294.78262329 C-112.36147844 293.36171894 -115.88980841 291.93888923 -119.41796875 290.515625 C-120.93565857 289.90508522 -120.93565857 289.90508522 -122.48400879 289.2822113 C-134.03134469 284.61861605 -145.50194804 279.79085498 -157 275 C-157 245.63 -157 216.26 -157 186 C-151 183 -151 183 -149 183 C-149 166.5 -149 150 -149 133 C-145.7 131.35 -142.4 129.7 -139 128 C-142.36509333 125.22014029 -145.78837503 122.79370082 -149.5 120.5 C-151.34856827 119.35762635 -153.18231353 118.19089803 -155 117 C-155.86302734 116.45891602 -156.72605469 115.91783203 -157.61523438 115.36035156 C-160.75234148 112.25536062 -160.82262482 109.6544145 -160.875 105.453125 C-160.89401367 104.72309265 -160.91302734 103.9930603 -160.93261719 103.24090576 C-160.9622561 101.69791202 -160.97822747 100.15460315 -160.98144531 98.61132812 C-160.99986887 96.26668797 -161.10331532 93.93576666 -161.2109375 91.59375 C-161.45530426 80.76723671 -161.45530426 80.76723671 -157.82104492 76.35400391 C-154.9812408 74.25915236 -152.13372445 72.61688197 -149 71 C-147.38355926 69.96872922 -145.77494096 68.9250572 -144.17578125 67.8671875 C-142.5581659 66.8641601 -140.93694278 65.86693198 -139.3125 64.875 C-138.41805176 64.32642334 -137.52360352 63.77784668 -136.60205078 63.21264648 C-133.74029609 61.46566521 -130.87179523 59.73042213 -128 58 C-127.05398926 57.42942871 -126.10797852 56.85885742 -125.13330078 56.27099609 C-109.42649493 46.84478176 -93.37468409 38.20665986 -77 30 C-76.11607574 29.55627045 -76.11607574 29.55627045 -75.21429443 29.10357666 C-58.42085631 20.68320968 -41.42891734 12.97887252 -23.91845703 6.14257812 C-21.24910848 5.09752616 -18.5904812 4.02935966 -15.93359375 2.953125 C-14.49793976 2.38404255 -13.06178963 1.81620911 -11.625 1.25 C-10.44164062 0.78078125 -9.25828125 0.3115625 -8.0390625 -0.171875 C-4.60493485 -1.10765271 -3.298136 -1.30926005 0 0 Z " fill="#39C988" transform="translate(192,60)"/>
<path d="M0 0 C4.8137356 3.57061541 9.53211948 7.22377245 14.1875 11 C49.0243024 38.71605709 90.68704614 58.08313162 131 76 C131.33 100.42 131.66 124.84 132 150 C133.65 150.66 135.3 151.32 137 152 C135.71034824 153.37562854 134.37310707 154.70766393 133 156 C132.34 156 131.68 156 131 156 C131 186.03 131 216.06 131 247 C125.03397245 245.21019174 119.60962134 243.5665144 113.93359375 241.234375 C113.2817511 240.96833969 112.62990845 240.70230438 111.95831299 240.4282074 C110.53481134 239.8466761 109.11215809 239.26306455 107.6902771 238.67758179 C104.52547569 237.37447366 101.35653943 236.08155638 98.18782043 234.78800964 C96.41840726 234.06568385 94.64919773 233.34285906 92.88017273 232.61958313 C85.17441124 229.47144188 77.45597244 226.35515671 69.734375 223.24609375 C68.4830352 222.74210119 67.23169752 222.23810337 65.98036194 221.73410034 C61.00818451 219.73167972 56.03579707 217.72978384 51.06271362 215.72961426 C47.54518151 214.31455431 44.02839979 212.89764222 40.51171875 211.48046875 C39.50610901 211.07654404 38.50049927 210.67261932 37.4644165 210.25645447 C25.93223631 205.60597276 14.48081338 200.78367224 3 196 C3 166.63 3 137.26 3 107 C9 104 9 104 11 104 C11 87.5 11 71 11 54 C15.95 51.525 15.95 51.525 21 49 C17.63490667 46.22014029 14.21162497 43.79370082 10.5 41.5 C8.65143173 40.35762635 6.81768647 39.19089803 5 38 C4.12899658 37.4647168 3.25799316 36.92943359 2.3605957 36.37792969 C-0.34468929 33.65277964 -0.56857827 32.13874066 -0.56648254 28.36297607 C-0.54067612 27.63991272 -0.51486969 26.91684937 -0.48828125 26.171875 C-0.48120651 25.42286926 -0.47413177 24.67386353 -0.46684265 23.90216064 C-0.43892138 21.51707763 -0.37619535 19.13436944 -0.3125 16.75 C-0.28741382 15.13024232 -0.2646012 13.51044772 -0.24414062 11.890625 C-0.18910325 7.92617261 -0.10285322 3.96348847 0 0 Z " fill="#39C987" transform="translate(32,139)"/>
<path d="M0 0 C2.3657031 0.73456408 4.71646664 1.51809967 7.0546875 2.3359375 C8.46621783 2.82308223 9.87801481 3.30945482 11.29003906 3.79516602 C12.03419067 4.05226349 12.77834229 4.30936096 13.54504395 4.57424927 C51.14794593 17.4974764 89.96467398 27.45059702 129 35 C121.26691769 43.24862113 111.81082133 49.64977372 102.72607422 56.30249023 C96.59665158 60.79917681 90.53557411 65.37828969 84.5 70 C77.11372043 75.6537122 69.66805171 81.2147046 62.1640625 86.7109375 C56.22328253 91.07277263 50.35257477 95.52068204 44.5 100 C36.97858687 105.75431745 29.42288356 111.45575483 21.76635742 117.02954102 C18.0430665 119.7404306 14.36416108 122.4814061 10.76171875 125.3515625 C10.09317871 125.87322998 9.42463867 126.39489746 8.73583984 126.93237305 C7.4991582 127.90014943 6.27543899 128.88485031 5.06884766 129.88989258 C1.93354252 132.31246212 0.35224265 133.02367958 -3.64257812 132.75512695 C-8.21174913 132.04896838 -12.65096525 130.9296606 -17.11328125 129.734375 C-18.41885735 129.39028595 -18.41885735 129.39028595 -19.75080872 129.03924561 C-22.60663157 128.28319384 -25.45978255 127.5176813 -28.3125 126.75 C-29.30030457 126.48533936 -30.28810913 126.22067871 -31.30584717 125.94799805 C-59.84931249 118.28389356 -88.13940752 109.81800538 -116.125 100.3125 C-116.88572815 100.05597656 -117.6464563 99.79945313 -118.43023682 99.53515625 C-120.54255077 98.81991455 -122.65079071 98.09394464 -124.7578125 97.36328125 C-126.53889404 96.74900269 -126.53889404 96.74900269 -128.35595703 96.12231445 C-131 95 -131 95 -132 93 C-131.53440674 92.6596875 -131.06881348 92.319375 -130.58911133 91.96875 C-121.15782657 85.06708243 -111.78030408 78.10367769 -102.5 71 C-95.11360554 65.34643428 -87.66805513 59.7852979 -80.1640625 54.2890625 C-74.22328567 49.92722968 -68.3524674 45.47945452 -62.5 41 C-55.12314133 35.35378266 -47.68855769 29.79795176 -40.19262695 24.31103516 C-33.06393732 19.07939436 -26.03516118 13.72033695 -19.02734375 8.328125 C-17.40172314 7.08114273 -15.77102019 5.8407458 -14.13427734 4.60839844 C-12.83480326 3.62911049 -11.54556193 2.6357803 -10.27587891 1.61816406 C-6.46160337 -1.27252514 -4.54908054 -1.02774894 0 0 Z " fill="#39C988" transform="translate(336,137)"/>
<path d="M0 0 C0.66 0 1.32 0 2 0 C2.37194708 11.78696915 2.65560696 23.57252737 2.82899475 35.36418533 C2.91225091 40.84093775 3.02498759 46.313656 3.20703125 51.78808594 C3.38186798 57.07936386 3.47673436 62.36678378 3.51803589 67.66072845 C3.54743284 69.67217519 3.60485204 71.68342763 3.69168091 73.69321442 C4.32659381 89.00902767 4.32659381 89.00902767 0.42811203 94.02075386 C-3.36083093 97.64383622 -7.59177411 100.38837607 -12.14895916 102.94771671 C-14.44130631 104.25087467 -16.54054904 105.75890657 -18.6484375 107.33984375 C-19.8890579 108.20797298 -21.13120602 109.07392379 -22.375 109.9375 C-30.55239623 115.66576559 -38.64903971 121.50098272 -46.73388672 127.35888672 C-50.486448 130.07648173 -54.24343419 132.78794473 -58 135.5 C-59.50002146 136.58330362 -61.00002146 137.66663696 -62.5 138.75 C-65.5 140.91666667 -68.5 143.08333333 -71.5 145.25 C-72.6142334 146.05473755 -72.6142334 146.05473755 -73.75097656 146.87573242 C-75.24768701 147.95667191 -76.74443168 149.03756401 -78.24121094 150.1184082 C-82.04182637 152.8629754 -85.84180298 155.60841966 -89.640625 158.35546875 C-96.9657208 163.65131504 -104.29526567 168.94005521 -111.65966797 174.18115234 C-114.98098286 176.54776893 -118.28821018 178.93263155 -121.5859375 181.33203125 C-122.38 181.90888672 -123.1740625 182.48574219 -123.9921875 183.08007812 C-125.53287909 184.20023669 -127.07204959 185.3224917 -128.609375 186.44726562 C-129.32351563 186.96611328 -130.03765625 187.48496094 -130.7734375 188.01953125 C-131.70808838 188.70172729 -131.70808838 188.70172729 -132.66162109 189.39770508 C-134.79292302 190.85810752 -136.95335373 192.23465397 -139.14614868 193.60014343 C-139.86754847 194.04974772 -140.58894825 194.49935202 -141.33220863 194.96258068 C-141.88257978 195.30492906 -142.43295094 195.64727743 -143 196 C-143.37190043 183.9522393 -143.65558508 171.90585812 -143.82899475 159.85351181 C-143.9122599 154.25573783 -144.02501702 148.66190903 -144.20703125 143.06640625 C-144.38182993 137.65842744 -144.47672762 132.25422241 -144.51803589 126.84363556 C-144.5474391 124.78754494 -144.60487004 122.73164501 -144.69168091 120.67717743 C-145.3262043 105.02766655 -145.3262043 105.02766655 -141.43925285 99.96861267 C-137.67248495 96.34280907 -133.45667757 93.62340119 -128.90642929 91.08310604 C-126.35412323 89.63305587 -124.01767822 87.93212726 -121.66015625 86.1875 C-120.12948187 85.12229669 -118.59695288 84.05975304 -117.0625 83 C-115.35789092 81.81406363 -113.65346694 80.62786118 -111.94921875 79.44140625 C-111.11825684 78.86406738 -110.28729492 78.28672852 -109.43115234 77.69189453 C-105.73627017 75.1205415 -102.05351354 72.53220036 -98.375 69.9375 C-97.34234009 69.2093811 -97.34234009 69.2093811 -96.28881836 68.46655273 C-91.20442737 64.87242454 -86.16227113 61.22224283 -81.125 57.5625 C-74.92456579 53.05915433 -68.65286641 48.67891858 -62.3125 44.375 C-56.03555166 40.11394577 -49.86133434 35.75108974 -43.76831055 31.23168945 C-36.13084189 25.58412947 -28.31380929 20.19200889 -20.52197266 14.76074219 C-16.44441792 11.91395373 -12.37711264 9.05272588 -8.3125 6.1875 C-7.58756348 5.67775635 -6.86262695 5.1680127 -6.11572266 4.64282227 C-2.91925206 2.49171566 -2.91925206 2.49171566 0 0 Z " fill="#27AE6D" transform="translate(472,257)"/>
<path d="M0 0 C7.73979523 2.44720214 15.18959773 5.45977916 22.6875 8.5625 C25.06566769 9.54475881 27.44455021 10.52528908 29.82421875 11.50390625 C30.86666748 11.93517822 31.90911621 12.3664502 32.9831543 12.81079102 C35.95953957 13.98405092 38.95600702 15.0171772 42 16 C42 16.66 42 17.32 42 18 C40.58911133 19.25830078 40.58911133 19.25830078 38.58203125 20.6953125 C37.83308594 21.23800781 37.08414063 21.78070313 36.3125 22.33984375 C35.4875 22.92894531 34.6625 23.51804688 33.8125 24.125 C32.05742772 25.39682998 30.30356404 26.6703291 28.55078125 27.9453125 C27.17720459 28.94353027 27.17720459 28.94353027 25.77587891 29.96191406 C21.30306545 33.24591114 16.90251451 36.62267236 12.5 40 C5.11426818 45.65441483 -2.33196349 51.21471573 -9.8359375 56.7109375 C-15.77671433 61.07277032 -21.6475326 65.52054548 -27.5 70 C-34.87559171 75.64524761 -42.30993647 81.19864847 -49.80297852 86.68676758 C-58.59792257 93.14427085 -67.25957406 99.77617102 -75.91967773 106.4128418 C-76.60618408 106.936604 -77.29269043 107.46036621 -78 108 C-78.70777588 108.56307861 -79.41555176 109.12615723 -80.14477539 109.70629883 C-82 111 -82 111 -84 111 C-84 135.09 -84 159.18 -84 184 C-81.03 184.66 -78.06 185.32 -75 186 C-76 189 -76 189 -79.01419067 190.63702393 C-82.05880244 192.59046272 -82.05880244 192.59046272 -82.56551743 194.81105804 C-82.77999739 197.16034527 -82.80741192 199.44860472 -82.77294922 201.80761719 C-82.78357895 202.69577621 -82.79420868 203.58393524 -82.80516052 204.49900818 C-82.83324672 207.43220434 -82.81914329 210.36360549 -82.8046875 213.296875 C-82.81593546 215.33141657 -82.82981514 217.36594515 -82.84622192 219.40045166 C-82.88231246 224.75339377 -82.88262676 230.10576535 -82.87554932 235.45880127 C-82.87463751 240.92185725 -82.90747929 246.38469816 -82.9375 251.84765625 C-82.99141163 262.5651639 -83.00753808 273.28237177 -83 284 C-92.18490459 281.5144959 -100.84521087 277.93418739 -109.625 274.3125 C-111.1209187 273.69944249 -112.61701124 273.08680895 -114.11328125 272.47460938 C-117.74420897 270.98795073 -121.37273987 269.49558354 -125 268 C-125.09262344 256.07383939 -125.16372623 244.14776414 -125.20724869 232.22131729 C-125.22813586 226.68354857 -125.25647443 221.14602567 -125.30175781 215.60839844 C-125.3451748 210.26565887 -125.36912859 204.92315595 -125.37950897 199.5802536 C-125.38690777 197.5404462 -125.40135568 195.50065196 -125.42292023 193.46094513 C-125.45189887 190.60681527 -125.4559583 187.75366703 -125.45410156 184.89941406 C-125.46848267 184.05352722 -125.48286377 183.20764038 -125.49768066 182.33612061 C-125.45705348 176.57598943 -125.45705348 176.57598943 -122.97161865 173.44378662 C-121.99566742 172.72911224 -121.99566742 172.72911224 -121 172 C-122.32 171.34 -123.64 170.68 -125 170 C-125.43337815 160.39567392 -125.79425139 150.79206737 -126.06470966 141.1817646 C-126.19256137 136.71824149 -126.34456077 132.25837447 -126.5534668 127.79785156 C-126.75446981 123.4864928 -126.88978786 119.1774466 -126.98122215 114.86242294 C-127.02720846 113.22312446 -127.09618932 111.58429305 -127.18929482 109.94699478 C-127.8758677 97.4870719 -127.8758677 97.4870719 -124.75765419 93.35286713 C-121.24772843 89.90762497 -117.20815319 87.50015825 -113 85 C-111.19088587 83.64976431 -109.39649327 82.27916041 -107.62890625 80.875 C-99.6269456 74.74820878 -91.62133986 68.65444756 -83.37597656 62.85839844 C-77.16286809 58.46181906 -71.14825595 53.80600794 -65.10742188 49.17724609 C-59.11808903 44.59469499 -53.08279218 40.08264215 -47 35.625 C-40.59347547 30.92911471 -34.25581988 26.16131237 -27.9765625 21.296875 C-23.02554818 17.47640726 -18.01063682 13.74170931 -13 10 C-10.77005305 8.33437412 -8.54105282 6.66749052 -6.3125 5 C-5.31863281 4.2575 -4.32476562 3.515 -3.30078125 2.75 C-1.15306922 1.19797903 -1.15306922 1.19797903 0 0 Z " fill="#FECA6C" transform="translate(288,119)"/>
<path d="M0 0 C27.74180034 8.95409776 55.43462736 18.05364168 83.11541748 27.19439697 C88.54090614 28.98576839 93.96676037 30.77603192 99.39257812 32.56640625 C109.92873069 36.04322531 120.46449826 39.52120934 131 43 C128.92655929 45.28624984 127.28375169 46.86854166 124.46389771 48.17494202 C121.13758299 49.74682678 119.30281373 51.10069774 117 54 C115.02936958 60.78184893 115.69831541 68.26290643 115.8046875 75.24609375 C115.80089838 77.34360465 115.7927072 79.44111183 115.78030396 81.53858948 C115.75952621 87.04497021 115.79837823 92.54936414 115.84979248 98.05548096 C115.89171117 103.67958898 115.877045 109.30352093 115.8671875 114.92773438 C115.85618094 125.95238316 115.90818907 136.97576146 116 148 C108.9143573 146.01907981 102.15131365 143.57284365 95.359375 140.75390625 C93.87127823 140.1432003 93.87127823 140.1432003 92.3531189 139.52015686 C90.24143653 138.653015 88.13060414 137.78380074 86.02056885 136.91265869 C81.59337762 135.08502228 77.16194805 133.26777674 72.73062134 131.45019531 C70.52630324 130.54605107 68.32218003 129.64143156 66.11825562 128.73632812 C56.82682586 124.92213527 47.51321204 121.16727806 38.1812439 117.45349121 C28.32220335 113.52933218 18.46906551 109.59053704 8.6171875 105.6484375 C6.99536542 104.99958288 5.37353927 104.35073842 3.75170898 103.7019043 C-0.16557406 102.13471961 -4.08280266 100.56739891 -8 99 C-8.16216928 87.09124871 -8.28655884 75.18275992 -8.3626852 63.27312946 C-8.39922198 57.74296897 -8.44878122 52.21356369 -8.52807617 46.68383789 C-8.60411897 41.34752672 -8.64598693 36.01194199 -8.6641407 30.67513084 C-8.67707786 28.63886259 -8.70234195 26.60263425 -8.7401104 24.56667519 C-8.79091627 21.71455539 -8.7979245 18.86543874 -8.79467773 16.01293945 C-8.83242813 14.74950211 -8.83242813 14.74950211 -8.87094116 13.46054077 C-8.80133455 7.81125944 -8.80133455 7.81125944 -6.42335701 5.40382957 C-4.51283264 4.06169128 -4.51283264 4.06169128 -2.60096836 2.97220135 C-0.8210639 2.08577757 -0.8210639 2.08577757 0 0 Z " fill="#39C987" transform="translate(213,305)"/>
<path d="M0 0 C4.8137356 3.57061541 9.53211948 7.22377245 14.1875 11 C49.0243024 38.71605709 90.68704614 58.08313162 131 76 C131 100.42 131 124.84 131 150 C123.81629061 148.04080653 116.76527294 146.02227984 109.71435547 143.67773438 C108.2705954 143.20150383 108.2705954 143.20150383 106.79766846 142.71565247 C103.65327497 141.67771941 100.51022687 140.63577558 97.3671875 139.59375 C95.16252624 138.86511079 92.9577824 138.13672141 90.75296021 137.40856934 C84.97216401 135.49868182 79.19250875 133.58536442 73.41308594 131.67132568 C67.54302233 129.72797089 61.67184574 127.7879847 55.80078125 125.84765625 C47.20890286 123.00758008 38.61743715 120.16626183 30.02685547 117.32226562 C28.69870316 116.88265251 28.69870316 116.88265251 27.34371948 116.43415833 C26.08688354 116.01797493 26.08688354 116.01797493 24.80465698 115.59338379 C24.08980574 115.35669228 23.37495449 115.12000076 22.63844109 114.87613678 C18.75782216 113.58751488 14.87914613 112.29304871 11 111 C11 92.19 11 73.38 11 54 C15.95 51.525 15.95 51.525 21 49 C17.63490667 46.22014029 14.21162497 43.79370082 10.5 41.5 C8.65143173 40.35762635 6.81768647 39.19089803 5 38 C4.12899658 37.4647168 3.25799316 36.92943359 2.3605957 36.37792969 C-0.34468929 33.65277964 -0.56857827 32.13874066 -0.56648254 28.36297607 C-0.54067612 27.63991272 -0.51486969 26.91684937 -0.48828125 26.171875 C-0.48120651 25.42286926 -0.47413177 24.67386353 -0.46684265 23.90216064 C-0.43892138 21.51707763 -0.37619535 19.13436944 -0.3125 16.75 C-0.28741382 15.13024232 -0.2646012 13.51044772 -0.24414062 11.890625 C-0.18910325 7.92617261 -0.10285322 3.96348847 0 0 Z " fill="#28AF6E" transform="translate(32,139)"/>
<path d="M0 0 C5.053125 1.711875 10.10625 3.42375 15.3125 5.1875 C53.75472368 18.0453086 92.66252853 29.21264675 132 39 C131.99097656 40.29035156 131.98195313 41.58070313 131.97265625 42.91015625 C132.00081163 44.62763449 132.03086003 46.34508242 132.0625 48.0625 C132.04606445 49.33383789 132.04606445 49.33383789 132.02929688 50.63085938 C132.05721408 55.57610995 132.05721408 55.57610995 134.59533691 59.57995605 C135.54491272 60.30704773 135.54491272 60.30704773 136.51367188 61.04882812 C139.74176734 64.11667357 140.53447122 66.12913714 140.79467773 70.56811523 C140.79357827 72.73192464 140.75454055 74.89594748 140.68359375 77.05859375 C140.67368912 78.20288345 140.66378448 79.34717316 140.65357971 80.52613831 C140.61453712 84.16458769 140.52672471 87.79996959 140.4375 91.4375 C140.40237347 93.91076359 140.37043684 96.38407467 140.34179688 98.85742188 C140.26480823 104.90598642 140.14781799 110.95277405 140 117 C133.99839007 115.77567465 128.23891197 114.21457991 122.4453125 112.234375 C121.24269272 111.82998955 121.24269272 111.82998955 120.01577759 111.41743469 C118.28799193 110.83611677 116.56086702 110.25283188 114.83435059 109.66775513 C110.12999857 108.07422079 105.42019022 106.49694913 100.7109375 104.91796875 C99.25137634 104.42803688 99.25137634 104.42803688 97.7623291 103.9282074 C87.77729864 100.58077685 77.76671801 97.31365933 67.75 94.0625 C65.9964988 93.493007 64.24299946 92.92350828 62.48950195 92.35400391 C59.81351659 91.48505719 57.13747966 90.61627039 54.46131897 89.74786377 C43.0744461 86.05231407 31.69377049 82.33775906 20.3125 78.625 C13.609375 76.43875 6.90625 74.2525 0 72 C0 48.24 0 24.48 0 0 Z " fill="#28AF6E" transform="translate(204,231)"/>
<path d="M0 0 C7.73979523 2.44720214 15.18959773 5.45977916 22.6875 8.5625 C25.06566769 9.54475881 27.44455021 10.52528908 29.82421875 11.50390625 C30.86666748 11.93517822 31.90911621 12.3664502 32.9831543 12.81079102 C35.95953957 13.98405092 38.95600702 15.0171772 42 16 C42 16.66 42 17.32 42 18 C40.58911133 19.25830078 40.58911133 19.25830078 38.58203125 20.6953125 C37.83308594 21.23800781 37.08414063 21.78070313 36.3125 22.33984375 C35.4875 22.92894531 34.6625 23.51804688 33.8125 24.125 C32.05742772 25.39682998 30.30356404 26.6703291 28.55078125 27.9453125 C27.17720459 28.94353027 27.17720459 28.94353027 25.77587891 29.96191406 C21.30306545 33.24591114 16.90251451 36.62267236 12.5 40 C5.11426818 45.65441483 -2.33196349 51.21471573 -9.8359375 56.7109375 C-15.77671433 61.07277032 -21.6475326 65.52054548 -27.5 70 C-34.87685867 75.64621734 -42.31144231 81.20204824 -49.80737305 86.68896484 C-56.93606268 91.92060564 -63.96483882 97.27966305 -70.97265625 102.671875 C-72.60032152 103.92042569 -74.23610122 105.15849841 -75.88134766 106.38378906 C-77.64307008 107.72771652 -79.32411338 109.17660402 -80.98046875 110.6484375 C-85.05486862 112.47216629 -87.05831914 111.59994114 -91.15429688 110.12109375 C-92.09337891 109.75113281 -93.03246094 109.38117188 -94 109 C-95.03705078 108.61972656 -96.07410156 108.23945313 -97.14257812 107.84765625 C-100.52532935 106.59833338 -103.88828022 105.30477709 -107.25 104 C-108.96703125 103.34257812 -108.96703125 103.34257812 -110.71875 102.671875 C-115.94890066 100.65279358 -121.00897131 98.56501437 -126 96 C-122.19485649 91.99113944 -118.13767457 88.70433146 -113.6875 85.4375 C-112.24989975 84.3712289 -110.81240255 83.30481885 -109.375 82.23828125 C-108.64539063 81.69896973 -107.91578125 81.1596582 -107.1640625 80.60400391 C-104.47587366 78.61151737 -101.8022831 76.60009512 -99.12939453 74.5871582 C-92.72285252 69.76332364 -86.27815392 64.99423523 -79.8125 60.25 C-71.12810813 53.87303808 -62.55674394 47.35416634 -53.99609375 40.8125 C-43.84709264 33.05933499 -33.60485248 25.43649986 -23.3125 17.875 C-11.18869562 9.49182616 -11.18869562 9.49182616 0 0 Z " fill="#FDDD9A" transform="translate(288,119)"/>
<path d="M0 0 C2.75493548 1.88610166 5.30226234 3.99999217 7.875 6.125 C34.27599318 27.26166414 65.05190887 44.45649755 96 58 C94.61023972 61.23807089 93.071567 63.12801276 90.3125 65.3125 C89.66925781 65.84488281 89.02601563 66.37726563 88.36328125 66.92578125 C84.84794618 68.52366083 82.72131993 67.92450328 79 67 C76.16357282 65.78499366 73.49894911 64.32663581 70.8125 62.8125 C69.29496515 61.98050317 67.77673363 61.1497758 66.2578125 60.3203125 C65.15808105 59.71558105 65.15808105 59.71558105 64.03613281 59.09863281 C61.45961307 57.70842432 58.83087511 56.4451742 56.1875 55.1875 C38.64598859 46.4525433 20.00617649 35.55923413 5.27734375 22.60546875 C2.28963763 20.4992128 0.12462671 20.43529693 -3.5 20.3125 C-9.78808655 20.05539366 -9.78808655 20.05539366 -12.37231445 19.37988281 C-15.58530588 18.9153827 -17.20813561 19.51999103 -20.19921875 20.74609375 C-21.2260376 21.16286377 -22.25285645 21.57963379 -23.31079102 22.0090332 C-24.42510498 22.48042725 -25.53941895 22.95182129 -26.6875 23.4375 C-27.8643335 23.92758545 -29.04116699 24.4176709 -30.25366211 24.92260742 C-61.71963117 38.14261728 -94.1557485 52.8858129 -122.328125 72.2734375 C-125 74 -125 74 -127 74 C-126.01 75.485 -126.01 75.485 -125 77 C-124.78703747 80.904313 -124.96860155 84.24570964 -126 88 C-94.4846275 108.85699055 -61.52500656 125.79861206 -27 141 C-25.20274704 141.79732566 -23.40581458 142.59537467 -21.609375 143.39453125 C-20.41828125 143.92433594 -19.2271875 144.45414063 -18 145 C-19.61482767 146.76621776 -21.2485261 148.37626599 -23 150 C-23.49580566 150.52553467 -23.99161133 151.05106934 -24.50244141 151.5925293 C-26.6870263 153.46993594 -28.17710514 154.32889372 -31 155 C-36.49881486 153.68427564 -41.34624514 151.15870976 -46.375 148.625 C-47.85270547 147.91127998 -49.33181138 147.20045271 -50.81225586 146.49243164 C-54.53433739 144.70193348 -58.23434803 142.87013694 -61.93023682 141.02630615 C-64.97523215 139.5164245 -68.0404047 138.05075346 -71.10546875 136.58203125 C-97.83280331 123.65317319 -123.62748526 108.36901452 -147 90 C-148.04414063 89.2059375 -149.08828125 88.411875 -150.1640625 87.59375 C-151.18242187 86.7996875 -152.20078125 86.005625 -153.25 85.1875 C-154.16265625 84.47980469 -155.0753125 83.77210938 -156.015625 83.04296875 C-158 81 -158 81 -158 77 C-155.7791743 75.21382162 -153.67469093 73.78003953 -151.25 72.3125 C-150.5062915 71.84827637 -149.76258301 71.38405273 -148.99633789 70.90576172 C-147.29836982 69.85107895 -145.5956116 68.80408454 -143.88916016 67.76318359 C-140.74318841 65.84327418 -137.61210699 63.90022486 -134.48046875 61.95703125 C-119.6043233 52.76158776 -104.53065365 44.05361762 -89 36 C-88.41365784 35.6946936 -87.82731567 35.38938721 -87.22320557 35.0748291 C-66.57462705 24.32891036 -45.58780328 14.70537314 -24 6 C-22.94184082 5.57235352 -21.88368164 5.14470703 -20.79345703 4.70410156 C-18.11995984 3.63541932 -15.43941151 2.59037061 -12.75 1.5625 C-12.01225342 1.27366943 -11.27450684 0.98483887 -10.5144043 0.68725586 C-6.59698732 -0.75203565 -3.91253981 -1.62717777 0 0 Z " fill="#48E3A2" transform="translate(192,60)"/>
<path d="M0 0 C1.41153033 0.48714473 2.82332731 0.97351732 4.23535156 1.45922852 C4.97950317 1.71632599 5.72365479 1.97342346 6.49035645 2.23831177 C44.09325843 15.1615389 82.90998648 25.11465952 121.9453125 32.6640625 C114.21223019 40.91268363 104.75613383 47.31383622 95.67138672 53.96655273 C89.54196408 58.46323931 83.48088661 63.04235219 77.4453125 67.6640625 C70.05903293 73.3177747 62.61336421 78.8787671 55.109375 84.375 C49.16859503 88.73683513 43.29788727 93.18474454 37.4453125 97.6640625 C29.92389937 103.41837995 22.36819606 109.11981733 14.71166992 114.69360352 C10.988379 117.4044931 7.30947358 120.1454686 3.70703125 123.015625 C3.03849121 123.53729248 2.36995117 124.05895996 1.68115234 124.59643555 C0.4444707 125.56421193 -0.77924851 126.54891281 -1.98583984 127.55395508 C-5.12114498 129.97652462 -6.70244485 130.68774208 -10.69726562 130.41918945 C-15.26643663 129.71303088 -19.70565275 128.5937231 -24.16796875 127.3984375 C-25.47354485 127.05434845 -25.47354485 127.05434845 -26.80549622 126.70330811 C-29.66131907 125.94725634 -32.51447005 125.1817438 -35.3671875 124.4140625 C-36.35499207 124.14940186 -37.34279663 123.88474121 -38.36053467 123.61206055 C-66.90399999 115.94795606 -95.19409502 107.48206788 -123.1796875 97.9765625 C-123.94041565 97.72003906 -124.7011438 97.46351563 -125.48492432 97.19921875 C-127.59723827 96.48397705 -129.70547821 95.75800714 -131.8125 95.02734375 C-133.59358154 94.41306519 -133.59358154 94.41306519 -135.41064453 93.78637695 C-138.0546875 92.6640625 -138.0546875 92.6640625 -139.0546875 90.6640625 C-135.58142579 86.80866348 -132.04838089 83.31725019 -127.0546875 81.6640625 C-120.35325894 81.59581042 -113.83999555 84.69741709 -107.6796875 87.0390625 C-105.8467819 87.6856035 -104.0116145 88.32576576 -102.17431641 88.9597168 C-98.49723703 90.23345768 -94.83056726 91.53185018 -91.16992188 92.85205078 C-84.32534365 95.30201558 -77.40184685 97.41987693 -70.4296875 99.4765625 C-69.25398193 99.828396 -68.07827637 100.18022949 -66.86694336 100.54272461 C-54.07465553 104.32948106 -41.16076081 107.69259666 -28.20849609 110.88623047 C-26.22828339 111.37461549 -24.25137028 111.87680092 -22.27978516 112.39892578 C-20.22690003 112.91783229 -18.14162345 113.30587308 -16.0546875 113.6640625 C-15.0646875 113.0040625 -14.0746875 112.3440625 -13.0546875 111.6640625 C-11.10058594 111.46313477 -11.10058594 111.46313477 -8.9140625 111.41796875 C-3.15287555 110.87044675 0.26740352 108.13084822 4.6953125 104.6015625 C5.50605225 103.98031494 6.31679199 103.35906738 7.15209961 102.71899414 C8.8774029 101.39464045 10.59660525 100.06230613 12.31005859 98.72265625 C16.67920946 95.30958602 21.09719062 91.96073959 25.5078125 88.6015625 C26.38856445 87.92730225 27.26931641 87.25304199 28.17675781 86.55834961 C34.40542005 81.7983972 40.71996112 77.17772872 47.10180664 72.62597656 C54.27275538 67.48729022 61.25917285 62.11203465 68.21875 56.69140625 C69.06695312 56.0365625 69.91515625 55.38171875 70.7890625 54.70703125 C71.54380859 54.11946045 72.29855469 53.53188965 73.07617188 52.92651367 C74.9453125 51.6640625 74.9453125 51.6640625 76.9453125 51.6640625 C76.0996875 50.8184375 75.2540625 49.9728125 74.3828125 49.1015625 C71.99139824 46.27228365 71.93941774 45.84385272 72.0703125 41.8515625 C72.9453125 38.6640625 72.9453125 38.6640625 73.9453125 37.6640625 C72.90528076 37.38526245 72.90528076 37.38526245 71.84423828 37.10083008 C64.96843692 35.25656033 58.0945499 33.40531141 51.22216797 31.54833984 C49.28677216 31.02606272 47.35103822 30.50503135 45.41455078 29.98681641 C24.2936541 24.33474546 3.41788812 17.74543972 -17.15185547 10.34033203 C-19.77316242 9.40871537 -22.41144615 8.53117971 -25.0546875 7.6640625 C-23.56761078 3.93810916 -21.5342696 2.17588295 -18.3046875 -0.1484375 C-17.46421875 -0.77363281 -16.62375 -1.39882812 -15.7578125 -2.04296875 C-10.54795195 -4.53496852 -5.17816609 -1.81116343 0 0 Z " fill="#48E3A2" transform="translate(343.0546875,139.3359375)"/>
<path d="M0 0 C0.33 6.27 0.66 12.54 1 19 C4.3 19.99 7.6 20.98 11 22 C11 22.66 11 23.32 11 24 C9.58911133 25.25830078 9.58911133 25.25830078 7.58203125 26.6953125 C6.83308594 27.23800781 6.08414063 27.78070313 5.3125 28.33984375 C4.4875 28.92894531 3.6625 29.51804688 2.8125 30.125 C1.05742772 31.39682998 -0.69643596 32.6703291 -2.44921875 33.9453125 C-3.36493652 34.61079102 -4.2806543 35.27626953 -5.22412109 35.96191406 C-9.69693455 39.24591114 -14.09748549 42.62267236 -18.5 46 C-25.88573182 51.65441483 -33.33196349 57.21471573 -40.8359375 62.7109375 C-46.77671433 67.07277032 -52.6475326 71.52054548 -58.5 76 C-65.11947215 81.0665168 -71.77507127 86.07429391 -78.5 91 C-87.14874934 97.33574346 -95.67854145 103.82038913 -104.1953125 110.33203125 C-109.76867354 114.59265849 -115.37518127 118.80758853 -121 123 C-124.89385683 121.41361388 -127.39458993 119.29584373 -130 116 C-132.15373079 109.70781566 -132.24561552 102.25784775 -130 96 C-125.85210235 90.5309492 -119.56389447 87.23939253 -113.77587891 83.74804688 C-109.11276914 80.81155911 -104.83649872 77.39219913 -100.5 74 C-93.1202491 68.33796727 -85.66785611 62.78515213 -78.1640625 57.2890625 C-72.22328388 52.92722837 -66.35252911 48.47937591 -60.5 44 C-53.09426816 38.33311742 -45.63434739 32.7501608 -38.11572266 27.23413086 C-32.17792853 22.87564317 -26.26856242 18.48061343 -20.375 14.0625 C-19.5698999 13.45978271 -18.7647998 12.85706543 -17.93530273 12.23608398 C-13.17152796 8.66040642 -8.47361043 5.01944282 -3.83447266 1.28295898 C-2 0 -2 0 0 0 Z " fill="#39C988" transform="translate(466,173)"/>
<path d="M0 0 C0 14.52 0 29.04 0 44 C-28.8116102 55.00820956 -28.8116102 55.00820956 -39 58.5 C-47.29681932 61.34472386 -55.49492041 64.43276951 -63.6875 67.5625 C-71.92805862 70.71012321 -80.16719039 73.83248915 -88.50561523 76.71191406 C-92.97723311 78.26405512 -97.41709699 79.89130917 -101.8515625 81.546875 C-103.07020996 82.0018335 -104.28885742 82.45679199 -105.54443359 82.92553711 C-107.97306362 83.83455326 -110.40051979 84.74671324 -112.82666016 85.66235352 C-114.49801025 86.28775024 -114.49801025 86.28775024 -116.203125 86.92578125 C-117.19989258 87.30130127 -118.19666016 87.67682129 -119.22363281 88.0637207 C-121.81172263 88.93650688 -124.31208762 89.53431212 -127 90 C-122.74621979 85.37444632 -117.9213951 81.97833713 -112.75 78.4375 C-110.94638494 77.1891338 -109.14300326 75.94043036 -107.33984375 74.69140625 C-106.43991699 74.07023926 -105.53999023 73.44907227 -104.61279297 72.80908203 C-100.82859683 70.18892754 -97.06916695 67.53440733 -93.3125 64.875 C-91.92193704 63.89183933 -90.53131223 62.90876613 -89.140625 61.92578125 C-88.45806641 61.44318848 -87.77550781 60.9605957 -87.07226562 60.46337891 C-84.9822021 58.9874316 -82.88986911 57.51475678 -80.796875 56.04296875 C-73.53521579 50.93322287 -66.30800573 45.78231234 -59.125 40.5625 C-52.98498228 36.10398643 -46.77757459 31.76248726 -40.5 27.5 C-29.99877066 20.36900288 -19.69155269 12.97306406 -9.5 5.40625 C-8.51 4.6740625 -7.52 3.941875 -6.5 3.1875 C-5.6646875 2.56230469 -4.829375 1.93710937 -3.96875 1.29296875 C-2 0 -2 0 0 0 Z " fill="#189453" transform="translate(474,257)"/>
<path d="M0 0 C1.00289062 0.28746094 2.00578125 0.57492188 3.0390625 0.87109375 C3.80992187 1.09925781 4.58078125 1.32742187 5.375 1.5625 C5.375 2.2225 5.375 2.8825 5.375 3.5625 C3.96411133 4.82080078 3.96411133 4.82080078 1.95703125 6.2578125 C1.20808594 6.80050781 0.45914063 7.34320313 -0.3125 7.90234375 C-1.1375 8.49144531 -1.9625 9.08054688 -2.8125 9.6875 C-4.56757228 10.95932998 -6.32143596 12.2328291 -8.07421875 13.5078125 C-8.98993652 14.17329102 -9.9056543 14.83876953 -10.84912109 15.52441406 C-15.32193455 18.80841114 -19.72248549 22.18517236 -24.125 25.5625 C-31.51073182 31.21691483 -38.95696349 36.77721573 -46.4609375 42.2734375 C-52.40171433 46.63527032 -58.2725326 51.08304548 -64.125 55.5625 C-70.74447215 60.6290168 -77.40007127 65.63679391 -84.125 70.5625 C-92.77374934 76.89824346 -101.30354145 83.38288913 -109.8203125 89.89453125 C-115.39367354 94.15515849 -121.00018127 98.37008853 -126.625 102.5625 C-130.8992558 100.9794423 -132.89031794 98.05681596 -135.625 94.5625 C-134.85800781 94.02625 -134.09101563 93.49 -133.30078125 92.9375 C-125.7816104 87.64074418 -118.42414619 82.15859958 -111.125 76.5625 C-104.79940346 71.71429637 -98.44624511 66.93944233 -91.93041992 62.35058594 C-86.86089436 58.76617755 -81.89743878 55.04664155 -76.9375 51.3125 C-70.33595713 46.34257424 -63.71839906 41.39694345 -57.0625 36.5 C-55.89110474 35.63785889 -55.89110474 35.63785889 -54.69604492 34.75830078 C-50.78335075 31.88045219 -46.86734125 29.00717114 -42.94921875 26.13671875 C-33.31814478 19.0715294 -23.77154333 11.90724339 -14.30126953 4.62744141 C-13.45806152 3.98081543 -12.61485352 3.33418945 -11.74609375 2.66796875 C-10.9977124 2.09199951 -10.24933105 1.51603027 -9.47827148 0.92260742 C-5.77936275 -1.79200469 -4.35262144 -1.26529693 0 0 Z " fill="#48E3A2" transform="translate(471.625,193.4375)"/>
<path d="M0 0 C27.74180034 8.95409776 55.43462736 18.05364168 83.11541748 27.19439697 C88.54090614 28.98576839 93.96676037 30.77603192 99.39257812 32.56640625 C109.92873069 36.04322531 120.46449826 39.52120934 131 43 C128.17954239 45.85949637 125.35791133 48.42054847 122.125 50.8125 C121.30257812 51.43769531 120.48015625 52.06289063 119.6328125 52.70703125 C115.69572767 54.64052543 112.82512824 53.60324729 108.73931885 52.25279236 C105.9708762 51.2536868 103.2210254 50.21323136 100.47265625 49.16015625 C99.43167786 48.76627716 98.39069946 48.37239807 97.31817627 47.96658325 C93.89753369 46.67064044 90.48000267 45.3666981 87.0625 44.0625 C84.68464371 43.15950442 82.30663077 42.25692127 79.9284668 41.35473633 C72.61580251 38.57812909 65.30757125 35.78997832 58 33 C55.7311284 32.13441754 53.46224843 31.26885703 51.19335938 30.40332031 C31.77342625 22.99242758 12.36535877 15.55247509 -7 8 C-7 7.34 -7 6.68 -7 6 C-5.01310269 4.64721885 -3.01254782 3.31431695 -1 2 C-0.67 1.34 -0.34 0.68 0 0 Z " fill="#48E3A2" transform="translate(213,305)"/>
<path d="M0 0 C2.75 2.4375 2.75 2.4375 3.9375 5.8125 C3.65798372 11.21648147 1.35612986 13.83137014 -2.375 17.5625 C-10.93741314 23.14668248 -19.07206545 24.62373946 -29.25 23.4375 C-33.62647863 22.23611371 -36.9758059 20.56178891 -40.375 17.5625 C-41.74845352 14.22697002 -41.60160547 12.81651368 -40.25 9.4375 C-30.84461995 0.30942845 -12.38648062 -5.80222107 0 0 Z " fill="#48E3A2" transform="translate(169.25,117.5625)"/>
<path d="M0 0 C3.11077751 2.01325211 4.61257546 3.30346459 5.4296875 6.98046875 C4.69770306 10.71358939 3.38023103 12.34331265 0.37890625 14.64453125 C-8.8754471 20.12131092 -19.37304322 23.86461066 -30.1953125 22.16796875 C-33.80952449 21.15802199 -36.50423069 19.85905056 -39.1953125 17.16796875 C-39.65654033 13.17066086 -39.44644077 10.71389977 -37.7578125 7.04296875 C-28.43807578 -3.41332123 -12.43141596 -6.12188597 0 0 Z " fill="#48E3A2" transform="translate(354.1953125,198.83203125)"/>
<path d="M0 0 C-4.42832275 4.74723488 -9.44733107 8.54023359 -14.625 12.4375 C-15.54853271 13.13689697 -16.47206543 13.83629395 -17.42358398 14.55688477 C-25.13923694 20.38591872 -32.91513521 26.13180755 -40.71484375 31.84765625 C-45.49716228 35.35539912 -50.22752217 38.9295529 -54.9453125 42.5234375 C-57 44 -57 44 -58 44 C-58.51562785 34.5468228 -56.23886191 27.50474657 -50.12109375 20.19140625 C-37.74264158 7.40261865 -17.78227009 -0.8891135 0 0 Z " fill="#4BE3A2" transform="translate(255,144)"/>
<path d="M0 0 C3.2833889 3.81748682 3.64580319 6.48082101 3.46484375 11.41015625 C2.30720962 17.85983214 -2.4016046 21.77927307 -7.4375 25.5625 C-22.34669389 35.37529778 -39.53659224 40.99159782 -57 44 C-52.89775541 39.61287732 -48.36524231 36.19129594 -43.5 32.6875 C-36.289022 27.43693838 -29.14766678 22.10669686 -22.0625 16.6875 C-20.30992589 15.34761693 -18.55732265 14.00777197 -16.8046875 12.66796875 C-15.98581055 12.04196777 -15.16693359 11.4159668 -14.32324219 10.77099609 C-9.57229937 7.14937575 -4.78979083 3.57003044 0 0 Z " fill="#4BE3A2" transform="translate(300,158)"/>
<path d="M0 0 C6.92422599 1.40708099 13.49321992 3.37015075 20.1796875 5.640625 C21.24978058 5.99963394 22.31987366 6.35864288 23.4223938 6.72853088 C25.71713915 7.49878588 28.01121932 8.27102494 30.3046875 9.04507446 C36.36410043 11.0900331 42.42825939 13.12082093 48.4921875 15.15234375 C49.71427917 15.5621196 50.93637085 15.97189545 52.19549561 16.39408875 C65.50713584 20.85140431 78.8575811 25.18738985 92.21826172 29.49511719 C101.53990882 32.50669467 110.79985126 35.63342844 120 39 C117.44629961 41.82731114 115.82389448 43.51605463 112 44 C109.71359253 43.43067932 109.71359253 43.43067932 107.16357422 42.43969727 C106.19680756 42.07026001 105.23004089 41.70082275 104.23397827 41.32019043 C103.18481232 40.90644165 102.13564636 40.49269287 101.0546875 40.06640625 C99.95258942 39.64194214 98.85049133 39.21747803 97.71499634 38.78015137 C94.09765077 37.38440524 90.4864284 35.97347764 86.875 34.5625 C84.38258686 33.59775353 81.88984505 32.63391931 79.39648438 31.67163086 C74.97459656 29.96405123 70.55404187 28.25310972 66.13520432 26.53765202 C58.94683396 23.74760248 51.74792998 20.98662022 44.5390625 18.25 C43.5874826 17.8887352 42.63590271 17.5274704 41.65548706 17.15525818 C38.93717581 16.12385165 36.21862672 15.09307468 33.5 14.0625 C22.28994941 9.81238279 11.1140747 5.49575461 0 1 C0 0.67 0 0.34 0 0 Z " fill="#48E1A0" transform="translate(49,252)"/>
<path d="M0 0 C1.32475342 0.43517944 1.32475342 0.43517944 2.67626953 0.87915039 C3.56942871 1.17813232 4.46258789 1.47711426 5.3828125 1.78515625 C7.00041737 2.26908944 8.62018189 2.74587184 10.2421875 3.21484375 C20.07577116 6.11418532 29.77899339 9.19167427 39.3828125 12.78515625 C38.01317063 16.89408185 36.16015135 17.78958101 32.3828125 19.78515625 C27.17659983 19.40783224 22.52547672 17.49029281 17.703125 15.625 C16.89036102 15.31567032 16.07759705 15.00634064 15.24020386 14.68763733 C12.66070814 13.70453716 10.08425553 12.71372544 7.5078125 11.72265625 C5.75279982 11.05222198 3.99759342 10.38229458 2.2421875 9.71289062 C-2.04653577 8.0761721 -6.33254793 6.43253394 -10.6171875 4.78515625 C-10.6171875 4.12515625 -10.6171875 3.46515625 -10.6171875 2.78515625 C-6.90985199 -0.8246178 -4.77615804 -1.62821378 0 0 Z " fill="#F7DD99" transform="translate(173.6171875,292.21484375)"/>
<path d="M0 0 C0.84304687 0.48847412 1.68609375 0.97694824 2.5546875 1.48022461 C3.5027124 2.02332275 4.4507373 2.5664209 5.42749023 3.12597656 C6.91357788 3.9954895 6.91357788 3.9954895 8.4296875 4.88256836 C9.44683838 5.46804443 10.46398926 6.05352051 11.51196289 6.65673828 C13.54543458 7.82791604 15.5768121 9.00273823 17.60595703 10.18139648 C20.74202147 12.00132252 23.88968384 13.79995601 27.04101562 15.59326172 C29.50704617 16.99672322 31.96847597 18.40817752 34.4296875 19.82006836 C30.94883898 20.9803512 30.10377886 20.62800145 26.71459961 19.49658203 C25.76028549 19.18262985 24.80597137 18.86867767 23.82273865 18.54521179 C22.79455521 18.19634415 21.76637177 17.8474765 20.70703125 17.48803711 C19.65060928 17.13622879 18.59418732 16.78442047 17.50575256 16.42195129 C15.27086263 15.67542629 13.03745105 14.92446317 10.80541992 14.16943359 C7.38114474 13.01228486 3.95182772 11.8711945 0.52148438 10.73217773 C-1.64615196 10.00591449 -3.81348049 9.27873176 -5.98046875 8.55053711 C-7.01067642 8.20774216 -8.04088409 7.8649472 -9.10231018 7.51176453 C-10.05347214 7.18835587 -11.00463409 6.8649472 -11.98461914 6.53173828 C-12.82384415 6.24892502 -13.66306915 5.96611176 -14.52772522 5.67472839 C-16.5703125 4.82006836 -16.5703125 4.82006836 -18.5703125 2.82006836 C-17.03986497 1.945959 -15.49528656 1.09656611 -13.9453125 0.25756836 C-13.08679687 -0.2180957 -12.22828125 -0.69375977 -11.34375 -1.18383789 C-7.18144168 -2.67875144 -3.96874868 -1.82189992 0 0 Z " fill="#38C886" transform="translate(61.5703125,190.179931640625)"/>
<path d="M0 0 C0 2.31 0 4.62 0 7 C-2.35171131 6.40138258 -4.6859378 5.73075648 -7 5 C-7.33 4.34 -7.66 3.68 -8 3 C-2.25 0 -2.25 0 0 0 Z " fill="#48E3A2" transform="translate(43,243)"/>
</svg>
