<?xml version="1.0" encoding="UTF-8"?>
<svg version="1.1" xmlns="http://www.w3.org/2000/svg" width="512" height="512">
<path d="M0 0 C1.01657684 0.00182281 2.03315369 0.00364563 3.08053589 0.00552368 C17.70987072 0.04972455 31.99913272 0.34372693 46.375 3.3125 C47.26815918 3.48942383 48.16131836 3.66634766 49.08154297 3.84863281 C66.50994588 7.38129351 88.03120271 12.39153937 99.375 27.3125 C101.17165513 31.07892369 101.62444685 34.05869621 101.62223816 38.21525574 C101.62643265 39.39722031 101.63062714 40.57918488 101.63494873 41.79696655 C101.62932922 43.08495148 101.62370972 44.3729364 101.61791992 45.69995117 C101.61899342 47.07673737 101.62093311 48.45352312 101.62367249 49.83030701 C101.62851183 53.56147599 101.6208775 57.29252502 101.61071944 61.02367949 C101.60192811 64.92783834 101.60369657 68.83199355 101.6040802 72.73616028 C101.60314432 79.28888962 101.59446885 85.84157259 101.58081055 92.39428711 C101.56506618 99.97595643 101.55981316 107.55757503 101.5605461 115.13925952 C101.56115579 122.43016591 101.55605703 129.72105575 101.54775429 137.01195717 C101.54421909 140.11678509 101.54239071 143.22160716 101.54186058 146.326437 C101.54085823 149.97816012 101.53477048 153.62984044 101.52469444 157.28154945 C101.52036689 159.26590156 101.52094203 161.25026244 101.52163696 163.23461914 C101.51737198 164.40812424 101.51310699 165.58162933 101.50871277 166.79069519 C101.50703692 167.81476565 101.50536108 168.83883612 101.50363445 169.89393902 C101.375 172.3125 101.375 172.3125 100.375 174.3125 C101.03395264 174.28220703 101.69290527 174.25191406 102.37182617 174.22070312 C105.43525525 174.0816144 108.49886813 173.94704526 111.5625 173.8125 C112.59826172 173.76480469 113.63402344 173.71710938 114.70117188 173.66796875 C149.48454943 172.16033009 195.66301413 172.39122435 224.609375 195.0625 C228.99087436 199.11810272 231.96641127 203.636008 232.63781738 209.67733765 C232.72058655 212.40303558 232.71249364 215.11325541 232.66796875 217.83984375 C232.66372391 218.82876114 232.65947906 219.81767853 232.65510559 220.83656311 C232.63840129 223.97466009 232.60076415 227.11209928 232.5625 230.25 C232.54744251 232.38605839 232.53375597 234.52212691 232.52148438 236.65820312 C232.48852493 241.87652402 232.43840838 247.094465 232.375 252.3125 C233.54385742 252.4822937 233.54385742 252.4822937 234.73632812 252.65551758 C257.38013231 256.14870456 276.69421184 268.3283435 290.53515625 286.55859375 C304.03727303 306.76876854 309.85727813 330.25824064 305.24584961 354.3503418 C300.15006502 377.72672043 287.21939127 397.13912406 267.25390625 410.3828125 C247.59614514 422.33654932 224.50346075 426.64786042 201.8125 422.125 C185.20595347 417.85474518 171.66672845 410.25552694 159.375 398.3125 C158.75109375 397.75046875 158.1271875 397.1884375 157.484375 396.609375 C152.11527643 391.62723848 148.05965079 385.6194737 144.375 379.3125 C144.375 378.6525 144.375 377.9925 144.375 377.3125 C143.715 377.6425 143.055 377.9725 142.375 378.3125 C109.59968757 380.7251328 63.16157274 377.62688117 36.5625 355.6875 C32.85846233 352.34793285 30.63389248 348.35333448 30.0030632 343.38054371 C30.00452976 342.35018844 30.00599632 341.31983316 30.00750732 340.258255 C30.00193817 339.06794678 29.99636902 337.87763855 29.9906311 336.65126038 C30.00445328 334.71300636 30.00445328 334.71300636 30.01855469 332.7355957 C30.01776317 331.35043204 30.01566395 329.96526859 30.01235962 328.58010864 C30.00723917 324.83027539 30.02073229 321.080718 30.03788662 317.33092904 C30.05295149 313.40456086 30.05174922 309.47819583 30.05255127 305.55180359 C30.05623975 298.96214097 30.07118836 292.37258277 30.09375 285.78295898 C30.12265927 277.32208354 30.13297741 268.86129198 30.1374321 260.40037251 C30.14141032 253.1254466 30.15390931 245.85053896 30.16777897 238.57562613 C30.17187773 236.23672575 30.17480339 233.89782602 30.17757416 231.55892372 C30.18246576 227.88747923 30.19266681 224.21608563 30.20701218 220.54466629 C30.21369627 218.55217046 30.21553898 216.55966024 30.21725464 214.56715393 C30.22296478 213.38530518 30.22867493 212.20345642 30.23455811 210.98579407 C30.23753277 209.95656987 30.24050743 208.92734568 30.24357224 207.86693287 C30.375 205.3125 30.375 205.3125 31.375 202.3125 C30.385 202.6425 29.395 202.9725 28.375 203.3125 C18.41212982 204.5540269 8.39290107 204.42047738 -1.625 204.3125 C-1.295 204.9725 -0.965 205.6325 -0.625 206.3125 C-0.52514458 208.13607213 -0.48990834 209.96331562 -0.48455811 211.78961182 C-0.47884796 212.9532576 -0.47313782 214.11690338 -0.46725464 215.31581116 C-0.46557785 217.24051491 -0.46557785 217.24051491 -0.46386719 219.20410156 C-0.45923968 220.56410355 -0.45421511 221.92410423 -0.44882202 223.28410339 C-0.43568737 226.98468253 -0.42925071 230.68524351 -0.42481136 234.38584232 C-0.42188166 236.69787147 -0.41777699 239.00989565 -0.41330719 241.3219223 C-0.39962792 248.5556922 -0.38996402 255.78945076 -0.3861053 263.0232327 C-0.38162679 271.3732188 -0.36409041 279.72304103 -0.3351047 288.0729773 C-0.31348 294.52656459 -0.30340056 300.9801058 -0.30206418 307.43372893 C-0.30101648 311.2882223 -0.29511665 315.1425617 -0.27724457 318.99701691 C-0.2607507 322.62497304 -0.25861462 326.25265973 -0.26738358 329.88064003 C-0.26851965 331.84280482 -0.25481142 333.80496071 -0.2406311 335.76707458 C-0.27746863 343.5386925 -0.99398002 349.06885963 -6.625 354.8125 C-11.06154568 359.03512419 -16.13707381 361.6785889 -21.625 364.3125 C-22.50671875 364.74433594 -23.3884375 365.17617188 -24.296875 365.62109375 C-40.3920669 372.91849008 -58.20661529 375.412248 -75.625 377.3125 C-76.8315625 377.44527344 -78.038125 377.57804687 -79.28125 377.71484375 C-115.34420456 380.90974142 -166.8355751 380.10368623 -196.4375 355.6875 C-200.13546567 352.35340738 -202.35439308 348.35672245 -203.01090336 343.39730358 C-203.01593089 342.37474122 -203.02095842 341.35217886 -203.02613831 340.29862976 C-203.04533073 338.52617386 -203.04533073 338.52617386 -203.06491089 336.71791077 C-203.06355133 335.43516769 -203.06219177 334.15242462 -203.06079102 332.83081055 C-203.06977551 331.45537499 -203.07998534 330.07994697 -203.09132385 328.70452881 C-203.11775946 324.9791513 -203.1248546 321.25398068 -203.12677121 317.52851844 C-203.12890768 315.19766401 -203.13531998 312.86686172 -203.14326286 310.53602028 C-203.17099604 302.39482932 -203.18327106 294.25378546 -203.1809082 286.11254883 C-203.17910687 278.5392623 -203.21074801 270.96661754 -203.25813919 263.39349335 C-203.29744646 256.87860545 -203.31345652 250.36392661 -203.31154197 243.84892112 C-203.3107793 239.96348566 -203.31920417 236.07862076 -203.35107613 232.19330406 C-203.38025782 228.53628353 -203.380266 224.88037353 -203.35852623 221.22331238 C-203.35392559 219.25337809 -203.37883527 217.28344286 -203.40484619 215.31367493 C-203.3067285 206.03407326 -200.98930197 200.58572088 -194.37890625 194.11328125 C-187.24318226 189.26709437 -179.6991712 186.18834706 -171.625 183.3125 C-170.11873047 182.75755859 -170.11873047 182.75755859 -168.58203125 182.19140625 C-152.0776197 176.58819123 -134.58359201 175.09283982 -117.3203125 173.69140625 C-115.69275713 173.55609607 -114.06523405 173.42039702 -112.43774414 173.28430176 C-108.50051953 172.95589554 -104.5628991 172.63271269 -100.625 172.3125 C-100.62776538 171.59650824 -100.63053076 170.88051647 -100.63337994 170.14282799 C-100.69965164 152.71596508 -100.74928635 135.28913421 -100.78043652 117.86217308 C-100.79590115 109.43459928 -100.81698293 101.00710963 -100.85131836 92.57958984 C-100.8812331 85.23360755 -100.90057794 77.88768621 -100.90726548 70.54164469 C-100.91117424 66.65245622 -100.92035186 62.7634421 -100.94219017 58.87430954 C-100.96258817 55.21192429 -100.96882716 51.54978484 -100.96432304 47.88734818 C-100.96553883 45.90606803 -100.98166363 43.92481452 -100.9982605 41.94360352 C-100.99413651 40.75737396 -100.99001251 39.57114441 -100.98576355 38.34896851 C-100.98852893 37.32209112 -100.99129431 36.29521374 -100.99414349 35.23721886 C-100.26524172 29.46213997 -97.20269043 25.09300752 -93.08203125 21.171875 C-80.66536796 11.77548116 -64.77651256 7.21375094 -49.75 4.125 C-48.99686523 3.96999023 -48.24373047 3.81498047 -47.46777344 3.65527344 C-31.65831876 0.62033421 -16.06119862 -0.05970827 0 0 Z " fill="#F8BD34" transform="translate(205.625,73.6875)"/>
<path d="M0 0 C1.05815896 1.58723843 2.11132083 3.17842362 3.12109375 4.796875 C12.80705658 19.16773974 32.87985548 24.38611768 49.07275391 27.71459961 C50.6091773 28.01034231 52.14715383 28.29812177 53.68652344 28.578125 C55.2055469 28.85512717 56.72205647 29.14636706 58.23535156 29.453125 C85.67298491 34.92414428 117.59217734 34.24420589 145 29 C145.94552734 28.82307617 146.89105469 28.64615234 147.86523438 28.46386719 C164.6482472 25.22690369 185.54903585 20.80851559 197 7 C198.45192114 4.70951054 199.72904304 2.40069648 201 0 C201.33 0 201.66 0 202 0 C202.07010862 17.23740049 202.12299723 34.47475643 202.15543652 51.71226692 C202.17089958 59.71610406 202.19197834 67.71985257 202.22631836 75.72363281 C202.25623793 82.70045115 202.27557908 89.67720528 202.28226548 96.65408599 C202.28617343 100.34765882 202.29534582 104.041048 202.31719017 107.73456192 C202.3413892 111.85974494 202.34196835 115.9846095 202.34057617 120.10986328 C202.351362 121.33193985 202.36214783 122.55401642 202.3732605 123.81312561 C202.34534355 131.4444749 201.52429133 136.86522284 196 142.5 C191.56345432 146.72262419 186.48792619 149.3660889 181 152 C180.11828125 152.43183594 179.2365625 152.86367188 178.328125 153.30859375 C162.2329331 160.60599008 144.41838471 163.099748 127 165 C125.7934375 165.13277344 124.586875 165.26554688 123.34375 165.40234375 C87.28079544 168.59724142 35.7894249 167.79118623 6.1875 143.375 C2.47475066 140.0275784 0.23927492 136.37300771 -0.27094078 131.31294632 C-0.36978394 127.87782686 -0.37067533 124.45451318 -0.34057617 121.01806641 C-0.34101425 119.71021179 -0.34145233 118.40235718 -0.34190369 117.05487061 C-0.34276224 113.48083498 -0.32515953 109.90710319 -0.30418181 106.33313799 C-0.28539143 102.59355757 -0.28366272 98.85396971 -0.28010559 95.11434937 C-0.27079204 88.03837195 -0.24618767 80.96253407 -0.21605712 73.88661802 C-0.18249157 65.8286108 -0.1660217 57.77059681 -0.15097082 49.71253705 C-0.11963744 33.14160977 -0.06689046 16.57082271 0 0 Z " fill="#E59C1C" transform="translate(3,286)"/>
<path d="M0 0 C0.33 0 0.66 0 1 0 C1.09940876 4.71388705 1.17172034 9.42715442 1.21972656 14.1418457 C1.23975347 15.74319091 1.26698354 17.3444638 1.30175781 18.94555664 C1.35067419 21.25685537 1.37305711 23.56718154 1.390625 25.87890625 C1.41127014 26.58648575 1.43191528 27.29406525 1.45318604 28.02308655 C1.45563556 33.53773727 0.20085386 36.65259247 -3 41 C-5.03613281 41.82299805 -5.03613281 41.82299805 -7.203125 41.76171875 C-8.01080322 41.76333008 -8.81848145 41.76494141 -9.65063477 41.76660156 C-10.50842529 41.74049805 -11.36621582 41.71439453 -12.25 41.6875 C-25.88097621 41.82105216 -37.85863675 44.57856788 -50 51 C-50.96292969 51.49113281 -51.92585937 51.98226562 -52.91796875 52.48828125 C-72.9964497 63.37170107 -86.38221463 82.25921983 -93.5 103.6875 C-97.92234713 122.34861502 -97.00960251 144.06287464 -88.33203125 161.31640625 C-87 164 -87 164 -87 166 C-106.44535775 175.72267888 -150.13092894 163.90051588 -169.95703125 157.4765625 C-180.82889669 153.67180648 -192.90097294 148.4749549 -199.57124329 138.69662476 C-201.70820428 133.16766181 -201.39205132 127.89502899 -201.34057617 122.01806641 C-201.34101425 120.71021179 -201.34145233 119.40235718 -201.34190369 118.05487061 C-201.34276224 114.48083498 -201.32515953 110.90710319 -201.30418181 107.33313799 C-201.28539143 103.59355757 -201.28366272 99.85396971 -201.28010559 96.11434937 C-201.27079204 89.03837195 -201.24618767 81.96253407 -201.21605712 74.88661802 C-201.18249157 66.8286108 -201.1660217 58.77059681 -201.15097082 50.71253705 C-201.11963744 34.14160977 -201.06689046 17.57082271 -201 1 C-199.73339027 2.8999146 -198.51734045 4.83537229 -197.375 6.8125 C-186.94227298 20.81431784 -166.58077016 25.81081298 -150.25 29.1875 C-149.51394531 29.34234863 -148.77789062 29.49719727 -148.01953125 29.65673828 C-132.4658481 32.6697726 -116.74053965 33.38372591 -100.9375 33.3125 C-100.04747284 33.31001251 -99.15744568 33.30752502 -98.240448 33.30496216 C-69.16830449 33.17997444 -33.00340724 31.83210119 -9.20703125 12.76171875 C-7 11 -7 11 -5 11 C-3.13448574 7.41247258 -1.57464072 3.72187807 0 0 Z " fill="#F8B837" transform="translate(437,285)"/>
<path d="M0 0 C0.94511444 -0.00701431 1.89022888 -0.01402863 2.86398315 -0.02125549 C5.89504821 -0.03865682 8.92591808 -0.04510699 11.95703125 -0.046875 C13.50812088 -0.04788712 13.50812088 -0.04788712 15.09054565 -0.04891968 C29.86109947 -0.03357685 44.25318926 0.20534237 58.76953125 3.203125 C59.66269043 3.38004883 60.55584961 3.55697266 61.47607422 3.73925781 C79.29244167 7.35055722 99.81731112 12.42836892 111.76953125 27.203125 C113.85649435 30.92336358 114.26764355 33.96917044 113.76953125 38.203125 C110.75066428 47.56543395 103.65636244 52.40545662 95.26953125 56.828125 C81.89725983 63.34951548 67.34733742 66.61751808 52.76953125 69.203125 C51.36658813 69.47237793 51.36658813 69.47237793 49.93530273 69.74707031 C38.05337841 71.76852529 26.10149199 71.59866477 14.08203125 71.578125 C12.94702179 71.57791351 11.81201233 71.57770203 10.64260864 71.57748413 C-6.30628019 71.54591248 -22.65049237 71.02047601 -39.23046875 67.203125 C-40.5153418 66.91429443 -40.5153418 66.91429443 -41.82617188 66.61962891 C-57.8688674 62.88942173 -76.40939027 57.32092532 -86.23046875 43.203125 C-88.52122626 39.35048737 -88.58113034 35.8845707 -87.953125 31.5390625 C-85.58773172 23.89308856 -77.92501 18.87561624 -71.23046875 15.203125 C-49.6888204 4.30689666 -23.97852743 0.11955984 0 0 Z " fill="#FDCC3C" transform="translate(193.23046875,73.796875)"/>
<path d="M0 0 C0.33 0 0.66 0 1 0 C1 2.31 1 4.62 1 7 C1.69222656 7.07476562 2.38445312 7.14953125 3.09765625 7.2265625 C25.00907024 10.1711794 43.17885407 22.21722102 57.3125 38.8125 C71.60567453 57.63839373 77.68506904 80.95405023 74.6953125 104.38818359 C71.04172556 126.74310267 59.95642869 147.09826521 41.83984375 160.9921875 C21.69834535 175.23253162 -1.521591 181.06336615 -26.09375 177.50390625 C-44.03977054 173.92682783 -58.92640672 165.7027112 -72 153 C-72.62390625 152.43796875 -73.2478125 151.8759375 -73.890625 151.296875 C-83.7571331 142.14146659 -89.03528769 130.59647368 -93 118 C-93.26997803 117.19353027 -93.53995605 116.38706055 -93.81811523 115.55615234 C-96.17521831 107.92862557 -96.50404618 100.69966931 -96.4375 92.75 C-96.42847656 91.46456299 -96.41945313 90.17912598 -96.41015625 88.85473633 C-95.99039874 65.86572515 -86.33714606 46.98711984 -70.8125 30.3125 C-55.04488475 15.12376573 -34.20197509 7.37629849 -12.625 6.4375 C-11.69816406 6.39431641 -10.77132812 6.35113281 -9.81640625 6.30664062 C-7.54439706 6.20123814 -5.27229075 6.09911394 -3 6 C-2.01 4.02 -1.02 2.04 0 0 Z M-61.1640625 51.51171875 C-71.64001049 65.84115422 -76.33433198 81.32963218 -75 99 C-71.87528416 117.80476581 -63.48435343 133.59514153 -47.9375 144.9375 C-46.31012176 145.98750386 -44.66445606 147.00982119 -43 148 C-41.83404297 148.70576172 -41.83404297 148.70576172 -40.64453125 149.42578125 C-27.13701551 156.89567984 -9.74591133 158.1566223 5.25 154.9375 C23.28113375 149.53314085 37.7060978 137.92268359 46.6875 121.3125 C54.06041319 105.37040624 55.89530172 87.91937891 50.2578125 71.10546875 C43.28593117 53.89228347 31.58546857 41.26198249 15 33 C-12.30109761 21.9392126 -41.94225463 29.20193091 -61.1640625 51.51171875 Z " fill="#FECC33" transform="translate(437,319)"/>
<path d="M0 0 C1.06715438 1.60073157 2.12945508 3.20511632 3.15625 4.83203125 C7.16859448 10.74557384 11.66368091 13.82316057 18 17 C18.96164063 17.49242187 19.92328125 17.98484375 20.9140625 18.4921875 C57.95115166 35.88429993 106.32219054 35.96141789 146 29 C146.80791992 28.86609863 147.61583984 28.73219727 148.44824219 28.59423828 C169.7453251 24.9535227 188.85007382 17.53775844 202 0 C202.07445407 4.73222455 202.1287447 9.46410411 202.16479492 14.19677734 C202.17983176 15.80491072 202.20026672 17.41300344 202.22631836 19.02099609 C202.26292822 21.33962064 202.27977722 23.65770049 202.29296875 25.9765625 C202.30845261 26.68930328 202.32393646 27.40204407 202.33988953 28.13638306 C202.34198048 34.41361847 200.37262128 39.03992629 196 43.5 C191.56345432 47.72262419 186.48792619 50.3660889 181 53 C180.11828125 53.43183594 179.2365625 53.86367188 178.328125 54.30859375 C162.2329331 61.60599008 144.41838471 64.099748 127 66 C125.7934375 66.13277344 124.586875 66.26554687 123.34375 66.40234375 C87.28079544 69.59724142 35.7894249 68.79118623 6.1875 44.375 C2.08126421 40.6728103 0.14155968 36.61854969 -0.34057617 31.10595703 C-0.34010716 29.65648872 -0.32351317 28.20695902 -0.29296875 26.7578125 C-0.28872391 25.98944061 -0.28447906 25.22106873 -0.28010559 24.42941284 C-0.26341826 21.99424015 -0.22578641 19.5599192 -0.1875 17.125 C-0.17244023 15.46615785 -0.15875409 13.80730263 -0.14648438 12.1484375 C-0.11354759 8.0986341 -0.06183594 4.04946106 0 0 Z " fill="#F9B837" transform="translate(3,385)"/>
<path d="M0 0 C2 2 2 2 3.625 5.25 C10.18875834 16.82042073 26.82610314 21.95600708 38.83984375 25.42529297 C46.13061597 27.36499435 53.55960948 28.77333926 61 30 C62.03213623 30.17950195 63.06427246 30.35900391 64.12768555 30.54394531 C75.99468511 32.39008815 87.82711674 32.39543292 99.8125 32.375 C101.44165848 32.37518127 101.44165848 32.37518127 103.10372925 32.37536621 C119.41562206 32.34949938 135.03638597 31.62100713 151 28 C151.76844238 27.83983398 152.53688477 27.67966797 153.32861328 27.51464844 C169.05742165 24.23592804 189.51224975 19.07859714 199 5 C200.3049484 2.2875382 200.3049484 2.2875382 201 0 C201.33 0 201.66 0 202 0 C202.0246826 4.94791294 202.04285166 9.8957902 202.05493164 14.84375 C202.05996653 16.52767562 202.06679481 18.21159686 202.07543945 19.89550781 C202.08754196 22.31316203 202.09323668 24.73075856 202.09765625 27.1484375 C202.10281754 27.9036972 202.10797882 28.65895691 202.11329651 29.43710327 C202.11387171 34.77225659 202.11387171 34.77225659 201 37 C202.32 37.66 203.64 38.32 205 39 C204.030625 39.165 203.06125 39.33 202.0625 39.5 C198.51466449 40.49452248 196.61269409 42.12438265 194 44.6875 C170.8371814 66.32180773 128.64172642 67.33016774 99 67 C98.67 67.66 98.34 68.32 98 69 C98 68.34 98 67.68 98 67 C97.41847168 66.98541748 96.83694336 66.97083496 96.23779297 66.95581055 C67.83538061 66.16947884 27.56717944 64.50128149 5.875 43.25 C4.22948865 41.50213627 3.07415633 40.14831266 2 38 C-0.35599235 37.53248212 -0.35599235 37.53248212 -3.0625 37.375 C-3.98160156 37.30023438 -4.90070313 37.22546875 -5.84765625 37.1484375 C-6.55792969 37.09945312 -7.26820312 37.05046875 -8 37 C-8 36.67 -8 36.34 -8 36 C-5.36 35.67 -2.72 35.34 0 35 C0 23.45 0 11.9 0 0 Z " fill="#F9B837" transform="translate(105,211)"/>
<path d="M0 0 C2 2 2 2 3.625 5.25 C10.19175034 16.82569495 26.83430831 21.95707537 38.85302734 25.42529297 C42.81103364 26.48478203 46.79976468 27.36231299 50.8125 28.1875 C51.55693359 28.34234863 52.30136719 28.49719727 53.06835938 28.65673828 C68.68201481 31.66869238 84.266255 32.37649038 100.125 32.3125 C101.5371579 32.30976578 101.5371579 32.30976578 102.97784424 32.30697632 C117.48399767 32.25978759 131.72168876 31.78666928 146 29 C146.90782227 28.82307617 147.81564453 28.64615234 148.75097656 28.46386719 C177.24016863 22.71134698 177.24016863 22.71134698 199 5 C200.3049484 2.2875382 200.3049484 2.2875382 201 0 C201.33 0 201.66 0 202 0 C202.09958121 4.55315922 202.17179985 9.10567152 202.21972656 13.65966797 C202.23972503 15.20567887 202.26693331 16.75161527 202.30175781 18.29736328 C202.51280648 27.91249226 202.62260927 35.20530734 196.3515625 43.06640625 C171.46819202 64.62824085 131.89362867 66.62085118 100.6875 66.4375 C99.61693359 66.43512329 98.54636719 66.43274658 97.44335938 66.43029785 C81.58583964 66.37526989 66.4999757 65.56840794 51 62 C49.44882416 61.69200827 47.89675542 61.3884732 46.34375 61.08984375 C30.23677531 57.84783075 11.91683939 51.91317765 2 38 C-0.13275773 33.78408356 -0.26398786 29.92359774 -0.1953125 25.29296875 C-0.1924826 24.56757401 -0.18965271 23.84217926 -0.18673706 23.09480286 C-0.17559799 20.79219632 -0.15050566 18.48998773 -0.125 16.1875 C-0.11496206 14.62044835 -0.10583763 13.05339057 -0.09765625 11.48632812 C-0.0756793 7.65740022 -0.04119339 3.82876744 0 0 Z " fill="#E59C1C" transform="translate(105,178)"/>
<path d="M0 0 C1.07072305 1.60608458 2.13906591 3.21384234 3.19140625 4.83203125 C3.64386719 5.48558594 4.09632813 6.13914062 4.5625 6.8125 C4.99691406 7.45832031 5.43132813 8.10414063 5.87890625 8.76953125 C11.67915908 14.86887631 19.15270658 18.25922979 26.9375 21.125 C27.85426514 21.4655542 28.77103027 21.8061084 29.71557617 22.15698242 C38.36171533 25.2767696 46.94815719 27.4598523 56 29 C56.81017578 29.14808105 57.62035156 29.29616211 58.45507812 29.44873047 C94.69588945 35.86896573 137.31584981 34.79403089 172 22 C173.7634375 21.36384766 173.7634375 21.36384766 175.5625 20.71484375 C181.3035736 18.48300139 186.27489319 15.75983041 191.2578125 12.13671875 C193 11 193 11 195 11 C195.37125 10.2265625 195.37125 10.2265625 195.75 9.4375 C197.39581616 6.22815849 199.1976096 3.12414336 201 0 C201.33 0 201.66 0 202 0 C202.12447553 4.55312342 202.21474409 9.10523654 202.2746582 13.65966797 C202.29965732 15.20574212 202.33366902 16.75169982 202.37719727 18.29736328 C202.82788187 34.72349164 202.82788187 34.72349164 197 41 C196.37480469 41.75410156 195.74960938 42.50820313 195.10546875 43.28515625 C180.36546547 56.94442609 157.31235534 61.44407885 138 64 C136.79657959 64.16991455 135.59315918 64.3398291 134.35327148 64.51489258 C123.19939475 66.01777127 112.18293392 66.36131431 100.9375 66.3125 C100.03991974 66.31034485 99.14233948 66.3081897 98.21755981 66.30596924 C69.10906132 66.194144 30.17468234 64.31482792 7 44 C1.60498648 37.98513386 -0.15675228 33.5759051 -0.09765625 25.48828125 C-0.0962413 24.76005661 -0.09482635 24.03183197 -0.09336853 23.28153992 C-0.08777659 20.95848461 -0.07522562 18.63552612 -0.0625 16.3125 C-0.05748396 14.73632952 -0.05292123 13.16015752 -0.04882812 11.58398438 C-0.0378098 7.72261902 -0.02055074 3.86132592 0 0 Z " fill="#E59C1C" transform="translate(3,352)"/>
<path d="M0 0 C2 2 2 2 3.625 5.25 C10.44138507 17.26574448 27.34252023 21.96486498 39.83642578 25.42529297 C43.56322062 26.41523599 47.30345815 27.32840654 51.0625 28.1875 C51.73297363 28.34234863 52.40344727 28.49719727 53.09423828 28.65673828 C55.38926444 29.1552325 57.68772815 29.58838795 60 30 C61.50203979 30.26816528 61.50203979 30.26816528 63.03442383 30.54174805 C75.16784953 32.43422624 87.30734967 32.43995852 99.5625 32.4375 C101.25501389 32.43910126 101.25501389 32.43910126 102.98171997 32.44073486 C121.1548862 32.41593783 138.30705298 31.37657057 156 27 C156.96824707 26.76474609 157.93649414 26.52949219 158.93408203 26.28710938 C172.06527264 22.98555288 190.84068365 18.19154147 198.30078125 5.84765625 C199.27831203 3.93626445 200.15021191 1.97150837 201 0 C201.33 0 201.66 0 202 0 C202.09958121 4.55315922 202.17179985 9.10567152 202.21972656 13.65966797 C202.23972503 15.20567887 202.26693331 16.75161527 202.30175781 18.29736328 C202.51280648 27.91249226 202.62260927 35.20530734 196.3515625 43.06640625 C174.83226658 61.71321697 139.89709914 66.05474333 112.4609375 66.203125 C111.58528137 66.21013931 110.70962524 66.21715363 109.80743408 66.22438049 C106.99656973 66.24178162 104.18591624 66.24823288 101.375 66.25 C100.41358093 66.25067474 99.45216187 66.25134949 98.46160889 66.25204468 C83.77181967 66.23566725 69.46501588 65.80329765 55 63 C54.09749512 62.82839355 53.19499023 62.65678711 52.26513672 62.47998047 C34.38655881 58.9521849 13.16320805 53.66181428 2 38 C-0.13275773 33.78408356 -0.26398786 29.92359774 -0.1953125 25.29296875 C-0.1924826 24.56757401 -0.18965271 23.84217926 -0.18673706 23.09480286 C-0.17559799 20.79219632 -0.15050566 18.48998773 -0.125 16.1875 C-0.11496206 14.62044835 -0.10583763 13.05339057 -0.09765625 11.48632812 C-0.0756793 7.65740022 -0.04119339 3.82876744 0 0 Z " fill="#F8B837" transform="translate(105,145)"/>
<path d="M0 0 C1.26660973 1.8999146 2.48265955 3.83537229 3.625 5.8125 C16.26679522 22.77911989 43.0383275 27.08591375 62.5625 30.23828125 C75.01520032 32.05152477 87.37239379 32.28024517 99.9375 32.3125 C100.91199097 32.31511841 101.88648193 32.31773682 102.89050293 32.32043457 C119.26428082 32.3251364 134.91831998 31.28741525 151 28 C151.82290527 27.8345166 152.64581055 27.6690332 153.49365234 27.49853516 C167.61650891 24.55639833 185.63683165 19.66796742 196 9 C197.82573301 6.07577582 199.45345754 3.07992285 201 0 C201.33 0 201.66 0 202 0 C202.12447553 4.55312342 202.21474409 9.10523654 202.2746582 13.65966797 C202.29965732 15.20574212 202.33366902 16.75169982 202.37719727 18.29736328 C202.82638356 34.66888265 202.82638356 34.66888265 197 41 C196.278125 41.86625 195.55625 42.7325 194.8125 43.625 C163.88143365 69.74456714 110.95048827 68.60821059 72.79296875 65.4921875 C67.14449348 64.91574046 61.57524706 64.06895403 56 63 C55.09991211 62.82839355 54.19982422 62.65678711 53.27246094 62.47998047 C35.82469257 59.01212029 14.11396236 54.22554823 2.875 39.1875 C0.096168 34.4634856 -0.13661548 30.82007098 -0.09765625 25.48828125 C-0.0962413 24.76005661 -0.09482635 24.03183197 -0.09336853 23.28153992 C-0.08777659 20.95848461 -0.07522562 18.63552612 -0.0625 16.3125 C-0.05748396 14.73632952 -0.05292123 13.16015752 -0.04882812 11.58398438 C-0.0378098 7.72261902 -0.02055074 3.86132592 0 0 Z " fill="#F8B837" transform="translate(3,319)"/>
<path d="M0 0 C0.33 0 0.66 0 1 0 C1.09940876 4.71388705 1.17172034 9.42715442 1.21972656 14.1418457 C1.23975347 15.74319091 1.26698354 17.3444638 1.30175781 18.94555664 C1.35067419 21.25685537 1.37305711 23.56718154 1.390625 25.87890625 C1.41127014 26.58648575 1.43191528 27.29406525 1.45318604 28.02308655 C1.45563556 33.53773727 0.20085386 36.65259247 -3 41 C-5.03613281 41.82299805 -5.03613281 41.82299805 -7.203125 41.76171875 C-8.01080322 41.76333008 -8.81848145 41.76494141 -9.65063477 41.76660156 C-10.50842529 41.74049805 -11.36621582 41.71439453 -12.25 41.6875 C-25.86770785 41.82092216 -37.87716161 44.56309466 -50 51 C-51.49660156 51.78890625 -51.49660156 51.78890625 -53.0234375 52.59375 C-59.03011536 55.92238761 -63.98827522 59.45494324 -68.76953125 64.3984375 C-73.9518374 68.11953298 -81.93328562 67.18726063 -88.0859375 67.23828125 C-89.53547569 67.25283607 -89.53547569 67.25283607 -91.01429749 67.26768494 C-94.13457398 67.29258488 -97.25463411 67.30520726 -100.375 67.3125 C-101.43534454 67.31511841 -102.49568909 67.31773682 -103.58816528 67.32043457 C-119.44672412 67.32464208 -134.49985523 66.61310216 -150 63 C-151.49195455 62.68379471 -152.98413182 62.36863786 -154.4765625 62.0546875 C-169.94755206 58.63978924 -187.47017536 53.43687865 -197.87890625 40.7734375 C-200.86270576 36.05342016 -201.27656804 31.77185169 -201.1953125 26.29296875 C-201.1924826 25.56757401 -201.18965271 24.84217926 -201.18673706 24.09480286 C-201.17559799 21.79219632 -201.15050566 19.48998773 -201.125 17.1875 C-201.11496206 15.62044835 -201.10583763 14.05339057 -201.09765625 12.48632812 C-201.0756793 8.65740022 -201.04119339 4.82876744 -201 1 C-199.73339027 2.8999146 -198.51734045 4.83537229 -197.375 6.8125 C-186.94227298 20.81431784 -166.58077016 25.81081298 -150.25 29.1875 C-149.51394531 29.34234863 -148.77789062 29.49719727 -148.01953125 29.65673828 C-132.4658481 32.6697726 -116.74053965 33.38372591 -100.9375 33.3125 C-100.04747284 33.31001251 -99.15744568 33.30752502 -98.240448 33.30496216 C-69.16830449 33.17997444 -33.00340724 31.83210119 -9.20703125 12.76171875 C-7 11 -7 11 -5 11 C-3.13448574 7.41247258 -1.57464072 3.72187807 0 0 Z " fill="#E59C1C" transform="translate(437,285)"/>
<path d="M0 0 C0 6.93 0 13.86 0 21 C-2.02125 21.226875 -4.0425 21.45375 -6.125 21.6875 C-22.48087847 24.06413623 -38.1928699 31.24405813 -48.8359375 44.2421875 C-59.46145132 58.76526971 -64.35635828 74.03794113 -63 92 C-60.02344663 109.91311335 -52.33399073 125.06752669 -37.9765625 136.3828125 C-25.72963499 144.91473372 -14.56974555 146.94792316 0 149 C0 156.26 0 163.52 0 171 C-24.02755573 171 -43.76197734 162.74900074 -61 146 C-61.62390625 145.43796875 -62.2478125 144.8759375 -62.890625 144.296875 C-72.7571331 135.14146659 -78.03528769 123.59647368 -82 111 C-82.26997803 110.19353027 -82.53995605 109.38706055 -82.81811523 108.55615234 C-85.17521831 100.92862557 -85.50404618 93.69966931 -85.4375 85.75 C-85.42847656 84.46456299 -85.41945313 83.17912598 -85.41015625 81.85473633 C-84.99039874 58.86572515 -75.33714606 39.98711984 -59.8125 23.3125 C-43.61213494 7.70690359 -22.22395451 -0.24693283 0 0 Z " fill="#FDDA40" transform="translate(426,326)"/>
<path d="M0 0 C17.7446908 0.05545216 32.45468509 6.35250602 45.5234375 18.30859375 C58.47078719 31.76411587 64.66508992 48.02830039 64.47314453 66.59814453 C64.2039164 74.22239421 62.80996153 80.86498796 60 88 C59.59910156 89.02351563 59.19820313 90.04703125 58.78515625 91.1015625 C51.76945025 106.84114639 37.70656556 118.49665416 22 125 C14.55944322 127.50847668 7.82584458 128.34525785 0 128 C0 124.37 0 120.74 0 117 C2.31 117 4.62 117 7 117 C7 111.72 7 106.44 7 101 C8.381875 100.443125 9.76375 99.88625 11.1875 99.3125 C16.60857353 96.87854862 19.71718792 94.12327516 22.8125 89 C25.13292846 82.82118469 25.39518554 75.41869931 22.8984375 69.30078125 C19.85811486 64.38261227 16.38212213 61.26477107 11 59 C8.30252856 58.38281853 5.63195591 58.13293638 2.875 57.9375 C-2.4889448 57.53144437 -7.01603427 56.98396573 -11 53 C-11.46648644 48.9571175 -11.36023643 46.65119662 -9.375 43.0625 C-4.02379039 39.79231635 1.88238009 40.09813957 8 41 C9.91796875 42.23828125 9.91796875 42.23828125 11 44 C11.39500857 47.04946616 11.13430156 49.91106412 11 53 C15.62 53 20.24 53 25 53 C24.84436534 41.46273205 24.84436534 41.46273205 19 32 C15.17103748 29.40177543 11.47831826 28.11957956 7 27 C7 22.05 7 17.1 7 12 C4.69 12 2.38 12 0 12 C0 8.04 0 4.08 0 0 Z " fill="#FE9923" transform="translate(426,347)"/>
<path d="M0 0 C1.26660973 1.8999146 2.48265955 3.83537229 3.625 5.8125 C16.5025856 23.09557541 44.17874113 27.34634994 64.19726562 30.29321289 C77.43103597 32.11432222 90.65548828 32.67561539 104 33 C104 28.38 104 23.76 104 19 C104.33 19 104.66 19 105 19 C105.00410889 19.57741943 105.00821777 20.15483887 105.01245117 20.74975586 C105.20662756 36.4345478 106.89081462 49.86477761 114 64 C114 64.66 114 65.32 114 66 C94.55464225 75.72267888 50.86907106 63.90051588 31.04296875 57.4765625 C20.30561682 53.71888129 7.53395664 48.48721623 1.42578125 38.40039062 C-0.24694225 34.41105966 -0.38241295 31.00139459 -0.29296875 26.7578125 C-0.28872391 25.98944061 -0.28447906 25.22106873 -0.28010559 24.42941284 C-0.26341826 21.99424015 -0.22578641 19.5599192 -0.1875 17.125 C-0.17244023 15.46615785 -0.15875409 13.80730263 -0.14648438 12.1484375 C-0.11354759 8.0986341 -0.06183594 4.04946106 0 0 Z " fill="#F9B837" transform="translate(236,385)"/>
<path d="M0 0 C1.26660973 1.8999146 2.48265955 3.83537229 3.625 5.8125 C15.47124198 21.7114037 41.46576121 27.20869898 60 30 C75.91752145 32.20228721 91.95559666 32.57228834 108 33 C107.86867676 33.73573242 107.73735352 34.47146484 107.60205078 35.22949219 C106.38943655 42.22457264 105.49205252 49.17918509 104.875 56.25 C104.78863281 57.19746094 104.70226562 58.14492188 104.61328125 59.12109375 C104.40485936 61.41373449 104.20045849 63.70665173 104 66 C72.9694576 66.7654593 30.3708072 65.43521962 6 43 C0.96154906 37.34311103 -0.30633101 32.77870334 -0.1953125 25.29296875 C-0.1924826 24.56757401 -0.18965271 23.84217926 -0.18673706 23.09480286 C-0.17559799 20.79219632 -0.15050566 18.48998773 -0.125 16.1875 C-0.11496206 14.62044835 -0.10583763 13.05339057 -0.09765625 11.48632812 C-0.0756793 7.65740022 -0.04119339 3.82876744 0 0 Z " fill="#E59C1C" transform="translate(236,352)"/>
<path d="M0 0 C4.62 0 9.24 0 14 0 C14 4.95 14 9.9 14 15 C16.31 15.33 18.62 15.66 21 16 C26.35986703 18.67993351 29.96787251 22.36106613 32 28 C32.40069692 32.4279546 32.23242083 36.53752009 32 41 C27.38 41 22.76 41 18 41 C17.67 37.37 17.34 33.74 17 30 C14.41554227 29.8918134 11.83562648 29.81262763 9.25 29.75 C8.15558594 29.69972656 8.15558594 29.69972656 7.0390625 29.6484375 C3.49436431 29.58398844 1.43146802 29.68811997 -1.48046875 31.79296875 C-3.70818981 35.02860473 -3.62571448 37.1761893 -3 41 C0.94351342 44.19987946 4.86671867 44.47390134 9.75 44.8125 C17.83869286 45.61907267 22.93463708 47.77086653 28.6484375 53.71484375 C33.08167968 59.50745025 32.82232562 66.00129391 32 73 C30.68534912 78.32433608 27.79328687 83.26974538 23.0703125 86.1953125 C19.83127646 87.89195042 17.70789544 89 14 89 C14 93.95 14 98.9 14 104 C9.38 104 4.76 104 0 104 C0 99.05 0 94.1 0 89 C-1.98 89 -3.96 89 -6 89 C-12.31636665 85.64845851 -16.775763 80.85305455 -19 74 C-19.24900142 70.30979892 -19.08927037 66.7047205 -19 63 C-14.05 63 -9.1 63 -4 63 C-3.8046875 65.5390625 -3.609375 68.078125 -3.4140625 70.6171875 C-3.20431868 73.17941903 -3.20431868 73.17941903 -1 75 C4.88661204 75.76293062 10.23476939 76.13241209 15.3125 72.875 C17.31030588 69.47133072 17.82340122 67.86998573 17 64 C14.28552578 61.24053449 12.67044766 60.09086653 8.80078125 59.56640625 C7.07408203 59.56447266 7.07408203 59.56447266 5.3125 59.5625 C-2.5270568 59.17667888 -8.12848497 57.59164648 -13.9453125 52.1953125 C-18.56678662 46.49907696 -18.82739425 40.68760131 -18.51953125 33.53515625 C-17.5722218 27.08917845 -14.71096546 23.35188544 -9.9375 19.125 C-4.23529412 15 -4.23529412 15 0 15 C0 10.05 0 5.1 0 0 Z " fill="#FDDA40" transform="translate(419,359)"/>
<path d="M0 0 C4.95 0 9.9 0 15 0 C15 6.6 15 13.2 15 20 C21.6 20 28.2 20 35 20 C35 25.28 35 30.56 35 36 C28.4 36 21.8 36 15 36 C15 42.6 15 49.2 15 56 C10.05 56 5.1 56 0 56 C0 49.4 0 42.8 0 36 C-6.6 36 -13.2 36 -20 36 C-20 30.72 -20 25.44 -20 20 C-13.4 20 -6.8 20 0 20 C0 13.4 0 6.8 0 0 Z " fill="#FEA732" transform="translate(377,156)"/>
<path d="M0 0 C4.95 0 9.9 0 15 0 C15 6.6 15 13.2 15 20 C21.6 20 28.2 20 35 20 C35 25.28 35 30.56 35 36 C28.4 36 21.8 36 15 36 C15 42.6 15 49.2 15 56 C10.05 56 5.1 56 0 56 C0 49.4 0 42.8 0 36 C-6.6 36 -13.2 36 -20 36 C-20 30.72 -20 25.44 -20 20 C-13.4 20 -6.8 20 0 20 C0 13.4 0 6.8 0 0 Z " fill="#FEA832" transform="translate(20,156)"/>
<path d="M0 0 C5.28 0 10.56 0 16 0 C16 6.6 16 13.2 16 20 C22.6 20 29.2 20 36 20 C36 24.95 36 29.9 36 35 C29.4 35 22.8 35 16 35 C16 41.6 16 48.2 16 55 C10.72 55 5.44 55 0 55 C0 48.4 0 41.8 0 35 C-6.6 35 -13.2 35 -20 35 C-20 30.05 -20 25.1 -20 20 C-13.4 20 -6.8 20 0 20 C0 13.4 0 6.8 0 0 Z " fill="#FEA832" transform="translate(96,15)"/>
<path d="M0 0 C0 5.28 0 10.56 0 16 C-7.28358209 15.40298507 -7.28358209 15.40298507 -10 13.875 C-11.66754204 10.74835867 -11.47846751 8.46888945 -11 5 C-7.38001788 -0.00409294 -6.48491896 0 0 0 Z " fill="#FEA932" transform="translate(426,388)"/>
<path d="M0 0 C7 0 7 0 9.4375 1.625 C11.48384007 4.73543691 11.59807728 6.33677666 11 10 C9.4375 12.875 9.4375 12.875 7 15 C4.69 15 2.38 15 0 15 C0 10.05 0 5.1 0 0 Z " fill="#FE9923" transform="translate(426,419)"/>
<path d="M0 0 C0.66 0.33 1.32 0.66 2 1 C-1.3 4.3 -4.6 7.6 -8 11 C-8 7.0234755 -6.61988497 5.9109833 -4 3 C-1.75 1.1875 -1.75 1.1875 0 0 Z " fill="#FEBD32" transform="translate(14,266)"/>
<path d="M0 0 C0.33 0 0.66 0 1 0 C1 2.31 1 4.62 1 7 C-0.32 6.67 -1.64 6.34 -3 6 C-2.01 4.02 -1.02 2.04 0 0 Z " fill="#F9B132" transform="translate(437,319)"/>
</svg>
