<?xml version="1.0" encoding="UTF-8"?>
<svg version="1.1" xmlns="http://www.w3.org/2000/svg" width="512" height="512">
<path d="M0 0 C15.06677996 12.7436088 17.04499648 30.84807716 20.22363281 49.26831055 C20.49645524 50.82333983 20.76979199 52.37827895 21.04359436 53.93313599 C21.77835564 58.11394119 22.50605779 62.2959464 23.2324419 66.47821403 C24.00514551 70.91948007 24.78466289 75.3595503 25.56341553 79.79975891 C27.04227601 88.23756719 28.51535492 96.67637361 29.98621154 105.11558038 C32.11400664 117.32236504 34.25084688 129.52756705 36.38784027 141.73274422 C37.96852286 150.76184918 39.54627753 159.79144563 41.11730957 168.82223511 C43.66292199 183.445014 46.21510582 198.06404554 48.93945312 212.65478516 C49.32692517 214.74906688 49.71428073 216.84337016 50.10150146 218.93769836 C50.76266733 222.51030098 51.44402917 226.0779907 52.14117432 229.64372253 C54.7028522 243.16982182 57.54846757 259.60152361 50.234375 272.01953125 C49.81027344 272.79425781 49.38617188 273.56898438 48.94921875 274.3671875 C43.24105366 283.89139611 34.24283289 289.91166059 23.57243347 292.72016907 C20.65990406 293.32776777 17.74341898 293.8673738 14.8125 294.37890625 C13.21798004 294.67006317 13.21798004 294.67006317 11.59124756 294.96710205 C9.36013825 295.37226261 7.12803533 295.77198614 4.89501953 296.16650391 C1.47845788 296.77057744 -1.93467836 297.39165245 -5.34765625 298.015625 C-7.52325862 298.40854382 -9.6990343 298.80050454 -11.875 299.19140625 C-12.89277527 299.37572205 -13.91055054 299.56003784 -14.95916748 299.74993896 C-15.91075745 299.91721497 -16.86234741 300.08449097 -17.84277344 300.25683594 C-18.67500427 300.40465515 -19.50723511 300.55247437 -20.36468506 300.70477295 C-22.85879322 301.03174541 -25.25310767 301.07416184 -27.765625 301.01953125 C-27.75674255 302.18527176 -27.74786011 303.35101227 -27.7387085 304.55207825 C-27.65740589 315.57098944 -27.59755576 326.58983927 -27.55837631 337.60898304 C-27.53755618 343.2732226 -27.50934057 348.93721881 -27.46386719 354.60131836 C-27.42021045 360.07376668 -27.39644602 365.54598182 -27.38611603 371.01859093 C-27.37876016 373.10006057 -27.36439632 375.18151834 -27.34270477 377.26288795 C-27.19120025 392.41107789 -27.75818849 404.51175671 -38.765625 416.01953125 C-51.02336567 427.52540306 -64.0394137 428.17276789 -80.09284973 428.15324402 C-81.55209448 428.155114 -83.01133873 428.15741545 -84.47058219 428.16010934 C-88.46743352 428.16621053 -92.46426389 428.16609573 -96.46111882 428.16491497 C-100.77684228 428.16471054 -105.09255908 428.17023374 -109.40827942 428.17497253 C-117.85848934 428.18327027 -126.30869227 428.18602697 -134.75890592 428.18658491 C-141.62885483 428.18706046 -148.49880144 428.18911714 -155.36874962 428.19228554 C-174.85524836 428.20108948 -194.3417416 428.20570528 -213.82824234 428.20495506 C-215.40321722 428.20489513 -215.40321722 428.20489513 -217.01000977 428.20483398 C-218.06127797 428.2047931 -219.11254617 428.20475222 -220.19567098 428.2047101 C-237.2335044 428.20430364 -254.27131572 428.21387399 -271.30914275 428.22797235 C-288.81221278 428.24234119 -306.31527203 428.24924226 -323.81834811 428.24837857 C-333.64149483 428.2480468 -343.46461838 428.25078557 -353.28775978 428.26155663 C-361.65095731 428.27066826 -370.01412117 428.27283139 -378.37732152 428.2660472 C-382.64194958 428.26278545 -386.90651305 428.26271289 -391.17113495 428.27140045 C-395.08014083 428.27928151 -398.98903106 428.27781769 -402.89803418 428.26911632 C-404.30713404 428.26758487 -405.71624261 428.26938402 -407.12533221 428.2749764 C-422.98487341 428.33371753 -435.80070347 426.44514348 -447.72265625 415.26171875 C-455.5986582 406.61769366 -458.07067441 397.68028415 -458.03977966 386.29902649 C-458.04763468 384.85717768 -458.04763468 384.85717768 -458.05564839 383.38620061 C-458.0706156 380.17449819 -458.07135283 376.96295556 -458.07202148 373.7512207 C-458.07964521 371.4445621 -458.08807307 369.13790603 -458.09724426 366.83125305 C-458.11917611 360.570726 -458.12798652 354.3102478 -458.13307071 348.04968667 C-458.13671607 344.13568497 -458.14295711 340.22169603 -458.1500721 336.3076992 C-458.16952327 325.45667472 -458.1860392 314.60566326 -458.18894863 303.75462055 C-458.1891362 303.06102889 -458.18932377 302.36743722 -458.18951702 301.65282763 C-458.18988326 300.24693978 -458.19024696 298.84105193 -458.19060814 297.43516407 C-458.19079095 296.73734362 -458.19097376 296.03952317 -458.19116211 295.32055664 C-458.19134266 294.62187779 -458.19152321 293.92319894 -458.19170923 293.203348 C-458.19524891 281.88892645 -458.2222616 270.57469545 -458.25966 259.26033995 C-458.29780807 247.62543939 -458.31666618 235.99064236 -458.31740814 224.35567826 C-458.31820021 217.83054212 -458.32690718 211.30565191 -458.35540581 204.78057289 C-458.38162524 198.64007919 -458.38376951 192.50003466 -458.36775017 186.35951042 C-458.36593875 184.11179244 -458.37259842 181.86404839 -458.38856888 179.61638641 C-458.48447716 165.23623813 -457.99824473 153.50511752 -448.5625 141.83203125 C-441.24380233 134.44969273 -431.92676343 129.22941221 -421.43359375 128.921875 C-420.28503906 128.93347656 -419.13648438 128.94507813 -417.953125 128.95703125 C-416.79167969 128.96605469 -415.63023437 128.97507813 -414.43359375 128.984375 C-413.11294922 129.00177734 -413.11294922 129.00177734 -411.765625 129.01953125 C-412.06210937 127.86195313 -412.35859375 126.704375 -412.6640625 125.51171875 C-416.60263086 109.69492834 -421.10641815 90.09711886 -412.765625 75.01953125 C-406.1867091 64.46940446 -397.54759205 58.51653095 -385.765625 55.01953125 C-380.52531996 53.82560525 -375.24873787 52.9028363 -369.95336914 51.99633789 C-368.37210512 51.71797058 -366.7909973 51.43871475 -365.21003246 51.15865326 C-360.90022199 50.39775844 -356.58834291 49.64923866 -352.27601147 48.90278363 C-347.6341844 48.09696898 -342.99443286 47.27936692 -338.35443115 46.46311951 C-330.35763762 45.0579344 -322.35963728 43.65980698 -314.36074829 42.26660156 C-301.78071587 40.07539198 -289.20304669 37.8708128 -276.62573242 35.6640625 C-272.35476742 34.91485721 -268.08378367 34.1657589 -263.81278992 33.41671753 C-262.74957679 33.23024591 -261.68636366 33.0437743 -260.59093195 32.85165203 C-252.98899594 31.518597 -245.38670196 30.18759571 -237.78425598 28.85745239 C-209.54380871 23.91588027 -181.30895425 18.94359996 -153.07943273 13.93999171 C-150.17435337 13.42508371 -147.26925414 12.91028799 -144.36414909 12.39552498 C-129.6317228 9.78497984 -114.89948892 7.17334833 -100.16762161 4.55965042 C-90.74525606 2.88796696 -81.3227412 1.21713802 -71.89966238 -0.45052081 C-67.29033595 -1.26633208 -62.68131681 -2.08384827 -58.07254893 -2.90280873 C-55.2835077 -3.39797878 -52.49417078 -3.89146629 -49.70474422 -4.38446057 C-47.83295208 -4.71577732 -45.961513 -5.04908682 -44.09008884 -5.38247585 C-28.26842814 -8.17352074 -13.86905776 -9.93165577 0 0 Z " fill="#1B3555" transform="translate(457.765625,45.98046875)"/>
<path d="M0 0 C141.9 0 283.8 0 430 0 C430 22.77 430 45.54 430 69 C359.05 69 288.1 69 215 69 C215 122.46 215 175.92 215 231 C171.05625836 231.08060607 171.05625836 231.08060607 152.61914062 231.09765625 C139.89687484 231.10951607 127.17463559 231.12344639 114.45239258 231.15087891 C105.18619701 231.1708497 95.920023 231.18372519 86.65380651 231.18817699 C81.75008018 231.19077812 76.84641549 231.19686676 71.94270897 231.21146011 C67.32086317 231.22510235 62.69910402 231.22920928 58.07723999 231.22621536 C56.38705791 231.22676257 54.69687273 231.23070025 53.00670815 231.23841095 C36.4254301 231.31030333 22.65934659 230.07701981 10.04296875 218.2421875 C-39.00466176 164.41170966 0 72.82438055 0 0 Z " fill="#53D8E3" transform="translate(0,243)"/>
<path d="M0 0 C70.95 0 141.9 0 215 0 C215.0825 21.223125 215.165 42.44625 215.25 64.3125 C215.28641602 70.99927002 215.32283203 77.68604004 215.36035156 84.57543945 C215.37841797 92.77770996 215.37841797 92.77770996 215.3817749 96.62467957 C215.38789431 99.29617049 215.40039509 101.96688942 215.42230225 104.63822937 C215.45515027 108.69817024 215.45561913 112.75755346 215.45410156 116.81762695 C215.468494 117.99593488 215.48288643 119.1742428 215.497715 120.38825703 C215.43929523 132.12208385 212.16832661 141.46038582 204 150 C193.82045809 159.55514622 182.98460263 162.12996066 169.31835938 162.12025452 C168.22392313 162.12153615 168.22392313 162.12153615 167.10737705 162.12284368 C164.68614228 162.12447812 162.26497829 162.1190108 159.84375 162.11352539 C158.09874981 162.11324305 156.35374951 162.11340216 154.60874939 162.1139679 C149.88828881 162.11425405 145.16785379 162.10838672 140.44739914 162.10139394 C135.50798422 162.09513011 130.56856867 162.09455421 125.62915039 162.09336853 C116.28313741 162.09026414 106.93713617 162.08206278 97.59112835 162.07201904 C84.95657885 162.05873683 72.32202612 162.05335079 59.68747139 162.04751682 C39.79163881 162.03812229 19.89583099 162.01819741 0 162 C0 108.54 0 55.08 0 0 Z " fill="#18A8C9" transform="translate(215,312)"/>
<path d="M0 0 C141.9 0 283.8 0 430 0 C430 22.77 430 45.54 430 69 C288.1 69 146.2 69 0 69 C0 46.23 0 23.46 0 0 Z " fill="#D3E7FD" transform="translate(0,243)"/>
<path d="M0 0 C1.26292736 -0.00445784 2.52585471 -0.00891569 3.82705259 -0.01350862 C5.22613495 -0.01341933 6.62521729 -0.01322949 8.02429962 -0.01294994 C9.5125286 -0.01625044 11.00075668 -0.0199764 12.48898363 -0.02409142 C16.57995999 -0.03409854 20.67092167 -0.03782614 24.76190853 -0.04048073 C29.17384144 -0.04438764 33.58576278 -0.05396574 37.99768829 -0.0626936 C48.65352547 -0.08244755 59.30936358 -0.09252307 69.96521449 -0.10142139 C74.98536284 -0.10580622 80.00551014 -0.11117254 85.02565765 -0.11641026 C101.71760336 -0.1334218 118.40954842 -0.14791533 135.10150146 -0.155159 C139.43225353 -0.15706884 143.76300559 -0.15898918 148.09375763 -0.16094494 C149.17012263 -0.16142868 150.24648764 -0.16191242 151.35546976 -0.16241082 C168.78662428 -0.17070873 186.21771011 -0.19604197 203.64883465 -0.22852562 C221.55184355 -0.26161616 239.45481758 -0.27960958 257.35785723 -0.28280324 C267.40694723 -0.28496653 277.45593709 -0.29368871 287.50499725 -0.31926441 C296.06439759 -0.34099869 304.62367346 -0.34900842 313.18309826 -0.33929763 C317.54726509 -0.33476078 321.91117527 -0.33660319 326.2753067 -0.35605907 C330.27778135 -0.37374787 334.27981318 -0.37264715 338.2822929 -0.35716178 C339.72315125 -0.35479433 341.16404073 -0.35906409 342.60485166 -0.37099043 C356.62912188 -0.47979986 369.35189764 2.06988376 379.7324295 12.01703358 C394.83106182 28.29674284 390.76758575 44.84774343 390.76758575 68.13422108 C248.86758575 68.13422108 106.96758575 68.13422108 -39.23241425 68.13422108 C-39.23241425 22.22987325 -39.23241425 22.22987325 -28.23241425 11.13422108 C-19.56850771 4.01948988 -11.30607377 0.0185397 0 0 Z " fill="#18A7C8" transform="translate(39.23241424560547,174.86577892303467)"/>
<path d="M0 0 C3.14384947 11.12641699 4.8694665 22.48406962 6.75 33.875 C7.44926252 38.07226718 8.15300825 42.26876657 8.859375 46.46484375 C9.12470032 48.04166679 9.12470032 48.04166679 9.39538574 49.65034485 C10.56087246 56.53034456 11.78990255 63.39586601 13.078125 70.25390625 C13.2418158 71.12680298 13.40550659 71.99969971 13.57415771 72.89904785 C14.34411766 76.9913661 15.12446676 81.08142857 15.91699219 85.16943359 C16.19481798 86.63245726 16.47249589 88.09550903 16.75 89.55859375 C16.99234375 90.80954834 17.2346875 92.06050293 17.484375 93.34936523 C18 97 18 97 18 105 C-55.26 105 -128.52 105 -204 105 C-213.60927152 66.56291391 -213.60927152 66.56291391 -205 51 C-198.43214309 40.46760771 -189.78122318 34.45601707 -178 31 C-172.24030837 29.70969963 -166.44285894 28.6990538 -160.62670898 27.70019531 C-158.89421271 27.39504481 -157.16187104 27.08901541 -155.42967224 26.78218079 C-150.75833235 25.95730412 -146.08492412 25.144765 -141.41100955 24.33462238 C-136.51268994 23.48348766 -131.61633601 22.62118792 -126.71974182 21.76019287 C-118.50920841 20.31808083 -110.297431 18.88325137 -102.0847168 17.45361328 C-90.49059354 15.43533551 -78.89886904 13.40353816 -67.30755126 11.3692193 C-58.30836632 9.79035203 -49.30851703 8.21527719 -40.30859375 6.640625 C-39.34217791 6.4714837 -38.37576208 6.3023424 -37.38006091 6.1280756 C-31.83764267 5.15823964 -26.29490328 4.19027875 -20.75164223 3.22527122 C-19.07047415 2.93236472 -17.38940572 2.63888571 -15.70844269 2.34480476 C-13.42194708 1.94492201 -11.13509532 1.5471454 -8.84812927 1.14996338 C-7.56637534 0.92655399 -6.28462141 0.70314461 -4.96402645 0.47296524 C-2 0 -2 0 0 0 Z " fill="#3454A1" transform="translate(250,70)"/>
<path d="M0 0 C70.95 0 141.9 0 215 0 C215 22.11 215 44.22 215 67 C144.05 67 73.1 67 0 67 C0 44.89 0 22.78 0 0 Z " fill="#ECF6FD" transform="translate(0,244)"/>
<path d="M0 0 C1.12121798 0.00484369 1.12121798 0.00484369 2.26508683 0.00978523 C4.76476453 0.02183004 7.26433079 0.04120908 9.76396179 0.06056213 C11.55777751 0.07070813 13.35159583 0.08040146 15.14541626 0.0896759 C20.0127695 0.11612471 24.88006192 0.14891081 29.7473681 0.1828258 C34.83492432 0.21720068 39.92251309 0.24575968 45.01010132 0.27493286 C54.64310629 0.33105544 64.2760705 0.3924163 73.90903109 0.4556542 C84.87626636 0.52739659 95.84353424 0.59330686 106.81080878 0.65872467 C129.3703509 0.79341905 151.92983209 0.93621569 174.48930359 1.08229065 C174.48930359 23.19229065 174.48930359 45.30229065 174.48930359 68.08229065 C103.53930359 68.08229065 32.58930359 68.08229065 -40.51069641 68.08229065 C-40.51069641 22.17794282 -40.51069641 22.17794282 -29.51069641 11.08229065 C-20.34570232 3.55607034 -11.89785556 -0.11671261 0 0 Z " fill="#52D8E3" transform="translate(40.51069641113281,174.91770935058594)"/>
<path d="M0 0 C0.71968964 -0.00700928 1.43937927 -0.01401855 2.18087769 -0.02124023 C4.53968888 -0.03872211 6.89728194 -0.02723241 9.25610352 -0.01367188 C10.90845467 -0.01636993 12.56080427 -0.02025496 14.21315002 -0.02526855 C17.6687844 -0.03115055 21.12400388 -0.02264408 24.57958984 -0.00390625 C28.99232552 0.01886496 33.40408691 0.00576414 37.81678677 -0.01819611 C41.22706843 -0.03270484 44.63712214 -0.02802469 48.04741096 -0.01768494 C49.67358581 -0.0150307 51.29978186 -0.01824119 52.92593193 -0.02760315 C68.86915072 -0.09925083 68.86915072 -0.09925083 75.44750977 4.51757812 C78.21646381 7.72101722 79.35659874 10.7902899 79.88500977 15.01757812 C79.22060021 20.33285454 77.883657 24.11825518 74.01000977 27.89257812 C69.48984418 30.7590246 65.52609124 30.65447096 60.21972656 30.69458008 C59.13843979 30.70443687 59.13843979 30.70443687 58.03530884 30.7144928 C55.6557809 30.73416211 53.27631586 30.74587362 50.89672852 30.75585938 C50.08169168 30.7599349 49.26665485 30.76401043 48.42691994 30.76820946 C44.1135547 30.78904225 39.80022102 30.80335646 35.48681641 30.81274414 C31.04149771 30.8238077 26.59667968 30.85821468 22.1515379 30.89791584 C18.72419834 30.92410846 15.29697772 30.93243826 11.86954689 30.93602562 C10.23134794 30.9408841 8.59315404 30.95247706 6.95505333 30.97106361 C4.65746119 30.99551452 2.36116003 30.99448002 0.06347656 30.98754883 C-1.8936602 30.99634819 -1.8936602 30.99634819 -3.89033508 31.00532532 C-8.84751221 30.34509954 -12.8461906 28.59165162 -16.11108398 24.62304688 C-18.43358005 19.55484436 -19.86388844 15.19570091 -17.89233398 9.66601562 C-14.23349035 2.22161516 -7.96222535 0.01960154 0 0 Z " fill="#E9F5FE" transform="translate(54.552490234375,406.482421875)"/>
</svg>
