<?xml version="1.0" encoding="UTF-8"?>
<svg version="1.1" xmlns="http://www.w3.org/2000/svg" width="512" height="512">
<path d="M0 0 C2.3515625 1.8984375 2.3515625 1.8984375 4 4 C4 4.66 4 5.32 4 6 C10.6 6 17.2 6 24 6 C24.33 4.68 24.66 3.36 25 2 C27.54608714 -0.54608714 28.50425317 -0.38506336 32.0625 -0.5 C67.69966868 0.13074635 103.54537602 20.35969915 128.56738281 44.61425781 C129.8526861 45.85750618 131.15573077 47.08235104 132.4609375 48.3046875 C156.33611594 71.17459527 175.84459517 108.26345856 177.375 141.6875 C176.98382653 145.14286566 176.59580454 146.69261818 174 149 C173.01 149 172.02 149 171 149 C171 155.6 171 162.2 171 169 C172.32 169.33 173.64 169.66 175 170 C176.75 171.5625 176.75 171.5625 178 174 C179.65931416 208.05365199 161.52260108 245.50118747 139.3125 270.375 C138.57773437 271.16261719 137.84296875 271.95023437 137.0859375 272.76171875 C135.13555617 274.85454366 133.28368633 277.00298541 131.4375 279.1875 C122.93442734 288.89146219 111.98978256 297.04638095 101 303.75 C94.55770245 307.75416456 91.02819491 311.50857806 89 319 C88.78078173 321.7836354 88.6491409 324.46662448 88.62890625 327.25 C88.61987778 328.02633789 88.6108493 328.80267578 88.60154724 329.60253906 C88.58710535 331.23628924 88.57817316 332.87009646 88.57446289 334.50390625 C88.56253269 336.9931791 88.51326527 339.47999676 88.46289062 341.96875 C88.45342841 343.562488 88.44619241 345.1562411 88.44140625 346.75 C88.41210777 347.85649902 88.41210777 347.85649902 88.38221741 348.98535156 C88.43323325 354.86886883 90.18911848 356.88486581 94 361 C96.63641706 366.21064274 96.33130832 371.21600757 96.3125 376.9375 C96.32861328 377.91396484 96.34472656 378.89042969 96.36132812 379.89648438 C96.36512116 385.49120577 95.82676614 389.04738248 93 394 C93.68396903 396.96386578 94.64852716 399.29705432 96 402 C96.29628421 405.70171367 96.278128 409.41282402 96.3125 413.125 C96.34150391 414.1459375 96.37050781 415.166875 96.40039062 416.21875 C96.45437849 422.6806819 95.80408381 427.6465955 92 433 C87.8 437 87.8 437 85 437 C85.33 437.66 85.66 438.32 86 439 C86.29518568 442.53489938 86.27809722 446.0792206 86.3125 449.625 C86.34150391 450.59824219 86.37050781 451.57148438 86.40039062 452.57421875 C86.46562778 460.03132698 85.11118583 465.24337002 80.32421875 471.0234375 C79.78410156 471.46945312 79.24398437 471.91546875 78.6875 472.375 C77.88892578 473.06722656 77.88892578 473.06722656 77.07421875 473.7734375 C71.51887917 477.05851589 65.80914353 477.27359353 59.5625 477.125 C58.83095703 477.11597656 58.09941406 477.10695313 57.34570312 477.09765625 C55.56365702 477.07436153 53.78178241 477.0385019 52 477 C51.938125 478.27875 51.87625 479.5575 51.8125 480.875 C50.70380735 490.43372851 45.23211115 498.80780026 38 505 C26.70528112 511.8226982 14.86717703 514.15575029 1.87109375 511.31640625 C-8.68566922 507.3349041 -17.42435011 499.39940164 -22.25390625 489.19921875 C-23.59962553 485.23251742 -23.82940878 481.1624257 -24 477 C-25.05058594 477.03480469 -26.10117188 477.06960938 -27.18359375 477.10546875 C-36.33918842 477.31922653 -43.76388554 477.14166868 -51.8125 472.3125 C-59.22256629 464.47900135 -58.50030521 456.08289728 -58.3125 445.93554688 C-58.11738079 440.29974739 -58.11738079 440.29974739 -60.27050781 435.32958984 C-61.79497745 434.14927935 -63.39734759 433.07174894 -65 432 C-68.9634232 426.50639442 -68.44602198 420.56890219 -68.375 414.0625 C-68.38660156 413.00353516 -68.39820313 411.94457031 -68.41015625 410.85351562 C-68.37774519 402.1943608 -68.37774519 402.1943608 -66.2890625 398.12109375 C-65.86367187 397.09113281 -65.43828125 396.06117188 -65 395 C-65.9635201 392.9821722 -66.97104162 390.98525682 -68 389 C-68.49457885 385.02024409 -68.46422291 381.06850654 -68.4375 377.0625 C-68.45748047 376.00353516 -68.47746094 374.94457031 -68.49804688 373.85351562 C-68.49331673 366.27110099 -67.50899309 361.50899309 -62 356 C-61.77516283 353.06861452 -61.67181146 350.23467526 -61.6640625 347.30078125 C-61.6540773 345.99816597 -61.6540773 345.99816597 -61.64389038 344.66923523 C-61.63375153 342.82744466 -61.62907374 340.98561727 -61.62939453 339.14379883 C-61.62504374 336.34068049 -61.58880089 333.53916531 -61.55078125 330.73632812 C-61.54490866 328.94531787 -61.54094223 327.15430015 -61.5390625 325.36328125 C-61.52469147 324.53073318 -61.51032043 323.69818512 -61.49551392 322.84040833 C-61.5402192 317.07287824 -62.697948 313.75256776 -66 309 C-69.27805556 305.98397498 -72.95114216 303.66441548 -76.6875 301.25 C-91.59736914 291.3770022 -105.54661833 279.28530646 -116.375 265 C-116.93662842 264.25943359 -117.49825684 263.51886719 -118.0769043 262.75585938 C-144.19317663 227.78983977 -155.84498898 183.54831969 -149.69140625 140.21875 C-145.66169734 114.56313679 -136.76986683 88.8868445 -121 68 C-120.22785156 66.93523437 -119.45570312 65.87046875 -118.66015625 64.7734375 C-94.65220189 32.38233989 -60.94422223 11.4505185 -22 2 C-21.03449219 1.75378906 -20.06898438 1.50757812 -19.07421875 1.25390625 C-12.9387297 -0.16498675 -6.2358033 -1.07892198 0 0 Z " fill="#FEDF7C" transform="translate(242,0)"/>
<path d="M0 0 C2.87446907 2.28309432 3.86589677 3.29968313 4.5625 6.9375 C3.78493634 11.17090215 2.38177166 12.34503135 -1 15 C-4.27943092 16.01837527 -7.60202149 16.42575869 -11 16.875 C-35.59816944 20.81689687 -59.95792441 30.62261738 -79 47 C-80.26070312 48.07314453 -80.26070312 48.07314453 -81.546875 49.16796875 C-84.08439342 51.39420773 -86.54869403 53.67932789 -89 56 C-89.88429687 56.81984375 -90.76859375 57.6396875 -91.6796875 58.484375 C-112.23527914 78.16649957 -126.36924345 105.16180536 -132 133 C-132.17772949 133.85150635 -132.35545898 134.7030127 -132.53857422 135.58032227 C-134.0292903 143.48309195 -134.30839977 151.22521257 -134.26074219 159.23535156 C-134.25004756 161.36552614 -134.26068799 163.49485123 -134.2734375 165.625 C-134.31681122 206.19877485 -116.21645052 243.40565059 -88 272 C-80.54081678 278.7598848 -72.29543361 284.34059912 -64 290 C-54.45380481 296.55410416 -47.6529824 303.4017679 -45 315 C-44.38521581 321.20760752 -44.619879 327.46071911 -44.75 333.6875 C-44.77010626 335.37172343 -44.7883497 337.05597017 -44.8046875 338.74023438 C-44.84490047 342.82788311 -44.92323436 346.91222963 -45 351 C-34.44 351 -23.88 351 -13 351 C-13.0466977 342.93063754 -13.09718491 334.86283538 -13.18379211 326.79405212 C-13.22305424 323.03602308 -13.25548965 319.27822806 -13.27099609 315.52001953 C-13.28622219 311.89520046 -13.32077094 308.27101857 -13.36830902 304.64648438 C-13.38306199 303.26877403 -13.3910375 301.89097267 -13.39188385 300.51318359 C-13.40606012 288.99941543 -15.22756253 282.7202957 -23 274 C-29.61817811 266.35826815 -34.27156065 258.27363232 -34.22705078 247.90283203 C-34.22689972 246.72206085 -34.22674866 245.54128967 -34.22659302 244.32473755 C-34.21627045 243.06515228 -34.20594788 241.80556702 -34.1953125 240.5078125 C-34.1924826 239.20673553 -34.18965271 237.90565857 -34.18673706 236.56515503 C-34.17913675 233.1226418 -34.15951973 229.68029997 -34.1373291 226.237854 C-34.11679261 222.71848875 -34.10771873 219.19909553 -34.09765625 215.6796875 C-34.07627002 208.78638837 -34.0421781 201.89320243 -34 195 C-34.78375 194.731875 -35.5675 194.46375 -36.375 194.1875 C-39 193 -39 193 -41 190 C-41.47654701 186.26704845 -41.50050246 184.65583081 -39.1875 181.625 C-37 180 -37 180 -34 180 C-33.938125 179.2575 -33.87625 178.515 -33.8125 177.75 C-32.71870282 174.04791724 -31.31621484 172.91603524 -28 171 C-24.75533303 171.06489334 -22.8262531 171.4491646 -20.125 173.25 C-19 175 -19 175 -19 180 C2.78 180 24.56 180 47 180 C47 178.35 47 176.7 47 175 C49.125 172.625 49.125 172.625 52 171 C55.24466697 171.06489334 57.1737469 171.4491646 59.875 173.25 C61.37422891 175.58213386 61.22023906 177.28371825 61 180 C62.1446875 180.1546875 62.1446875 180.1546875 63.3125 180.3125 C66.26644989 181.0681616 67.33726664 181.46214383 69 184 C69.5 186.875 69.5 186.875 69 190 C66.6875 192.875 66.6875 192.875 64 195 C63.01 195 62.02 195 61 195 C61.0199855 196.12514008 61.0199855 196.12514008 61.04037476 197.27301025 C61.16131559 204.39176144 61.25230726 211.51014831 61.31087303 218.62964249 C61.34199684 222.28870224 61.38411192 225.94690315 61.45263672 229.60546875 C61.51852098 233.14579269 61.55384795 236.68529832 61.56926346 240.22618866 C61.58551205 242.2135878 61.63223787 244.20066416 61.67977905 246.18756104 C61.68393887 257.57306732 57.91708579 266.35097265 50.375 274.8125 C42.41059605 283.82485184 41.39777862 289.80146897 41.390625 301.68359375 C41.3756272 303.10850388 41.3588967 304.53339672 41.34051514 305.95826721 C41.29700796 309.68839358 41.27687993 313.41828552 41.26177979 317.14862061 C41.23868988 321.63512001 41.18627961 326.12136307 41.13883972 330.60765839 C41.07021498 337.40517214 41.03861431 344.20195139 41 351 C51.56 351 62.12 351 73 351 C72.95359375 348.44507813 72.9071875 345.89015625 72.859375 343.2578125 C72.82807943 340.7522988 72.80384887 338.24680781 72.78027344 335.74121094 C72.76029715 334.01487298 72.73310628 332.28860147 72.69824219 330.5625 C72.42095351 316.4697107 73.37994476 306.92455949 83.515625 296.30859375 C87.37938952 292.71820879 91.59972737 289.88499078 96 287 C106.59011453 279.56079037 116.77632811 272.06106496 125 262 C125.76957031 261.12859375 126.53914063 260.2571875 127.33203125 259.359375 C145.78437343 238.15760549 158.43761618 209.91621761 160.85083008 181.87597656 C161.44423534 176.03090587 162.64470968 173.04558078 167 169 C170.5625 168.3125 170.5625 168.3125 174 169 C176.4375 171 176.4375 171 178 174 C179.82511529 207.96949274 161.44069804 245.59291335 139.3125 270.375 C138.57773437 271.16261719 137.84296875 271.95023437 137.0859375 272.76171875 C135.13555617 274.85454366 133.28368633 277.00298541 131.4375 279.1875 C122.93442734 288.89146219 111.98978256 297.04638095 101 303.75 C94.55770245 307.75416456 91.02819491 311.50857806 89 319 C88.78078173 321.7836354 88.6491409 324.46662448 88.62890625 327.25 C88.61987778 328.02633789 88.6108493 328.80267578 88.60154724 329.60253906 C88.58710535 331.23628924 88.57817316 332.87009646 88.57446289 334.50390625 C88.56253269 336.9931791 88.51326527 339.47999676 88.46289062 341.96875 C88.45342841 343.562488 88.44619241 345.1562411 88.44140625 346.75 C88.41210777 347.85649902 88.41210777 347.85649902 88.38221741 348.98535156 C88.43323325 354.86886883 90.18911848 356.88486581 94 361 C96.63641706 366.21064274 96.33130832 371.21600757 96.3125 376.9375 C96.32861328 377.91396484 96.34472656 378.89042969 96.36132812 379.89648438 C96.36512116 385.49120577 95.82676614 389.04738248 93 394 C93.68396903 396.96386578 94.64852716 399.29705432 96 402 C96.29628421 405.70171367 96.278128 409.41282402 96.3125 413.125 C96.34150391 414.1459375 96.37050781 415.166875 96.40039062 416.21875 C96.45437849 422.6806819 95.80408381 427.6465955 92 433 C87.8 437 87.8 437 85 437 C85.33 437.66 85.66 438.32 86 439 C86.29518568 442.53489938 86.27809722 446.0792206 86.3125 449.625 C86.34150391 450.59824219 86.37050781 451.57148438 86.40039062 452.57421875 C86.46562778 460.03132698 85.11118583 465.24337002 80.32421875 471.0234375 C79.78410156 471.46945312 79.24398437 471.91546875 78.6875 472.375 C77.88892578 473.06722656 77.88892578 473.06722656 77.07421875 473.7734375 C71.51887917 477.05851589 65.80914353 477.27359353 59.5625 477.125 C58.83095703 477.11597656 58.09941406 477.10695313 57.34570312 477.09765625 C55.56365702 477.07436153 53.78178241 477.0385019 52 477 C51.938125 478.27875 51.87625 479.5575 51.8125 480.875 C50.70380735 490.43372851 45.23211115 498.80780026 38 505 C26.70528112 511.8226982 14.86717703 514.15575029 1.87109375 511.31640625 C-8.68566922 507.3349041 -17.42435011 499.39940164 -22.25390625 489.19921875 C-23.59962553 485.23251742 -23.82940878 481.1624257 -24 477 C-25.05058594 477.03480469 -26.10117188 477.06960938 -27.18359375 477.10546875 C-36.33918842 477.31922653 -43.76388554 477.14166868 -51.8125 472.3125 C-59.22256629 464.47900135 -58.50030521 456.08289728 -58.3125 445.93554688 C-58.11738079 440.29974739 -58.11738079 440.29974739 -60.27050781 435.32958984 C-61.79497745 434.14927935 -63.39734759 433.07174894 -65 432 C-68.9634232 426.50639442 -68.44602198 420.56890219 -68.375 414.0625 C-68.38660156 413.00353516 -68.39820313 411.94457031 -68.41015625 410.85351562 C-68.37774519 402.1943608 -68.37774519 402.1943608 -66.2890625 398.12109375 C-65.86367187 397.09113281 -65.43828125 396.06117188 -65 395 C-65.9635201 392.9821722 -66.97104162 390.98525682 -68 389 C-68.49457885 385.02024409 -68.46422291 381.06850654 -68.4375 377.0625 C-68.45748047 376.00353516 -68.47746094 374.94457031 -68.49804688 373.85351562 C-68.49331673 366.27110099 -67.50899309 361.50899309 -62 356 C-61.77516283 353.06861452 -61.67181146 350.23467526 -61.6640625 347.30078125 C-61.6540773 345.99816597 -61.6540773 345.99816597 -61.64389038 344.66923523 C-61.63375153 342.82744466 -61.62907374 340.98561727 -61.62939453 339.14379883 C-61.62504374 336.34068049 -61.58880089 333.53916531 -61.55078125 330.73632812 C-61.54490866 328.94531787 -61.54094223 327.15430015 -61.5390625 325.36328125 C-61.52469147 324.53073318 -61.51032043 323.69818512 -61.49551392 322.84040833 C-61.5402192 317.07287824 -62.697948 313.75256776 -66 309 C-69.27805556 305.98397498 -72.95114216 303.66441548 -76.6875 301.25 C-91.59736914 291.3770022 -105.54661833 279.28530646 -116.375 265 C-116.93662842 264.25943359 -117.49825684 263.51886719 -118.0769043 262.75585938 C-144.19317663 227.78983977 -155.84498898 183.54831969 -149.69140625 140.21875 C-145.66169734 114.56313679 -136.76986683 88.8868445 -121 68 C-120.22785156 66.93523437 -119.45570312 65.87046875 -118.66015625 64.7734375 C-94.65220189 32.38233989 -60.94422223 11.4505185 -22 2 C-21.03449219 1.75378906 -20.06898438 1.50757812 -19.07421875 1.25390625 C-12.9387297 -0.16498675 -6.2358033 -1.07892198 0 0 Z " fill="#020201" transform="translate(242,0)"/>
<path d="M0 0 C35.63716868 0.63074635 71.48287602 20.85969915 96.50488281 45.11425781 C97.7901861 46.35750618 99.09323077 47.58235104 100.3984375 48.8046875 C124.27361594 71.67459527 143.78209517 108.76345856 145.3125 142.1875 C144.9375 145.5 144.9375 145.5 143.9375 148 C141.37145674 149.92453245 139.12660541 149.98263421 135.97265625 150.03125 C132.81634444 149.20733751 131.86185985 148.17581442 129.9375 145.5 C128.87129933 142.0345565 128.26720034 138.50224873 127.625 134.9375 C121.6959213 105.37790075 107.76342015 80.11717851 86.9375 58.5 C86.29554688 57.79488281 85.65359375 57.08976562 84.9921875 56.36328125 C71.31551588 41.76891088 52.39055602 31.62296293 33.9375 24.5 C32.25527344 23.83871094 32.25527344 23.83871094 30.5390625 23.1640625 C21.70015072 19.94459132 12.91252861 18.27496835 3.61743164 16.93115234 C2.1903186 16.71386475 2.1903186 16.71386475 0.734375 16.4921875 C-0.11801758 16.37214355 -0.97041016 16.25209961 -1.84863281 16.12841797 C-4.39675339 15.4051204 -5.45989173 14.58704193 -7.0625 12.5 C-7.0625 11.84 -7.0625 11.18 -7.0625 10.5 C-38.12950033 17.90015266 -65.41272619 31.66383898 -88.0625 54.5 C-88.54944336 54.98968262 -89.03638672 55.47936523 -89.53808594 55.98388672 C-119.76576484 86.7698337 -132.56408215 127.45013443 -132.28967285 169.78697205 C-132.03121946 194.41105294 -125.12905332 218.01027624 -113.0625 239.5 C-112.49917969 240.54929688 -111.93585938 241.59859375 -111.35546875 242.6796875 C-99.46928313 264.11379272 -81.77901786 281.74651098 -61.32836914 294.99487305 C-49.44713704 302.73072592 -49.44713704 302.73072592 -47.0625 307.5 C-46.5675 298.095 -46.5675 298.095 -46.0625 288.5 C-45.7325 288.5 -45.4025 288.5 -45.0625 288.5 C-45.0625 309.29 -45.0625 330.08 -45.0625 351.5 C-55.6225 351.5 -66.1825 351.5 -77.0625 351.5 C-77.08828125 349.02886719 -77.1140625 346.55773437 -77.140625 344.01171875 C-77.17918747 341.58216623 -77.22430134 339.15281588 -77.27001953 336.72338867 C-77.29800825 335.05259068 -77.31933112 333.38166572 -77.33349609 331.71069336 C-77.45586686 318.08266892 -78.43220399 307.18890193 -88.3125 296.90234375 C-91.89435653 293.77330715 -95.71544697 291.29878985 -99.76269531 288.81933594 C-105.64626208 285.21450402 -110.86093373 281.03450662 -116.0625 276.5 C-117.03960937 275.66855469 -118.01671875 274.83710938 -119.0234375 273.98046875 C-144.90677579 251.50711125 -163.67530733 215.62595634 -166.85742188 181.50732422 C-168.13260368 162.80769389 -168.31018676 143.6033212 -163.0625 125.5 C-162.84819336 124.7373584 -162.63388672 123.9747168 -162.41308594 123.18896484 C-159.19144607 111.98356679 -154.6221799 101.72534092 -149.0625 91.5 C-148.23105469 89.92992188 -148.23105469 89.92992188 -147.3828125 88.328125 C-129.62064654 56.20325067 -97.27487371 30.72294721 -62.0625 20.5 C-53.34427027 18.02292967 -44.77333343 16.10516075 -35.734375 15.1875 C-32.4225742 14.33534073 -31.14867725 13.17949371 -29.0625 10.5 C-28.7325 9.18 -28.4025 7.86 -28.0625 6.5 C-21.4625 6.5 -14.8625 6.5 -8.0625 6.5 C-7.7325 5.18 -7.4025 3.86 -7.0625 2.5 C-4.51641286 -0.04608714 -3.55824683 0.11493664 0 0 Z " fill="#FDC04F" transform="translate(274.0625,-0.5)"/>
<path d="M0 0 C21.45 0 42.9 0 65 0 C65.0825 9.590625 65.165 19.18125 65.25 29.0625 C65.28641602 32.07898682 65.32283203 35.09547363 65.36035156 38.20336914 C65.37203868 40.60562428 65.38223045 43.00788735 65.390625 45.41015625 C65.41108887 46.6482605 65.43155273 47.88636475 65.45263672 49.1619873 C65.45541644 56.04527605 65.1651161 60.43226729 61 66 C60.53787109 66.63397705 60.07574219 67.2679541 59.59960938 67.92114258 C59.18517578 68.40736084 58.77074219 68.8935791 58.34375 69.39453125 C57.87839844 69.95849609 57.41304688 70.52246094 56.93359375 71.10351562 C55.98362232 72.23597475 55.02793795 73.36366781 54.06640625 74.48632812 C46.32177084 83.93649959 45.39761081 93.57267607 45.390625 105.4140625 C45.37561472 106.87952475 45.35888168 108.34497026 45.34051514 109.81039429 C45.29714791 113.63418429 45.27691141 117.45774624 45.26177979 121.28173828 C45.24209704 125.19707557 45.20014033 129.11217048 45.16015625 133.02734375 C45.08518654 140.68486084 45.03675852 148.34218667 45 156 C37.08 156 29.16 156 21 156 C20.9906543 154.0833252 20.98130859 152.16665039 20.97167969 150.19189453 C20.93601186 143.82548994 20.88212553 137.45943825 20.81609726 131.09327888 C20.77675926 127.23730002 20.74450449 123.38154483 20.72900391 119.52539062 C20.71374613 115.79683096 20.6791424 112.06888682 20.63169098 108.34060287 C20.61697031 106.92546851 20.60896439 105.51024622 20.60811615 104.09503555 C20.59478521 92.99558131 19.10424286 84.40301729 12.1875 75.5 C11.49914062 74.5925 10.81078125 73.685 10.1015625 72.75 C9.40804687 71.8425 8.71453125 70.935 8 70 C6.67655182 68.17455423 5.36339026 66.3415895 4.0625 64.5 C3.49660156 63.7059375 2.93070313 62.911875 2.34765625 62.09375 C0.03092676 58.49442534 -0.12274537 55.60365335 -0.11352539 51.42700195 C-0.11340454 50.27010864 -0.11328369 49.11321533 -0.11315918 47.92126465 C-0.10804321 46.70588013 -0.10292725 45.49049561 -0.09765625 44.23828125 C-0.09664917 43.12078491 -0.09564209 42.00328857 -0.09460449 40.85192871 C-0.08936715 36.67210872 -0.07540592 32.49230335 -0.0625 28.3125 C-0.041875 18.969375 -0.02125 9.62625 0 0 Z " fill="#FDDF7C" transform="translate(223,195)"/>
<path d="M0 0 C33.72237531 5.83621748 64.01988037 20.81965001 88.56738281 44.61425781 C89.8526861 45.85750618 91.15573077 47.08235104 92.4609375 48.3046875 C116.33611594 71.17459527 135.84459517 108.26345856 137.375 141.6875 C137 145 137 145 136 147.5 C133.43395674 149.42453245 131.18910541 149.48263421 128.03515625 149.53125 C124.87884444 148.70733751 123.92435985 147.67581442 122 145 C120.93379933 141.5345565 120.32970034 138.00224873 119.6875 134.4375 C113.7584213 104.87790075 99.82592015 79.61717851 79 58 C78.35804688 57.29488281 77.71609375 56.58976562 77.0546875 55.86328125 C63.37801588 41.26891088 44.45305602 31.12296293 26 24 C24.87851562 23.55914063 23.75703125 23.11828125 22.6015625 22.6640625 C13.78191003 19.4516063 5.06548309 17.80725706 -4.23217773 16.60693359 C-11.37731049 15.56391056 -11.37731049 15.56391056 -14.6484375 12.6015625 C-16.43608446 9.16060042 -16.49557505 6.82300754 -16 3 C-12.2882975 -2.15314036 -5.63031488 -0.72050048 0 0 Z " fill="#020101" transform="translate(282,0)"/>
<path d="M0 0 C1.06694092 -0.00845947 2.13388184 -0.01691895 3.2331543 -0.02563477 C4.98886497 -0.01652573 4.98886497 -0.01652573 6.78004456 -0.00723267 C8.62911911 -0.0151181 8.62911911 -0.0151181 10.51554871 -0.02316284 C13.89795649 -0.0341165 17.27981491 -0.03153172 20.66219211 -0.02202559 C24.20108201 -0.01443486 27.73994829 -0.02147312 31.27883911 -0.02618408 C37.22313149 -0.03164408 43.16731211 -0.02444444 49.11158752 -0.01016235 C55.98320813 0.00615722 62.85456162 0.00088183 69.72617573 -0.01564157 C75.62521158 -0.02925851 81.52416704 -0.03117488 87.42321354 -0.02332556 C90.94673195 -0.01864919 94.47012484 -0.01802296 97.99363518 -0.02793503 C101.92254377 -0.03821511 105.85115362 -0.02396376 109.78004456 -0.00723267 C111.53271889 -0.01634171 111.53271889 -0.01634171 113.32080078 -0.02563477 C114.92544189 -0.01294556 114.92544189 -0.01294556 116.5625 0 C117.49145804 0.00113108 118.42041609 0.00226215 119.37752438 0.00342751 C122.34867605 0.45806086 123.72033866 1.27185691 125.84474182 3.38095093 C126.25476374 6.03101906 126.40547386 8.17913781 126.34474182 10.81845093 C126.36021057 12.79651733 126.36021057 12.79651733 126.37599182 14.81454468 C125.76057373 18.9459911 125.06032799 19.8492549 121.84474182 22.38095093 C119.37752438 22.88152218 119.37752438 22.88152218 116.5625 22.88215637 C115.49273926 22.89199051 114.42297852 22.90182465 113.32080078 22.91195679 C112.15235123 22.90228882 110.98390167 22.89262085 109.78004456 22.88265991 C108.54557587 22.8880629 107.31110718 22.89346588 106.03923035 22.89903259 C102.65678762 22.90939728 99.27532294 22.9018181 95.89296603 22.88532138 C92.3536176 22.87146831 88.81429862 22.87793113 85.27493286 22.88145447 C79.33238021 22.88415605 73.3900296 22.87068445 67.44752502 22.84750366 C60.57528561 22.82088185 53.70338374 22.8191508 46.83111042 22.83089203 C40.22094108 22.84166669 33.61089396 22.83548604 27.00073433 22.82133675 C24.18697791 22.81557541 21.37331089 22.81566071 18.55955315 22.82040215 C14.63292005 22.82605532 10.70662557 22.80686523 6.78004456 22.78500366 C5.60957077 22.78950531 4.43909698 22.79400696 3.2331543 22.79864502 C2.16621338 22.78874039 1.09927246 22.77883575 0 22.76863098 C-0.92858102 22.76620109 -1.85716204 22.76377119 -2.81388187 22.76126766 C-5.15525818 22.38095093 -5.15525818 22.38095093 -6.95255947 21.08718967 C-9.00760045 18.17175414 -8.58522828 14.81352838 -8.53025818 11.38095093 C-8.54185974 10.6564978 -8.5534613 9.93204468 -8.56541443 9.18563843 C-8.53627784 3.92162728 -8.53627784 3.92162728 -6.95255947 1.67429161 C-4.53346832 -0.06648998 -2.96890028 0.00361633 0 0 Z " fill="#DCD9DC" transform="translate(197.15525817871094,365.6190490722656)"/>
<path d="M0 0 C1.61520035 -0.01268921 1.61520035 -0.01268921 3.26303101 -0.02563477 C4.44442657 -0.01956207 5.62582214 -0.01348938 6.84301758 -0.00723267 C8.70913193 -0.0151181 8.70913193 -0.0151181 10.61294556 -0.02316284 C14.0262752 -0.03411622 17.43906045 -0.03153227 20.85235977 -0.02202559 C24.42241403 -0.01443632 27.99244484 -0.02147255 31.5625 -0.02618408 C37.55806664 -0.03164379 43.55352245 -0.02444445 49.54907227 -0.01016235 C56.483196 0.00616466 63.41705512 0.0008763 70.35117245 -0.01564157 C76.30199672 -0.02925038 82.25274128 -0.03117909 88.20357609 -0.02332556 C91.7589203 -0.01864568 95.31414008 -0.01803274 98.86947632 -0.02793503 C102.83211575 -0.03820057 106.79445818 -0.02397709 110.75708008 -0.00723267 C111.93847565 -0.01330536 113.11987122 -0.01937805 114.33706665 -0.02563477 C115.952267 -0.01294556 115.952267 -0.01294556 117.60009766 0 C119.00597893 0.00169662 119.00597893 0.00169662 120.44026184 0.00342751 C122.80004883 0.38095093 122.80004883 0.38095093 124.60014343 1.68796349 C126.58174797 4.4838769 126.23154468 7.58535984 126.17504883 10.88095093 C126.18665039 11.55770874 126.19825195 12.23446655 126.21020508 12.93173218 C126.18115031 17.84198717 126.18115031 17.84198717 124.60293674 20.07393837 C122.15973937 21.84514645 120.56095678 21.75830802 117.55540466 21.76190186 C116.46874512 21.77036133 115.38208557 21.7788208 114.26249695 21.78753662 C113.0701796 21.78146393 111.87786224 21.77539124 110.64941406 21.76913452 C109.39397797 21.77439148 108.13854187 21.77964844 106.84506226 21.7850647 C103.4009124 21.79875173 99.95703185 21.79343448 96.51287723 21.78392744 C92.91165861 21.77633961 89.31046328 21.78337385 85.70924377 21.78808594 C79.66240288 21.79354536 73.61567187 21.78634631 67.56884766 21.77206421 C60.57222078 21.75572987 53.57585604 21.76103098 46.57923549 21.77754343 C40.5766228 21.79114425 34.57408915 21.79308509 28.57146603 21.78522742 C24.98429601 21.78054408 21.39724935 21.77994419 17.8100872 21.78983688 C13.81371693 21.80008817 9.81764193 21.78589206 5.82128906 21.76913452 C4.02977669 21.77824356 4.02977669 21.77824356 2.20207214 21.78753662 C1.11823242 21.77907715 0.0343927 21.77061768 -1.08229065 21.76190186 C-2.02784097 21.76077078 -2.97339128 21.7596397 -3.94759464 21.75847435 C-5.06251112 21.57160026 -5.06251112 21.57160026 -6.19995117 21.38095093 C-8.60970823 17.76631534 -8.53234549 15.05875832 -8.51245117 10.88095093 C-8.53662109 9.86581421 -8.53662109 9.86581421 -8.5612793 8.83016968 C-8.56614281 3.89857106 -8.56614281 3.89857106 -7.00224304 1.68796349 C-4.56979689 -0.07603363 -2.99274914 0.00361164 0 0 Z " fill="#EEEBEE" transform="translate(197.199951171875,402.6190490722656)"/>
<path d="M0 0 C0.89161835 -0.00990463 1.78323669 -0.01980927 2.70187378 -0.03001404 C3.67238678 -0.02551239 4.64289978 -0.02101074 5.64282227 -0.01637268 C6.67085968 -0.02323593 7.69889709 -0.03009918 8.75808716 -0.03717041 C12.15860782 -0.05548225 15.5586691 -0.05159489 18.95922852 -0.0459137 C21.3204768 -0.05047305 23.68172374 -0.05577789 26.04296875 -0.0617981 C30.99264923 -0.07073759 35.94216843 -0.06829604 40.8918457 -0.05836487 C47.24090676 -0.04686848 53.58941222 -0.06709327 59.93840027 -0.09628201 C64.8145299 -0.11460926 69.69052549 -0.11435855 74.56668091 -0.10864449 C76.90789571 -0.10849088 79.24911938 -0.11456771 81.59030151 -0.12693596 C84.86076957 -0.1417798 88.13019965 -0.13121713 91.40063477 -0.11402893 C92.85640427 -0.12853088 92.85640427 -0.12853088 94.34158325 -0.14332581 C100.86129337 -0.07141643 100.86129337 -0.07141643 104.12329102 2.19613647 C106.20295733 5.45525915 106.01531422 8.12513526 105.95922852 11.95018005 C105.96631836 12.62242615 105.9734082 13.29467224 105.98071289 13.98728943 C105.91791651 18.85159366 105.91791651 18.85159366 104.27217102 21.07847023 C102.05557324 22.73633193 100.83304724 22.76468967 98.08105469 22.76863098 C96.71827896 22.78132019 96.71827896 22.78132019 95.32797241 22.79426575 C94.33359161 22.78819305 93.33921082 22.78212036 92.31469727 22.77586365 C90.74119003 22.78374908 90.74119003 22.78374908 89.13589478 22.79179382 C85.66018895 22.80502319 82.1849392 22.7962451 78.70922852 22.78611755 C76.29931551 22.78813744 73.8894031 22.79104816 71.47949219 22.79481506 C66.42547799 22.79924241 61.3716227 22.79279401 56.31762695 22.77879333 C49.8306361 22.76170142 43.34401759 22.77154038 36.85704041 22.78951073 C31.87973207 22.80033737 26.90251239 22.79690733 21.92520142 22.78912735 C19.53292802 22.78712225 17.14064665 22.78959542 14.74838257 22.79656601 C11.40829054 22.8041619 8.06880638 22.79260188 4.72875977 22.77586365 C3.73437897 22.78193634 2.73999817 22.78800903 1.71548462 22.79426575 C0.80696747 22.78580627 -0.10154968 22.7773468 -1.03759766 22.76863098 C-2.22224861 22.76693437 -2.22224861 22.76693437 -3.43083191 22.76520348 C-6.04273974 22.28359884 -6.91997837 21.51601386 -8.47827148 19.38768005 C-8.80340158 16.62260972 -8.94278529 14.14800026 -8.91577148 11.38768005 C-8.93575195 10.66322693 -8.95573242 9.9387738 -8.97631836 9.19236755 C-8.97436523 7.07518005 -8.97436523 7.07518005 -8.47827148 3.38768005 C-5.7406414 0.7202062 -3.77574883 0.01187202 0 0 Z " fill="#E2E0E2" transform="translate(207.478271484375,438.61231994628906)"/>
<path d="M0 0 C2.73665412 1.08126032 5.22038932 2.50437751 7.75 4 C8.45592285 4.40863281 9.1618457 4.81726562 9.88916016 5.23828125 C15.69973352 8.67331249 20.93149279 12.53798083 26 17 C27.20849609 18.01126953 27.20849609 18.01126953 28.44140625 19.04296875 C46.00003967 34.12855521 62.90593063 57.8885491 66.5 81.25 C65.78055179 85.20696516 64.19467163 86.63872097 61 89 C57.9375 89.625 57.9375 89.625 55 89 C51.28626758 85.22149317 49.84045422 81.13895252 48.3125 76.1875 C43.92637475 62.97892335 37.16754195 51.47456098 28 41 C27.39929688 40.25621094 26.79859375 39.51242188 26.1796875 38.74609375 C17.60065954 28.42613334 6.52300523 21.44292129 -4.98046875 14.8125 C-8 13 -8 13 -10 11 C-10.43244601 7.10798594 -10.57846465 4.86769698 -8.375 1.5625 C-5.23771339 -0.50150435 -3.73321034 -0.38905822 0 0 Z " fill="#030302" transform="translate(314,49)"/>
<path d="M0 0 C1.06838608 -0.00701431 2.13677216 -0.01402863 3.23753357 -0.02125549 C4.4095784 -0.01361176 5.58162323 -0.00596802 6.78918457 0.00190735 C8.02350723 -0.00174332 9.2578299 -0.00539398 10.52955627 -0.00915527 C13.91603623 -0.01587951 17.30196822 -0.00913675 20.68839455 0.00417686 C24.23041456 0.0154861 27.77242025 0.01138426 31.31445312 0.00942993 C37.26294682 0.00854679 43.2113266 0.01963154 49.15979004 0.03804016 C56.03933884 0.05920815 62.91872073 0.0627178 69.7982955 0.0564782 C76.41324666 0.05078552 83.02813898 0.05642906 89.64308167 0.06765175 C92.45961087 0.07229902 95.27610411 0.07317104 98.09263611 0.0710659 C102.02410103 0.06883433 105.95540686 0.0832848 109.88684082 0.0995636 C111.64490807 0.09584747 111.64490807 0.09584747 113.43849182 0.09205627 C115.04107094 0.10268349 115.04107094 0.10268349 116.67602539 0.11352539 C118.07084515 0.1166047 118.07084515 0.1166047 119.49384308 0.11974621 C121.8380127 0.3742218 121.8380127 0.3742218 124.8380127 2.3742218 C125.13098145 4.5382843 125.13098145 4.5382843 125.0255127 6.9992218 C124.98490723 8.22512024 124.98490723 8.22512024 124.94348145 9.4757843 C124.90867676 10.10226868 124.87387207 10.72875305 124.8380127 11.3742218 C107.644623 11.39755036 90.45123822 11.41520077 73.25783634 11.42603397 C65.2751977 11.43119702 57.29256887 11.43823989 49.30993652 11.44966125 C42.35477471 11.45960782 35.39962 11.46607516 28.44445127 11.4683103 C24.75949343 11.46961745 21.07455592 11.47270359 17.38960457 11.47995186 C13.28263561 11.4879652 9.17570233 11.48821296 5.06872559 11.48774719 C3.83802338 11.49134247 2.60732117 11.49493774 1.33932495 11.49864197 C0.22728195 11.4972673 -0.88476105 11.49589264 -2.03050232 11.49447632 C-3.00299392 11.49539811 -3.97548552 11.4963199 -4.97744656 11.49726963 C-7.1619873 11.3742218 -7.1619873 11.3742218 -8.1619873 10.3742218 C-8.63091614 4.04368257 -8.63091614 4.04368257 -6.96898651 1.67104816 C-4.54046237 -0.07182705 -2.97786782 -0.00053718 0 0 Z " fill="#EBE8EB" transform="translate(197.1619873046875,365.6257781982422)"/>
<path d="M0 0 C0.33 0 0.66 0 1 0 C1 2.31 1 4.62 1 7 C44.23 7 87.46 7 132 7 C132.33 4.69 132.66 2.38 133 0 C133.33 0 133.66 0 134 0 C134.0809723 2.43816585 134.14046972 4.87364384 134.1875 7.3125 C134.21263672 8.00279297 134.23777344 8.69308594 134.26367188 9.40429688 C134.33778042 14.5177868 134.33778042 14.5177868 132.80947971 16.69957924 C130.36110368 18.45915632 128.75890723 18.37735948 125.75535583 18.38095093 C124.66869629 18.3894104 123.58203674 18.39786987 122.46244812 18.40658569 C121.27013077 18.400513 120.07781342 18.39444031 118.84936523 18.38818359 C117.59392914 18.39344055 116.33849304 18.39869751 115.04501343 18.40411377 C111.60086357 18.4178008 108.15698302 18.41248355 104.7128284 18.40297651 C101.11160979 18.39538868 97.51041445 18.40242293 93.90919495 18.40713501 C87.86235405 18.41259443 81.81562305 18.40539538 75.76879883 18.39111328 C68.77217195 18.37477895 61.77580721 18.38008006 54.77918667 18.3965925 C48.77657397 18.41019332 42.77404032 18.41213416 36.7714172 18.40427649 C33.18424719 18.39959315 29.59720052 18.39899327 26.01003838 18.40888596 C22.0136681 18.41913724 18.0175931 18.40494114 14.02124023 18.38818359 C12.22972786 18.39729263 12.22972786 18.39729263 10.40202332 18.40658569 C9.31818359 18.39812622 8.23434387 18.38966675 7.11766052 18.38095093 C6.1721102 18.37981985 5.22655989 18.37868877 4.25235653 18.37752342 C3.13744005 18.19064933 3.13744005 18.19064933 2 18 C-0.45391569 14.31912647 -0.22802759 11.55644412 -0.125 7.3125 C-0.11597656 6.61060547 -0.10695312 5.90871094 -0.09765625 5.18554688 C-0.07413704 3.45688475 -0.03826713 1.72839855 0 0 Z " fill="#E0DDE0" transform="translate(189,406)"/>
<path d="M0 0 C14.85 0 29.7 0 45 0 C44.01527972 7.87776227 43.45743617 10.79768788 38 16 C31.47360661 20.71223858 24.94832444 22.26315201 17 21 C10.75227909 19.16560871 6.58201432 15.34512418 3 10 C1.19290927 6.67904458 0 3.8461464 0 0 Z " fill="#6B5EB2" transform="translate(233,476)"/>
<path d="M0 0 C2.375 1.625 2.375 1.625 4 4 C4.5 7.5 4.5 7.5 4 11 C-0.320334 16.32780019 -6.59076489 17.94052748 -12.8125 20.3125 C-13.97587891 20.77978516 -15.13925781 21.24707031 -16.33789062 21.72851562 C-27.11656944 25.88171173 -27.11656944 25.88171173 -33 24 C-35.81972931 21.63506574 -35.97850831 20.1719335 -36.4375 16.5 C-35.91566309 12.32530475 -35.1645512 11.6305208 -32 9 C-27.84577567 6.8999853 -23.47444652 5.33933898 -19.125 3.6875 C-17.95324219 3.22021484 -16.78148437 2.75292969 -15.57421875 2.27148438 C-14.43855469 1.83513672 -13.30289063 1.39878906 -12.1328125 0.94921875 C-11.10043457 0.55049561 -10.06805664 0.15177246 -9.00439453 -0.2590332 C-5.58312666 -1.1028125 -3.39018284 -0.88690727 0 0 Z " fill="#110D05" transform="translate(77,199)"/>
<path d="M0 0 C2.4375 1.5 2.4375 1.5 4 4 C4.60921535 6.80468955 4.86557371 9.24736809 4 12 C-0.35018727 16.65758809 -6.56184706 18.50234515 -12.375 20.75 C-13.39078125 21.16121094 -14.4065625 21.57242188 -15.453125 21.99609375 C-20.80966025 24.09001208 -25.2324094 25.77713902 -31 25 C-34.38121991 22.55401113 -35.76936783 21.10703441 -36.625 17 C-35.81181771 13.09672501 -34.15835958 11.25957779 -31 9 C-27.14062264 7.1143276 -23.16163686 5.64719841 -19.125 4.1875 C-18.06152344 3.78080078 -16.99804688 3.37410156 -15.90234375 2.95507812 C-10.44003714 0.93639959 -5.83914976 -0.71708857 0 0 Z " fill="#0F0C04" transform="translate(467,95)"/>
<path d="M0 0 C0.93199219 0.33902344 1.86398437 0.67804688 2.82421875 1.02734375 C11.62657815 4.34875053 11.62657815 4.34875053 14.25 8.125 C15.08194701 11.53794798 14.90273412 14.93472014 13.1875 18.0625 C9.03874135 20.33762571 5.8103536 20.54631489 1.30688477 19.33032227 C-2.14670728 18.11739714 -5.54091619 16.80177881 -8.9375 15.4375 C-10.6999707 14.76557617 -10.6999707 14.76557617 -12.49804688 14.08007812 C-22.47268654 10.16655588 -22.47268654 10.16655588 -25.75 6.125 C-26.25 2.625 -26.25 2.625 -25.75 -0.875 C-19.07824507 -9.61729957 -8.43262711 -3.19040322 0 0 Z " fill="#0F0C04" transform="translate(456.75,203.875)"/>
<path d="M0 0 C4.54190883 1.23844507 8.87043341 3.0291107 13.25 4.75 C14.43335937 5.1934375 15.61671875 5.636875 16.8359375 6.09375 C18.53363281 6.75117187 18.53363281 6.75117187 20.265625 7.421875 C21.29461914 7.81987305 22.32361328 8.21787109 23.38378906 8.62792969 C26.20344539 10.10669682 27.41474201 11.26638693 29 14 C29.68234041 18.0087499 29.3158333 19.52115596 27.0625 22.9375 C23.51015637 25.32989469 21.78143188 25.14276548 17.64135742 24.56762695 C12.59850069 23.48391849 7.89557134 21.55275005 3.125 19.625 C1.578125 19.02558594 1.578125 19.02558594 0 18.4140625 C-8.78875669 14.9260964 -8.78875669 14.9260964 -11 12 C-11.75471698 5.20754717 -11.75471698 5.20754717 -9.4375 1.5 C-6.11190949 -0.54651724 -3.87142553 -0.22951517 0 0 Z " fill="#0F0B04" transform="translate(52,95)"/>
<path d="M0 0 C2.09171409 -0.00969958 4.1824424 -0.04073325 6.27392578 -0.07226562 C7.61115956 -0.07879702 8.94840033 -0.08404696 10.28564453 -0.08789062 C12.10298096 -0.10190918 12.10298096 -0.10190918 13.95703125 -0.11621094 C17.52031576 0.27173801 19.38856888 1.09752103 22.23095703 3.24023438 C23.77682579 6.33197189 23.52455224 8.8345299 23.23095703 12.24023438 C21.69189453 14.43139648 21.69189453 14.43139648 19.23095703 16.24023438 C16.53014119 16.65050152 14.24260231 16.82548246 11.54345703 16.80664062 C10.80393799 16.8128392 10.06441895 16.81903778 9.30249023 16.82542419 C7.74252638 16.83251251 6.18248673 16.82936545 4.62255859 16.81665039 C2.23800356 16.80277538 -0.14263137 16.83687013 -2.52685547 16.875 C-4.04508559 16.8759512 -5.56332062 16.87409234 -7.08154297 16.86914062 C-7.79205811 16.88239883 -8.50257324 16.89565704 -9.23461914 16.90931702 C-12.96749745 16.83922699 -14.48562236 16.51149791 -17.22216797 13.89233398 C-19.10432483 10.66539744 -19.31712719 8.92022844 -18.76904297 5.24023438 C-14.83487399 -1.69139667 -7.00866779 0.01969188 0 0 Z " fill="#0D0A04" transform="translate(459.76904296875,150.759765625)"/>
<path d="M0 0 C2.09171409 -0.00969958 4.1824424 -0.04073325 6.27392578 -0.07226562 C7.61115956 -0.07879702 8.94840033 -0.08404696 10.28564453 -0.08789062 C12.10298096 -0.10190918 12.10298096 -0.10190918 13.95703125 -0.11621094 C17.52031576 0.27173801 19.38856888 1.09752103 22.23095703 3.24023438 C23.65757922 6.09347875 23.54129571 8.07477987 23.23095703 11.24023438 C21.69189453 13.90014648 21.69189453 13.90014648 19.23095703 16.24023438 C16.45982143 16.73824505 14.30898596 16.92074538 11.54345703 16.86914062 C10.80393799 16.87155258 10.06441895 16.87396454 9.30249023 16.87644958 C7.74245835 16.8754722 6.18239133 16.86210394 4.62255859 16.8371582 C2.23821906 16.8028389 -0.14241424 16.81650179 -2.52685547 16.8359375 C-4.04510037 16.82903875 -5.56333573 16.81936609 -7.08154297 16.80664062 C-7.79205811 16.81160049 -8.50257324 16.81656036 -9.23461914 16.82167053 C-12.60767258 16.74164448 -14.4814312 16.45322395 -17.22216797 14.42358398 C-19.47203191 11.24799477 -19.24378435 9.0381654 -18.76904297 5.24023438 C-14.92316903 -1.71896609 -6.96225466 0.01956147 0 0 Z " fill="#0D0A04" transform="translate(47.76904296875,150.759765625)"/>
<path d="M0 0 C8.25 0 16.5 0 25 0 C23.90539199 7.66225609 22.16040747 11.63760172 16.1875 16.46484375 C14.375 17.625 14.375 17.625 11 19 C7.7249327 17.89372727 6.18504472 16.32773269 4.375 13.4375 C3.76785156 12.50744141 3.76785156 12.50744141 3.1484375 11.55859375 C2 9 2 9 0 0 Z " fill="#8277C0" transform="translate(253,477)"/>
</svg>
