<?xml version="1.0" encoding="UTF-8"?>
<svg version="1.1" xmlns="http://www.w3.org/2000/svg" width="512" height="512">
<path d="M0 0 C1.57219073 -0.00374141 3.1443796 -0.00834487 4.71656555 -0.01373065 C9.01657435 -0.02591575 13.31650509 -0.02570549 17.6165272 -0.02334189 C22.26226719 -0.02293258 26.90798253 -0.03398387 31.55371094 -0.04345703 C40.64869242 -0.06004402 49.74364797 -0.06556556 58.83864332 -0.06668179 C66.23576491 -0.06763348 73.63287798 -0.07174982 81.02999687 -0.07808304 C102.0237393 -0.0956902 123.0174613 -0.10492288 144.01121116 -0.10342209 C145.70757913 -0.10330222 145.70757913 -0.10330222 147.43821716 -0.10317993 C148.57051771 -0.10309817 149.70281826 -0.10301641 150.86943095 -0.10293217 C169.209348 -0.10211971 187.54918284 -0.12124858 205.88907612 -0.14945666 C224.74147752 -0.17822307 243.59383888 -0.19199485 262.44626278 -0.19026911 C273.02189446 -0.18960645 283.59743998 -0.19504444 294.17305183 -0.21662521 C303.17944661 -0.23488662 312.18571618 -0.23914384 321.19212151 -0.22560637 C325.78161362 -0.21910132 330.37086587 -0.21886974 334.96033478 -0.23631287 C339.17315056 -0.25215878 343.3855386 -0.24906401 347.59834468 -0.2317446 C349.1111262 -0.22869979 350.62394057 -0.23221038 352.13668329 -0.24346475 C373.08652758 -0.38882924 391.59423063 4.95567686 407.40965271 19.26742554 C408.17922302 19.94418335 408.94879333 20.62094116 409.74168396 21.31820679 C421.72309856 32.48317064 430.21079124 49.03385649 431.59726024 65.49480939 C431.6703434 67.81493789 431.68602033 70.12771635 431.67707825 72.44897461 C431.68160936 73.32812826 431.68614047 74.2072819 431.69080889 75.11307657 C431.70338706 78.03518637 431.70183679 80.95710821 431.70018005 83.87924194 C431.70616951 85.98428586 431.71297601 88.08932759 431.72053528 90.19436646 C431.73816225 95.89714994 431.74288933 101.59987335 431.74416685 107.30268145 C431.74559114 110.87131272 431.74986605 114.43992886 431.75516129 118.00855637 C431.77365225 130.47490148 431.78183326 142.94120389 431.78025818 155.40756226 C431.77905778 167.00060133 431.80014274 178.59345392 431.83174551 190.18644583 C431.85796143 200.16131034 431.86862321 210.13611415 431.86734736 220.11101282 C431.86683919 226.05882286 431.87244156 232.00646719 431.89370346 237.95424271 C431.9131749 243.55384492 431.91314961 249.15312487 431.8986702 254.75273895 C431.89659186 256.7976237 431.90122416 258.84252909 431.91339111 260.88737869 C432.0313268 282.09717728 428.0237181 300.93043876 413.40965271 317.26742554 C412.76641052 318.00348022 412.12316833 318.73953491 411.46043396 319.49789429 C398.96013703 332.92242759 381.3870703 341.44193142 363.0032891 342.45517039 C358.94071202 342.53064121 354.88237002 342.54405761 350.81930542 342.53485107 C349.24711469 342.53859248 347.67492582 342.54319595 346.10273987 342.54858172 C341.80273107 342.56076682 337.50280033 342.56055656 333.20277822 342.55819297 C328.55703823 342.55778365 323.91132289 342.56883495 319.26559448 342.57830811 C310.170613 342.5948951 301.07565745 342.60041664 291.9806621 342.60153286 C284.58354051 342.60248455 277.18642744 342.6066009 269.78930855 342.61293411 C248.79556612 342.63054127 227.80184412 342.63977396 206.80809426 342.63827316 C205.11172629 342.6381533 205.11172629 342.6381533 203.38108826 342.63803101 C202.24878771 342.63794924 201.11648716 342.63786748 199.94987447 342.63778324 C181.60995742 342.63697079 163.27012258 342.65609965 144.9302293 342.68430774 C126.0778279 342.71307415 107.22546654 342.72684592 88.37304264 342.72512019 C77.79741096 342.72445752 67.22186544 342.72989551 56.64625359 342.75147629 C47.63985881 342.7697377 38.63358924 342.77399491 29.62718391 342.76045744 C25.0376918 342.75395239 20.44843955 342.75372081 15.85897064 342.77116394 C11.64615486 342.78700986 7.43376682 342.78391509 3.22096074 342.76659568 C1.70817922 342.76355087 0.19536485 342.76706145 -1.31737787 342.77831583 C-22.26722216 342.92368032 -40.77492521 337.57917421 -56.59034729 323.26742554 C-57.3599176 322.59066772 -58.12948792 321.91390991 -58.92237854 321.21664429 C-70.45576574 310.46917785 -79.37880762 294.03386704 -80.77913177 278.12231171 C-80.85468856 275.7940868 -80.87141897 273.4731052 -80.86450195 271.1436615 C-80.86973863 270.2586063 -80.87497531 269.37355111 -80.88037068 268.46167606 C-80.8953011 265.51349722 -80.89607431 262.56549301 -80.89674377 259.61727905 C-80.90437019 257.49592295 -80.91279851 255.3745696 -80.92196655 253.2532196 C-80.94387689 247.50066386 -80.95270637 241.74816127 -80.957793 235.99556851 C-80.96144212 232.39526765 -80.96768522 228.79498058 -80.97479439 225.19468498 C-80.99928149 212.61581693 -81.01233819 200.03699003 -81.0158844 187.45809937 C-81.01951413 175.76454166 -81.04937127 164.07124732 -81.09128898 152.37777001 C-81.12608461 142.31542146 -81.14143448 132.25315974 -81.14213043 122.19075149 C-81.14292039 116.19139928 -81.15152879 110.19231522 -81.1801281 104.19302559 C-81.20646618 98.54167378 -81.2084265 92.89080937 -81.19247246 87.23942375 C-81.19067016 85.17763575 -81.19723693 83.1158187 -81.21329117 81.05409241 C-81.38830243 57.09700887 -75.11434186 38.52111787 -58.52784729 20.76742554 C-42.1935102 4.93142415 -22.17388134 -0.050244 0 0 Z " fill="#E2DED3" transform="translate(80.59034729003906,84.73257446289063)"/>
<path d="M0 0 C1.30375057 0.74772977 2.60843034 1.49384186 3.9140625 2.23828125 C4.93242187 2.81964844 5.95078125 3.40101563 7 4 C7.825 3.43152344 8.65 2.86304688 9.5 2.27734375 C32.99351578 -13.5746586 59.61063079 -20.14868511 87.88671875 -15.87890625 C115.93687422 -10.38010254 142.19469692 5.39992272 158.3125 29.25 C173.62241396 52.90240517 181.30077216 81.89709372 175.49267578 109.93896484 C168.54375823 139.00871806 152.53007525 164.86247386 126.81640625 180.78515625 C100.96690044 196.09434303 71.75754056 201.08965227 42.44433594 193.68457031 C29.88266024 190.16649813 18.95250843 183.92519529 8 177 C7.34 176.67 6.68 176.34 6 176 C4.01578458 177.1076785 2.08708685 178.31525011 0.1875 179.5625 C-25.11643593 195.64518228 -53.45716081 200.66169163 -82.82421875 194.15234375 C-90.65740152 192.19602813 -97.82011099 189.68144234 -105 186 C-106.33611328 185.33871094 -106.33611328 185.33871094 -107.69921875 184.6640625 C-131.67873286 172.28091827 -150.25372572 151.05417838 -158.86035156 125.43945312 C-167.6509245 97.67036028 -167.39168549 68.55361166 -154 42 C-148.2415937 31.42552202 -141.4381606 22.54347305 -133 14 C-132.43152344 13.35933594 -131.86304688 12.71867187 -131.27734375 12.05859375 C-97.96569858 -24.66089235 -39.75726788 -23.3441585 0 0 Z " fill="#F89F41" transform="translate(250,166)"/>
<path d="M0 0 C0 0.66 0 1.32 0 2 C-2.49269608 4.11995648 -5.10047205 6.06013016 -7.71484375 8.02734375 C-12.50153211 11.9974339 -16.17002552 17.13889904 -20 22 C-18.19196899 21.92144775 -18.19196899 21.92144775 -16.34741211 21.84130859 C-11.85484726 21.65965514 -7.36260254 21.5452869 -2.86743164 21.45068359 C-0.92612045 21.40053723 1.01481565 21.33239619 2.95483398 21.24560547 C19.07484423 20.54275814 19.07484423 20.54275814 23.76733398 24.09472656 C25.59209922 26.67995053 26.80821306 29.07700269 28 32 C28.96020652 33.67766164 29.93667428 35.34624881 30.9375 37 C33 40.71382637 33 40.71382637 33 43 C10.89 43 -11.22 43 -34 43 C-36.18417998 50.28059995 -38.1564456 57.62578242 -40 65 C-13.27 65 13.46 65 41 65 C42 72 42 72 42 86 C13.95 86 -14.1 86 -43 86 C-42.01 96.395 -42.01 96.395 -41 107 C-14.27 107 12.46 107 40 107 C38 118 38 118 34 129 C11.89 129 -10.22 129 -33 129 C-27.42658762 139.27823568 -27.42658762 139.27823568 -21 149 C-19.06188045 149.61015128 -19.06188045 149.61015128 -16.89575195 149.54589844 C-16.07512772 149.56561707 -15.25450348 149.58533569 -14.40901184 149.60565186 C-13.52767075 149.60688049 -12.64632965 149.60810913 -11.73828125 149.609375 C-10.83248825 149.62591125 -9.92669525 149.64244751 -8.99345398 149.65948486 C-6.09973448 149.7080787 -3.20654087 149.72936085 -0.3125 149.75 C1.64911516 149.77815019 3.61070571 149.80807627 5.57226562 149.83984375 C10.38146713 149.91384065 15.19037474 149.96334561 20 150 C16.17935266 158.03978661 8.96517897 164.59843263 2 170 C1.34 170 0.68 170 0 170 C0 170.66 0 171.32 0 172 C-22.56974406 188.40092695 -50.35394152 195.73689026 -78 192.25 C-89.60268381 190.37521606 -100.52824309 187.36932663 -111 182 C-112.33611328 181.33871094 -112.33611328 181.33871094 -113.69921875 180.6640625 C-137.67873286 168.28091827 -156.25372572 147.05417838 -164.86035156 121.43945312 C-173.6509245 93.67036028 -173.39168549 64.55361166 -160 38 C-154.2415937 27.42552202 -147.4381606 18.54347305 -139 10 C-138.43152344 9.35933594 -137.86304688 8.71867187 -137.27734375 8.05859375 C-102.89063697 -29.8459347 -39.15085326 -28.52166233 0 0 Z " fill="#EE3645" transform="translate(256,170)"/>
</svg>
