<?xml version="1.0" encoding="UTF-8"?>
<svg version="1.1" xmlns="http://www.w3.org/2000/svg" width="512" height="512">
<path d="M0 0 C0.75925781 0.57234375 1.51851562 1.1446875 2.30078125 1.734375 C14.18960857 11.34399708 21.52086357 26.07674356 24 41 C25.54172537 59.59331689 22.41662297 75.37506554 12 91 C18.27 91.99 24.54 92.98 31 94 C32.485 89.545 32.485 89.545 34 85 C38.31653723 75.90911099 45.67326267 65.36570683 55 61 C57.97167856 60.46487014 59.91434479 60.59532391 63 61 C65.0625 62.5625 65.0625 62.5625 66 65 C65.8463091 68.9959634 65.00761644 71.98127625 63.5 75.6875 C60.35890472 83.7423879 60.17301883 92.53503779 62.7109375 100.77734375 C64.31601745 103.5448907 65.49927708 104.11335563 68.5 105.125 C69.99344104 105.44857889 71.49359239 105.74347407 73 106 C73.99 106.33 74.98 106.66 76 107 C79.11423204 106.20202298 79.11423204 106.20202298 82.6328125 104.90234375 C83.99857597 104.42787147 85.36446679 103.95376569 86.73046875 103.47998047 C87.4476709 103.22778748 88.16487305 102.97559448 88.90380859 102.71575928 C100.15484769 98.77362915 111.3896202 95.11779866 123 92.375 C123.98758301 92.14031006 124.97516602 91.90562012 125.99267578 91.66381836 C140.4009366 88.39170857 140.4009366 88.39170857 145.9375 89.6875 C148.39445435 91.2510164 148.92974774 92.32467065 150 95 C149.8775276 102.83057903 147.22036163 109.00780931 144 116.0625 C143.50814209 117.15852539 143.01628418 118.25455078 142.50952148 119.38378906 C132.88390623 140.52008118 132.88390623 140.52008118 126.68359375 147.671875 C124.79673519 149.78929275 124.79673519 149.78929275 125.0390625 151.984375 C129.77252445 161.91310008 137.83503474 170.40077632 148.2734375 174.1875 C153.33280718 175.29059108 158.25438034 175.38856182 163.41601562 175.47851562 C169.81542845 175.70067983 174.03077083 177.03077083 178.6875 181.6875 C183.51606278 187.98809178 184.56660752 195.19297733 185.1875 202.875 C185.26572998 203.78757568 185.34395996 204.70015137 185.42456055 205.64038086 C186.81106524 223.08433363 187.63707924 239.10808906 177 254 C176.52046875 254.67546875 176.0409375 255.3509375 175.546875 256.046875 C170.22919513 262.76111725 162.99493952 267.21492421 156 272 C149.40876414 276.56113521 143.33113499 281.39353507 137.47558594 286.86083984 C108.37580204 314 108.37580204 314 98 314 C97.92217285 315.35557007 97.92217285 315.35557007 97.84277344 316.73852539 C97.27255223 326.01416354 96.41171787 335.21402227 95.25 344.4375 C95.105625 345.73365234 94.96125 347.02980469 94.8125 348.36523438 C93.77259443 356.5628771 92.57069378 363.26049088 85.96337891 368.66625977 C81.64737009 370.60878376 77.60069022 370.538117 72.9140625 370.6171875 C71.93891693 370.64225372 70.96377136 370.66731995 69.95907593 370.69314575 C67.89995793 370.74203269 65.84065504 370.78360691 63.78125 370.81835938 C60.64226439 370.87469018 57.50531967 370.96311351 54.3671875 371.0546875 C52.36202046 371.09829594 50.35681146 371.14002442 48.3515625 371.1796875 C47.4190567 371.20763397 46.4865509 371.23558044 45.52578735 371.26437378 C38.39184242 371.3496025 33.54884417 370.41731385 28.19921875 365.34375 C25.46694642 361.71413015 24.63860707 357.90082846 23.8125 353.5 C23.66103516 352.78585937 23.50957031 352.07171875 23.35351562 351.3359375 C21.90866355 344.27768139 20.97741572 337.13494322 20 330 C18.93789307 330.00523682 17.87578613 330.01047363 16.78149414 330.01586914 C12.75383381 330.03428495 8.726177 330.0455623 4.69848633 330.05493164 C2.9715919 330.05988984 1.24470149 330.06665843 -0.48217773 330.07543945 C-9.50262648 330.12008214 -18.4956934 330.07173954 -27.50390625 329.55859375 C-28.20370102 329.51960464 -28.90349579 329.48061554 -29.62449646 329.44044495 C-32.849764 329.23392458 -35.90012879 328.94137648 -39 328 C-39.04680908 328.65774414 -39.09361816 329.31548828 -39.1418457 329.99316406 C-39.70376902 337.02866699 -40.74672295 343.84341796 -42.1875 350.75 C-42.46303711 352.23306641 -42.46303711 352.23306641 -42.74414062 353.74609375 C-44.03797987 359.93833396 -45.7443069 365.11259818 -51 369 C-55.99622577 371.22605482 -60.35677312 371.1827155 -65.6953125 370.984375 C-67.39841309 370.94931415 -69.10153972 370.91550033 -70.8046875 370.8828125 C-73.45778503 370.82124891 -76.1095383 370.75054402 -78.76171875 370.65722656 C-90.26881752 370.27451663 -97.89106385 370.96032199 -108 377 C-110.60613684 378.00470503 -113.07545135 378.60873195 -115.8125 379.25 C-117.01519531 379.54390625 -118.21789062 379.8378125 -119.45703125 380.140625 C-132.03333606 382.67636178 -144.34517708 383.37231069 -157.125 383.3125 C-158.34156281 383.30976578 -158.34156281 383.30976578 -159.58270264 383.30697632 C-172.25729382 383.25911885 -184.5749318 382.69995652 -197 380 C-197.81549316 379.82839355 -198.63098633 379.65678711 -199.47119141 379.47998047 C-212.05240469 376.74896637 -227.47665168 373.33298555 -235 362 C-236.31282869 353.7374418 -235.1224182 345.05381905 -233 337 C-233.67546875 336.61328125 -234.3509375 336.2265625 -235.046875 335.828125 C-235.93890625 335.30734375 -236.8309375 334.7865625 -237.75 334.25 C-238.63171875 333.73953125 -239.5134375 333.2290625 -240.421875 332.703125 C-244.14557897 330.24322359 -246.57288225 328.28135324 -248 324 C-248.88688223 314.67068114 -248.37318803 300.56986107 -242.5 292.8125 C-228.34642101 279.5240542 -202.56503592 278.63578418 -184.24145508 278.79418945 C-182.06775059 278.81245588 -179.89447662 278.81469789 -177.72070312 278.81445312 C-168.44370621 278.83840035 -159.24860475 279.26822931 -150 280 C-150.77923828 278.5459375 -150.77923828 278.5459375 -151.57421875 277.0625 C-162.24587961 256.72332879 -165.41774064 237.86648005 -165 215 C-165.65009033 215.01812744 -166.30018066 215.03625488 -166.9699707 215.05493164 C-172.00814418 215.13636513 -176.32950751 214.93175148 -181.1875 213.4375 C-186.77672711 211.90925177 -190.26303571 211.91507488 -195.81640625 213.52734375 C-206.29309607 215.79510666 -217.34462735 213.68211446 -226.640625 208.5390625 C-228.83652128 207.10664009 -230.9213829 205.5962376 -233 204 C-233.86625 203.4225 -234.7325 202.845 -235.625 202.25 C-245.97784167 192.44204473 -251.36447774 178.44072288 -252.21875 164.40625 C-252.45644563 154.81919275 -252.45644563 154.81919275 -250.66796875 151.609375 C-249 150 -249 150 -246 149.625 C-243 150 -243 150 -240 152 C-239.55517578 153.87255859 -239.55517578 153.87255859 -239.4453125 156.1484375 C-239.39084961 156.98342773 -239.33638672 157.81841797 -239.28027344 158.67871094 C-239.2290332 159.56848633 -239.17779297 160.45826172 -239.125 161.375 C-238.20691629 172.93956114 -235.3856695 183.50023975 -227 192 C-220.10534117 197.72165449 -212.1286348 201.70220268 -203 201 C-203.33773437 200.5153125 -203.67546875 200.030625 -204.0234375 199.53125 C-209.01574156 192.02836529 -211.28902594 184.69426919 -209.53515625 175.5859375 C-208.01005946 169.6118897 -205.91213158 164.8823346 -201 161 C-194.43002937 157.29132311 -188.37569028 155.85970206 -180.9375 157.4375 C-175.37948602 159.12174666 -172.15984237 162.19787113 -169 167 C-165.83881205 173.17868554 -165.96236929 181.18109111 -167.7578125 187.7890625 C-169.60972077 192.61568956 -171.93786894 196.8442507 -175 201 C-172.70370006 202.14814997 -170.92301914 202.30769809 -168.375 202.5625 C-166.91666667 202.70833333 -165.45833333 202.85416667 -164 203 C-163.88785156 201.71222656 -163.77570313 200.42445313 -163.66015625 199.09765625 C-162.02621059 184.5512774 -156.23656457 170.6032674 -149 158 C-148.48397217 157.09991211 -148.48397217 157.09991211 -147.95751953 156.18164062 C-133.0804977 130.74158651 -112.16489905 115.68059954 -86 103 C-84.66540005 102.33587261 -83.33129463 101.67072859 -82 101 C-82.556875 100.51273437 -83.11375 100.02546875 -83.6875 99.5234375 C-95.41488968 88.62805858 -103.24481816 73.24384982 -104.23828125 57.13671875 C-104.69704601 38.9075054 -100.89375673 22.74216287 -88.5625 8.625 C-87.05911847 7.06631012 -85.53936592 5.52316207 -84 4 C-83.40960938 3.37609375 -82.81921875 2.7521875 -82.2109375 2.109375 C-77.99232342 -2.01631807 -73.21899866 -4.66373078 -68 -7.3125 C-67.33540771 -7.65039551 -66.67081543 -7.98829102 -65.98608398 -8.33642578 C-44.60437954 -18.71844577 -18.26032926 -14.5593245 0 0 Z M-195 173 C-197.50730631 176.99601943 -198.32193201 179.90426196 -197.5625 184.5 C-196.25721225 189.34702395 -193.53709624 192.54076437 -190 196 C-185.09692287 193.79883133 -182.27788151 190.31235702 -179.6875 185.625 C-178.54118723 181.24816941 -178.3689595 176.99829491 -179.75 172.625 C-181.32096939 170.5827398 -182.57538686 169.85574581 -185 169 C-189.85041092 169 -191.30632183 169.935033 -195 173 Z " fill="#F46256" transform="translate(289,71)"/>
<path d="M0 0 C1.10409714 0.00273422 1.10409714 0.00273422 2.23049927 0.00552368 C25.22367332 0.10067897 53.34584157 1.12781275 73.6875 13.3125 C76.31704121 16.01254798 77.59353056 17.57407555 78.07470703 21.35522461 C78.01065674 23.01823608 78.01065674 23.01823608 77.9453125 24.71484375 C77.93242187 25.93494141 77.91953125 27.15503906 77.90625 28.41210938 C77.84382874 30.96747961 77.75794134 33.52238598 77.6484375 36.07617188 C77.63300805 39.73102209 77.69909567 42.78953645 78.6875 46.3125 C81.13404304 48.64590503 83.35641061 49.92167979 86.43310547 51.29907227 C88.6875 52.3125 88.6875 52.3125 89.6875 54.3125 C89.82247396 56.7230418 89.90005704 59.10340585 89.92578125 61.515625 C89.933853 62.23103455 89.94192474 62.94644409 89.95024109 63.68353271 C89.96407958 65.19996724 89.9748028 66.71643288 89.98266602 68.23291016 C89.99983257 70.53999894 90.04371124 72.84563682 90.08789062 75.15234375 C90.09802212 76.62759365 90.1065368 78.10285572 90.11328125 79.578125 C90.13078934 80.2627179 90.14829742 80.94731079 90.16633606 81.65264893 C90.14394048 86.65738641 88.80758234 89.45448484 85.6875 93.3125 C69.32851562 104.58075148 44.69446912 104.71453928 25.5625 104.625 C24.75145813 104.62317719 23.94041626 104.62135437 23.10479736 104.61947632 C10.43020618 104.57161885 -1.8874318 104.01245652 -14.3125 101.3125 C-15.12799316 101.14089355 -15.94348633 100.96928711 -16.78369141 100.79248047 C-29.36490469 98.06146637 -44.78915168 94.64548555 -52.3125 83.3125 C-53.62532869 75.0499418 -52.4349182 66.36631905 -50.3125 58.3125 C-50.98796875 57.92578125 -51.6634375 57.5390625 -52.359375 57.140625 C-53.25140625 56.61984375 -54.1434375 56.0990625 -55.0625 55.5625 C-55.94421875 55.05203125 -56.8259375 54.5415625 -57.734375 54.015625 C-61.45807897 51.55572359 -63.88538225 49.59385324 -65.3125 45.3125 C-66.19938223 35.98318114 -65.68568803 21.88236107 -59.8125 14.125 C-45.30440034 0.5037035 -18.69034797 -0.0966491 0 0 Z " fill="#FCE679" transform="translate(106.3125,349.6875)"/>
<path d="M0 0 C0.75925781 0.57234375 1.51851563 1.1446875 2.30078125 1.734375 C14.18960857 11.34399708 21.52086357 26.07674356 24 41 C25.42408067 58.17451349 23.08192194 73.1538378 14 88 C12.37788648 89.71005944 10.71605667 91.38423236 9 93 C8.29875 93.928125 7.5975 94.85625 6.875 95.8125 C0.76273964 103.24684802 -8.31460244 108.17605363 -17 112 C-17.73476563 112.39445312 -18.46953125 112.78890625 -19.2265625 113.1953125 C-22.43147971 114.12518989 -24.91681595 113.7652753 -28.18505859 113.30224609 C-31.62121895 112.93329843 -35.00120106 112.91042901 -38.45703125 112.89453125 C-39.83138725 112.88021825 -41.20573639 112.86523216 -42.58007812 112.84960938 C-44.69299129 112.82688988 -46.80421832 112.81245101 -48.91723633 112.82495117 C-63.17909307 112.88651793 -73.23521674 108.38789238 -84 99 C-84.60328125 98.50242187 -85.2065625 98.00484375 -85.828125 97.4921875 C-96.63335966 87.80641409 -103.35842026 71.40200594 -104.23828125 57.13671875 C-104.69704601 38.9075054 -100.89375673 22.74216287 -88.5625 8.625 C-87.05911847 7.06631012 -85.53936592 5.52316207 -84 4 C-83.11441406 3.06414062 -83.11441406 3.06414062 -82.2109375 2.109375 C-77.99232342 -2.01631807 -73.21899866 -4.66373078 -68 -7.3125 C-67.33540771 -7.65039551 -66.67081543 -7.98829102 -65.98608398 -8.33642578 C-44.60437954 -18.71844577 -18.26032926 -14.5593245 0 0 Z " fill="#F8C73B" transform="translate(289,71)"/>
<path d="M0 0 C0.75925781 0.57234375 1.51851563 1.1446875 2.30078125 1.734375 C14.18960857 11.34399708 21.52086357 26.07674356 24 41 C25.42408067 58.17451349 23.08192194 73.1538378 14 88 C12.37788648 89.71005944 10.71605667 91.38423236 9 93 C8.29875 93.928125 7.5975 94.85625 6.875 95.8125 C0.76273964 103.24684802 -8.31460244 108.17605363 -17 112 C-17.73476563 112.39445312 -18.46953125 112.78890625 -19.2265625 113.1953125 C-22.43147971 114.12518989 -24.91681595 113.7652753 -28.18505859 113.30224609 C-31.62121895 112.93329843 -35.00120106 112.91042901 -38.45703125 112.89453125 C-39.83138725 112.88021825 -41.20573639 112.86523216 -42.58007812 112.84960938 C-44.69299129 112.82688988 -46.80421832 112.81245101 -48.91723633 112.82495117 C-63.17909307 112.88651793 -73.23521674 108.38789238 -84 99 C-84.60328125 98.50242187 -85.2065625 98.00484375 -85.828125 97.4921875 C-96.63335966 87.80641409 -103.35842026 71.40200594 -104.23828125 57.13671875 C-104.69704601 38.9075054 -100.89375673 22.74216287 -88.5625 8.625 C-87.05911847 7.06631012 -85.53936592 5.52316207 -84 4 C-83.11441406 3.06414062 -83.11441406 3.06414062 -82.2109375 2.109375 C-77.99232342 -2.01631807 -73.21899866 -4.66373078 -68 -7.3125 C-67.33540771 -7.65039551 -66.67081543 -7.98829102 -65.98608398 -8.33642578 C-44.60437954 -18.71844577 -18.26032926 -14.5593245 0 0 Z M-76.2578125 18.8515625 C-85.61335243 30.38866331 -89.20669812 43.245373 -88 58 C-87.59740952 60.90159727 -86.94229822 63.17310535 -86 66 C-85.74347656 66.78761719 -85.48695313 67.57523437 -85.22265625 68.38671875 C-80.89528362 80.51450556 -72.28273641 89.45598145 -60.9375 95.3125 C-47.47309758 101.60819939 -34.82997127 101.26239755 -21 96.3125 C-8.58915814 91.09802226 -0.22386104 81.13160403 5 69 C5.32097656 68.32710938 5.64195312 67.65421875 5.97265625 66.9609375 C9.83070864 57.6657229 9.43457457 44.72145081 6.05078125 35.33984375 C-0.6470333 20.42537939 -9.43817782 11.53841424 -24.4921875 4.91015625 C-42.68983277 -1.6942851 -63.42626689 4.95515834 -76.2578125 18.8515625 Z " fill="#FCE679" transform="translate(289,71)"/>
<path d="M0 0 C0.74855255 -0.00067474 1.4971051 -0.00134949 2.26834106 -0.00204468 C58.19843119 0.0775547 58.19843119 0.0775547 76.30078125 15.16796875 C78.95461222 19.98146906 78.42133107 24.66886598 78.25 30.0625 C78.23195312 31.13693359 78.21390625 32.21136719 78.1953125 33.31835938 C78.14829392 35.96315465 78.0825916 38.60611589 78 41.25 C77.67 41.25 77.34 41.25 77 41.25 C76.67 36.3 76.34 31.35 76 26.25 C74.80375 27.136875 73.6075 28.02375 72.375 28.9375 C61.73831345 35.97331138 49.39485551 38.33048305 37 40.25 C35.78183594 40.45625 34.56367188 40.6625 33.30859375 40.875 C5.09408601 45.11158928 -29.65604577 43.67700691 -54.5 28.1875 C-58.332504 25.2173094 -59.76672622 23.675562 -60.5625 18.8125 C-60 15.25 -60 15.25 -57.75 12.625 C-41.47348083 1.10681358 -19.15791052 0.01554662 0 0 Z " fill="#F8C73C" transform="translate(106,349.75)"/>
<path d="M0 0 C2.90304348 1.37034044 5.4455963 2.95865607 8.0625 4.8125 C26.25167555 17.03801143 46.93229505 18.41011036 68.1875 18.3125 C68.99438263 18.31100952 69.80126526 18.30951904 70.63259888 18.3079834 C91.93516219 18.23742331 117.61696464 17.38324421 135.2578125 3.8671875 C135.96309082 3.3294873 136.66836914 2.79178711 137.39501953 2.23779297 C137.92466309 1.82932129 138.45430664 1.42084961 139 1 C139.11651725 5.37477474 139.18736 9.74914827 139.25 14.125 C139.28351563 15.3625 139.31703125 16.6 139.3515625 17.875 C139.46212483 28.15729704 139.46212483 28.15729704 137.28125 31.703125 C124.76378942 44.30632161 98.67105924 45.16576305 81.8999939 45.32202148 C79.55818027 45.3294508 77.21679665 45.32345981 74.875 45.3125 C74.06395813 45.31067719 73.25291626 45.30885437 72.41729736 45.30697632 C59.74270618 45.25911885 47.4250682 44.69995652 35 42 C34.18450684 41.82839355 33.36901367 41.65678711 32.52880859 41.47998047 C19.94483522 38.74836724 4.5275989 35.33245798 -3 24 C-4.39160063 15.67786201 -3.24916707 7.7167718 0 0 Z " fill="#FCE679" transform="translate(57,409)"/>
<path d="M0 0 C2.0625 1.5625 2.0625 1.5625 3 4 C2.8463091 7.9959634 2.00761644 10.98127625 0.5 14.6875 C-2.48179822 22.30437071 -3.01175511 30.41613465 0.0625 38.046875 C2.81084868 43.77260143 6.35085326 47.41060598 11.1953125 51.38671875 C13.53997015 53.48270059 14.87454396 55.20632549 15.37109375 58.34765625 C15.65025421 69.76039279 10.86693582 76.65818771 3.22143555 84.73657227 C-13.55296769 101.99353067 -13.55296769 101.99353067 -25.375 102.75 C-29.11762063 102.48309362 -29.90833362 102.07606359 -32.9375 99.5625 C-41.51302571 86.74466476 -40.77752151 66.76905234 -38.05859375 52.27734375 C-33.88755864 33.1046169 -27.02939708 13.82758521 -10.9375 1.375 C-6.86713318 -0.53027809 -4.47036731 -0.58627768 0 0 Z " fill="#F23F35" transform="translate(352,132)"/>
<path d="M0 0 C-0.58536811 10.19576731 -1.47333198 20.30137364 -2.75 30.4375 C-2.894375 31.73365234 -3.03875 33.02980469 -3.1875 34.36523438 C-4.22740557 42.5628771 -5.42930622 49.26049088 -12.03662109 54.66625977 C-16.35262991 56.60878376 -20.39930978 56.538117 -25.0859375 56.6171875 C-26.06108307 56.64225372 -27.03622864 56.66731995 -28.04092407 56.69314575 C-30.10004207 56.74203269 -32.15934496 56.78360691 -34.21875 56.81835938 C-37.35773561 56.87469018 -40.49468033 56.96311351 -43.6328125 57.0546875 C-45.63797954 57.09829594 -47.64318854 57.14002442 -49.6484375 57.1796875 C-50.5809433 57.20763397 -51.5134491 57.23558044 -52.47421265 57.26437378 C-59.60505038 57.34956538 -64.44375745 56.41363487 -69.80078125 51.35546875 C-72.57039771 47.67963832 -73.36653455 43.76957212 -74.1875 39.3125 C-74.34766602 38.51956543 -74.50783203 37.72663086 -74.67285156 36.90966797 C-75.13280418 34.60943649 -75.56848919 32.30570782 -76 30 C-76.22816406 28.85144531 -76.45632813 27.70289063 -76.69140625 26.51953125 C-77.45595723 22.55776706 -78 19.05234287 -78 15 C-76.07027344 14.83564453 -76.07027344 14.83564453 -74.1015625 14.66796875 C-69.15553288 14.24028184 -64.21388867 13.77139745 -59.27197266 13.29882812 C-56.08275381 13.00755788 -52.89234224 12.75976125 -49.69921875 12.515625 C-33.46632921 11.12362918 -15.06826421 0 0 0 Z " fill="#F23F35" transform="translate(387,385)"/>
<path d="M0 0 C4.01680761 0.98058685 8.01317521 1.98291604 11.98046875 3.1484375 C29.73984739 8.35490061 47.57560573 11.39970976 66 13 C65.80877978 21.08340021 64.40670028 28.90534172 62.8125 36.8125 C62.62856689 37.80258057 62.44463379 38.79266113 62.25512695 39.81274414 C60.95435172 45.97855396 59.22970996 51.12543127 54 55 C48.95521755 57.25987992 44.49861545 57.19370523 39.1015625 56.9765625 C37.84912247 56.93902359 37.84912247 56.93902359 36.57138062 56.90072632 C33.92214487 56.8189952 31.27370777 56.72222678 28.625 56.625 C26.8216465 56.5667124 25.01826086 56.5094102 23.21484375 56.453125 C18.80944207 56.3134868 14.40469385 56.16036661 10 56 C10.24012817 55.24106445 10.24012817 55.24106445 10.48510742 54.46679688 C11.17534518 51.15993944 11.20219648 47.89522659 11.23828125 44.53125 C11.246353 43.813927 11.25442474 43.096604 11.26274109 42.35754395 C11.2765347 40.84466946 11.28727786 39.33176446 11.29516602 37.81884766 C11.3067227 36.27285639 11.32723257 34.72690615 11.35668945 33.18115234 C11.39931085 30.94341014 11.4155221 28.70684733 11.42578125 26.46875 C11.44328934 25.78010864 11.46079742 25.09146729 11.47883606 24.38195801 C11.46349132 20.98593808 11.24144017 19.30237993 9.09350586 16.61230469 C7.19239644 15.14817331 5.36070946 13.88653586 3.25 12.75 C2.1775 12.1725 1.105 11.595 0 11 C0 7.37 0 3.74 0 0 Z " fill="#F23F35" transform="translate(184,385)"/>
<path d="M0 0 C2.28318598 3.47713287 2.17705881 6.29167457 1.6015625 10.38623047 C0.41425811 15.5450295 -1.80919087 20.26327021 -4 25.0625 C-4.73887451 26.70871338 -4.73887451 26.70871338 -5.49267578 28.38818359 C-10.73660739 39.90184974 -16.53158004 50.77320891 -24 61 C-27.44755509 57.8756532 -30.11374249 54.54529409 -32.8125 50.75 C-43.13464451 36.37617259 -56.00538468 25.64959863 -72 18 C-72 17.34 -72 16.68 -72 16 C-11.87189124 -4.8884258 -11.87189124 -4.8884258 0 0 Z " fill="#F33F35" transform="translate(437,162)"/>
<path d="M0 0 C9.31710789 5.22769855 14.81162362 12.86846462 18.15234375 22.890625 C19.01049295 31.63148755 18.40823028 38.67169651 13.15234375 45.890625 C7.65700635 51.96144948 2.567858 54.84725139 -5.66015625 55.265625 C-13.60513739 55.0864149 -20.38204435 51.6046738 -25.84765625 45.890625 C-31.17047064 37.14909242 -32.77273368 29.079149 -31.84765625 18.890625 C-29.66358638 10.69753387 -25.73322546 4.19068316 -18.3125 -0.1484375 C-12.35149093 -2.47238081 -5.93246906 -2.31114021 0 0 Z " fill="#F6857C" transform="translate(209.84765625,275.109375)"/>
<path d="M0 0 C10.86873508 -0.57995227 10.86873508 -0.57995227 16 3 C22.79056572 9.79056572 24.43659002 17.58432943 25.1875 26.875 C25.26572998 27.78757568 25.34395996 28.70015137 25.42456055 29.64038086 C27.02536496 49.7804905 26.86095124 66.26938723 13.375 82.5625 C11.05072471 85.27415451 9.55615247 86.43318967 6 87 C-5.06964093 67.0430939 -10.90908673 45.60610929 -4.40478516 22.66137695 C-2.94264106 18.25368307 -1.18284045 14.24503274 1.1796875 10.2578125 C3.25648622 7.21175703 3.25648622 7.21175703 2.875 4.1875 C2.10258315 1.83997028 2.10258315 1.83997028 0 0 Z " fill="#F46256" transform="translate(449,247)"/>
<path d="M0 0 C1.62974564 0.76074843 3.25366648 1.53398433 4.875 2.3125 C5.77992188 2.74175781 6.68484375 3.17101562 7.6171875 3.61328125 C10 5 10 5 12 8 C12.44350837 11.53863061 12.52673616 13.28496202 10.3828125 16.1953125 C2.45169692 22.9738092 -5.07817454 25.64763784 -15.125 28.125 C-15.76244141 28.28387695 -16.39988281 28.44275391 -17.05664062 28.60644531 C-29.97197264 31.58160666 -42.9372028 32.33177815 -56.13623047 32.26074219 C-58.49863323 32.25000621 -60.860276 32.26072339 -63.22265625 32.2734375 C-84.87561565 32.29537124 -108.65838145 29.89995319 -125 14 C-125 13.34 -125 12.68 -125 12 C-123.88882813 12.26554687 -122.77765625 12.53109375 -121.6328125 12.8046875 C-103.42027499 17.13944367 -85.86588728 20.41600387 -67.0625 20.3125 C-65.9962439 20.30926727 -65.9962439 20.30926727 -64.90844727 20.30596924 C-43.37162288 20.2020224 -20.58462052 19.14969566 -2 7 C-0.83657549 4.61788832 -0.45839961 2.64853111 0 0 Z " fill="#EFA129" transform="translate(184,396)"/>
<path d="M0 0 C0.66 0.66 1.32 1.32 2 2 C1.9140625 3.8984375 1.9140625 3.8984375 1 6 C-1.0390625 7.7890625 -1.0390625 7.7890625 -3.625 9.625 C-9.01036861 13.77350078 -12.52977175 18.18959219 -16 24 C-16.46148437 24.76957031 -16.92296875 25.53914063 -17.3984375 26.33203125 C-28.65264838 46.89654386 -26.38161679 69.39178177 -20.3125 91.125 C-20.06113281 91.95257813 -19.80976563 92.78015625 -19.55078125 93.6328125 C-18.95784065 96.18119549 -18.83307143 98.39230503 -19 101 C-20.64289196 102.64289196 -22.48960279 102.32715517 -24.75 102.4375 C-28.80916285 102.37959468 -29.68404851 102.26217251 -32.9375 99.5625 C-41.51302571 86.74466476 -40.77752151 66.76905234 -38.05859375 52.27734375 C-33.88755864 33.1046169 -27.02939708 13.82758521 -10.9375 1.375 C-6.94032799 -0.49601668 -4.38705683 -0.43870568 0 0 Z " fill="#E11B18" transform="translate(352,132)"/>
<path d="M0 0 C4.562419 0.02466172 6.80222978 1.50428383 10.3125 4.3125 C9.84645685 9.06614013 9.18500217 12.44567016 6.3125 16.3125 C2.22749778 19.03583481 -1.03948502 18.82953942 -5.828125 17.89453125 C-7.25169027 17.56352744 -8.6716384 17.21624771 -10.0859375 16.84765625 C-30.04911335 12.74111707 -52.16415987 14.11066584 -70.8203125 22.32421875 C-74.01156822 23.42420199 -76.33740443 23.71584012 -79.6875 23.3125 C-82.20000583 19.54374125 -82.21766086 17.78099866 -81.6875 13.3125 C-78.19426882 7.49044803 -73.05889906 4.50777371 -66.6875 2.3125 C-63.25 2.4375 -63.25 2.4375 -60.6875 3.3125 C-57.21523787 4.46992071 -54.3731853 4.50623219 -50.7109375 4.59375 C-50.02625397 4.61215942 -49.34157043 4.63056885 -48.63613892 4.64953613 C-46.44501211 4.7081895 -44.25380483 4.76095689 -42.0625 4.8125 C-39.19517811 4.88093708 -36.3280261 4.95365003 -33.4609375 5.03125 C-32.7717926 5.04854156 -32.08264771 5.06583313 -31.37261963 5.08364868 C-27.72597055 5.19111736 -24.17803865 5.45886484 -20.5703125 5.9921875 C-16.29100713 6.34520867 -14.04411486 5.73659095 -10.1875 3.9375 C-8.65609375 3.24527344 -8.65609375 3.24527344 -7.09375 2.5390625 C-2.53393273 0.21474006 -2.53393273 0.21474006 0 0 Z " fill="#F24036" transform="translate(283.6875,177.6875)"/>
<path d="M0 0 C1.67542976 0.28604898 3.34385343 0.61781233 5 1 C5 3.64 5 6.28 5 9 C6.3303125 9.12375 6.3303125 9.12375 7.6875 9.25 C12.7025236 10.38547704 15.18957192 12.78435789 18 17 C17.625 19.6875 17.625 19.6875 17 22 C12.73832553 21.52648061 10.84979192 18.99978097 8 16 C7.34 15.67 6.68 15.34 6 15 C5.67 18.63 5.34 22.26 5 26 C6.4025 26.391875 7.805 26.78375 9.25 27.1875 C13.50546012 28.59260476 15.59866882 30.09783683 18 34 C19.47896861 36.95793723 19.4355582 38.70220224 19 42 C16.42797237 46.02978922 13.51169648 49.24353801 9 51 C7.68 51 6.36 51 5 51 C5 53.64 5 56.28 5 59 C3.0625 59.5625 3.0625 59.5625 1 60 C0 59 0 59 -0.09765625 57.15234375 C-0.04882812 54.07617188 -0.04882812 54.07617188 0 51 C-1.03125 50.938125 -2.0625 50.87625 -3.125 50.8125 C-8.00375259 49.78953575 -9.58597212 48.57660064 -13 45 C-13.875 42.1875 -13.875 42.1875 -14 40 C-12.375 39.1875 -12.375 39.1875 -10 39 C-7.94272868 40.5954349 -5.94125344 42.26526288 -4 44 C-3.01 44.33 -2.02 44.66 -1 45 C-1.33 40.38 -1.66 35.76 -2 31 C-3.423125 30.5875 -4.84625 30.175 -6.3125 29.75 C-9.07586386 28.81149907 -10.8237577 28.14953892 -13.0625 26.25 C-14.48617052 22.83319076 -14.56096228 20.67741938 -14 17 C-11.44822883 12.90395307 -8.51702697 9.822816 -4 8 C-3.01 8 -2.02 8 -1 8 C-1.020625 6.865625 -1.04125 5.73125 -1.0625 4.5625 C-1 1 -1 1 0 0 Z " fill="#FCE576" transform="translate(247,93)"/>
<path d="M0 0 C2.6875 2.875 2.6875 2.875 4 5 C1.06297184 4.04114669 -1.843404 3.06164842 -4.71875 1.9296875 C-17.3530412 -2.86140607 -29.18818175 -1.91287012 -41.5859375 3.03125 C-52.69426746 8.08981257 -61.41986019 16.70156697 -65.8449707 28.19458008 C-67.94067134 34.49287233 -68.5080181 40.32556091 -68.4375 46.9375 C-68.43049072 48.38274048 -68.43049072 48.38274048 -68.42333984 49.85717773 C-68.27691486 56.89093404 -67.19038786 62.67744304 -64 69 C-63.3220631 70.66211425 -62.65245431 72.32771845 -62 74 C-69.5450568 69.11790442 -73.36812682 60.31117847 -76 52 C-78.73063776 38.09682323 -77.0605212 25.29712734 -69.6875 13.125 C-62.7263668 3.01965748 -53.01250441 -4.76695296 -41.125 -8.5 C-26.24401418 -11.16190048 -12.56788483 -8.30934534 0 0 Z " fill="#EFA129" transform="translate(278,83)"/>
<path d="M0 0 C4.01680761 0.98058685 8.01317521 1.98291604 11.98046875 3.1484375 C29.73984739 8.35490061 47.57560573 11.39970976 66 13 C65.67 16.96 65.34 20.92 65 25 C34.030837 19.89427313 34.030837 19.89427313 20 16 C18.66782134 15.66208151 17.3350435 15.3264165 16 15 C16.309375 16.216875 16.61875 17.43375 16.9375 18.6875 C19.6129255 30.92614855 19.11836948 43.54490031 19 56 C16.03 56 13.06 56 10 56 C10.33 54.68 10.66 53.36 11 52 C11.12931675 49.50142198 11.21146853 47.03084635 11.23828125 44.53125 C11.246353 43.813927 11.25442474 43.096604 11.26274109 42.35754395 C11.2765347 40.84466946 11.28727786 39.33176446 11.29516602 37.81884766 C11.3067227 36.27285639 11.32723257 34.72690615 11.35668945 33.18115234 C11.39931085 30.94341014 11.4155221 28.70684733 11.42578125 26.46875 C11.44328934 25.78010864 11.46079742 25.09146729 11.47883606 24.38195801 C11.46349132 20.98593808 11.24144017 19.30237993 9.09350586 16.61230469 C7.19239644 15.14817331 5.36070946 13.88653586 3.25 12.75 C2.1775 12.1725 1.105 11.595 0 11 C0 7.37 0 3.74 0 0 Z " fill="#E11D18" transform="translate(184,385)"/>
<path d="M0 0 C-0.33 4.29 -0.66 8.58 -1 13 C-25.28938425 20.98145486 -50.3845476 25.63689436 -76 26 C-77.19287411 22.12315913 -78 19.08378077 -78 15 C-76.07027344 14.83564453 -76.07027344 14.83564453 -74.1015625 14.66796875 C-69.15553288 14.24028184 -64.21388867 13.77139745 -59.27197266 13.29882812 C-56.08275381 13.00755788 -52.89234224 12.75976125 -49.69921875 12.515625 C-33.46632921 11.12362918 -15.06826421 0 0 0 Z " fill="#E11B18" transform="translate(387,385)"/>
<path d="M0 0 C0.99 0.495 0.99 0.495 2 1 C2.47318356 6.35765903 2.47318356 6.35765903 0.3828125 9.1953125 C-7.54830308 15.9738092 -15.07817454 18.64763784 -25.125 21.125 C-25.76244141 21.28387695 -26.39988281 21.44275391 -27.05664062 21.60644531 C-39.97197264 24.58160666 -52.9372028 25.33177815 -66.13623047 25.26074219 C-68.49863323 25.25000621 -70.860276 25.26072339 -73.22265625 25.2734375 C-85.97586941 25.28660495 -99.00812019 24.91319174 -111.125 20.5625 C-112.30320312 20.15128906 -113.48140625 19.74007813 -114.6953125 19.31640625 C-117.90061478 18.03958962 -120.94177425 16.59418151 -124 15 C-124 14.67 -124 14.34 -124 14 C-118.06930683 14.59306932 -112.24664753 15.43081071 -106.3828125 16.5 C-95.41382852 18.1212817 -84.48240494 18.21791364 -73.41503906 18.24023438 C-70.53420521 18.24988541 -67.65410318 18.28096346 -64.7734375 18.3125 C-43.38952704 18.43489547 -17.58644479 16.88883221 -1.203125 1.2890625 C-0.80609375 0.86367188 -0.4090625 0.43828125 0 0 Z " fill="#F7C63B" transform="translate(194,403)"/>
<path d="M0 0 C5.71013399 3.28078834 10.74917095 7.09241178 15.6875 11.4375 C16.4609375 12.11554688 17.234375 12.79359375 18.03125 13.4921875 C24.10229269 19.16819659 29.30552624 25.80333701 32.6875 33.4375 C32.41665793 37.97575607 30.31339623 40.79512781 27.6875 44.4375 C24.23994491 41.3131532 21.57375751 37.98279409 18.875 34.1875 C8.55285549 19.81367259 -4.31788468 9.08709863 -20.3125 1.4375 C-20.3125 0.7775 -20.3125 0.1175 -20.3125 -0.5625 C-12.43110831 -4.01925074 -7.79128602 -4.00507118 0 0 Z " fill="#E11B18" transform="translate(385.3125,178.5625)"/>
<path d="M0 0 C2.625 0.375 2.625 0.375 5 1 C4.60275936 6.03171476 2.78080347 9.63470794 0.3515625 13.94921875 C-3.74146155 23.18809674 -4.47237638 31.98105221 -4.375 42 C-4.38660156 43.19367188 -4.39820313 44.38734375 -4.41015625 45.6171875 C-4.37520985 56.26419024 -2.40504972 65.04399696 2.6875 74.375 C6.46588822 81.30595644 6.46588822 81.30595644 6 86 C3.525 86.495 3.525 86.495 1 87 C-3.3417498 81.59590716 -6.01697751 75.91793656 -8.3125 69.4375 C-8.69365967 68.37607788 -8.69365967 68.37607788 -9.08251953 67.29321289 C-15.56686705 48.24792161 -13.53297452 25.0563443 -4.875 7.125 C-3.39842855 4.31721906 -2.24174519 2.24174519 0 0 Z " fill="#E11C19" transform="translate(448,249)"/>
<path d="M0 0 C2.03144641 0.93446535 4.03533587 1.93224776 6 3 C9.32239498 3.54366463 12.64045886 3.80745713 16 4 C16.5625 5.9375 16.5625 5.9375 17 8 C15.46370779 9.53629221 13.88319298 9.15111026 11.75 9.25 C6.91833156 9.70797805 5.29330042 11.43967522 2 15 C-1.3125 15.8125 -1.3125 15.8125 -4 16 C-4.495 14.02 -4.495 14.02 -5 12 C-3.02 10.68 -1.04 9.36 1 8 C-0.77311589 5.82084646 -0.77311589 5.82084646 -3.0234375 5.734375 C-3.79945312 5.73953125 -4.57546875 5.7446875 -5.375 5.75 C-6.14585938 5.74484375 -6.91671875 5.7396875 -7.7109375 5.734375 C-10.30011471 6.0348256 -11.8247342 6.56496035 -14 8 C-15.43033149 9.86270393 -15.43033149 9.86270393 -16.5625 12 C-18.2572434 15.02275544 -18.9974895 15.99832634 -22 18 C-24.7421875 18.30078125 -24.7421875 18.30078125 -27.875 18.3125 C-28.90367188 18.32925781 -29.93234375 18.34601563 -30.9921875 18.36328125 C-34.39656665 17.95210299 -36.12019755 16.79126468 -39 15 C-41.65533053 14.43575519 -41.65533053 14.43575519 -44.3125 14.3125 C-45.19550781 14.24675781 -46.07851562 14.18101562 -46.98828125 14.11328125 C-47.65214844 14.07589844 -48.31601563 14.03851563 -49 14 C-49.33 12.68 -49.66 11.36 -50 10 C-46.17679443 8.57741188 -43.08718695 7.75957724 -39 8 C-39 7.34 -39 6.68 -39 6 C-31.71428571 1.42857143 -31.71428571 1.42857143 -27 2 C-26.67 3.32 -26.34 4.64 -26 6 C-29.96 7.98 -29.96 7.98 -34 10 C-32.18806994 12.24324836 -32.18806994 12.24324836 -29.6171875 12.1953125 C-28.25980469 12.16050781 -28.25980469 12.16050781 -26.875 12.125 C-25.96492188 12.10695313 -25.05484375 12.08890625 -24.1171875 12.0703125 C-23.41851562 12.04710937 -22.71984375 12.02390625 -22 12 C-21.690625 10.6696875 -21.690625 10.6696875 -21.375 9.3125 C-17.43554704 -0.17800031 -9.18232221 -0.71471901 0 0 Z " fill="#FCE576" transform="translate(129,361)"/>
<path d="M0 0 C5.36992975 1.20360494 7.68186012 2.51249639 10.9375 7 C13.08125074 11.12192724 13.14449889 14.21122409 12.625 18.8125 C10.8664131 22.97757424 8.77298495 25.02132468 4.625 26.8125 C0.85807391 27.21609922 -1.61334029 27.12408806 -5.125 25.6875 C-8.75072212 22.6660649 -10.12911963 19.85450652 -10.6953125 15.15234375 C-10.8782067 10.62266404 -10.90462424 7.70738233 -8.5625 3.75 C-4.07314503 -0.22628583 -4.07314503 -0.22628583 0 0 Z " fill="#F6857B" transform="translate(245.375,258.1875)"/>
<path d="M0 0 C3.43545428 0.54654954 4.65396346 1.998073 6.6796875 4.75 C10.84821187 11.32227199 10.80847489 19.70509289 9.14453125 27.14453125 C8.05769518 30.55951363 7.31019387 32.87730613 4.75 35.4375 C1.64947032 35.92705732 0.24269338 35.77079258 -2.375 34 C-7.6710506 26.76206419 -8.28190034 18.16474221 -7.25 9.4375 C-4.35608931 0.84701737 -4.35608931 0.84701737 0 0 Z " fill="#060202" transform="translate(386.25,238.5625)"/>
<path d="M0 0 C13.79398447 -1.00319887 32.61851464 3.61739382 43.5625 12.1875 C49.35185651 17.90341858 51.15010872 24.00489217 51.26367188 32.05273438 C51.2439712 35.0387939 51.14315871 38.0175269 51 41 C49.35 40.67 47.7 40.34 46 40 C45.98582031 38.83082031 45.97164062 37.66164063 45.95703125 36.45703125 C45.91011562 34.90881543 45.86186831 33.36063956 45.8125 31.8125 C45.80669922 31.04357422 45.80089844 30.27464844 45.79492188 29.48242188 C45.63858297 25.4349813 45.35310114 23.47864821 42.890625 20.140625 C39.72015451 17.79276307 36.62462234 16.24878486 32.9375 14.9375 C32.25719727 14.68564941 31.57689453 14.43379883 30.87597656 14.17431641 C24.28877032 11.86184943 17.5397149 10.54621279 10.65209961 9.46850586 C6.93342702 8.84013879 4.51574241 8.37352254 1.421875 6.1328125 C0 4 0 4 0 0 Z " fill="#F34237" transform="translate(138,345)"/>
<path d="M0 0 C1.17755859 -0.00773437 1.17755859 -0.00773437 2.37890625 -0.015625 C4.4375 0.25 4.4375 0.25 6.4375 2.25 C6.90132725 5.80600891 6.86519679 7.59990088 4.875 10.625 C1.50239221 12.87340519 -0.58762383 12.81783945 -4.5625 12.25 C-7.0625 10.625 -7.0625 10.625 -8.5625 8.25 C-8.5 5.125 -8.5 5.125 -7.5625 2.25 C-4.42838698 0.16059132 -3.58799528 -0.02364412 0 0 Z " fill="#F9D366" transform="translate(69.5625,360.75)"/>
<path d="M0 0 C0.53625 0.309375 1.0725 0.61875 1.625 0.9375 C-1.27096896 2.86814597 -3.90274932 4.02850671 -7.125 5.3125 C-16.07197396 8.85461415 -16.07197396 8.85461415 -23.375 14.9375 C-23.83874601 11.04203349 -23.57303952 9.26096455 -21.5 5.875 C-15.54134108 -0.54201729 -8.15549294 -3.64851 0 0 Z " fill="#E21D19" transform="translate(225.375,182.0625)"/>
<path d="M0 0 C0.66 0 1.32 0 2 0 C3.94957399 4.0925581 4.26960267 7.42398473 4.25 11.9375 C4.25773437 13.71447266 4.25773437 13.71447266 4.265625 15.52734375 C3.99993706 19.00082283 3.24620553 21.76085468 2 25 C1.01 24.67 0.02 24.34 -1 24 C-2.76078179 20.47843642 -2.184646 16.44108049 -2.1875 12.5625 C-2.19974609 11.69044922 -2.21199219 10.81839844 -2.22460938 9.91992188 C-2.22654297 9.08138672 -2.22847656 8.24285156 -2.23046875 7.37890625 C-2.23457764 6.6113501 -2.23868652 5.84379395 -2.24291992 5.05297852 C-2 3 -2 3 0 0 Z " fill="#FDE3AF" transform="translate(454,282)"/>
<path d="M0 0 C3.39359497 0.71444105 5.48444681 2.09137501 8.00390625 4.421875 C8.37890625 7.171875 8.37890625 7.171875 8.00390625 9.421875 C4.73634069 9.421875 3.00996883 8.62430003 0.00390625 7.421875 C-1.92401452 7.00038625 -3.86262545 6.62511062 -5.80859375 6.296875 C-6.78441406 6.12929687 -7.76023437 5.96171875 -8.765625 5.7890625 C-9.50167969 5.66789063 -10.23773438 5.54671875 -10.99609375 5.421875 C-7.69943614 1.30105299 -5.43201446 -0.3710674 0 0 Z " fill="#E21E1A" transform="translate(285.99609375,177.578125)"/>
<path d="M0 0 C6 2 6 2 8 4 C7.875 7.5 7.875 7.5 7 11 C4.4664092 12.94241961 3.21812786 13 0 13 C0 8.71 0 4.42 0 0 Z " fill="#F8C73C" transform="translate(252,125)"/>
<path d="M0 0 C1.98 0 3.96 0 6 0 C6.14285714 8.57142857 6.14285714 8.57142857 5 12 C2.69 12 0.38 12 -2 12 C-1.34 8.04 -0.68 4.08 0 0 Z " fill="#E3211D" transform="translate(119,274)"/>
<path d="M0 0 C0 3.63 0 7.26 0 11 C-5.75 10.25 -5.75 10.25 -8 8 C-7.83652072 4.81215405 -7.44027683 3.42560094 -5.125 1.1875 C-3 0 -3 0 0 0 Z " fill="#F8C83E" transform="translate(246,107)"/>
</svg>
