<?xml version="1.0" encoding="UTF-8"?>
<svg version="1.1" xmlns="http://www.w3.org/2000/svg" width="512" height="512">
<path d="M0 0 C0.7850248 -0.00235223 1.5700496 -0.00470446 2.37886304 -0.00712797 C5.02533682 -0.01381704 7.6717615 -0.01335977 10.31824303 -0.01294994 C12.22847645 -0.01624862 14.13870918 -0.0199742 16.04894102 -0.02409142 C21.31092878 -0.03411903 26.57290513 -0.03782944 31.83490109 -0.04048073 C37.50515494 -0.04438151 43.17539974 -0.05395998 48.84564781 -0.0626936 C62.54529589 -0.08246402 76.24494472 -0.09252478 89.9446035 -0.10142139 C96.39368842 -0.10580318 102.8427725 -0.11117026 109.29185677 -0.11641026 C130.7258859 -0.13342282 152.15991371 -0.14794245 173.59394836 -0.155159 C174.98012565 -0.15563375 176.36630294 -0.15610964 177.75248023 -0.15658666 C178.43989776 -0.15682303 179.12731528 -0.15705941 179.83556364 -0.15730295 C183.31834602 -0.15850414 186.80112839 -0.1597196 190.28391075 -0.16094494 C191.32066256 -0.16130516 191.32066256 -0.16130516 192.37835885 -0.16167267 C214.78659379 -0.16956522 237.19477579 -0.19299619 259.6029876 -0.22550088 C283.29525854 -0.25980543 306.98748912 -0.27950957 330.67978704 -0.28280324 C343.59433638 -0.28496969 356.50880791 -0.2937382 369.42333412 -0.31926441 C380.42061666 -0.34095071 391.41780249 -0.34903198 402.41510399 -0.33929763 C408.0264346 -0.33474702 413.63756559 -0.33668361 419.24886894 -0.35605907 C424.38735436 -0.37364877 429.52549391 -0.37272694 434.66398279 -0.35716178 C436.52136818 -0.35477936 438.37877725 -0.35914208 440.23612638 -0.37099043 C452.89608334 -0.44673809 463.01745018 0.27864839 472.60178185 9.34125233 C480.11919015 17.32849866 480.58426428 25.03549005 480.55670738 35.48805714 C480.5612385 36.74456772 480.56576961 38.0010783 480.57043803 39.29566497 C480.58265561 42.7764446 480.58240904 46.25712804 480.58004928 49.73792422 C480.5796408 53.49468724 480.59068323 57.25141955 480.60016441 61.00816822 C480.61676849 68.36577094 480.62227369 75.72334161 480.62338917 83.0809615 C480.62433991 89.06234428 480.62845151 95.0437165 480.63479042 101.02509594 C480.6524011 117.98802019 480.66162955 134.95091915 480.66012947 151.91385261 C480.6600096 153.28520917 480.6600096 153.28520917 480.65988731 154.68426991 C480.65980555 155.59962545 480.65972379 156.514981 480.65963955 157.45807459 C480.65882667 172.29233491 480.67796538 187.12649368 480.70616405 201.96072463 C480.73489801 217.19692248 480.74870406 232.43307081 480.74697649 247.66929644 C480.74631278 256.22147389 480.75179708 264.77354488 480.7733326 273.3256979 C480.79155113 280.60720705 480.79588623 287.88856148 480.78231375 295.17008356 C480.77578748 298.8836622 480.77565424 302.59694408 480.79302025 306.31049442 C480.81167133 310.34036512 480.79918773 314.36954989 480.78375816 318.39943409 C480.79404529 319.56753787 480.80433242 320.73564166 480.81493127 321.93914253 C480.7308416 331.87808317 478.05700874 339.03385755 471.28928185 346.34125233 C464.39601945 352.52095436 457.61209992 354.2867752 448.57856369 354.26844215 C447.79353889 354.27079438 447.00851409 354.27314661 446.19970065 354.27557012 C443.55322687 354.2822592 440.90680219 354.28180193 438.26032066 354.2813921 C436.35008724 354.28469078 434.43985451 354.28841635 432.52962267 354.29253358 C427.26763491 354.30256119 422.00565856 354.30627159 416.7436626 354.30892289 C411.07340875 354.31282366 405.40316395 354.32240213 399.73291588 354.33113575 C386.0332678 354.35090618 372.33361897 354.36096693 358.63396019 354.36986354 C352.18487527 354.37424534 345.73579119 354.37961241 339.28670692 354.38485241 C317.85267779 354.40186497 296.41864998 354.4163846 274.98461533 354.42360115 C273.59843804 354.42407591 272.21226075 354.4245518 270.82608346 354.42502881 C270.13866593 354.42526519 269.45124841 354.42550156 268.74300005 354.4257451 C265.26021767 354.4269463 261.7774353 354.42816175 258.29465294 354.42938709 C257.25790113 354.42974732 257.25790113 354.42974732 256.20020484 354.43011482 C233.7919699 354.43800737 211.38378791 354.46143835 188.97557609 354.49394304 C165.28330515 354.52824759 141.59107457 354.54795173 117.89877665 354.55124539 C104.98422731 354.55341184 92.06975578 354.56218036 79.15522957 354.58770657 C68.15794703 354.60939286 57.1607612 354.61747413 46.1634597 354.60773978 C40.55212909 354.60318917 34.9409981 354.60512576 29.32969475 354.62450123 C24.19120933 354.64209092 19.05306978 354.6411691 13.9145809 354.62560394 C12.05719551 354.62322151 10.19978644 354.62758423 8.34243731 354.63943259 C-4.31751965 354.71518024 -14.43888649 353.98979376 -24.02321815 344.92718983 C-31.54062646 336.9399435 -32.00570059 329.2329521 -31.97814369 318.78038502 C-31.9826748 317.52387443 -31.98720592 316.26736385 -31.99187434 314.97277719 C-32.00409192 311.49199755 -32.00384535 308.01131412 -32.00148559 304.53051794 C-32.00107711 300.77375491 -32.01211954 297.01702261 -32.02160072 293.26027393 C-32.0382048 285.90267121 -32.04371 278.54510054 -32.04482548 271.18748065 C-32.04577622 265.20609787 -32.04988782 259.22472565 -32.05622673 253.24334621 C-32.07383741 236.28042196 -32.08306586 219.317523 -32.08156578 202.35458954 C-32.08148587 201.44035184 -32.08140596 200.52611413 -32.08132362 199.58417225 C-32.08124186 198.6688167 -32.0811601 197.75346116 -32.08107586 196.81036756 C-32.08026298 181.97610725 -32.09940169 167.14194847 -32.12760036 152.30771752 C-32.15633432 137.07151968 -32.17014037 121.83537134 -32.1684128 106.59914571 C-32.16774909 98.04696827 -32.17323339 89.49489728 -32.19476891 80.94274426 C-32.21298744 73.66123511 -32.21732254 66.37988067 -32.20375006 59.09835859 C-32.19722379 55.38477995 -32.19709055 51.67149807 -32.21445656 47.95794773 C-32.23310764 43.92807704 -32.22062404 39.89889226 -32.20519447 35.86900806 C-32.2154816 34.70090428 -32.22576873 33.5328005 -32.23636758 32.32929963 C-32.15227791 22.39035898 -29.47844505 15.2345846 -22.71071815 7.92718983 C-15.81745576 1.7474878 -9.03353623 -0.01833305 0 0 Z " fill="#FEFEFE" transform="translate(31.710718154907227,78.86577892303467)"/>
<path d="M0 0 C168.96 0 337.92 0 512 0 C512 44.48935884 512 44.48935884 503 54.20703125 C496.1067376 60.38673328 489.32281807 62.15255412 480.28928185 62.13422108 C479.50425704 62.13657331 478.71923224 62.13892554 477.91041881 62.14134905 C475.26394502 62.14803812 472.61752035 62.14758085 469.97103882 62.14717102 C468.06080539 62.1504697 466.15057267 62.15419527 464.24034083 62.1583125 C458.97835307 62.16834011 453.71637671 62.17205052 448.45438075 62.17470181 C442.7841269 62.17860258 437.11388211 62.18818105 431.44363403 62.19691467 C417.74398595 62.2166851 404.04433712 62.22674585 390.34467834 62.23564246 C383.89559343 62.24002426 377.44650934 62.24539134 370.99742508 62.25063133 C349.56339594 62.2676439 328.12936813 62.28216353 306.69533348 62.28938007 C305.30915619 62.28985483 303.9229789 62.29033072 302.53680161 62.29080774 C301.84938409 62.29104411 301.16196656 62.29128049 300.4537182 62.29152403 C296.97093583 62.29272522 293.48815346 62.29394067 290.00537109 62.29516602 C288.96861928 62.29552624 288.96861928 62.29552624 287.91092299 62.29589374 C265.50268806 62.30378629 243.09450606 62.32721727 220.68629424 62.35972196 C196.9940233 62.39402651 173.30179273 62.41373065 149.60949481 62.41702431 C136.69494547 62.41919076 123.78047393 62.42795928 110.86594772 62.45348549 C99.86866519 62.47517179 88.87147935 62.48325306 77.87417786 62.47351871 C72.26284725 62.4689681 66.65171625 62.47090468 61.0404129 62.49028015 C55.90192748 62.50786984 50.76378793 62.50694802 45.62529905 62.49138286 C43.76791366 62.48900043 41.91050459 62.49336315 40.05315547 62.50521151 C27.3931985 62.58095916 17.27183166 61.85557268 7.6875 52.79296875 C-5.97323945 38.27843308 0 19.77637317 0 0 Z " fill="#F79F1B" transform="translate(0,371)"/>
<path d="M0 0 C0.7850248 -0.00235223 1.5700496 -0.00470446 2.37886304 -0.00712797 C5.02533682 -0.01381704 7.6717615 -0.01335977 10.31824303 -0.01294994 C12.22847645 -0.01624862 14.13870918 -0.0199742 16.04894102 -0.02409142 C21.31092878 -0.03411903 26.57290513 -0.03782944 31.83490109 -0.04048073 C37.50515494 -0.04438151 43.17539974 -0.05395998 48.84564781 -0.0626936 C62.54529589 -0.08246402 76.24494472 -0.09252478 89.9446035 -0.10142139 C96.39368842 -0.10580318 102.8427725 -0.11117026 109.29185677 -0.11641026 C130.7258859 -0.13342282 152.15991371 -0.14794245 173.59394836 -0.155159 C174.98012565 -0.15563375 176.36630294 -0.15610964 177.75248023 -0.15658666 C178.43989776 -0.15682303 179.12731528 -0.15705941 179.83556364 -0.15730295 C183.31834602 -0.15850414 186.80112839 -0.1597196 190.28391075 -0.16094494 C191.32066256 -0.16130516 191.32066256 -0.16130516 192.37835885 -0.16167267 C214.78659379 -0.16956522 237.19477579 -0.19299619 259.6029876 -0.22550088 C283.29525854 -0.25980543 306.98748912 -0.27950957 330.67978704 -0.28280324 C343.59433638 -0.28496969 356.50880791 -0.2937382 369.42333412 -0.31926441 C380.42061666 -0.34095071 391.41780249 -0.34903198 402.41510399 -0.33929763 C408.0264346 -0.33474702 413.63756559 -0.33668361 419.24886894 -0.35605907 C424.38735436 -0.37364877 429.52549391 -0.37272694 434.66398279 -0.35716178 C436.52136818 -0.35477936 438.37877725 -0.35914208 440.23612638 -0.37099043 C452.89608334 -0.44673809 463.01745018 0.27864839 472.60178185 9.34125233 C486.2625213 23.85578799 480.28928185 42.35784791 480.28928185 62.13422108 C311.32928185 62.13422108 142.36928185 62.13422108 -31.71071815 62.13422108 C-31.71071815 17.64486224 -31.71071815 17.64486224 -22.71071815 7.92718983 C-15.81745576 1.7474878 -9.03353623 -0.01833305 0 0 Z " fill="#069BBF" transform="translate(31.710718154907227,78.86577892303467)"/>
<path d="M0 0 C0.77261673 0.00141495 1.54523346 0.0028299 2.34126282 0.00428772 C4.80697514 0.00988159 7.2725964 0.02243292 9.73828125 0.03515625 C11.41080598 0.04017204 13.08333213 0.04473481 14.75585938 0.04882812 C18.85420171 0.05984901 22.95247604 0.07710941 27.05078125 0.09765625 C27.31705322 1.36432129 27.5833252 2.63098633 27.85766602 3.93603516 C33.97750454 33.23023804 33.97750454 33.23023804 40.61328125 62.41015625 C43.53191514 74.66683808 46.22408359 86.96566894 48.86328125 99.28515625 C49.05850372 100.19383453 49.2537262 101.10251282 49.4548645 102.03872681 C50.01641369 104.65555494 50.5751898 107.27295763 51.1328125 109.890625 C51.29710754 110.65720428 51.46140259 111.42378357 51.63067627 112.21359253 C52.89082019 118.16117897 53.96181731 124.10835459 55.05078125 130.09765625 C44.16078125 130.09765625 33.27078125 130.09765625 22.05078125 130.09765625 C18.05078125 115.09765625 18.05078125 115.09765625 18.05078125 111.09765625 C2.87078125 111.42765625 -12.30921875 111.75765625 -27.94921875 112.09765625 C-30.25921875 118.03765625 -32.56921875 123.97765625 -34.94921875 130.09765625 C-47.15921875 130.09765625 -59.36921875 130.09765625 -71.94921875 130.09765625 C-68.57454833 119.97364499 -68.57454833 119.97364499 -67.05834961 116.59570312 C-66.54418739 115.44148361 -66.54418739 115.44148361 -66.01963806 114.26394653 C-65.65479813 113.45625824 -65.28995819 112.64856995 -64.9140625 111.81640625 C-64.5232399 110.94160614 -64.1324173 110.06680603 -63.72975159 109.16549683 C-62.88968641 107.28617352 -62.04774934 105.40768603 -61.20410156 103.52996826 C-58.94270829 98.49641947 -56.69512136 93.45670314 -54.4453125 88.41796875 C-53.98559052 87.3894278 -53.52586853 86.36088684 -53.05221558 85.30117798 C-48.85362745 75.90166644 -44.70825204 66.47931655 -40.5788269 57.04925537 C-39.45573771 54.48752579 -38.3291331 51.92737108 -37.20141602 49.36767578 C-34.18596291 42.51839037 -31.17421313 35.669843 -28.27618408 28.76986694 C-27.46586908 26.84331739 -26.64747505 24.92042239 -25.82617188 22.99853516 C-24.86737306 20.74772688 -23.9242905 18.49011465 -23.00195312 16.22412109 C-20.18236497 9.6605073 -16.9685413 5.08781555 -10.94921875 1.09765625 C-7.25381473 -0.13414509 -3.84618497 -0.02646487 0 0 Z " fill="#069BBF" transform="translate(412.94921875,190.90234375)"/>
<path d="M0 0 C-1.32 9.24 -2.64 18.48 -4 28 C-8.11695785 27.17660843 -11.70358198 26.12036423 -15.62109375 24.71875 C-21.48012642 22.94853323 -27.30367333 22.75909583 -33.375 22.6875 C-34.59316406 22.64399414 -34.59316406 22.64399414 -35.8359375 22.59960938 C-42.46732942 22.53053238 -47.6117582 24.08622932 -52.69287109 28.45581055 C-54.25645628 30.0390157 -54.25645628 30.0390157 -54.5 32.875 C-53.84707848 36.95575947 -52.19616271 38.63382032 -49 41 C-44.61080382 43.99770933 -40.03796683 46.54663997 -35.21484375 48.7734375 C-22.92706422 54.48658032 -11.18216407 61.85659255 -5.76953125 74.984375 C-3.32806688 84.55194098 -4.58993577 94.72754853 -9.2890625 103.37109375 C-17.54846311 116.46688135 -29.37653499 123.92443651 -44.36987305 127.57739258 C-51.97637215 129.14251298 -59.44012226 129.34657117 -67.1875 129.3125 C-68.46455811 129.30903564 -69.74161621 129.30557129 -71.05737305 129.30200195 C-83.2734491 129.16146234 -94.69523317 127.94583549 -106 123 C-106.22220512 116.17413637 -105.44646056 110.09805993 -104 103.4375 C-103.80921875 102.52419922 -103.6184375 101.61089844 -103.421875 100.66992188 C-102.95588071 98.44479913 -102.48183025 96.22173724 -102 94 C-97.01898026 94.84132387 -92.36354224 96.51668527 -87.61523438 98.18359375 C-80.81671986 100.51648503 -74.67307873 101.1627219 -67.5625 101.125 C-66.83740234 101.12886719 -66.11230469 101.13273437 -65.36523438 101.13671875 C-56.72310641 101.12118932 -50.60844866 100.31112939 -44.0625 94.1875 C-42.40373029 90.7723859 -42.99021975 88.59734214 -44 85 C-47.95759183 80.19656992 -52.66428246 77.83767093 -58.125 75.125 C-72.93008635 67.53225064 -86.3279523 60.65537683 -92 44 C-93.51418762 34.30226404 -91.55389041 25.57649625 -86.3046875 17.33984375 C-77.30084989 5.25574591 -63.89731295 -1.6784601 -49.26171875 -4.49609375 C-33.09775081 -6.73527524 -15.24260279 -6.09704112 0 0 Z " fill="#079BBF" transform="translate(348,194)"/>
<path d="M0 0 C12.54 0 25.08 0 38 0 C34.6252725 10.12418249 34.6252725 10.12418249 32.78613281 14.33154297 C32.37373856 15.28030304 31.9613443 16.22906311 31.53645325 17.20657349 C31.09645493 18.20832611 30.6564566 19.21007874 30.203125 20.2421875 C29.50463692 21.84548416 29.50463692 21.84548416 28.79203796 23.48117065 C27.79684649 25.76449789 26.79994872 28.04708207 25.80148315 30.32897949 C23.70454618 35.1216719 21.61617651 39.91808021 19.52745056 44.71435547 C18.48184519 47.11524802 17.43583587 49.51596469 16.38941956 51.91650391 C12.20671831 61.51401737 8.05572784 71.12466013 3.9375 80.75 C3.50139908 81.76880753 3.50139908 81.76880753 3.05648804 82.80819702 C-3.66760652 98.52237707 -10.33341474 114.26136057 -17 130 C-29.54 130 -42.08 130 -55 130 C-58.35680313 121.048525 -61.47160942 112.19204963 -63.875 102.9375 C-65.36662397 97.20407038 -67.05391262 91.57417121 -68.875 85.9375 C-71.36449552 78.20477407 -73.56936211 70.42182509 -75.67041016 62.57543945 C-77.87059127 54.38619579 -80.23261238 46.24883561 -82.64038086 38.1184082 C-84.21840697 32.76991761 -85.69273838 27.42129082 -87 22 C-69.04828367 30.14436537 -53.34513446 48.68412661 -43 65 C-42.47019531 65.81855469 -41.94039062 66.63710938 -41.39453125 67.48046875 C-37.94751625 73.19179859 -35 80.23440089 -35 87 C-34.34 87 -33.68 87 -33 87 C-32.84640015 86.0104834 -32.84640015 86.0104834 -32.68969727 85.00097656 C-31.81103909 81.17780265 -30.40801209 77.62075197 -28.96484375 73.984375 C-28.65414444 73.19165695 -28.34344513 72.3989389 -28.02333069 71.5821991 C-26.99852469 68.96995376 -25.96799548 66.36000552 -24.9375 63.75 C-24.22417636 61.93449625 -23.51129191 60.11881988 -22.79882812 58.30297852 C-21.30490673 54.49640589 -19.8090528 50.69060063 -18.31201172 46.88525391 C-14.88096114 38.1582579 -11.47676445 29.4207813 -8.0708313 20.68395996 C-6.36077136 16.29801124 -4.64907755 11.9127004 -2.9375 7.52734375 C-1.968125 5.04332031 -0.99875 2.55929688 0 0 Z " fill="#069BBF" transform="translate(153,191)"/>
<path d="M0 0 C168.96 0 337.92 0 512 0 C512 0.33 512 0.66 512 1 C349.97 1 187.94 1 21 1 C21 76.57 21 152.14 21 230 C14.07 230 7.14 230 0 230 C0 154.1 0 78.2 0 0 Z " fill="#DDDFE0" transform="translate(0,141)"/>
<path d="M0 0 C11.88 0 23.76 0 36 0 C33.68426123 16.76081941 30.99303397 33.43986203 28.1875 50.125 C27.85225809 52.12454831 27.51732521 54.12414823 27.18240643 56.12375069 C25.9865748 63.26260643 24.78598414 70.40065391 23.58312988 77.53833008 C23.05417549 80.67839468 22.52634421 83.81864511 21.99902344 86.95898438 C21.31106398 91.05380996 20.619743 95.14804821 19.92446899 99.24163818 C19.68851231 100.63231249 19.45342353 102.02313442 19.21932983 103.41412354 C17.7143751 112.34306688 15.89971501 121.13466328 14 130 C2.45 130 -9.1 130 -21 130 C-19.85190496 115.07476451 -19.85190496 115.07476451 -18.65234375 108.4140625 C-18.45408241 107.26854416 -18.45408241 107.26854416 -18.2518158 106.09988403 C-17.81922323 103.60725914 -17.37832596 101.11618067 -16.9375 98.625 C-16.62644651 96.8402858 -16.31607921 95.0554519 -16.00634766 93.27050781 C-15.34903291 89.48431477 -14.6891209 85.69858673 -14.02783203 81.91308594 C-12.45166728 72.86914836 -10.92163984 63.81734114 -9.38674927 54.7663269 C-6.28862583 36.50552288 -3.1568847 18.25073965 0 0 Z " fill="#079BBF" transform="translate(205,191)"/>
<path d="M0 0 C7.8324229 -0.09292643 15.6647152 -0.1638791 23.49755192 -0.20724869 C27.13520425 -0.22807046 30.77247776 -0.25628732 34.40991211 -0.30175781 C37.92423125 -0.34541134 41.43818741 -0.36917776 44.95275688 -0.37950897 C46.93746295 -0.39043132 48.92202421 -0.42162628 50.9065094 -0.45318604 C62.67147343 -0.45609778 62.67147343 -0.45609778 68 4 C70.77859958 8.22473016 71.71702134 12.49962903 72.68359375 17.42578125 C72.82410156 18.12678955 72.96460937 18.82779785 73.109375 19.55004883 C73.55966958 21.80276772 73.99857712 24.05754084 74.4375 26.3125 C75.04798735 29.38624081 75.66433221 32.45879418 76.28125 35.53125 C76.4300914 36.27627274 76.5789328 37.02129547 76.73228455 37.78889465 C78.09482246 44.56970701 79.66857238 51.28504858 81.37109375 57.98828125 C81.95121838 60.76639361 82.13253241 63.174409 82 66 C80.26248451 63.39372676 78.86916509 60.84017501 77.4375 58.0625 C68.75280008 42.14055014 56.4540879 29.42854616 41 20 C40.38979004 19.62633301 39.77958008 19.25266602 39.15087891 18.86767578 C26.84717751 11.50178868 13.66013896 7.17963338 0 3 C0 2.01 0 1.02 0 0 Z " fill="#F7A01E" transform="translate(31,190)"/>
<path d="M0 0 C7.26 0 14.52 0 22 0 C22.02578125 2.62710937 22.0515625 5.25421875 22.078125 7.9609375 C22.11665747 10.53607398 22.16178126 13.11101774 22.20751953 15.68603516 C22.23555549 17.46067942 22.2568555 19.23544453 22.27099609 21.01025391 C22.36726443 32.41484317 22.72814171 41.53118602 29.1875 51.3125 C32.76480835 54.73081687 36.58995125 56.82258774 41 59 C42.33354661 59.66623995 43.66691126 60.33284436 45 61 C41.02122897 61.1466932 37.0431641 61.23453512 33.0625 61.3125 C31.94552734 61.35439453 30.82855469 61.39628906 29.67773438 61.43945312 C20.7082696 61.5709702 15.24331042 59.65870573 8.4765625 53.82421875 C7.56003906 52.76654297 7.56003906 52.76654297 6.625 51.6875 C5.99851562 50.99011719 5.37203125 50.29273438 4.7265625 49.57421875 C0.41180562 43.14113101 -0.43666778 37.22134828 -0.29296875 29.6875 C-0.28872391 28.83317383 -0.28447906 27.97884766 -0.28010559 27.09863281 C-0.26345703 24.39875318 -0.22583223 21.69964989 -0.1875 19 C-0.17243523 17.15756295 -0.15874998 15.31511407 -0.14648438 13.47265625 C-0.11616428 8.98123895 -0.05741945 4.49147734 0 0 Z " fill="#D78D1D" transform="translate(0,371)"/>
<path d="M0 0 C1.15177734 0.02255859 2.30355469 0.04511719 3.49023438 0.06835938 C6.30737749 0.12680633 9.12172564 0.20868529 11.9375 0.3125 C11.02073486 0.77064087 11.02073486 0.77064087 10.08544922 1.23803711 C0.87410202 5.84580467 -4.43507953 10.11351761 -9.10888672 19.38916016 C-10.41455601 23.39174183 -10.41810885 27.14571519 -10.4765625 31.33203125 C-10.49592865 32.19060226 -10.5152948 33.04917328 -10.5352478 33.9337616 C-10.59481556 36.66407474 -10.64133734 39.39443057 -10.6875 42.125 C-10.72570079 43.98113773 -10.76475375 45.83725812 -10.8046875 47.69335938 C-10.90209555 52.23298048 -10.98184419 56.7724269 -11.0625 61.3125 C-18.3225 61.3125 -25.5825 61.3125 -33.0625 61.3125 C-33.15477295 55.92222197 -33.23427317 50.53472826 -33.28222656 45.14428711 C-33.30223374 43.31411407 -33.32944851 41.48400408 -33.36425781 39.65405273 C-33.41326003 37.01009488 -33.43557761 34.36698835 -33.453125 31.72265625 C-33.47377014 30.91603043 -33.49441528 30.1094046 -33.51568604 29.27833557 C-33.51863881 21.65381753 -30.95182364 14.82876882 -25.875 9.0625 C-25.36582031 8.45921875 -24.85664063 7.8559375 -24.33203125 7.234375 C-16.54062307 0.63648717 -10.07567404 -0.37791045 0 0 Z " fill="#0B8AA9" transform="translate(33.0625,79.6875)"/>
<path d="M0 0 C0.33 0 0.66 0 1 0 C2.10510498 5.06743239 3.20770142 10.13540213 4.30810547 15.20385742 C4.68178692 16.92340366 5.05612059 18.64280831 5.43115234 20.36206055 C5.97410274 22.85166908 6.51460421 25.34179936 7.0546875 27.83203125 C7.21935516 28.58458694 7.38402283 29.33714264 7.55368042 30.11250305 C8.84002473 36.06078292 9.90946922 42.0020807 11 48 C1.43 48 -8.14 48 -18 48 C-17.30707132 44.5353566 -16.6608377 41.81264977 -15.43359375 38.59277344 C-15.11656494 37.7555072 -14.79953613 36.91824097 -14.47290039 36.05560303 C-14.13121826 35.16584778 -13.78953613 34.27609253 -13.4375 33.359375 C-13.0861499 32.43658752 -12.7347998 31.51380005 -12.37280273 30.56304932 C-11.63161857 28.61910743 -10.88849328 26.67590468 -10.14355469 24.73339844 C-8.99948445 21.74865499 -7.86258066 18.76125362 -6.7265625 15.7734375 C-6.00563108 13.8852552 -5.28429116 11.99722881 -4.5625 10.109375 C-4.22081787 9.21152283 -3.87913574 8.31367065 -3.52709961 7.38861084 C-3.2100708 6.56395325 -2.89304199 5.73929565 -2.56640625 4.88964844 C-2.14790405 3.79641266 -2.14790405 3.79641266 -1.72094727 2.68109131 C-1 1 -1 1 0 0 Z " fill="#F9FCFD" transform="translate(414,227)"/>
</svg>
