<?xml version="1.0" encoding="UTF-8"?>
<svg version="1.1" xmlns="http://www.w3.org/2000/svg" width="512" height="512">
<path d="M0 0 C7.9947148 5.12044369 11.70995706 12.22517911 14.75 20.9375 C18.3899922 31.26464683 22.11498017 41.55945686 25.86328125 51.84765625 C26.4195243 53.37567353 26.9757176 54.90370891 27.53186035 56.4317627 C28.87483583 60.12138331 30.21847625 63.81076112 31.5625 67.5 C32.65751328 67.49920441 33.75252655 67.49840881 34.88072205 67.49758911 C45.22358877 67.49397955 55.56595972 67.52188447 65.90866756 67.5802784 C71.22544444 67.60929348 76.54178168 67.6273829 81.85864258 67.62011719 C86.99424611 67.61350758 92.12898216 67.63610208 97.2644062 67.67855453 C99.21907016 67.68965668 101.17382239 67.69041211 103.12849236 67.68042374 C121.99913656 67.59639041 121.99913656 67.59639041 128.00984192 72.77033997 C133.6477245 79.05093729 134.12705249 84.10813682 133.953125 92.46484375 C133.94746521 93.49815323 133.94180542 94.53146271 133.93597412 95.59608459 C133.91369049 98.87703957 133.86350783 102.15687844 133.8125 105.4375 C133.7924247 107.66990604 133.77417574 109.90232929 133.7578125 112.13476562 C133.71385214 117.59022071 133.64702043 123.04503059 133.5625 128.5 C134.26221924 128.47905273 134.96193848 128.45810547 135.68286133 128.43652344 C138.91342264 128.35237066 142.14375226 128.30102929 145.375 128.25 C146.47521484 128.21648437 147.57542969 128.18296875 148.70898438 128.1484375 C160.59542204 128.00818455 169.91079642 131.24081227 178.5625 139.5 C190.65365245 152.16578148 190.11630318 165.94408095 189.953125 182.44921875 C189.94565433 184.67551666 189.9399653 186.90182119 189.93597412 189.12812805 C189.92078295 194.95611075 189.88155762 200.78368764 189.8371582 206.61151123 C189.79606439 212.57102979 189.77793307 218.53061463 189.7578125 224.49023438 C189.7150568 236.16033345 189.64688504 247.83013283 189.5625 259.5 C190.7280542 259.470271 191.8936084 259.44054199 193.09448242 259.40991211 C194.63980064 259.38586731 196.18513028 259.36254954 197.73046875 259.33984375 C198.49677612 259.3183728 199.2630835 259.29690186 200.0526123 259.27478027 C205.60699227 259.21361197 209.26350726 260.1078533 213.80078125 263.50390625 C219.00402225 269.39937443 220.15689779 274.14111723 220.11181641 281.78076172 C220.1271492 283.13586349 220.1271492 283.13586349 220.14279175 284.51834106 C220.17047183 287.48906343 220.16867907 290.45885192 220.1640625 293.4296875 C220.17184286 295.50562888 220.18051353 297.58156709 220.19003296 299.65750122 C220.20493342 304.00338065 220.20439275 308.34893506 220.19384766 312.69482422 C220.1822637 318.24882423 220.21611556 323.80148911 220.262537 329.35526848 C220.2920819 333.64144597 220.2937457 337.92730453 220.28751755 342.21356583 C220.28854056 344.26039396 220.29895194 346.30724076 220.31914139 348.35396957 C220.48548923 367.57628012 220.48548923 367.57628012 215.53305054 373.88577271 C209.50119733 378.82692083 205.26475439 380.0904175 197.625 379.75 C196.84576172 379.73195313 196.06652344 379.71390625 195.26367188 379.6953125 C193.36273869 379.64866383 191.46244831 379.57693829 189.5625 379.5 C189.57138245 380.72838089 189.58026489 381.95676178 189.5894165 383.22236633 C189.67069767 394.82992639 189.73055908 406.43742827 189.76974869 418.04520893 C189.79057417 424.01211269 189.81879982 429.97878567 189.86425781 435.94555664 C189.90789509 441.70977721 189.93167497 447.47377657 189.94200897 453.23814964 C189.94936828 455.43126085 189.96373895 457.62436071 189.98542023 459.81737709 C190.13236727 475.30444571 189.81314702 487.71466876 178.5625 499.5 C167.60449144 509.96085884 155.82809253 511.09201864 141.36889648 511.00793457 C139.63482103 511.01254919 137.90074949 511.01890586 136.16668606 511.02684355 C131.42400716 511.04348292 126.68165179 511.0353151 121.938972 511.02289867 C116.81550414 511.01382838 111.69209094 511.02782772 106.56863403 511.03881836 C96.54063556 511.05658703 86.51275698 511.05277093 76.48475385 511.0411678 C68.33340297 511.03212726 60.18208565 511.03091216 52.0307312 511.03526306 C50.86974582 511.03587599 49.70876044 511.03648893 48.51259369 511.03712043 C46.15393359 511.03839936 43.79527351 511.03969621 41.43661344 511.0410108 C19.32935368 511.05241176 -2.77783969 511.03931046 -24.88508856 511.01780933 C-43.84627718 510.99993881 -62.80736784 511.00304305 -81.76855469 511.02148438 C-103.79773922 511.04289961 -125.82686559 511.05131317 -147.85605907 511.03903532 C-150.20594977 511.03776115 -152.55584048 511.03650367 -154.9057312 511.03526306 C-156.06186482 511.03464596 -157.21799843 511.03402886 -158.4091664 511.03339306 C-166.54892504 511.02994212 -174.68864674 511.03576298 -182.82839966 511.04518127 C-192.75062755 511.05640986 -202.6727289 511.05334303 -212.59494233 511.0320583 C-217.65556823 511.02155955 -222.71598327 511.0174061 -227.77660751 511.03065491 C-232.41281778 511.04260885 -237.04862253 511.03596681 -241.68479621 511.0147447 C-243.35826846 511.01029135 -245.03177524 511.01251629 -246.70522511 511.02224785 C-260.3275512 511.09536378 -271.23618532 509.23849511 -281.4375 499.5 C-290.7768641 489.71678493 -293.04325105 479.31863166 -292.94543457 466.1027832 C-292.95167453 464.794409 -292.9579145 463.48603479 -292.96434355 462.13801289 C-292.98092912 458.53545659 -292.97284026 454.93332811 -292.96039867 451.33077097 C-292.95130593 447.43430191 -292.96533874 443.53790371 -292.97631836 439.64144897 C-292.99406332 432.01978508 -292.9902816 424.39827915 -292.9786678 416.77660918 C-292.96961786 410.57987028 -292.96841621 404.38317551 -292.97276306 398.18643188 C-292.97337599 397.30298263 -292.97398893 396.41953337 -292.97462043 395.50931293 C-292.97589939 393.71435283 -292.97719624 391.91939275 -292.9785108 390.12443268 C-292.98990481 373.31067713 -292.97682142 356.49700894 -292.95530933 339.68326771 C-292.93743942 325.27024672 -292.94054386 310.85735461 -292.95898438 296.44433594 C-292.98041194 279.68891753 -292.98880628 262.93357561 -292.97653532 246.17814541 C-292.97526118 244.38995299 -292.9740037 242.60176056 -292.97276306 240.81356812 C-292.97214596 239.93384553 -292.97152886 239.05412294 -292.97089306 238.14774209 C-292.96744581 231.96164533 -292.97325499 225.77559727 -292.98268127 219.58950806 C-292.99392362 212.04612252 -292.99081437 204.50290338 -292.9695583 196.95953679 C-292.95907783 193.11404852 -292.95487436 189.26883724 -292.96815491 185.42335129 C-292.98235701 181.24773414 -292.96534902 177.07281057 -292.94543457 172.8972168 C-292.95435746 171.69165792 -292.96328034 170.48609903 -292.97247362 169.24400806 C-292.86356908 157.44830697 -289.64561422 148.09820282 -281.4375 139.5 C-269.43872796 128.04559569 -256.20762003 127.7547464 -240.4375 127.5 C-240.67984375 126.81486328 -240.9221875 126.12972656 -241.171875 125.42382812 C-242.27329309 122.28690468 -243.35549301 119.14366895 -244.4375 116 C-244.8190625 114.92234375 -245.200625 113.8446875 -245.59375 112.734375 C-248.71166318 103.60334354 -249.79511467 96.91124575 -245.72265625 87.8828125 C-241.94532425 80.8792486 -237.1941461 78.14966836 -229.82421875 75.39453125 C-229.04417984 75.09725128 -228.26414093 74.79997131 -227.46046448 74.49368286 C-217.20325632 70.61121828 -206.87691539 66.91246333 -196.55731201 63.20001221 C-190.12074824 60.8839332 -183.68698071 58.56012597 -177.25390625 56.234375 C-176.59359909 55.99569828 -175.93329193 55.75702156 -175.25297546 55.51111221 C-161.24879812 50.44730885 -147.27901838 45.29168595 -133.3125 40.125 C-109.66732402 31.38097101 -85.96098252 22.81515943 -62.22802734 14.31298828 C-61.58581678 14.08284153 -60.94360622 13.85269478 -60.28193474 13.61557388 C-57.15333946 12.49454306 -54.02418359 11.37514868 -50.89413452 10.25817871 C-45.23818942 8.2369587 -39.59290742 6.19432472 -33.96972656 4.08349609 C-32.96737473 3.70973343 -31.96502289 3.33597076 -30.93229675 2.95088196 C-29.09613441 2.26407225 -27.26275367 1.56975107 -25.43305969 0.8658905 C-17.02794299 -2.26926173 -8.56458678 -3.57534932 0 0 Z " fill="#3455A1" transform="translate(292.4375,1.5)"/>
<path d="M0 0 C51.6346875 -0.12375 51.6346875 -0.12375 104.3125 -0.25 C115.17583252 -0.28641602 126.03916504 -0.32283203 137.23168945 -0.36035156 C150.51208496 -0.37841797 150.51208496 -0.37841797 156.73210144 -0.3817749 C161.07003487 -0.38549677 165.40777186 -0.40046775 169.74565125 -0.42230225 C175.28572122 -0.44981685 180.82550713 -0.45795021 186.36563909 -0.4522891 C188.3945803 -0.45347221 190.42353183 -0.46135786 192.45241416 -0.47686052 C207.15971344 -0.58398255 218.84149076 0.34773692 230 11 C242.09115245 23.66578148 241.55380318 37.44408095 241.390625 53.94921875 C241.38315433 56.17551666 241.3774653 58.40182119 241.37347412 60.62812805 C241.35828295 66.45611075 241.31905762 72.28368764 241.2746582 78.11151123 C241.23356439 84.07102979 241.21543307 90.03061463 241.1953125 95.99023438 C241.1525568 107.66033345 241.08438504 119.33013283 241 131 C242.1655542 130.970271 243.3311084 130.94054199 244.53198242 130.90991211 C246.07730064 130.88586731 247.62263028 130.86254954 249.16796875 130.83984375 C249.93427612 130.8183728 250.7005835 130.79690186 251.4901123 130.77478027 C257.04449227 130.71361197 260.70100726 131.6078533 265.23828125 135.00390625 C270.44152225 140.89937443 271.59439779 145.64111723 271.54931641 153.28076172 C271.55953827 154.1841629 271.56976013 155.08756409 271.58029175 156.01834106 C271.60797183 158.98906343 271.60617907 161.95885192 271.6015625 164.9296875 C271.60934286 167.00562888 271.61801353 169.08156709 271.62753296 171.15750122 C271.64243342 175.50338065 271.64189275 179.84893506 271.63134766 184.19482422 C271.6197637 189.74882423 271.65361556 195.30148911 271.700037 200.85526848 C271.7295819 205.14144597 271.7312457 209.42730453 271.72501755 213.71356583 C271.72604056 215.76039396 271.73645194 217.80724076 271.75664139 219.85396957 C271.92298923 239.07628012 271.92298923 239.07628012 266.97055054 245.38577271 C260.93869733 250.32692083 256.70225439 251.5904175 249.0625 251.25 C248.28326172 251.23195313 247.50402344 251.21390625 246.70117188 251.1953125 C244.80023869 251.14866383 242.89994831 251.07693829 241 251 C241.00888245 252.22838089 241.01776489 253.45676178 241.0269165 254.72236633 C241.10819767 266.32992639 241.16805908 277.93742827 241.20724869 289.54520893 C241.22807417 295.51211269 241.25629982 301.47878567 241.30175781 307.44555664 C241.34539509 313.20977721 241.36917497 318.97377657 241.37950897 324.73814964 C241.38686828 326.93126085 241.40123895 329.12436071 241.42292023 331.31737709 C241.56986727 346.80444571 241.25064702 359.21466876 230 371 C217.9848504 382.47003885 205.16433674 382.57399214 189.47387695 382.45410156 C187.36995314 382.45287473 185.26602768 382.45341273 183.16210461 382.45556259 C177.5519968 382.45646185 171.94223356 382.43335863 166.33220673 382.40512085 C161.05882233 382.38226083 155.78551973 382.38126403 150.51208496 382.37841797 C135.11217806 382.35746822 119.71233462 382.30162326 104.3125 382.25 C69.889375 382.1675 35.46625 382.085 0 382 C0 255.94 0 129.88 0 0 Z " fill="#1B3555" transform="translate(241,130)"/>
<path d="M0 0 C7.96592011 5.10085298 11.70884604 12.19605499 14.75 20.875 C15.08737183 21.82995361 15.42474365 22.78490723 15.77233887 23.76879883 C19.13769351 33.29578436 22.50067108 42.82360801 25.86328125 52.3515625 C26.41947273 53.92749078 26.97566576 55.50341852 27.53186035 57.0793457 C28.87542461 60.88622422 30.21896823 64.69311002 31.5625 68.5 C30.40040512 68.50586624 29.23831024 68.51173248 28.04100037 68.51777649 C17.07951741 68.57503507 6.11823225 68.64781331 -4.84304905 68.73571491 C-10.47811511 68.78040723 -16.11310905 68.81966606 -21.74829102 68.84643555 C-27.18842747 68.8724796 -32.62828626 68.91289028 -38.06825066 68.96318626 C-40.14178954 68.97984743 -42.21537644 68.99136637 -44.28897285 68.99761391 C-47.19758205 69.00726297 -50.10548209 69.03533247 -53.01391602 69.06762695 C-54.29461975 69.06547432 -54.29461975 69.06547432 -55.60119629 69.0632782 C-63.09098795 69.18058223 -68.92835949 71.14389117 -74.4375 76.5 C-82.21210253 92.04920505 -78.05966449 111.11956668 -78.4375 128.5 C-131.5675 128.5 -184.6975 128.5 -239.4375 128.5 C-250.70086652 101.46792035 -250.70086652 101.46792035 -246.875 90.4375 C-243.50718695 82.97122972 -239.76154997 79.20869694 -232.00669861 76.2104187 C-231.28648026 75.94117584 -230.5662619 75.67193298 -229.82421875 75.39453125 C-229.04417984 75.09725128 -228.26414093 74.79997131 -227.46046448 74.49368286 C-217.20325632 70.61121828 -206.87691539 66.91246333 -196.55731201 63.20001221 C-190.12074824 60.8839332 -183.68698071 58.56012597 -177.25390625 56.234375 C-176.59359909 55.99569828 -175.93329193 55.75702156 -175.25297546 55.51111221 C-161.24879812 50.44730885 -147.27901838 45.29168595 -133.3125 40.125 C-109.66732402 31.38097101 -85.96098252 22.81515943 -62.22802734 14.31298828 C-61.58581678 14.08284153 -60.94360622 13.85269478 -60.28193474 13.61557388 C-57.15333946 12.49454306 -54.02418359 11.37514868 -50.89413452 10.25817871 C-45.23818942 8.2369587 -39.59290742 6.19432472 -33.96972656 4.08349609 C-32.96737473 3.70973343 -31.96502289 3.33597076 -30.93229675 2.95088196 C-29.09613441 2.26407225 -27.26275367 1.56975107 -25.43305969 0.8658905 C-17.02794299 -2.26926173 -8.56458678 -3.57534932 0 0 Z " fill="#FE5757" transform="translate(292.4375,1.5)"/>
<path d="M0 0 C1.37038925 -0.01489471 1.37038925 -0.01489471 2.76846313 -0.03009033 C5.75509774 -0.05902053 8.74152051 -0.07287916 11.72827148 -0.08398438 C12.75596083 -0.08963913 13.78365017 -0.09529388 14.84248161 -0.10112 C20.27341595 -0.1309666 25.70424577 -0.14951588 31.13525391 -0.15820312 C36.72606627 -0.16919744 42.31591064 -0.21734255 47.9064188 -0.27414703 C52.22599572 -0.31147426 56.54534007 -0.32181455 60.86506462 -0.32487488 C62.92587556 -0.33090498 64.98668352 -0.34688444 67.04733467 -0.37324524 C86.38650149 -0.6031366 86.38650149 -0.6031366 92.67662048 4.34924316 C97.65903982 10.4541693 98.88172033 14.88588575 98.83618164 22.60302734 C98.8464035 23.50642853 98.85662537 24.40982971 98.86715698 25.34060669 C98.89483707 28.31132906 98.89304431 31.28111754 98.88842773 34.25195312 C98.8962081 36.3278945 98.90487877 38.40383272 98.91439819 40.47976685 C98.92929865 44.82564627 98.92875798 49.17120068 98.91821289 53.51708984 C98.90662893 59.07108986 98.94048079 64.62375474 98.98690224 70.1775341 C99.01644713 74.4637116 99.01811093 78.74957016 99.01188278 83.03583145 C99.01290579 85.08265959 99.02331717 87.12950638 99.04350662 89.1762352 C99.20985447 108.39854574 99.20985447 108.39854574 94.25741577 114.70803833 C88.13369653 119.72444088 83.71064909 120.91270429 75.96191406 120.82397461 C75.05357819 120.82937759 74.14524231 120.83478058 73.2093811 120.84034729 C70.22054979 120.85280516 67.23268776 120.83635634 64.24389648 120.81835938 C62.15272471 120.8185145 60.06155265 120.82000568 57.97038269 120.82276917 C53.58998889 120.82415208 49.20992291 120.81161809 44.82958984 120.78881836 C39.24260466 120.76052238 33.6561675 120.76314873 28.06914234 120.77590847 C23.74941924 120.78290088 19.42982038 120.77503441 15.11011314 120.76265144 C13.05184088 120.75816526 10.99355513 120.7577751 8.93528175 120.76171684 C-11.19801172 120.78221615 -28.53593864 118.18975827 -43.61157227 103.48242188 C-44.30508789 102.76957031 -44.99860352 102.05671875 -45.71313477 101.32226562 C-46.26227539 100.80535156 -46.81141602 100.2884375 -47.37719727 99.75585938 C-58.01660959 88.86041841 -62.10000862 73.47752861 -62.01220703 58.75878906 C-61.5869705 42.12163776 -54.57562556 27.86298903 -42.71313477 16.32226562 C-42.1962207 15.773125 -41.67930664 15.22398437 -41.14672852 14.65820312 C-37.28950889 10.89162312 -32.65160887 8.52349285 -27.90063477 6.07226562 C-27.24893311 5.73050293 -26.59723145 5.38874023 -25.92578125 5.03662109 C-17.66466048 0.95235717 -9.11675279 0.02431616 0 0 Z " fill="#3555A1" transform="translate(413.713134765625,260.677734375)"/>
<path d="M0 0 C0.74435769 -0.00508782 1.48871538 -0.01017564 2.25562936 -0.01541764 C4.75117236 -0.03112017 7.24668644 -0.03966136 9.74226379 -0.04811096 C11.53118574 -0.05765117 13.32010584 -0.0675424 15.10902405 -0.07775879 C20.98520218 -0.10912338 26.86139439 -0.12940769 32.73762512 -0.14796448 C34.23797031 -0.15291046 34.23797031 -0.15291046 35.7686255 -0.15795636 C45.2040986 -0.18873507 54.63957494 -0.21543835 64.07508373 -0.23237514 C76.13685688 -0.25428139 88.19818491 -0.29625759 100.25978011 -0.36581272 C108.74485439 -0.41307925 117.22980867 -0.43731221 125.71501046 -0.44457203 C130.78088647 -0.449524 135.84626052 -0.46456206 140.91199303 -0.50431633 C145.68018458 -0.54124314 150.44758874 -0.54957257 155.21589661 -0.5363102 C156.96177639 -0.53636404 158.70769161 -0.54661909 160.45343971 -0.56806183 C176.2790816 -0.75198803 176.2790816 -0.75198803 182.89705372 4.18904018 C196.84229868 20.03495728 188.63215637 37.02422409 188.63215637 60.16062927 C118.67215637 60.16062927 48.71215637 60.16062927 -23.36784363 60.16062927 C-23.36784363 14.16062927 -23.36784363 14.16062927 -18.36784363 6.16062927 C-12.13399632 1.02043939 -8.04572479 0.01367364 0 0 Z " fill="#43A071" transform="translate(237.3678436279297,69.83937072753906)"/>
<path d="M0 0 C7.96135008 5.11998359 11.70484113 12.18462564 14.75 20.875 C15.08737183 21.82995361 15.42474365 22.78490723 15.77233887 23.76879883 C19.13769351 33.29578436 22.50067108 42.82360801 25.86328125 52.3515625 C26.41947273 53.92749078 26.97566576 55.50341852 27.53186035 57.0793457 C28.87542461 60.88622422 30.21896823 64.69311002 31.5625 68.5 C30.40040512 68.50586624 29.23831024 68.51173248 28.04100037 68.51777649 C17.07951741 68.57503507 6.11823225 68.64781331 -4.84304905 68.73571491 C-10.47811511 68.78040723 -16.11310905 68.81966606 -21.74829102 68.84643555 C-27.18842747 68.8724796 -32.62828626 68.91289028 -38.06825066 68.96318626 C-40.14178954 68.97984743 -42.21537644 68.99136637 -44.28897285 68.99761391 C-47.19758205 69.00726297 -50.10548209 69.03533247 -53.01391602 69.06762695 C-54.29461975 69.06547432 -54.29461975 69.06547432 -55.60119629 69.0632782 C-63.09098795 69.18058223 -68.92835949 71.14389117 -74.4375 76.5 C-77.97170696 81.92923704 -77.90817123 86.88379082 -77.94921875 93.1484375 C-77.96716995 94.16096588 -77.98512115 95.17349426 -78.00361633 96.21670532 C-78.05759958 99.43609511 -78.09157707 102.65533763 -78.125 105.875 C-78.1581836 108.06382252 -78.19267422 110.25262564 -78.22851562 112.44140625 C-78.31331943 117.7941644 -78.38018811 123.14687976 -78.4375 128.5 C-83.3875 128.5 -88.3375 128.5 -93.4375 128.5 C-94.01081055 126.91058594 -94.58412109 125.32117188 -95.17480469 123.68359375 C-97.84324537 116.28817388 -100.51439009 108.89373322 -103.1875 101.5 C-103.42665005 100.83851204 -103.66580009 100.17702408 -103.91219711 99.49549103 C-111.28295424 79.1115091 -118.72180373 58.75646095 -126.4375 38.5 C-123.61905274 36.62103516 -121.31416605 35.62446388 -118.14794922 34.49145508 C-117.05788574 34.09906647 -115.96782227 33.70667786 -114.84472656 33.30239868 C-113.65588867 32.87905243 -112.46705078 32.45570618 -111.2421875 32.01953125 C-109.34186972 31.33704818 -107.44155258 30.65456332 -105.54126358 29.97200012 C-103.51988606 29.24678598 -101.49781411 28.52354051 -99.4755249 27.8008728 C-93.21946808 25.56512552 -86.96765146 23.31756763 -80.71539688 21.07121468 C-78.62173838 20.31914088 -76.52790451 19.56755689 -74.43405151 18.81602478 C-60.66340419 13.8716063 -46.92202932 8.84835895 -33.18701172 3.8059082 C-32.39907227 3.51672516 -31.61113281 3.22754211 -30.79931641 2.92959595 C-29.35624542 2.39976491 -27.91335875 1.86943144 -26.47070312 1.33847046 C-18.13925982 -1.72322773 -8.52068309 -3.80747059 0 0 Z " fill="#FD1B5B" transform="translate(292.4375,1.5)"/>
<path d="M0 0 C0.87840546 -0.00014603 1.75681091 -0.00029205 2.66183472 -0.0004425 C5.56201659 0.00025354 8.46213405 0.00803153 11.36230469 0.01586914 C13.37440964 0.01773442 15.38651504 0.0191578 17.39862061 0.02015686 C22.69223283 0.02397341 27.98581757 0.03379637 33.27941895 0.04486084 C39.6320743 0.05689284 45.98473885 0.0614813 52.33740234 0.06731415 C61.98634723 0.07700856 71.63523184 0.09617117 81.28417969 0.11352539 C81.28417969 19.91352539 81.28417969 39.71352539 81.28417969 60.11352539 C46.30417969 60.11352539 11.32417969 60.11352539 -24.71582031 60.11352539 C-24.71582031 14.11352539 -24.71582031 14.11352539 -19.71582031 6.11352539 C-13.06049278 0.62579918 -8.58488417 -0.03731331 0 0 Z " fill="#57C57E" transform="translate(238.7158203125,69.886474609375)"/>
<path d="M0 0 C4.36492736 2.40706674 5.93942071 4.83284673 7.8125 9.4375 C8.54520346 14.47483626 7.62027557 18.24512573 5.20703125 22.63671875 C1.89427009 26.91454198 -2.56531496 28.20982491 -7.75 28.9375 C-11.90567414 28.33303831 -15.0494453 27.21048398 -18.1875 24.4375 C-21.62339266 19.77883377 -23.03044428 15.23274192 -22.1875 9.4375 C-20.42898855 4.50534364 -17.74068059 1.40845153 -13.0390625 -0.90234375 C-8.34602817 -2.57559861 -4.45447532 -1.90552555 0 0 Z " fill="#D2E5FC" transform="translate(419.1875,307.5625)"/>
</svg>
