<svg id="Layer_2" height="512" viewBox="0 0 32 32" width="512" xmlns="http://www.w3.org/2000/svg" data-name="Layer 2"><path d="m17.00531 3.976h7.99269a14.81011 14.81011 0 0 0 -7.99269-2.961z"/><path d="m30.7099 12.939h-13.70459v1.48053h13.92469c-.05006-.50022-.13007-1.0004-.2201-1.48053z"/><path d="m17.00531 7.45715h11.34387a15.217 15.217 0 0 0 -1.17047-1.48053h-10.1734z"/><path d="m19.34613 17.91064h11.53381a12.13578 12.13578 0 0 0 .12006-1.49047h-13.14441z"/><path d="m17.00531 9.45776v1.48053h13.1344a14.89983 14.89983 0 0 0 -.62018-1.48053z"/><path d="m29.04932 23.39246h-4.22138l2.46088 2.46081a15.47206 15.47206 0 0 0 1.7605-2.46081z"/><path d="m30.48981 19.91132h-9.143l1.48047 1.48046h7.17242a15.08171 15.08171 0 0 0 .49011-1.48046z"/><path d="m16.005 30.985a14.89624 14.89624 0 0 0 9.8733-3.72126l-10.8736-10.87366v-15.37508a15.0016 15.0016 0 0 0 1.0003 29.97z"/></svg>