<svg id="Capa_1" enable-background="new 0 0 512 512" height="512" viewBox="0 0 512 512" width="512" xmlns="http://www.w3.org/2000/svg"><path d="m142.2 348.589c-13.132-17.53-21.2-39.053-21.2-62.589 0-57.891 47.109-105 105-105 8.291 0 15-6.709 15-15v-90c0-8.291-6.709-15-15-15-124.072 0-226 100.928-226 225 0 56.646 22.2 108.322 56.873 147.916z"/><path d="m226 512c124.072 0 225-101.928 225-226 0-8.291-6.709-15-15-15h-90c-8.291 0-15 6.709-15 15 0 57.891-47.109 105-105 105-23.536 0-45.059-8.068-62.589-21.2l-85.327 85.327c39.594 34.673 91.27 56.873 147.916 56.873z"/><path d="m151 286c0 41.353 33.647 75 75 75s75-33.647 75-75-33.647-75-75-75-75 33.647-75 75z"/><path d="m351.001 15c0-8.291-6.709-15-15-15h-20.001c-8.291 0-15 6.709-15 15v196h50.001z"/><path d="m497 121h-35.999v90h35.999c8.286 0 15-6.716 15-15v-60c0-8.286-6.714-15-15-15z"/><path d="m381.001 211h49.999v-135c0-8.286-6.714-15-15-15h-34.999z"/></svg>