<?xml version="1.0" encoding="UTF-8"?>
<svg xmlns="http://www.w3.org/2000/svg" id="Layer_2" data-name="Layer 2" viewBox="0 0 32 32" width="512" height="512"><path d="M16,1A15,15,0,1,0,31,16,15.01641,15.01641,0,0,0,16,1Zm1,2.05066A12.93,12.93,0,0,1,20.95319,4H17ZM17,6h7.286a13.07184,13.07184,0,0,1,1.51654,1.48438H17ZM16,29A12.9937,12.9937,0,0,1,15,3.05066v13.3634l9.44727,9.44727A12.9329,12.9329,0,0,1,16,29Zm9.86133-4.55273L24.8252,23.41113h1.84088A13.07515,13.07515,0,0,1,25.86133,24.44727Zm1.94372-3.03614H22.8252l-1.48438-1.48437h7.0498A12.879,12.879,0,0,1,27.80505,21.41113ZM28.841,17.92676H19.34082l-1.48437-1.48438H28.9776A13.00254,13.00254,0,0,1,28.841,17.92676Zm.05646-3.48438H17V12.959H28.626A12.88521,12.88521,0,0,1,28.89746,14.44238Zm-.91553-3.4834H17V9.48438H27.24078A12.91847,12.91847,0,0,1,27.98193,10.959Z"/></svg>
