<svg enable-background="new 0 0 492 492" height="512" viewBox="0 0 492 492" width="512" xmlns="http://www.w3.org/2000/svg"><g id="Layer_1"><g clip-rule="evenodd" fill="rgb(0,0,0)" fill-rule="evenodd"><path d="m150 250.5v8.6c10.1 1.9 17.7 10.8 17.7 21.4 0 5.3-8.1 5.3-8.1 0 0-7.5-6.1-13.6-13.6-13.6s-13.6 6.1-13.6 13.6 6.1 13.6 13.6 13.6c12 0 21.8 9.8 21.8 21.8 0 10.6-7.6 19.5-17.7 21.4v8.6c0 5.3-8.1 5.3-8.1 0v-8.6c-10.1-1.9-17.7-10.8-17.7-21.4 0-5.3 8.1-5.3 8.1 0 0 7.5 6 13.6 13.6 13.6s13.6-6.1 13.6-13.6-6.1-13.6-13.6-13.6c-12 0-21.8-9.8-21.8-21.8 0-10.6 7.6-19.5 17.7-21.4v-8.6c0-5.4 8.1-5.4 8.1 0zm-4-15.1c-34.6 0-62.8 28.2-62.8 62.8s28.2 62.8 62.8 62.8 62.8-28.2 62.8-62.8c-.1-34.7-28.2-62.8-62.8-62.8z"/><path d="m146 227.3c39.2 0 70.9 31.7 70.9 70.9s-31.7 70.9-70.9 70.9-70.9-31.7-70.9-70.9 31.7-70.9 70.9-70.9zm0-13.2c-46.3 0-84 37.7-84 84s37.7 84 84 84 84-37.7 84-84-37.7-84-84-84z"/><path d="m274 223.2v179.3c0 5.4 4.4 9.7 9.7 9.7h137.1c5.4 0 9.7-4.4 9.7-9.7v-179.4c0-5.4-4.4-9.7-9.7-9.7h-138.2c-4.4.1-8.6 5.2-8.6 9.8zm20.8 38.7v-27.1c0-4.2 3.4-7.6 7.6-7.6h99.7c4.2 0 7.6 3.4 7.6 7.6v27.1c0 4.2-3.4 7.6-7.6 7.6h-99.7c-4.1 0-7.6-3.4-7.6-7.6zm87.4 29.5c0-3 2.4-5.4 5.4-5.4h16.8c3 0 5.4 2.4 5.4 5.4v16.8c0 3-2.4 5.4-5.4 5.4h-16.8c-3 0-5.4-2.4-5.4-5.4zm-44.2-1.9c0-3 2.4-5.4 5.4-5.4h16.8c3 0 5.4 2.4 5.4 5.4v16.8c0 3-2.4 5.4-5.4 5.4h-16.8c-3 0-5.4-2.4-5.4-5.4zm-37.8-5.4h16.8c3 0 5.4 2.4 5.4 5.4v16.8c0 2.9-2.4 5.4-5.3 5.4h-16.8c-3 0-5.4-2.4-5.4-5.4v-16.8c-.1-3 2.4-5.4 5.3-5.4zm82 49.8c0-3 2.4-5.4 5.4-5.4h16.8c3 0 5.4 2.4 5.4 5.4v16.8c0 3-2.4 5.4-5.4 5.4h-16.8c-3 0-5.4-2.4-5.4-5.4zm-38.8-7.3h16.8c3 0 5.4 2.4 5.4 5.4v16.8c0 3-2.4 5.4-5.4 5.4h-16.8c-3 0-5.4-2.4-5.4-5.4v-16.8c0-3 2.4-5.4 5.4-5.4zm-43.2 0h16.8c3 0 5.4 2.4 5.4 5.4v16.8c0 2.9-2.4 5.4-5.3 5.4h-16.8c-3 0-5.4-2.4-5.4-5.4v-16.8c-.1-3 2.4-5.4 5.3-5.4zm82 49.8c0-3 2.4-5.4 5.4-5.4h16.8c3 0 5.4 2.4 5.4 5.4v16.8c0 3-2.4 5.4-5.4 5.4h-16.8c-3 0-5.4-2.4-5.4-5.4zm-38.8-7.3h16.8c3 0 5.4 2.4 5.4 5.4v16.8c0 3-2.4 5.4-5.4 5.4h-16.8c-3 0-5.4-2.4-5.4-5.4v-16.8c0-3 2.4-5.4 5.4-5.4zm-43.2 0h16.8c3 0 5.4 2.4 5.4 5.4v16.8c0 3-2.4 5.4-5.3 5.4h-16.8c-3 0-5.4-2.4-5.4-5.4v-16.8c-.1-3 2.4-5.4 5.3-5.4z"/><path d="m303 235.3h98.6v26.1h-98.6z"/><path d="m303 292.2h11.3v11.3h-11.3z"/><path d="m303 334.8h11.3v11.3h-11.3z"/><path d="m303 377.3h11.3v11.3h-11.3z"/><path d="m346.1 377.3h11.3v11.3h-11.3z"/><path d="m346.1 334.8h11.3v11.3h-11.3z"/><path d="m346.1 292.2h11.3v11.3h-11.3z"/><path d="m390.3 294.2h11.3v11.3h-11.3z"/><path d="m390.3 336.7h11.3v11.3h-11.3z"/><path d="m390.3 379.2h11.3v11.3h-11.3z"/><path d="m118.4 86.6v123.6c45.2-14.2 93.9 8.4 112.4 52.1 19.8 46.9-2.3 100.9-49 120.7-20 8.5-42.7 9.5-63.4 3.1v20.8c0 2.9 2.5 5.4 5.4 5.4h145c-1.8-2.8-2.9-6.1-2.9-9.7v-179.4c0-9.8 8-17.9 17.8-17.9h103.4v-37.9h-72.8c-7.4 0-13.5-6.1-13.5-13.5v-72.8h-177c-2.9.1-5.4 2.5-5.4 5.5zm149.2 41.9c0 2.2-1.8 4.1-4.1 4.1h-107.8c-5.3 0-5.3-8.1 0-8.1h107.9c2.2-.1 4 1.7 4 4zm0 34.9c0 2.2-1.8 4.1-4.1 4.1h-107.8c-5.3 0-5.3-8.1 0-8.1h107.9c2.2-.1 4 1.7 4 4z"/><path d="m309 86.9v67c0 2.9 2.5 5.4 5.4 5.4h67z"/></g></g></svg>