<?xml version="1.0" encoding="UTF-8"?>
<svg xmlns="http://www.w3.org/2000/svg" id="Layer_1" data-name="Layer 1" viewBox="0 0 512 512" width="512" height="512"><path d="M447.464,418.425a13.006,13.006,0,1,0-13.006-13.006A13.02,13.02,0,0,0,447.464,418.425Z"/><path d="M447.464,365.453a13.006,13.006,0,1,0-13.006-13.006A13.021,13.021,0,0,0,447.464,365.453Z"/><path d="M230.6,230.925A77.625,77.625,0,0,0,307.834,160H230.271a5,5,0,0,1-4.131-2.183L181.973,93.059A77.494,77.494,0,0,0,230.6,230.925Z"/><path d="M447.464,471.4a13.006,13.006,0,1,0-13.006-13.005A13.02,13.02,0,0,0,447.464,471.4Z"/><circle cx="390.513" cy="352.447" r="13.006"/><path d="M56.052,458H279V437H88.424A15.25,15.25,0,0,1,73,421.472V49H56.049a5.862,5.862,0,0,0-4.226,1.48A5.4,5.4,0,0,0,50,54.36V451.854A6.326,6.326,0,0,0,56.052,458Z"/><path d="M280.651,485c-.755-3-1.651-5.551-1.651-8.391V468H56.049A16.328,16.328,0,0,1,40,451.857V75H26.912a5.72,5.72,0,0,0-4.159,1.5A5.373,5.373,0,0,0,21,80.4v398.58a6.066,6.066,0,0,0,1.756,4.214,6,6,0,0,0,4.158,1.8Z"/><circle cx="390.513" cy="405.419" r="13.006"/><path d="M306,58.139a31.734,31.734,0,0,0,9.181,22.428A31.383,31.383,0,0,0,337.374,90h35.092L306,21.452Z"/><path d="M279,370.663v.312C279.094,370.914,279,370.679,279,370.663Z"/><path d="M281.738,95.181a77.335,77.335,0,0,0-91.6-7.9l40.345,59.156Z"/><path d="M308.05,150a77.189,77.189,0,0,0-19.241-47.748L241.061,150Z"/><path d="M88.427,427H279V370.975c-.013.009-.019.025-.041.025H236.216a5,5,0,0,1,0-10h42.743c.179,0,.041-.25.041-.232V258.412C279,242.205,292.667,229,308.874,229H379V100H337.369A41.779,41.779,0,0,1,296,58.137V16H88.424A5.505,5.505,0,0,0,83,21.805V421.47a5.285,5.285,0,0,0,1.512,3.969A5.213,5.213,0,0,0,88.427,427Zm124.719-56H180.508a5,5,0,0,1,0-10h32.638a5,5,0,0,1,0,10Zm8.905-51h-62.5a5,5,0,0,1,0-10h62.5a5,5,0,0,1,0,10Zm50.908,0H250.507a5,5,0,0,1,0-10h22.452a5,5,0,1,1,0,10ZM230.6,65.854a87.536,87.536,0,1,1-87.535,87.536A87.635,87.635,0,0,1,230.6,65.854ZM130.985,310h6.1a5,5,0,0,1,0,10h-6.1a5,5,0,0,1,0-10Zm0,51h26.081a5,5,0,1,1,0,10H130.985a5,5,0,0,1,0-10ZM102,52.806a5,5,0,1,1,10,0v2.413a5,5,0,0,1-10,0Zm0,25.843a5,5,0,0,1,10,0v79.478a5,5,0,0,1-10,0Z"/><path d="M289,476.609C289,487.3,298.181,496,308.874,496H471.489A19.516,19.516,0,0,0,491,476.609V320H289ZM447.464,329.441a23.006,23.006,0,1,1-23.006,23.006A23.031,23.031,0,0,1,447.464,329.441Zm0,52.973a23.006,23.006,0,1,1-23.006,23A23.031,23.031,0,0,1,447.464,382.414Zm0,52.973a23.006,23.006,0,1,1-23.006,23.006A23.031,23.031,0,0,1,447.464,435.387ZM390.513,329.441a23.006,23.006,0,1,1-23.006,23.006A23.031,23.031,0,0,1,390.513,329.441Zm0,52.973a23.006,23.006,0,1,1-23.006,23A23.031,23.031,0,0,1,390.513,382.414Zm0,52.973a23.006,23.006,0,1,1-23.006,23.006A23.031,23.031,0,0,1,390.513,435.387Zm-56.95-105.946a23.006,23.006,0,1,1-23.006,23.006A23.031,23.031,0,0,1,333.563,329.441Zm0,52.973a23.006,23.006,0,1,1-23.006,23A23.031,23.031,0,0,1,333.563,382.414Zm0,52.973a23.006,23.006,0,1,1-23.006,23.006A23.031,23.031,0,0,1,333.563,435.387Z"/><circle cx="333.563" cy="352.447" r="13.006"/><circle cx="333.563" cy="458.393" r="13.006"/><circle cx="390.513" cy="458.393" r="13.006"/><circle cx="333.563" cy="405.419" r="13.006"/><path d="M471.489,239H308.874C298.181,239,289,247.719,289,258.412V310H491V258.412A19.533,19.533,0,0,0,471.489,239ZM473,294a5,5,0,0,1-5,5H313a5,5,0,0,1-5-5V259a5,5,0,0,1,5-5H468a5,5,0,0,1,5,5Z"/><rect x="318" y="264" width="144" height="25"/></svg>
