<svg enable-background="new 0 0 492 492" height="512" viewBox="0 0 492 492" width="512" xmlns="http://www.w3.org/2000/svg"><g id="Layer_1"><g><g><path clip-rule="evenodd" d="m291.6 413.3h-161.4c-8.1 0-14.7-6.6-14.7-14.7v-25.2c0-3.2 2.6-5.8 5.8-5.8s5.8 2.6 5.8 5.8v25.2c0 1.7 1.5 3.2 3.2 3.2h161.4c3.2 0 5.8 2.6 5.8 5.8-.1 3.1-2.7 5.7-5.9 5.7zm-170.3-190c-3.2 0-5.8-2.6-5.8-5.8v-122.6c0-8.1 6.6-14.7 14.7-14.7h171.6c1.5 0 3 .6 4.1 1.7l81.7 81.7c1.1 1.1 1.7 2.5 1.7 4.1v43.6c0 3.2-2.6 5.8-5.8 5.8s-5.8-2.6-5.8-5.8v-41.2l-78.4-78.4h-169.1c-1.7 0-3.2 1.5-3.2 3.2v122.6c0 3.2-2.5 5.8-5.7 5.8z" fill="rgb(0,0,0)" fill-rule="evenodd"/></g><g><path clip-rule="evenodd" d="m383.6 173.5h-72.8c-8.1 0-14.7-6.6-14.7-14.7v-72.8c0-3.2 2.6-5.8 5.8-5.8s5.8 2.6 5.8 5.8v72.8c0 1.7 1.5 3.2 3.2 3.2h72.8c3.2 0 5.8 2.6 5.8 5.8-.1 3.1-2.7 5.7-5.9 5.7z" fill="rgb(0,0,0)" fill-rule="evenodd"/></g><g><path clip-rule="evenodd" d="m262.7 140.4h-102.2c-3.2 0-5.8-2.6-5.8-5.8s2.6-5.8 5.8-5.8h102.2c3.2 0 5.8 2.6 5.8 5.8-.1 3.2-2.6 5.8-5.8 5.8z" fill="rgb(0,0,0)" fill-rule="evenodd"/></g><g><path clip-rule="evenodd" d="m262.7 173.5h-102.2c-3.2 0-5.8-2.6-5.8-5.8s2.6-5.8 5.8-5.8h102.2c3.2 0 5.8 2.6 5.8 5.8-.1 3.2-2.6 5.8-5.8 5.8z" fill="rgb(0,0,0)" fill-rule="evenodd"/></g><g><path clip-rule="evenodd" d="m411.7 413.3h-130c-10.4 0-18.8-8.4-18.8-18.8v-170c0-10.4 8.4-18.8 18.8-18.8h130c10.4 0 18.8 8.4 18.8 18.8v170c.1 10.3-8.4 18.8-18.8 18.8zm-129.9-196.2c-4 0-7.3 3.3-7.3 7.3v170c0 4 3.3 7.3 7.3 7.3h130c4 0 7.3-3.3 7.3-7.3v-170c0-4-3.3-7.3-7.3-7.3z" fill="rgb(0,0,0)" fill-rule="evenodd"/></g><g><path clip-rule="evenodd" d="m394 270.2h-94.5c-5 0-9.1-4.1-9.1-9.1v-25.7c0-5 4.1-9.1 9.1-9.1h94.5c5 0 9.1 4.1 9.1 9.1v25.7c0 5-4.1 9.1-9.1 9.1zm-92.1-11.5h89.6v-20.9h-89.6z" fill="rgb(0,0,0)" fill-rule="evenodd"/></g><g><g><path clip-rule="evenodd" d="m396.1 312h-15.9c-3.9 0-7-3.1-7-7v-15.9c0-3.9 3.1-7 7-7h15.9c3.9 0 7 3.1 7 7v15.9c0 3.9-3.1 7-7 7zm-11.4-11.5h6.9v-6.9h-6.9z" fill="rgb(0,0,0)" fill-rule="evenodd"/></g><g><path clip-rule="evenodd" d="m354.2 310.2h-15.9c-3.9 0-7-3.1-7-7v-15.9c0-3.9 3.1-7 7-7h15.9c3.9 0 7 3.1 7 7v15.9c0 3.8-3.1 7-7 7zm-11.4-11.5h6.9v-6.9h-6.9z" fill="rgb(0,0,0)" fill-rule="evenodd"/></g><g><path clip-rule="evenodd" d="m313.3 310.2h-15.9c-3.9 0-7-3.1-7-7v-15.9c0-3.9 3.1-7 7-7h15.9c3.9 0 7 3.1 7 7v15.9c0 3.8-3.1 7-7 7zm-11.4-11.5h6.9v-6.9h-6.9z" fill="rgb(0,0,0)" fill-rule="evenodd"/></g></g><g><g><path clip-rule="evenodd" d="m396.1 352.3h-15.9c-3.9 0-7-3.1-7-7v-15.9c0-3.9 3.1-7 7-7h15.9c3.9 0 7 3.1 7 7v15.9c0 3.9-3.1 7-7 7zm-11.4-11.5h6.9v-6.9h-6.9z" fill="rgb(0,0,0)" fill-rule="evenodd"/></g><g><path clip-rule="evenodd" d="m354.2 350.5h-15.9c-3.9 0-7-3.1-7-7v-15.9c0-3.9 3.1-7 7-7h15.9c3.9 0 7 3.1 7 7v15.9c0 3.8-3.1 7-7 7zm-11.4-11.6h6.9v-6.9h-6.9z" fill="rgb(0,0,0)" fill-rule="evenodd"/></g><g><path clip-rule="evenodd" d="m313.3 350.5h-15.9c-3.9 0-7-3.1-7-7v-15.9c0-3.9 3.1-7 7-7h15.9c3.9 0 7 3.1 7 7v15.9c0 3.8-3.1 7-7 7zm-11.4-11.6h6.9v-6.9h-6.9z" fill="rgb(0,0,0)" fill-rule="evenodd"/></g></g><g><g><path clip-rule="evenodd" d="m396.1 392.6h-15.9c-3.9 0-7-3.1-7-7v-15.9c0-3.9 3.1-7 7-7h15.9c3.9 0 7 3.1 7 7v15.9c0 3.8-3.1 7-7 7zm-11.4-11.5h6.9v-6.9h-6.9z" fill="rgb(0,0,0)" fill-rule="evenodd"/></g><g><path clip-rule="evenodd" d="m354.2 390.7h-15.9c-3.9 0-7-3.1-7-7v-15.9c0-3.9 3.1-7 7-7h15.9c3.9 0 7 3.1 7 7v15.9c0 3.9-3.1 7-7 7zm-11.4-11.5h6.9v-6.9h-6.9z" fill="rgb(0,0,0)" fill-rule="evenodd"/></g><g><path clip-rule="evenodd" d="m313.3 390.7h-15.9c-3.9 0-7-3.1-7-7v-15.9c0-3.9 3.1-7 7-7h15.9c3.9 0 7 3.1 7 7v15.9c0 3.9-3.1 7-7 7zm-11.4-11.5h6.9v-6.9h-6.9z" fill="rgb(0,0,0)" fill-rule="evenodd"/></g></g><g><path clip-rule="evenodd" d="m151.2 364.6c-18.5 0-35.8-7.2-48.9-20.2-13-13.1-20.2-30.4-20.2-48.9s7.2-35.8 20.2-48.9c13.1-13.1 30.4-20.2 48.9-20.2s35.8 7.2 48.9 20.2c13.1 13.1 20.2 30.4 20.2 48.9s-7.2 35.8-20.2 48.9c-13.1 13-30.4 20.2-48.9 20.2zm0-126.7c-31.8 0-57.6 25.8-57.6 57.6s25.8 57.6 57.6 57.6 57.6-25.8 57.6-57.6-25.8-57.6-57.6-57.6z" fill="rgb(0,0,0)" fill-rule="evenodd"/></g><g><path clip-rule="evenodd" d="m151.2 334.8c-12.4 0-22.5-10.1-22.5-22.5 0-3.2 2.6-5.8 5.8-5.8s5.8 2.6 5.8 5.8c0 6.1 4.9 11 11 11s11-4.9 11-11-4.9-11-11-11c-12.4 0-22.5-10.1-22.5-22.5s10.1-22.5 22.5-22.5 22.5 10.1 22.5 22.5c0 3.2-2.6 5.8-5.8 5.8s-5.8-2.6-5.8-5.8c0-6.1-4.9-11-11-11s-11 4.9-11 11 4.9 11 11 11c12.4 0 22.5 10.1 22.5 22.5s-10.1 22.5-22.5 22.5z" fill="rgb(0,0,0)" fill-rule="evenodd"/></g><g><path clip-rule="evenodd" d="m151.2 267.7c-3.2 0-5.8-2.6-5.8-5.8v-11.6c0-3.2 2.6-5.8 5.8-5.8s5.8 2.6 5.8 5.8v11.6c0 3.2-2.6 5.8-5.8 5.8z" fill="rgb(0,0,0)" fill-rule="evenodd"/></g><g><path clip-rule="evenodd" d="m151.2 346.4c-3.2 0-5.8-2.6-5.8-5.8v-11.6c0-3.2 2.6-5.8 5.8-5.8s5.8 2.6 5.8 5.8v11.6c0 3.2-2.6 5.8-5.8 5.8z" fill="rgb(0,0,0)" fill-rule="evenodd"/></g><g><path clip-rule="evenodd" d="m151.2 384.7c-12 0-23.7-2.4-34.7-7-10.6-4.5-20.2-10.9-28.4-19.1s-14.6-17.7-19.1-28.4c-4.6-11-7-22.7-7-34.7s2.4-23.7 7-34.7c4.5-10.6 10.9-20.2 19.1-28.4s17.7-14.6 28.4-19.1c11-4.7 22.7-7 34.7-7s23.7 2.4 34.7 7c10.6 4.5 20.2 10.9 28.4 19.1s14.6 17.7 19.1 28.4c4.7 11 7 22.7 7 34.7s-2.4 23.7-7 34.7c-4.5 10.6-10.9 20.2-19.1 28.4s-17.7 14.6-28.4 19.1c-11 4.6-22.6 7-34.7 7zm0-167c-42.8 0-77.7 34.9-77.7 77.7s34.9 77.7 77.7 77.7 77.7-34.9 77.7-77.7-34.8-77.7-77.7-77.7z" fill="rgb(0,0,0)" fill-rule="evenodd"/></g></g></g></svg>