<?xml version="1.0" encoding="UTF-8"?>
<svg xmlns="http://www.w3.org/2000/svg" viewBox="0 0 60 60" width="512" height="512"><defs><style>.cls-1{fill:#c6d8fb;}.cls-2{fill:#fff;}.cls-3{fill:#a4c3fd;}.cls-4{fill:#a4c2f7;}.cls-5{fill:#7facfa;}.cls-6{fill:#e8edfc;}.cls-7{fill:#cad9fc;}.cls-8{fill:#428dff;}</style></defs><g id="Icons"><path class="cls-1" d="M51.31,25.55l-.01.01a5.052,5.052,0,0,0-.64,3.23v.01a5.026,5.026,0,0,1-1.95,4.71,5.014,5.014,0,0,0-1.84,2.75v.01a5.044,5.044,0,0,1-3.6,3.6h-.01a5.033,5.033,0,0,0-2.75,1.84,5.03,5.03,0,0,1-4.01,2,5.492,5.492,0,0,1-.7-.05h-.01a5.052,5.052,0,0,0-3.23.64l-.01.01a5.368,5.368,0,0,1-1.13.49,5.08,5.08,0,0,1-2.84,0,5.368,5.368,0,0,1-1.13-.49l-.01-.01a5.052,5.052,0,0,0-3.23-.64H24.2a5.026,5.026,0,0,1-4.71-1.95,5.033,5.033,0,0,0-2.75-1.84h-.01a5.044,5.044,0,0,1-3.6-3.6v-.01a5.014,5.014,0,0,0-1.84-2.75,5.03,5.03,0,0,1-2-4.01,5.492,5.492,0,0,1,.05-.7v-.01a5.052,5.052,0,0,0-.64-3.23l-.01-.01a5.057,5.057,0,0,1,0-5.1l.01-.01a5.052,5.052,0,0,0,.64-3.23V17.2a5.026,5.026,0,0,1,1.95-4.71,5.014,5.014,0,0,0,1.84-2.75V9.73a5.044,5.044,0,0,1,3.6-3.6h.01a5.014,5.014,0,0,0,2.75-1.84,5.03,5.03,0,0,1,4.01-2,5.492,5.492,0,0,1,.7.05h.01a5.052,5.052,0,0,0,3.23-.64l.01-.01a5.057,5.057,0,0,1,5.1,0l.01.01a5.052,5.052,0,0,0,3.23.64h.01a5.026,5.026,0,0,1,4.71,1.95,5.014,5.014,0,0,0,2.75,1.84h.01a5.044,5.044,0,0,1,3.6,3.6v.01a5.014,5.014,0,0,0,1.84,2.75,5.03,5.03,0,0,1,2,4.01,5.492,5.492,0,0,1-.05.7v.01a5.052,5.052,0,0,0,.64,3.23l.01.01A5.057,5.057,0,0,1,51.31,25.55Z"/><path class="cls-2" d="M27.21,43.66H27.2a5.026,5.026,0,0,1-4.71-1.95,5.033,5.033,0,0,0-2.75-1.84h-.01a5.044,5.044,0,0,1-3.6-3.6v-.01a5.014,5.014,0,0,0-1.84-2.75,5.03,5.03,0,0,1-2-4.01,5.492,5.492,0,0,1,.05-.7v-.01a5.052,5.052,0,0,0-.64-3.23l-.01-.01a5.057,5.057,0,0,1,0-5.1l.01-.01a5.052,5.052,0,0,0,.64-3.23V17.2a5.026,5.026,0,0,1,1.95-4.71,5.014,5.014,0,0,0,1.84-2.75V9.73a5.044,5.044,0,0,1,3.6-3.6h.01a5.014,5.014,0,0,0,2.75-1.84,5.03,5.03,0,0,1,4.01-2,5.492,5.492,0,0,1,.7.05h.01c1.12.15,1.485-1.375.24-.65l-.01.01a5.052,5.052,0,0,1-3.23.64H24.2a5.492,5.492,0,0,0-.7-.05,5.03,5.03,0,0,0-4.01,2,5.014,5.014,0,0,1-2.75,1.84h-.01a5.044,5.044,0,0,0-3.6,3.6v.01a5.014,5.014,0,0,1-1.84,2.75A5.026,5.026,0,0,0,9.34,17.2v.01a5.052,5.052,0,0,1-.64,3.23l-.01.01a5.057,5.057,0,0,0,0,5.1l.01.01a5.052,5.052,0,0,1,.64,3.23v.01a5.492,5.492,0,0,0-.05.7,5.03,5.03,0,0,0,2,4.01,5.014,5.014,0,0,1,1.84,2.75v.01a5.044,5.044,0,0,0,3.6,3.6h.01a5.033,5.033,0,0,1,2.75,1.84,5.026,5.026,0,0,0,4.71,1.95h.01a5.052,5.052,0,0,1,3.23.64l.01.01C27.81,44.52,28.33,43.51,27.21,43.66Z"/><path class="cls-3" d="M51.31,20.45l-.01-.01a5.052,5.052,0,0,1-.64-3.23V17.2a5.492,5.492,0,0,0,.05-.7,5.03,5.03,0,0,0-2-4.01,5.014,5.014,0,0,1-1.84-2.75V9.73a5.044,5.044,0,0,0-3.6-3.6h-.01a5.014,5.014,0,0,1-2.75-1.84A5.026,5.026,0,0,0,35.8,2.34h-.01a5.052,5.052,0,0,1-3.23-.64l-.01-.01a5.044,5.044,0,0,0-4.05-.452,5.051,5.051,0,0,1,1.05.452l.01.01a5.052,5.052,0,0,0,3.23.64h.01a5.026,5.026,0,0,1,4.71,1.95,5.014,5.014,0,0,0,2.75,1.84h.01a5.044,5.044,0,0,1,3.6,3.6v.01a5.014,5.014,0,0,0,1.84,2.75,5.03,5.03,0,0,1,2,4.01,5.492,5.492,0,0,1-.05.7v.01a5.052,5.052,0,0,0,.64,3.23l.01.01a5.057,5.057,0,0,1,0,5.1l-.01.01a5.052,5.052,0,0,0-.64,3.23v.01a5.026,5.026,0,0,1-1.95,4.71,5.014,5.014,0,0,0-1.84,2.75v.01a5.044,5.044,0,0,1-3.6,3.6h-.01a5.033,5.033,0,0,0-2.75,1.84,5.03,5.03,0,0,1-4.01,2,5.492,5.492,0,0,1-.7-.05h-.01a5.052,5.052,0,0,0-3.23.64l-.01.01a5.343,5.343,0,0,1-1.05.461c.027.008.053.021.08.029a5.08,5.08,0,0,0,2.84,0,5.368,5.368,0,0,0,1.13-.49l.01-.01a5.052,5.052,0,0,1,3.23-.64h.01a5.492,5.492,0,0,0,.7.05,5.03,5.03,0,0,0,4.01-2,5.033,5.033,0,0,1,2.75-1.84h.01a5.044,5.044,0,0,0,3.6-3.6v-.01a5.014,5.014,0,0,1,1.84-2.75,5.026,5.026,0,0,0,1.95-4.71v-.01a5.052,5.052,0,0,1,.64-3.23l.01-.01A5.057,5.057,0,0,0,51.31,20.45Z"/><path class="cls-4" d="M28.58,44.8,24.92,58a1.366,1.366,0,0,1-2.39.48l-3.05-3.87-4.74,1.32a1.37,1.37,0,0,1-1.65-1.8l5.3-13.49a5.076,5.076,0,0,1,1.1,1.07,5.026,5.026,0,0,0,4.71,1.95h.01a5.052,5.052,0,0,1,3.23.64l.01.01A5.368,5.368,0,0,0,28.58,44.8Z"/><path class="cls-2" d="M16.09,54.13l4.471-11.38a4.976,4.976,0,0,1-1.071-1.04,5.076,5.076,0,0,0-1.1-1.07l-5.3,13.49a1.37,1.37,0,0,0,1.65,1.8l1.589-.443A1.35,1.35,0,0,1,16.09,54.13Z"/><path class="cls-4" d="M45.26,55.93l-4.74-1.32-3.05,3.87A1.366,1.366,0,0,1,35.08,58L31.42,44.8a5.368,5.368,0,0,0,1.13-.49l.01-.01a5.052,5.052,0,0,1,3.23-.64h.01a5.492,5.492,0,0,0,.7.05,5.03,5.03,0,0,0,4.01-2,5.076,5.076,0,0,1,1.1-1.07l5.3,13.49A1.37,1.37,0,0,1,45.26,55.93Z"/><path class="cls-5" d="M46.91,54.13l-5.3-13.49a5.076,5.076,0,0,0-1.1,1.07,5.046,5.046,0,0,1-1.072,1.039L43.91,54.13a1.35,1.35,0,0,1-.239,1.357l1.589.443A1.37,1.37,0,0,0,46.91,54.13Z"/><circle class="cls-6" cx="30" cy="23" r="17"/><path class="cls-7" d="M30,6c-.506,0-1,.032-1.5.076a16.989,16.989,0,0,1,0,33.848c.5.044.994.076,1.5.076A17,17,0,0,0,30,6Z"/></g><g id="Icons_copy" data-name="Icons copy"><rect class="cls-2" x="12.927" y="43.363" width="8" height="2" transform="translate(-30.553 43.893) rotate(-68.548)"/><path class="cls-8" d="M16.561,45.294A1,1,0,1,0,16,44,1,1,0,0,0,16.561,45.294Z"/><path class="cls-8" d="M52.173,26.05a6.049,6.049,0,0,0-.007-6.111,4.064,4.064,0,0,1-.519-2.567.306.306,0,0,0,.005-.032,6.043,6.043,0,0,0-2.341-5.649,4.056,4.056,0,0,1-1.475-2.209,6.049,6.049,0,0,0-4.324-4.319,4.039,4.039,0,0,1-2.2-1.474,6.03,6.03,0,0,0-5.654-2.34A4.059,4.059,0,0,1,33.05.827a6.054,6.054,0,0,0-6.111.006,4.053,4.053,0,0,1-2.6.514,6.052,6.052,0,0,0-5.65,2.342,4.056,4.056,0,0,1-2.21,1.476,6.049,6.049,0,0,0-4.318,4.323,4.047,4.047,0,0,1-1.474,2.2,6.043,6.043,0,0,0-2.341,5.649l0,.028a4.072,4.072,0,0,1-.525,2.583,6.049,6.049,0,0,0,.007,6.111,4.064,4.064,0,0,1,.519,2.567.306.306,0,0,0,0,.032,6.043,6.043,0,0,0,2.341,5.649,4.056,4.056,0,0,1,1.475,2.209,6.049,6.049,0,0,0,4.324,4.319,4.039,4.039,0,0,1,2.2,1.474,6.035,6.035,0,0,0,5.654,2.34,4.056,4.056,0,0,1,2.606.522c.139.082.285.145.429.214L23.956,57.73a.365.365,0,0,1-.641.128l-3.049-3.869a1,1,0,0,0-1.054-.344l-4.739,1.32a.352.352,0,0,1-.371-.106.358.358,0,0,1-.075-.381L16.4,48.452a1,1,0,1,0-1.861-.732l-2.375,6.043h0c0,.006-.008.01-.011.016a2.372,2.372,0,0,0,2.857,3.112l4.1-1.142,2.636,3.344A2.349,2.349,0,0,0,23.6,60a2.4,2.4,0,0,0,.468-.046,2.357,2.357,0,0,0,1.819-1.689L29.3,45.952A6.047,6.047,0,0,0,30,46a6.18,6.18,0,0,0,.705-.046l3.414,12.314a2.358,2.358,0,0,0,1.819,1.688A2.4,2.4,0,0,0,36.4,60a2.347,2.347,0,0,0,1.852-.9l2.638-3.347,4.1,1.142a2.371,2.371,0,0,0,2.849-3.129L42.855,41.074a4.007,4.007,0,0,1,.664-.239,6.049,6.049,0,0,0,4.318-4.323,4.047,4.047,0,0,1,1.474-2.2,6.043,6.043,0,0,0,2.341-5.649l0-.028a4.1,4.1,0,0,1,.524-2.583ZM45.9,54.859a.352.352,0,0,1-.37.106l-4.74-1.32a.994.994,0,0,0-1.054.344l-3.051,3.872a.366.366,0,0,1-.639-.13L32.621,45.386c.147-.071.3-.136.44-.219a4.043,4.043,0,0,1,2.6-.514,6.041,6.041,0,0,0,5.57-2.25l4.744,12.074A.357.357,0,0,1,45.9,54.859Zm4.543-29.808a6.059,6.059,0,0,0-.77,3.881l0,.027A4.042,4.042,0,0,1,48.1,32.714a6.071,6.071,0,0,0-2.2,3.3A4.044,4.044,0,0,1,43.006,38.9a6.039,6.039,0,0,0-2.018.973.879.879,0,0,0-.095.076,6,6,0,0,0-1.18,1.154,4.032,4.032,0,0,1-3.781,1.566,6.091,6.091,0,0,0-3.892.776,4.049,4.049,0,0,1-4.091-.006,6.059,6.059,0,0,0-3.885-.77,4.048,4.048,0,0,1-3.778-1.566,6.066,6.066,0,0,0-3.3-2.206A4.043,4.043,0,0,1,14.1,36.006a6.064,6.064,0,0,0-2.2-3.293,4.044,4.044,0,0,1-1.571-3.749c0-.011,0-.022.005-.032a6.075,6.075,0,0,0-.775-3.892,4.045,4.045,0,0,1,0-4.091,6.059,6.059,0,0,0,.77-3.881l0-.027A4.042,4.042,0,0,1,11.9,13.286a6.071,6.071,0,0,0,2.205-3.3A4.044,4.044,0,0,1,16.994,7.1a6.06,6.06,0,0,0,3.293-2.2,4.041,4.041,0,0,1,3.781-1.566,6.078,6.078,0,0,0,3.892-.776,4.049,4.049,0,0,1,4.091.006,6.043,6.043,0,0,0,3.885.77,4.043,4.043,0,0,1,3.778,1.566,6.066,6.066,0,0,0,3.3,2.206A4.043,4.043,0,0,1,45.9,9.994a6.064,6.064,0,0,0,2.2,3.293,4.044,4.044,0,0,1,1.571,3.749c0,.011,0,.022-.005.032a6.075,6.075,0,0,0,.775,3.892,4.036,4.036,0,0,1,0,4.08l.864.505Z"/><path class="cls-8" d="M30,5A18,18,0,1,0,48,23,18.021,18.021,0,0,0,30,5Zm0,34A16,16,0,1,1,46,23,16.019,16.019,0,0,1,30,39Z"/><path class="cls-8" d="M30,14a4,4,0,0,1,4,4,1,1,0,0,0,2,0,6.006,6.006,0,0,0-5-5.91V10a1,1,0,0,0-2,0v2.09A6,6,0,0,0,30,24a4,4,0,1,1-4,4,1,1,0,0,0-2,0,6.006,6.006,0,0,0,5,5.91V36a1,1,0,0,0,2,0V33.91A6,6,0,0,0,30,22a4,4,0,0,1,0-8Z"/></g></svg>
