<svg id="Layer_1" height="512" viewBox="0 0 512 512" width="512" xmlns="http://www.w3.org/2000/svg" xmlns:xlink="http://www.w3.org/1999/xlink" data-name="Layer 1"><linearGradient id="GradientFill_1" gradientUnits="userSpaceOnUse" x1="94.109" x2="438.051" y1="381.165" y2="135.728"><stop offset="0" stop-color="#667abc"/><stop offset=".206" stop-color="#5e82c2"/><stop offset=".528" stop-color="#4998d3"/><stop offset=".924" stop-color="#27bcee"/><stop offset="1" stop-color="#20c4f4"/></linearGradient><path d="m235.522 133.971c0-11.526 8.542-22.148 20.482-22.148s20.474 10.628 20.474 22.148a13.985 13.985 0 1 0 27.97 0c0-20.556-12.257-39.462-31.491-46.945l-2.972-1.157v-8.1a13.985 13.985 0 1 0 -27.97 0v8.1l-2.972 1.157c-19.234 7.483-31.491 26.39-31.491 46.945 0 26.947 21.076 50.209 48.452 50.209 11.986 0 20.474 10.683 20.474 22.23 0 11.521-8.537 22.148-20.474 22.148s-20.482-10.622-20.482-22.148a13.985 13.985 0 1 0 -27.97 0c0 20.512 12.293 39.477 31.491 46.946l2.972 1.156v8.1a13.985 13.985 0 1 0 27.97 0v-8.1l2.972-1.156c19.2-7.469 31.491-26.434 31.491-46.946 0-26.983-21.032-50.208-48.444-50.208-11.951 0-20.482-10.719-20.482-22.231zm190.648 36.22a24.441 24.441 0 0 1 -7.183 17.365l-20.025 20.066a51.529 51.529 0 0 0 -15.407 37.178v28.31a24.761 24.761 0 0 1 -24.629 24.645h-28.3a51.437 51.437 0 0 0 -37.19 15.367l-20.017 20.066a24.673 24.673 0 0 1 -34.836 0l-20.016-20.066a51.441 51.441 0 0 0 -37.191-15.367h-28.31a24.775 24.775 0 0 1 -24.628-24.645v-28.31a51.533 51.533 0 0 0 -15.408-37.174l-20.018-20.071a24.682 24.682 0 0 1 .007-34.818l20.016-19.984a51.4 51.4 0 0 0 15.4-37.167v-28.309a24.632 24.632 0 0 1 24.628-24.646h28.31a51.444 51.444 0 0 0 37.191-15.366l20.018-20.065a24.673 24.673 0 0 1 34.836 0l20.017 20.067a51.44 51.44 0 0 0 37.19 15.366h28.3a24.618 24.618 0 0 1 24.629 24.646v28.307a51.4 51.4 0 0 0 15.4 37.166l20.025 19.984a24.59 24.59 0 0 1 7.189 17.455zm-159.144 272.552 67.874 68.689v-185.775l-4.732.072a23.258 23.258 0 0 0 -16.962 7.19l-20.013 19.981a52.488 52.488 0 0 1 -74.394 0l-20.008-19.98a23.248 23.248 0 0 0 -16.963-7.191l-4.732-.072v186.343l70.147-69.386a13.967 13.967 0 0 1 9.835-3.982h.108a13.846 13.846 0 0 1 9.84 4.111z" fill="url(#GradientFill_1)" fill-rule="evenodd"/></svg>