<svg id="Capa_1" enable-background="new 0 0 512 512" height="512" viewBox="0 0 512 512" width="512" xmlns="http://www.w3.org/2000/svg"><g><path d="m450.61 61.39-137.61 235.61-251.61 153.61-48-48c-5.85-5.86-5.85-15.36 0-21.22 7.8-7.79 12.07-18.16 12.01-29.19s-4.43-21.35-12.31-29.07l-8.59-8.41c-2.86-2.81-4.48-6.64-4.5-10.64-.02-4.01 1.56-7.85 4.39-10.69l141.89-141.89s27.46 7.97 21.22-21.22l125.89-125.89c2.82-2.81 6.63-4.39 10.61-4.39h.08c4 .02 7.83 1.64 10.64 4.5l8.41 8.59c7.72 7.88 18.04 12.25 29.07 12.31s21.39-4.21 29.19-12.01c5.86-5.85 15.36-5.85 21.22 0z" fill="#ff5592"/><path d="m512 207.92c.02 4.01-1.56 7.85-4.39 10.69l-125.89 125.89c-16.13-2.29-21.22 21.22-21.22 21.22l-141.89 141.89c-2.82 2.81-6.63 4.39-10.61 4.39h-.08c-4-.02-7.83-1.64-10.64-4.5l-8.41-8.59c-7.72-7.88-18.04-12.25-29.07-12.31h-.22c-10.94 0-21.23 4.26-28.97 12.01-5.86 5.85-15.36 5.85-21.22 0l-48-48 389.22-389.22 48 48c5.85 5.86 5.85 15.36 0 21.22-7.8 7.79-12.07 18.16-12.01 29.19s4.43 21.35 12.31 29.07l8.59 8.41c2.86 2.81 4.48 6.64 4.5 10.64z" fill="#ff415b"/><path d="m152 423c-3.839 0-7.678-1.464-10.606-4.394-5.858-5.858-5.858-15.355 0-21.213l40-40c5.857-5.858 15.355-5.858 21.213 0s5.858 15.355 0 21.213l-40 40c-2.929 2.93-6.768 4.394-10.607 4.394z" fill="#e2dff4"/><path d="m104 375c-3.839 0-7.678-1.464-10.606-4.394-5.858-5.858-5.858-15.355 0-21.213l80-80c5.857-5.858 15.355-5.858 21.213 0s5.858 15.355 0 21.213l-80 80c-2.929 2.93-6.768 4.394-10.607 4.394z" fill="#f4f3ff"/><path d="m381.72 344.5-21.22 21.22-43.11-43.11c-5.85-5.86-5.85-15.36 0-21.22 5.86-5.85 15.36-5.85 21.22 0z" fill="#ea2445"/><path d="m274.61 237.39-.42 21.22h-20.8l-16-16c-5.85-5.86-5.85-15.36 0-21.22 5.86-5.85 15.36-5.85 21.22 0z" fill="#ff415b"/><path d="m290.61 274.61c-2.93 2.93-6.77 4.39-10.61 4.39s-7.68-1.46-10.61-4.39l-16-16 21.22-21.22 16 16c5.85 5.86 5.85 15.36 0 21.22z" fill="#ea2445"/><path d="m210.61 194.61c-2.93 2.93-6.77 4.39-10.61 4.39s-7.68-1.46-10.61-4.39l-43.11-43.11 21.22-21.22 43.11 43.11c5.85 5.86 5.85 15.36 0 21.22z" fill="#ff415b"/><g><path d="m381.77 153.17-46.92 23.98c-1.47.3-2.93.54-4.37.71-12.15 1.47-24.43-4.56-32.05-15.73-7.85-11.49-9.08-25.81-3.4-37.84l-1.78-1.83c-5.78-5.93-5.65-15.43.29-21.21 5.93-5.78 15.43-5.65 21.21.29l3.17 3.26c3.2-1.28 6.43-2.29 9.52-3.08 1.2-.31 2.4-.45 3.58-.45 7.59 0 14.22 6.05 14.54 14.06.29 7.11-4.56 13.49-11.53 14.89-4.85.98-9.74 2.86-11.74 6.59-1.97 3.67.2 7.36.91 8.4 1.49 2.18 3.22 2.92 3.68 2.86 7.14-.86 17.46-5.44 26.61-9.81 8.01-3.83 16.36-5.08 24.21-3.96z" fill="#fdecba"/></g><g><path d="m410.75 218.47c-2.94 3.01-6.85 4.53-10.75 4.53-3.77 0-7.55-1.41-10.47-4.25l-.7-.69c-5.79 4.09-12.11 6.76-21.52 8.73-1.03.21-2.07.32-3.08.32-6.95 0-13.19-4.86-14.67-11.94-1.7-8.11 3.5-16.05 11.61-17.75 8.55-1.79 10.49-3.2 17.51-10.32 6.78-6.86 4.14-14.94 1.52-18.63-2.36-3.31-6.66-6.54-13.78-3.14-10.42 4.97-21.35 9.77-31.57 11.82l42.85-42.85c10.52 1.49 20.15 7.25 26.93 16.77 9.52 13.36 10.72 30.36 4.14 44.53l1.7 1.65c5.93 5.78 6.06 15.28.28 21.22z" fill="#fddc7a"/></g><g><path d="m497 463h-17c-8.284 0-15-6.716-15-15s6.716-15 15-15h17c8.284 0 15 6.716 15 15s-6.716 15-15 15z" fill="#fddc7a"/></g><g><path d="m448 512c-8.284 0-15-6.716-15-15v-17c0-8.284 6.716-15 15-15s15 6.716 15 15v17c0 8.284-6.716 15-15 15z" fill="#fddc7a"/></g><g><path d="m416 463h-16c-8.284 0-15-6.716-15-15s6.716-15 15-15h16c8.284 0 15 6.716 15 15s-6.716 15-15 15z" fill="#fddc7a"/></g><g><path d="m448 431c-8.284 0-15-6.716-15-15v-16c0-8.284 6.716-15 15-15s15 6.716 15 15v16c0 8.284-6.716 15-15 15z" fill="#fddc7a"/></g><g><path d="m112 79h-16c-8.284 0-15-6.716-15-15s6.716-15 15-15h16c8.284 0 15 6.716 15 15s-6.716 15-15 15z" fill="#fdecba"/></g><g><path d="m64 127c-8.284 0-15-6.716-15-15v-16c0-8.284 6.716-15 15-15s15 6.716 15 15v16c0 8.284-6.716 15-15 15z" fill="#fdecba"/></g><g><path d="m32 79h-17c-8.284 0-15-6.716-15-15s6.716-15 15-15h17c8.284 0 15 6.716 15 15s-6.716 15-15 15z" fill="#fdecba"/></g><g><path d="m64 47c-8.284 0-15-6.716-15-15v-17c0-8.284 6.716-15 15-15s15 6.716 15 15v17c0 8.284-6.716 15-15 15z" fill="#fdecba"/></g></g></svg>