<svg id="Layer_1" enable-background="new 0 0 56 56" height="512" viewBox="0 0 56 56" width="512" xmlns="http://www.w3.org/2000/svg"><g><path d="m37.38 16.27v-1.12c-.29 0-.53-.23-.53-.53v-.27h-30.45c-1.32 0-2.4 1.08-2.4 2.4v22.51c0 1.32 1.08 2.4 2.4 2.4h30.45v-.27c0-.3.25-.53.53-.53v-1.12c-.29 0-.53-.23-.53-.53v-.54c0-.3.25-.53.53-.53v-1.12c-.29 0-.53-.25-.53-.53v-.55c0-.29.25-.53.53-.53v-1.12c-.29 0-.53-.23-.53-.53v-.54c0-.3.25-.53.53-.53v-1.12c-.29 0-.53-.23-.53-.53v-.54c0-.3.25-.53.53-.53v-1.12c-.29 0-.53-.25-.53-.53v-.55c0-.29.25-.53.53-.53v-1.12c-.29 0-.53-.23-.53-.53v-.54c0-.3.25-.53.53-.53v-1.12c-.29 0-.53-.23-.53-.53v-.54c0-.3.25-.53.53-.53v-1.12c-.29 0-.53-.25-.53-.53v-.55c0-.29.25-.53.53-.53v-1.12c-.29 0-.53-.23-.53-.53v-.62c0-.3.24-.53.53-.53z" fill="#f33"/><path d="m52 16.75v22.51c0 1.32-1.08 2.4-2.4 2.4h-11.69v-.27c0-.3-.23-.53-.53-.53v-1.12c.3 0 .53-.23.53-.53v-.54c0-.3-.23-.53-.53-.53v-1.12c.3 0 .53-.25.53-.53v-.55c0-.29-.23-.53-.53-.53v-1.12c.3 0 .53-.23.53-.53v-.54c0-.3-.23-.53-.53-.53v-1.12c.3 0 .53-.23.53-.53v-.54c0-.3-.23-.53-.53-.53v-1.12c.3 0 .53-.25.53-.53v-.55c0-.29-.23-.53-.53-.53v-1.12c.3 0 .53-.23.53-.53v-.54c0-.3-.23-.53-.53-.53v-1.12c.3 0 .53-.23.53-.53v-.54c0-.3-.23-.53-.53-.53v-1.12c.3 0 .53-.25.53-.53v-.55c0-.29-.23-.53-.53-.53v-1.12c.3 0 .53-.23.53-.53v-.62c0-.3-.23-.53-.53-.53v-1.12c.3 0 .53-.23.53-.53v-.27h11.69c1.32 0 2.4 1.07 2.4 2.4z" fill="#ffee1d"/><path d="m37.38 38.12v-.27h-33.38v1.4c0 1.32 1.08 2.4 2.4 2.4h30.45v-.27c0-.3.25-.53.53-.53v-1.12c-.29 0-.53-.23-.53-.53v-.54c0-.3.24-.54.53-.54z" fill="#f22525"/><path d="m49.6 14.35h-1.71v12.99c0 5.81-4.71 10.51-10.51 10.51v.27c.3 0 .53.23.53.53v.54c0 .3-.23.53-.53.53v1.12c.3 0 .53.23.53.53v.27h11.69c1.32 0 2.4-1.08 2.4-2.4v-22.49c0-1.32-1.08-2.4-2.4-2.4z" fill="#fc0"/><g><path d="m14.23 24.94c0-1.04.23-1.81.68-2.31.46-.5 1.07-.75 1.85-.75.81 0 1.44.25 1.89.75s.68 1.27.68 2.31-.23 1.81-.68 2.31c-.46.5-1.07.75-1.85.75-.81 0-1.44-.25-1.89-.75s-.68-1.27-.68-2.31zm1.73-.02c0 .75.09 1.26.26 1.52.13.19.31.28.54.28.24 0 .42-.09.55-.28.17-.26.25-.76.25-1.52 0-.75-.08-1.26-.25-1.51-.13-.19-.32-.29-.55-.29s-.41.09-.54.28c-.17.26-.26.77-.26 1.52zm2.5 9.17h-1.64l6.17-12.21h1.59zm3.58-3.03c0-1.04.23-1.81.68-2.31.46-.5 1.08-.75 1.87-.75s1.42.25 1.87.75c.46.5.68 1.27.68 2.31s-.23 1.81-.68 2.31-1.07.75-1.85.75c-.81 0-1.44-.25-1.89-.75s-.68-1.27-.68-2.31zm1.73-.01c0 .75.09 1.26.26 1.51.13.19.31.29.54.29.24 0 .42-.09.54-.28.17-.26.26-.76.26-1.52s-.08-1.26-.25-1.52c-.13-.19-.32-.28-.55-.28-.24 0-.42.09-.54.28-.18.26-.26.76-.26 1.52z" fill="#fff"/></g><g fill="#f33"><path d="m44.68 21.05-.23.72c-.4-.11-.7-.3-.9-.55-.2-.26-.29-.58-.29-.98 0-.49.17-.89.5-1.21s.79-.47 1.37-.47c.61 0 1.09.16 1.43.48s.51.73.51 1.25c0 .45-.13.82-.4 1.1-.16.17-.38.29-.68.38l-.18-.74c.19-.04.34-.13.45-.27s.17-.31.17-.5c0-.27-.1-.5-.29-.67-.2-.17-.51-.26-.95-.26-.47 0-.8.08-1 .25s-.3.39-.3.65c0 .2.06.37.19.51.13.15.33.25.6.31z"/><path d="m44.7 22.24c.24 0 .46.06.68.17s.39.28.5.49.17.45.17.71c0 .4-.13.74-.39.99-.26.26-.59.39-1 .39-.4 0-.74-.13-1.01-.39s-.4-.59-.4-.99c0-.25.06-.48.17-.7s.27-.39.49-.51.48-.16.79-.16zm-.04.73c-.27 0-.47.06-.61.19s-.21.28-.21.47c0 .18.07.34.21.46s.35.19.61.19.46-.06.6-.19.21-.28.21-.46-.07-.34-.21-.47c-.13-.13-.34-.19-.6-.19z"/><path d="m43.32 27.32h.4c-.14-.1-.26-.23-.34-.38-.08-.16-.12-.33-.12-.5 0-.18.04-.34.12-.48s.19-.25.33-.31.34-.1.59-.1h1.7v.71h-1.23c-.38 0-.61.01-.69.04s-.15.07-.2.14-.07.16-.07.26c0 .12.03.23.1.32s.15.16.25.2.34.05.72.05h1.12v.71h-2.67v-.66z"/><path d="m46 28.69v.66h-.4c.13.09.24.2.33.35.08.15.13.31.13.49 0 .31-.12.57-.37.79-.24.22-.58.32-1.02.32-.45 0-.79-.11-1.04-.33s-.37-.48-.37-.79c0-.15.03-.28.09-.4s.16-.25.3-.38h-1.35v-.71zm-1.3.7c-.3 0-.52.06-.67.18-.14.12-.22.26-.22.44 0 .16.07.3.2.41s.35.16.65.16c.28 0 .49-.06.62-.17.14-.11.2-.25.2-.42s-.07-.32-.2-.43c-.12-.11-.32-.17-.58-.17z"/><path d="m44.7 31.7c.24 0 .46.06.68.17s.39.28.5.49c.12.21.17.45.17.71 0 .4-.13.74-.39.99-.26.26-.59.39-1 .39-.4 0-.74-.13-1.01-.39s-.4-.59-.4-.99c0-.25.06-.48.17-.7s.27-.39.49-.51.48-.16.79-.16zm-.04.72c-.27 0-.47.06-.61.19s-.21.28-.21.47c0 .18.07.34.21.46s.35.19.61.19.46-.06.6-.19.21-.28.21-.46-.07-.34-.21-.47-.34-.19-.6-.19z"/><path d="m43.32 37.44v-.71h1.36c.29 0 .48-.02.56-.05s.15-.08.2-.15.07-.15.07-.25c0-.12-.03-.23-.1-.33s-.16-.16-.27-.2-.32-.05-.61-.05h-1.21v-.71h2.68v.66h-.4c.3.23.45.53.45.88 0 .16-.03.3-.08.43-.06.13-.13.23-.22.29s-.19.11-.3.14-.27.04-.48.04h-1.65z"/></g><g fill="#ff5050"><path d="m18.8 16.91c0 .33-.28.61-.61.61h-9.63c-.33 0-.6-.28-.6-.61 0-.32.27-.6.6-.6h9.63c.34 0 .61.28.61.6z"/><path d="m25.41 16.91c0 .33-.28.61-.61.61h-4.22c-.33 0-.6-.28-.6-.61 0-.32.27-.6.6-.6h4.22c.33 0 .61.28.61.6z"/></g></g></svg>