<svg height="512" viewBox="0 0 110 110" width="512" xmlns="http://www.w3.org/2000/svg"><g id="_4._Coupon" data-name="4. Coupon"><circle cx="51" cy="55" fill="#e7efff" r="50"/><circle cx="51" cy="55" fill="#a5bced" r="37"/><circle cx="18" cy="4" fill="#ff4d69" r="3"/><circle cx="106" cy="13" fill="#00c99f" r="3"/><circle cx="89" cy="106" fill="#ffa100" r="3"/><circle cx="13" cy="102" fill="#00c99f" r="3"/><path d="m102 61a4 4 0 0 0 2.65 3.77 1.93 1.93 0 0 1 1.35 1.8v15.43a2 2 0 0 1 -2 2h-22.43a1.93 1.93 0 0 1 -1.8-1.35 4 4 0 0 0 -7.54 0 1.93 1.93 0 0 1 -1.8 1.35h-50.43a2 2 0 0 1 -2-2v-44h54a4 4 0 0 0 8 0h24a2 2 0 0 1 2 2v15.43a1.93 1.93 0 0 1 -1.35 1.8 4 4 0 0 0 -2.65 3.77z" fill="#323fd4"/><path d="m85 49a4 4 0 0 0 2.65 3.77 1.93 1.93 0 0 1 1.35 1.8v15.43a2 2 0 0 1 -2 2h-22.43a1.93 1.93 0 0 1 -1.8-1.35 4 4 0 0 0 -7.54 0 1.93 1.93 0 0 1 -1.8 1.35h-49.43a50 50 0 0 1 6.3-46h43.13a1.93 1.93 0 0 1 1.8 1.35 4 4 0 0 0 7.54 0 1.93 1.93 0 0 1 1.8-1.35h22.43a2 2 0 0 1 2 2v15.43a1.93 1.93 0 0 1 -1.35 1.8 4 4 0 0 0 -2.65 3.77z" fill="#4e6aff"/><rect fill="#8fa2ff" height="4" rx="1" width="2" x="58" y="35"/><rect fill="#8fa2ff" height="4" rx="1" width="2" x="58" y="43"/><rect fill="#8fa2ff" height="4" rx="1" width="2" x="58" y="51"/><rect fill="#8fa2ff" height="4" rx="1" width="2" x="58" y="59"/><g fill="#fff"><rect height="2" rx="1" transform="matrix(-1 0 0 -1 146 80)" width="16" x="65" y="39"/><rect height="2" rx="1" transform="matrix(-1 0 0 -1 146 92)" width="16" x="65" y="45"/><rect height="2" rx="1" transform="matrix(-1 0 0 -1 146 104)" width="16" x="65" y="51"/><rect height="2" rx="1" transform="matrix(-1 0 0 -1 20 134)" width="6" x="7" y="66"/><rect height="2" rx="1" transform="matrix(-1 0 0 -1 146 116)" width="16" x="65" y="57"/><path d="m18 61a2 2 0 0 1 -1.41-3.41l20-20a2 2 0 0 1 2.82 2.82l-20 20a2 2 0 0 1 -1.41.59z"/><path d="m19 48a6 6 0 1 1 6-6 6 6 0 0 1 -6 6zm0-8a2 2 0 1 0 2 2 2 2 0 0 0 -2-2z"/><path d="m39 62a6 6 0 1 1 6-6 6 6 0 0 1 -6 6zm0-8a2 2 0 1 0 2 2 2 2 0 0 0 -2-2z"/></g></g></svg>