<svg id="Layer_1" enable-background="new 0 0 512 512" height="512" viewBox="0 0 512 512" width="512" xmlns="http://www.w3.org/2000/svg" xmlns:xlink="http://www.w3.org/1999/xlink"><linearGradient id="SVGID_1_" gradientUnits="userSpaceOnUse" x1="255.928" x2="255.928" y1="63" y2="449.2"><stop offset="0" stop-color="#f704fe"/><stop offset="1" stop-color="#24bce3"/></linearGradient><path d="m459.4 196.9-7 4.9c-.6.4-1 .9-1.3 1.3l-2.8 4.3-2.8-4.3c-.4-.5-.9-.9-1.3-1.3l-7-4.9 7.2-5c.5-.4.9-.9 1.2-1.3l2.8-4.3 2.8 4.3c.3.6.8.9 1.2 1.3zm-19.6-55-7 4.9c-.6.4-1 .8-1.3 1.3l-2.8 4.3-2.7-4.3c-.4-.5-.8-.9-1.3-1.3l-7-4.9 7-5c.6-.4.9-.8 1.3-1.3l2.7-4.3 2.8 4.3c.3.5.8 1 1.2 1.3zm-50.2 46.3-7 4.9c-.6.4-.9.9-1.3 1.3l-2.8 4.3-2.8-4.3c-.4-.5-.9-.9-1.3-1.3l-7-4.9 7-4.9c.6-.4.9-.8 1.3-1.3l2.8-4.3 2.8 4.3c.4.5.9.9 1.3 1.3zm-98.9-51.1c.1 1.5-.6 2.6-1 3-.4.5-1.3 1.2-2.7 1.1l-62.4-8c.2-4.1-.4-8.4-2.1-12.3-1.6-4-3.9-7.5-6.9-10.3l40.3-46.4c.9-1.1 2.1-1.2 2.7-1.2 1.1.1 2.3.6 2.9 1.5 5.9 7.6 11.8 18.2 17 30l-16.9 6.8c-2.6.9-3.8 3.8-2.7 6.3.8 1.9 2.6 3 4.5 3 .7 0 1.2-.1 1.8-.3l17-6.8c1.4 3.9 2.7 7.7 3.8 11.5.1.4.2.9.3 1.3 0 .1.1.2.2.4 2.1 7.2 3.6 14.2 4.2 20.4zm-77.2-12.7c1.4 3.6 1.8 7.4 1 10.9-.2.4-.4.9-.4 1.4v.2c-.9 2.6-2.5 4.4-4.6 5.3-2.2.9-4.5.7-6.9-.5-.2-.2-.4-.5-.7-.7-.6-.5-1.2-.8-1.9-.9-2.5-2-4.6-4.8-5.9-7.9-1.6-4.2-1.9-8-.8-11.3 0 0 0 0 0-.1s.1-.2.1-.2c.5-1.9 1.8-5.2 4.9-6.4 2.3-1 4.6-.5 6.3.3.1.2.3.3.4.4.6.5 1.4.9 2.1 1.1 2.9 2.1 5 4.9 6.4 8.4zm-21.8 21.6-39.4 49c-.9 1-2.1 1.1-2.7 1.1-1 0-2.2-.6-2.8-1.4-3.9-4.9-7.9-11.3-11.6-18.5-1.9-3.6-3.7-7.5-5.4-11.5l16.5-6.6c2.6-1 3.8-3.8 2.7-6.3-.9-2.5-3.8-3.8-6.3-2.7l-16.6 6.6c-4.5-11.9-7.5-23.7-8.5-33.4-.2-1.5.6-2.5 1-3 .5-.5 1.4-1.1 2.9-1l61.5 5.7v1.2c0 3.5.7 7.1 2.1 10.8s3.8 7.2 6.6 10zm195-24.8c.1.1 0 .3 0 .3 0 .1-.1.2-.2.2l-257.4 103.5-28.4 11.4-33.9 13.6c-.1.1-.4 0-.5-.2l-13.8-34.2c-.1 0 0-.1 0-.2 0-.2.1-.3.2-.3l75.7-30.5c3.4 6.1 6.9 11.6 10.4 16 2.4 3.2 6.2 5.1 10.2 5.2h.5c3.8 0 7.4-1.6 10-4.7.1 0 .1-.1.2-.2l40.2-49.9c2.2.8 4.4 1.2 6.6 1.2s4.3-.4 6.3-1.2c4-1.6 7.2-4.6 9.2-8.6l63.7 8.2h.3 1c3.6 0 7.1-1.4 9.6-4.1 2.7-2.9 4.2-6.9 3.7-10.9-.6-5.7-1.8-12-3.6-18.7l75.6-30.4c.1-.1.3 0 .3 0 .1 0 .2.1.2.2zm29.4 114.4v184.5h-133.1v-185.3h132.4c.3 0 .7.3.7.8zm-165.6-.8h22.6v185.2h-22.6zm-9.8 0v185.3h-133.1v-175.6l24.1-9.7zm175.4 195.1v15.4c0 2.2-1.7 3.9-3.9 3.9h-300.7c-2.2 0-3.9-1.7-3.9-3.9v-15.4h138 32.5z" fill="url(#SVGID_1_)"/></svg>