<svg id="Capa_1" enable-background="new 0 0 512 512" height="512" viewBox="0 0 512 512" width="512" xmlns="http://www.w3.org/2000/svg"><g><path d="m256 22c-135.31 0-245 109.69-245 245 0 73.677 32.528 139.752 84 184.665l1-1.923v-306.921l4.129-.821h311.741l4.129.821v306.921l1 1.923c51.472-44.913 84-110.988 84-184.665.001-135.31-109.689-245-244.999-245z" fill="#05e39c"/><g><path d="m435 133h-19v316.742l1 1.923c12.114-10.57 23.162-22.325 33-35.063v-268.602c0-8.284-6.716-15-15-15z" fill="#0ed290"/></g><g><path d="m411.969 141h-311.938l-5.031 1v309.665c43.057 37.571 99.368 60.335 161 60.335s117.943-22.764 161-60.335v-309.665z" fill="#f5f8f9"/></g><g><path d="m151 142 5.031-1h-56l-5.031 1v309.665c16.803 14.662 35.632 27.056 56 36.734z" fill="#e8edf2"/></g><g><path d="m417 142h-322v-127c0-8.284 6.716-15 15-15h292c8.284 0 15 6.716 15 15z" fill="#fedf30"/></g><g><path d="m166 0h-56c-8.284 0-15 6.716-15 15v127h56v-127c0-8.284 6.716-15 15-15z" fill="#fed402"/></g><g fill="#fac600"><path d="m123.5 92.508v-50.399c0-1.657 1.343-3 3-3h-6.5c-1.657 0-3 1.343-3 3v50.398c0 6.839 5.544 12.383 12.383 12.383h6.5c-6.839.001-12.383-5.543-12.383-12.382z"/><g><path d="m202.625 89.891h6.5c1.249 0 2.266-1.016 2.266-2.266v-31.25c0-1.25-1.017-2.266-2.266-2.266h-6.5c1.249 0 2.266 1.016 2.266 2.266v31.25c0 1.25-1.017 2.266-2.266 2.266z"/><path d="m177.537 87.625v-31.25c0-9.521 7.745-17.266 17.266-17.266h-6.5c-9.521 0-17.266 7.745-17.266 17.266v31.25c0 1.03.107 2.033.281 3.014.63.55 1.037 1.35 1.037 2.252v1.335c2.598 6.254 8.765 10.665 15.948 10.665h6.5c-9.521 0-17.266-7.745-17.266-17.266z"/></g><g><path d="m364.734 89.891h6.5c1.249 0 2.266-1.016 2.266-2.266v-31.25c0-1.25-1.017-2.266-2.266-2.266h-6.5c1.249 0 2.266 1.016 2.266 2.266v31.25c0 1.25-1.017 2.266-2.266 2.266z"/><path d="m339.646 87.625v-31.25c0-9.521 7.745-17.266 17.266-17.266h-6.5c-7.183 0-13.35 4.411-15.948 10.665v1.335c0 .902-.406 1.702-1.037 2.252-.174.981-.281 1.984-.281 3.014v31.25c0 9.521 7.745 17.266 17.266 17.266h6.5c-9.521 0-17.266-7.745-17.266-17.266z"/></g><g><path d="m248.5 101.891v-47.782h-6.5v47.781c0 1.657 1.343 3 3 3h6.5c-1.657.001-3-1.343-3-2.999z"/><path d="m231.573 51.109v-9c0-1.657 1.343-3 3-3h-6.5c-1.657 0-3 1.343-3 3v7.663c.473 1.139.817 2.343 1.037 3.589.527.46 1.208.748 1.963.748h6.5c-1.657 0-3-1.343-3-3z"/></g><g><path d="m285.609 51.109v-9c0-1.657 1.343-3 3-3h-6.5c-.953 0-1.792.453-2.341 1.145.406.512.659 1.151.659 1.855v9c0 .704-.253 1.343-.659 1.855.55.692 1.388 1.145 2.341 1.145h6.5c-1.656 0-3-1.343-3-3z"/><path d="m302.537 101.891v-47.782h-6.5v47.781c0 1.657 1.343 3 3 3h6.5c-1.657.001-3-1.343-3-2.999z"/></g></g><g fill="#596c76"><path d="m135.5 39.109h-9c-1.657 0-3 1.343-3 3v50.398c0 6.839 5.544 12.383 12.383 12.383h33.471c1.657 0 3-1.343 3-3v-9c0-1.657-1.343-3-3-3h-30.854v-47.781c0-1.656-1.343-3-3-3z"/><path d="m209.125 39.109h-14.323c-9.521 0-17.266 7.745-17.266 17.266v31.25c0 9.521 7.745 17.266 17.266 17.266h14.323c9.521 0 17.266-7.745 17.266-17.266v-31.25c0-9.521-7.745-17.266-17.266-17.266zm2.266 48.516c0 1.25-1.017 2.266-2.266 2.266h-14.323c-1.25 0-2.266-1.016-2.266-2.266v-31.25c0-1.25 1.016-2.266 2.266-2.266h14.323c1.249 0 2.266 1.016 2.266 2.266z"/><path d="m371.234 39.109h-14.323c-9.521 0-17.266 7.745-17.266 17.266v31.25c0 9.521 7.745 17.266 17.266 17.266h14.323c9.521 0 17.266-7.745 17.266-17.266v-31.25c0-9.521-7.745-17.266-17.266-17.266zm2.266 48.516c0 1.25-1.017 2.266-2.266 2.266h-14.323c-1.25 0-2.266-1.016-2.266-2.266v-31.25c0-1.25 1.016-2.266 2.266-2.266h14.323c1.249 0 2.266 1.016 2.266 2.266z"/><path d="m234.573 54.109h13.927v47.781c0 1.657 1.343 3 3 3h9c1.657 0 3-1.343 3-3v-47.781h13.927c1.657 0 3-1.343 3-3v-9c0-1.657-1.343-3-3-3h-42.854c-1.657 0-3 1.343-3 3v9c0 1.657 1.343 3 3 3z"/><path d="m288.609 54.109h13.927v47.781c0 1.657 1.343 3 3 3h9c1.657 0 3-1.343 3-3v-47.781h13.927c1.657 0 3-1.343 3-3v-9c0-1.657-1.343-3-3-3h-42.854c-1.657 0-3 1.343-3 3v9c0 1.657 1.344 3 3 3z"/></g><g><g><circle cx="154.234" cy="194.361" fill="#8d9ca8" r="23.234"/></g><path d="m148 194.361c0-9.831 6.108-18.229 14.734-21.623-2.633-1.036-5.499-1.611-8.5-1.611-12.832 0-23.234 10.402-23.234 23.234s10.402 23.234 23.234 23.234c3.001 0 5.867-.575 8.5-1.611-8.626-3.394-14.734-11.793-14.734-21.623z" fill="#7a8c98"/><g><circle cx="222.078" cy="194.361" fill="#e8edf2" r="23.234"/></g><g><circle cx="289.922" cy="194.361" fill="#e8edf2" r="23.234"/></g><g><circle cx="357.766" cy="194.361" fill="#8d9ca8" r="23.234"/></g><path d="m351.532 194.361c0-9.831 6.108-18.229 14.734-21.623-2.633-1.036-5.499-1.611-8.5-1.611-12.832 0-23.234 10.402-23.234 23.234s10.402 23.234 23.234 23.234c3.001 0 5.867-.575 8.5-1.611-8.626-3.394-14.734-11.793-14.734-21.623z" fill="#7a8c98"/><g><path d="m357.766 202.595c-4.54 0-8.234-3.694-8.234-8.234s3.694-8.234 8.234-8.234c4.541 0 8.234 3.694 8.234 8.234s-3.694 8.234-8.234 8.234z" fill="#f5f8f9"/></g></g><g><g><circle cx="154.234" cy="264.063" fill="#8d9ca8" r="23.234"/></g><g><circle cx="222.078" cy="264.063" fill="#e8edf2" r="23.234"/></g><g><circle cx="289.922" cy="264.063" fill="#8d9ca8" r="23.234"/></g><path d="m283.688 264.063c0-9.831 6.108-18.229 14.734-21.623-2.633-1.036-5.499-1.611-8.5-1.611-12.832 0-23.234 10.402-23.234 23.234s10.402 23.234 23.234 23.234c3.001 0 5.867-.575 8.5-1.611-8.626-3.394-14.734-11.792-14.734-21.623z" fill="#7a8c98"/><path d="m283.688 194.361c0-9.831 6.108-18.229 14.734-21.623-2.633-1.036-5.499-1.611-8.5-1.611-12.832 0-23.234 10.402-23.234 23.234s10.402 23.234 23.234 23.234c3.001 0 5.867-.575 8.5-1.611-8.626-3.394-14.734-11.793-14.734-21.623z" fill="#d9e7ec"/><g><path d="m289.922 272.297c-4.541 0-8.234-3.694-8.234-8.234s3.694-8.234 8.234-8.234 8.234 3.694 8.234 8.234c0 4.541-3.694 8.234-8.234 8.234z" fill="#f5f8f9"/></g><g><circle cx="357.766" cy="264.063" fill="#e8edf2" r="23.234"/></g></g><g><g><circle cx="154.234" cy="333.766" fill="#8d9ca8" r="23.234"/></g><g><circle cx="222.078" cy="333.766" fill="#e8edf2" r="23.234"/></g><g><circle cx="289.922" cy="333.766" fill="#e8edf2" r="23.234"/></g><g><circle cx="357.766" cy="333.766" fill="#8d9ca8" r="23.234"/></g></g><g><g><g><path d="m135.5 452h-9c-1.657 0-3-1.343-3-3v-63.73c0-1.657 1.343-3 3-3h9c1.657 0 3 1.343 3 3v63.73c0 1.657-1.343 3-3 3z" fill="#596c76"/></g></g><g><g><path d="m156.333 452h-9c-1.657 0-3-1.343-3-3v-63.73c0-1.657 1.343-3 3-3h9c1.657 0 3 1.343 3 3v63.73c0 1.657-1.343 3-3 3z" fill="#596c76"/></g></g><g><g><path d="m174.667 452h-4c-1.657 0-3-1.343-3-3v-63.73c0-1.657 1.343-3 3-3h4c1.657 0 3 1.343 3 3v63.73c0 1.657-1.344 3-3 3z" fill="#596c76"/></g></g><g><g><path d="m198 452h-9c-1.657 0-3-1.343-3-3v-63.73c0-1.657 1.343-3 3-3h9c1.657 0 3 1.343 3 3v63.73c0 1.657-1.343 3-3 3z" fill="#596c76"/></g></g><g><g><path d="m218.833 452h-9c-1.657 0-3-1.343-3-3v-63.73c0-1.657 1.343-3 3-3h9c1.657 0 3 1.343 3 3v63.73c0 1.657-1.343 3-3 3z" fill="#596c76"/></g></g><g><g><path d="m237.167 452h-4c-1.657 0-3-1.343-3-3v-63.73c0-1.657 1.343-3 3-3h4c1.657 0 3 1.343 3 3v63.73c0 1.657-1.344 3-3 3z" fill="#596c76"/></g></g><g><g><path d="m260.5 452h-9c-1.657 0-3-1.343-3-3v-63.73c0-1.657 1.343-3 3-3h9c1.657 0 3 1.343 3 3v63.73c0 1.657-1.343 3-3 3z" fill="#596c76"/></g></g><g><g><path d="m281.333 452h-9c-1.657 0-3-1.343-3-3v-63.73c0-1.657 1.343-3 3-3h9c1.657 0 3 1.343 3 3v63.73c0 1.657-1.343 3-3 3z" fill="#596c76"/></g></g><g><g><path d="m299.667 452h-4c-1.657 0-3-1.343-3-3v-63.73c0-1.657 1.343-3 3-3h4c1.657 0 3 1.343 3 3v63.73c0 1.657-1.344 3-3 3z" fill="#596c76"/></g></g><g><g><path d="m323 452h-9c-1.657 0-3-1.343-3-3v-63.73c0-1.657 1.343-3 3-3h9c1.657 0 3 1.343 3 3v63.73c0 1.657-1.343 3-3 3z" fill="#596c76"/></g></g><g><g><path d="m343.833 452h-9c-1.657 0-3-1.343-3-3v-63.73c0-1.657 1.343-3 3-3h9c1.657 0 3 1.343 3 3v63.73c0 1.657-1.343 3-3 3z" fill="#596c76"/></g></g><g><g><path d="m364.667 452h-9c-1.657 0-3-1.343-3-3v-63.73c0-1.657 1.343-3 3-3h9c1.657 0 3 1.343 3 3v63.73c0 1.657-1.344 3-3 3z" fill="#596c76"/></g></g><g><g><path d="m385.5 452h-9c-1.657 0-3-1.343-3-3v-63.73c0-1.657 1.343-3 3-3h9c1.657 0 3 1.343 3 3v63.73c0 1.657-1.343 3-3 3z" fill="#596c76"/></g></g></g><g><g><path d="m209.75 492.5h-14c-1.657 0-3-1.343-3-3v-14c0-1.657 1.343-3 3-3h14c1.657 0 3 1.343 3 3v14c0 1.657-1.343 3-3 3z" fill="#e8edf2"/></g><g><path d="m245.25 492.5h-14c-1.657 0-3-1.343-3-3v-14c0-1.657 1.343-3 3-3h14c1.657 0 3 1.343 3 3v14c0 1.657-1.343 3-3 3z" fill="#e8edf2"/></g><g><path d="m280.75 492.5h-14c-1.657 0-3-1.343-3-3v-14c0-1.657 1.343-3 3-3h14c1.657 0 3 1.343 3 3v14c0 1.657-1.343 3-3 3z" fill="#e8edf2"/></g><g><path d="m316.25 492.5h-14c-1.657 0-3-1.343-3-3v-14c0-1.657 1.343-3 3-3h14c1.657 0 3 1.343 3 3v14c0 1.657-1.343 3-3 3z" fill="#e8edf2"/></g></g><path d="m148 264.063c0-9.831 6.108-18.229 14.734-21.623-2.633-1.036-5.499-1.611-8.5-1.611-12.832 0-23.234 10.402-23.234 23.234s10.402 23.234 23.234 23.234c3.001 0 5.867-.575 8.5-1.611-8.626-3.394-14.734-11.792-14.734-21.623z" fill="#7a8c98"/><path d="m148 333.766c0-9.831 6.108-18.229 14.734-21.623-2.633-1.036-5.499-1.611-8.5-1.611-12.832 0-23.234 10.402-23.234 23.234s10.402 23.234 23.234 23.234c3.001 0 5.867-.575 8.5-1.611-8.626-3.394-14.734-11.793-14.734-21.623z" fill="#7a8c98"/><path d="m351.532 333.766c0-9.831 6.108-18.229 14.734-21.623-2.633-1.036-5.499-1.611-8.5-1.611-12.832 0-23.234 10.402-23.234 23.234s10.402 23.234 23.234 23.234c3.001 0 5.867-.575 8.5-1.611-8.626-3.394-14.734-11.793-14.734-21.623z" fill="#7a8c98"/><g fill="#d9e7ec"><path d="m351.532 264.063c0-9.831 6.108-18.229 14.734-21.623-2.633-1.036-5.499-1.611-8.5-1.611-12.832 0-23.234 10.402-23.234 23.234s10.402 23.234 23.234 23.234c3.001 0 5.867-.575 8.5-1.611-8.626-3.394-14.734-11.792-14.734-21.623z"/><path d="m215.844 264.063c0-9.831 6.108-18.229 14.734-21.623-2.633-1.036-5.499-1.611-8.5-1.611-12.832 0-23.234 10.402-23.234 23.234s10.402 23.234 23.234 23.234c3.001 0 5.867-.575 8.5-1.611-8.626-3.394-14.734-11.792-14.734-21.623z"/><path d="m215.844 194.361c0-9.831 6.108-18.229 14.734-21.623-2.633-1.036-5.499-1.611-8.5-1.611-12.832 0-23.234 10.402-23.234 23.234s10.402 23.234 23.234 23.234c3.001 0 5.867-.575 8.5-1.611-8.626-3.394-14.734-11.793-14.734-21.623z"/><path d="m283.688 333.766c0-9.831 6.108-18.229 14.734-21.623-2.633-1.036-5.499-1.611-8.5-1.611-12.832 0-23.234 10.402-23.234 23.234s10.402 23.234 23.234 23.234c3.001 0 5.867-.575 8.5-1.611-8.626-3.394-14.734-11.793-14.734-21.623z"/><path d="m215.844 333.766c0-9.831 6.108-18.229 14.734-21.623-2.633-1.036-5.499-1.611-8.5-1.611-12.832 0-23.234 10.402-23.234 23.234s10.402 23.234 23.234 23.234c3.001 0 5.867-.575 8.5-1.611-8.626-3.394-14.734-11.793-14.734-21.623z"/></g></g></svg>