<svg id="Capa_1" enable-background="new 0 0 512 512" height="512" viewBox="0 0 512 512" width="512" xmlns="http://www.w3.org/2000/svg"><g><path d="m256 22c-135.31 0-245 109.69-245 245 0 90.891 49.494 170.221 123 212.511l1-.579v-37.932h117.912l3.088-1 3.088 1h117.912v37.932l1 .579c73.506-42.29 123-121.62 123-212.511 0-135.31-109.69-245-245-245z" fill="#c8effe"/><g><path d="m256 82c-102.173 0-185 82.827-185 185h370c0-102.173-82.827-185-185-185z" fill="#99e6fc"/></g><path d="m134 440v39.511c35.92 20.666 77.575 32.487 121.99 32.489h.019c44.415-.002 86.07-11.823 121.99-32.489v-39.511z" fill="#01c0fa"/><path d="m134 440v39.511c12.663 7.285 26.042 13.466 40 18.423v-57.934z" fill="#08a9f1"/><path d="m389.154 213.499c-6.647-20.677-25.882-34.698-47.601-34.698h-64.053v7.699c0 11.855-9.645 21.5-21.5 21.5s-21.5-9.645-21.5-21.5v-7.699h-64.053c-21.719 0-40.954 14.021-47.601 34.698l-17.2 53.501h300.707z" fill="#01c0fa"/><path d="m145.646 267 17.199-53.501c6.647-20.677 25.882-34.698 47.601-34.698h-40c-21.719 0-40.954 14.021-47.601 34.698l-17.199 53.501z" fill="#08a9f1"/><path d="m289.465 36.465v17.693c13.316.375 24.035 11.315 24.035 24.72v3.001h8.441c2.98 0 5.786.741 8.262 2.03v-37.806c0-20.812-16.871-37.683-37.683-37.683h-16.85c8.383 6.493 13.795 16.646 13.795 28.045z" fill="#596c76"/><path d="m190.059 81.879h8.441v-3.001c0-13.641 11.097-24.738 24.738-24.738h65.524c.573 0 1.14.027 1.703.065v-17.74c0-20.139-16.326-36.465-36.465-36.465h-62.204c-5.523 0-10 4.477-10 10v73.909c2.477-1.289 5.283-2.03 8.263-2.03z" fill="#7a8c98"/><g><path d="m215.332 10c0-5.523 4.477-10 10-10h-33.535c-5.523 0-10 4.477-10 10v73.909c2.476-1.29 5.282-2.031 8.262-2.031h8.441v-3.001c0-10.876 7.058-20.128 16.832-23.435z" fill="#596c76"/></g><path d="m277.5 178.801v7.699c0 11.855-9.645 21.5-21.5 21.5s-21.5-9.645-21.5-21.5v-7.699h-26v7.699c0 26.191 21.309 47.5 47.5 47.5s47.5-21.309 47.5-47.5v-7.699z" fill="#01d0fb"/><path d="m273.361 169.14h-34.723c-1.742 0-3.454-.124-5.138-.34v17.7c0 12.426 10.074 22.5 22.5 22.5s22.5-10.074 22.5-22.5v-17.701c-1.684.217-3.397.341-5.139.341z" fill="#ffbd86"/><path d="m250 186.5v-17.36h-11.362c-1.742 0-3.454-.124-5.138-.34v17.7c0 12.426 10.074 22.5 22.5 22.5 2.914 0 5.695-.56 8.25-1.568-8.343-3.291-14.25-11.419-14.25-20.932z" fill="#f6a96c"/><g><path d="m198.5 80.879h-8.441c-10.47 0-18.958 8.488-18.958 18.958v6.205c0 10.47 8.488 18.958 18.958 18.958h8.441z" fill="#f6a96c"/><path d="m321.941 80.879h-8.441v44.121h8.441c10.47 0 18.958-8.488 18.958-18.958v-6.205c0-10.47-8.487-18.958-18.958-18.958z" fill="#ffbd86"/></g><g><path d="m273.362 170.14h-34.724c-22.72 0-41.138-18.418-41.138-41.138v-50.124c0-14.215 11.523-25.738 25.738-25.738h65.524c14.215 0 25.738 11.523 25.738 25.738v50.124c0 22.719-18.418 41.138-41.138 41.138z" fill="#fed2a4"/></g><g><path d="m222 129.001v-50.123c0-14.215 11.523-25.738 25.738-25.738h-24.5c-14.215 0-25.738 11.523-25.738 25.738v50.124c0 22.72 18.418 41.138 41.138 41.138h24.5c-22.72 0-41.138-18.419-41.138-41.139z" fill="#ffbd86"/></g><g><g><path d="m224.815 103.775c-4.142 0-7.5-3.358-7.5-7.5v-9.359c0-4.142 3.358-7.5 7.5-7.5s7.5 3.358 7.5 7.5v9.359c0 4.142-3.358 7.5-7.5 7.5z" fill="#ea9b58"/></g><g><path d="m287.184 103.775c-4.143 0-7.5-3.358-7.5-7.5v-9.359c0-4.142 3.357-7.5 7.5-7.5s7.5 3.358 7.5 7.5v9.359c0 4.142-3.358 7.5-7.5 7.5z" fill="#ea9b58"/></g></g><g><path d="m255.993 122.384c-1.357 0-2.731-.368-3.967-1.141l-10.847-6.779c-3.496-2.184-4.573-6.78-2.413-10.291l10.847-17.626c2.17-3.527 6.791-4.628 10.318-2.457 3.527 2.17 4.628 6.79 2.457 10.318l-6.943 11.283 4.53 2.832c3.513 2.195 4.581 6.822 2.386 10.334-1.424 2.277-3.868 3.527-6.368 3.527z" fill="#ea9b58"/></g><g><path d="m256 160c-14.202 0-25.714-11.513-25.714-25.714 0-3.471 2.814-6.286 6.286-6.286h38.857c3.472 0 6.286 2.814 6.286 6.286-.001 14.201-11.513 25.714-25.715 25.714z" fill="#fea3c6"/></g><g><path d="m247 134.286c0-3.472 2.814-6.286 6.286-6.286h-16.714c-3.471 0-6.286 2.814-6.286 6.286 0 14.201 11.512 25.714 25.714 25.714 2.927 0 5.736-.496 8.357-1.396-10.097-3.47-17.357-13.043-17.357-24.318z" fill="#fe93bb"/></g><g><path d="m474 441h-436c-5.523 0-10-4.477-10-10v-155c0-5.523 4.477-10 10-10h436c5.523 0 10 4.477 10 10v155c0 5.523-4.477 10-10 10z" fill="#fedf30"/></g><g><path d="m43 421v-135c0-2.761 2.239-5 5-5h416c2.761 0 5 2.239 5 5v135c0 2.761-2.239 5-5 5h-416c-2.761 0-5-2.239-5-5z" fill="#fed402"/></g><path d="m80 421v-135c0-2.761 2.239-5 5-5h-37c-2.761 0-5 2.239-5 5v135c0 2.761 2.239 5 5 5h37c-2.761 0-5-2.239-5-5z" fill="#fac600"/><g><g fill="#e8b800"><g><path d="m129.073 373.5h8.391c2.441 0 4.427-1.986 4.427-4.427v-31.146c0-2.441-1.986-4.427-4.427-4.427h-8.391c2.441 0 4.427 1.986 4.427 4.427v31.146c0 2.441-1.986 4.427-4.427 4.427z"/><path d="m108.037 369.073v-31.146c0-10.712 8.715-19.427 19.427-19.427h-8.391c-10.712 0-19.427 8.715-19.427 19.427v31.146c0 10.712 8.715 19.427 19.427 19.427h8.391c-10.713 0-19.427-8.715-19.427-19.427z"/></g><g><path d="m164.037 369.073v-31.146c0-10.712 8.715-19.427 19.427-19.427h-8.391c-10.712 0-19.427 8.715-19.427 19.427v31.146c0 10.712 8.715 19.427 19.427 19.427h8.391c-10.713 0-19.427-8.715-19.427-19.427z"/><path d="m185.073 373.5h8.391c2.441 0 4.427-1.986 4.427-4.427v-31.146c0-2.441-1.986-4.427-4.427-4.427h-8.391c2.441 0 4.427 1.986 4.427 4.427v31.146c0 2.441-1.986 4.427-4.427 4.427z"/></g><g><path d="m241.073 373.5h8.391c2.441 0 4.427-1.986 4.427-4.427v-31.146c0-2.441-1.986-4.427-4.427-4.427h-8.391c2.441 0 4.427 1.986 4.427 4.427v31.146c0 2.441-1.986 4.427-4.427 4.427z"/><path d="m220.037 369.073v-31.146c0-10.712 8.715-19.427 19.427-19.427h-8.391c-10.712 0-19.427 8.715-19.427 19.427v31.146c0 10.712 8.715 19.427 19.427 19.427h8.391c-10.713 0-19.427-8.715-19.427-19.427z"/></g><g><path d="m313.573 373.5h8.391c2.441 0 4.427-1.986 4.427-4.427v-31.146c0-2.441-1.985-4.427-4.427-4.427h-8.391c2.441 0 4.427 1.986 4.427 4.427v31.146c0 2.441-1.985 4.427-4.427 4.427z"/><path d="m292.536 369.073v-31.146c0-10.712 8.715-19.427 19.428-19.427h-8.391c-10.713 0-19.428 8.715-19.428 19.427v31.146c0 10.712 8.715 19.427 19.428 19.427h8.391c-10.713 0-19.428-8.715-19.428-19.427z"/></g><g><path d="m369.573 373.5h8.391c2.441 0 4.427-1.986 4.427-4.427v-31.146c0-2.441-1.985-4.427-4.427-4.427h-8.391c2.441 0 4.427 1.986 4.427 4.427v31.146c0 2.441-1.985 4.427-4.427 4.427z"/><path d="m348.536 369.073v-31.146c0-10.712 8.715-19.427 19.428-19.427h-8.391c-10.713 0-19.428 8.715-19.428 19.427v31.146c0 10.712 8.715 19.427 19.428 19.427h8.391c-10.713 0-19.428-8.715-19.428-19.427z"/></g><g><path d="m425.573 373.5h8.391c2.441 0 4.427-1.986 4.427-4.427v-31.146c0-2.441-1.985-4.427-4.427-4.427h-8.391c2.441 0 4.427 1.986 4.427 4.427v31.146c0 2.441-1.985 4.427-4.427 4.427z"/><path d="m404.536 369.073v-31.146c0-10.712 8.715-19.427 19.428-19.427h-8.391c-10.713 0-19.428 8.715-19.428 19.427v31.146c0 10.712 8.715 19.427 19.428 19.427h8.391c-10.713 0-19.428-8.715-19.428-19.427z"/></g><g><path d="m58.609 330.5v-9c0-1.657 1.343-3 3-3h-8.391c-1.657 0-3 1.343-3 3v9c0 1.657 1.343 3 3 3h8.391c-1.657 0-3-1.343-3-3z"/><path d="m70.537 385.5v-52h-8.391v52c0 1.657 1.343 3 3 3h8.391c-1.657 0-3-1.343-3-3z"/></g></g><g><g><g><path d="m137.463 388.5h-10c-10.712 0-19.427-8.715-19.427-19.427v-31.146c0-10.712 8.715-19.427 19.427-19.427h10c10.712 0 19.427 8.715 19.427 19.427v31.146c.001 10.712-8.714 19.427-19.427 19.427zm-10-55c-2.441 0-4.427 1.986-4.427 4.427v31.146c0 2.441 1.986 4.427 4.427 4.427h10c2.441 0 4.427-1.986 4.427-4.427v-31.146c0-2.441-1.986-4.427-4.427-4.427z" fill="#8379c1"/></g><g><path d="m193.463 388.5h-10c-10.712 0-19.427-8.715-19.427-19.427v-31.146c0-10.712 8.715-19.427 19.427-19.427h10c10.712 0 19.427 8.715 19.427 19.427v31.146c.001 10.712-8.714 19.427-19.427 19.427zm-10-55c-2.441 0-4.427 1.986-4.427 4.427v31.146c0 2.441 1.986 4.427 4.427 4.427h10c2.441 0 4.427-1.986 4.427-4.427v-31.146c0-2.441-1.986-4.427-4.427-4.427z" fill="#8379c1"/></g><g><path d="m249.463 388.5h-10c-10.712 0-19.427-8.715-19.427-19.427v-31.146c0-10.712 8.715-19.427 19.427-19.427h10c10.712 0 19.427 8.715 19.427 19.427v31.146c.001 10.712-8.714 19.427-19.427 19.427zm-10-55c-2.441 0-4.427 1.986-4.427 4.427v31.146c0 2.441 1.986 4.427 4.427 4.427h10c2.441 0 4.427-1.986 4.427-4.427v-31.146c0-2.441-1.986-4.427-4.427-4.427z" fill="#8379c1"/></g><g><path d="m321.964 388.5h-10c-10.713 0-19.428-8.715-19.428-19.427v-31.146c0-10.712 8.715-19.427 19.428-19.427h10c10.712 0 19.427 8.715 19.427 19.427v31.146c0 10.712-8.715 19.427-19.427 19.427zm-10-55c-2.441 0-4.428 1.986-4.428 4.427v31.146c0 2.441 1.986 4.427 4.428 4.427h10c2.441 0 4.427-1.986 4.427-4.427v-31.146c0-2.441-1.985-4.427-4.427-4.427z" fill="#8379c1"/></g><g><path d="m377.964 388.5h-10c-10.713 0-19.428-8.715-19.428-19.427v-31.146c0-10.712 8.715-19.427 19.428-19.427h10c10.712 0 19.427 8.715 19.427 19.427v31.146c0 10.712-8.715 19.427-19.427 19.427zm-10-55c-2.441 0-4.428 1.986-4.428 4.427v31.146c0 2.441 1.986 4.427 4.428 4.427h10c2.441 0 4.427-1.986 4.427-4.427v-31.146c0-2.441-1.985-4.427-4.427-4.427z" fill="#8379c1"/></g><g><path d="m433.964 388.5h-10c-10.713 0-19.428-8.715-19.428-19.427v-31.146c0-10.712 8.715-19.427 19.428-19.427h10c10.712 0 19.427 8.715 19.427 19.427v31.146c0 10.712-8.715 19.427-19.427 19.427zm-10-55c-2.441 0-4.428 1.986-4.428 4.427v31.146c0 2.441 1.986 4.427 4.428 4.427h10c2.441 0 4.427-1.986 4.427-4.427v-31.146c0-2.441-1.985-4.427-4.427-4.427z" fill="#8379c1"/></g><g><g><path d="m82.537 388.5h-9c-1.657 0-3-1.343-3-3v-52h-8.927c-1.657 0-3-1.343-3-3v-9c0-1.657 1.343-3 3-3h11.427c6.904 0 12.5 5.596 12.5 12.5v54.5c0 1.657-1.344 3-3 3z" fill="#8379c1"/></g></g></g></g><path d="m90 381.5c0-3.448 2.33-6.346 5.5-7.222-.638-.176-1.306-.278-2-.278-4.142 0-7.5 3.358-7.5 7.5s3.358 7.5 7.5 7.5c.694 0 1.362-.102 2-.278-3.17-.876-5.5-3.774-5.5-7.222z" fill="#e8b800"/><path d="m273 381.5c0-3.448 2.33-6.346 5.5-7.222-.638-.176-1.306-.278-2-.278-4.142 0-7.5 3.358-7.5 7.5s3.358 7.5 7.5 7.5c.694 0 1.362-.102 2-.278-3.17-.876-5.5-3.774-5.5-7.222z" fill="#e8b800"/><g><circle cx="280.5" cy="381.5" fill="#8379c1" r="7.5"/></g></g><g><g><g><path d="m121.515 252.146h-44.666c-6.142 0-11.167 5.025-11.167 11.167v21.093c0 6.142 5.025 11.167 11.167 11.167 2.857 0 5.464-1.097 7.444-2.878 1.98 1.782 4.587 2.878 7.444 2.878s5.464-1.097 7.444-2.878c1.98 1.782 4.587 2.878 7.444 2.878s5.464-1.097 7.444-2.878c1.98 1.782 4.587 2.878 7.444 2.878 6.142 0 11.167-5.025 11.167-11.167v-21.093c.002-6.142-5.023-11.167-11.165-11.167z" fill="#ffbd86"/></g><g><path d="m130.753 282.086c-1.98 1.782-4.587 2.878-7.444 2.878s-5.464-1.097-7.444-2.878c-1.98 1.782-4.587 2.878-7.444 2.878s-5.464-1.097-7.444-2.878c-1.98 1.782-4.587 2.878-7.444 2.878-6.142 0-11.167-5.025-11.167-11.167v-21.093c0-.189.019-.373.028-.559h-5.544c-6.142 0-11.167 5.025-11.167 11.167v21.093c0 6.142 5.025 11.167 11.167 11.167 2.857 0 5.464-1.097 7.444-2.878 1.98 1.782 4.587 2.878 7.444 2.878s5.464-1.097 7.444-2.878c1.98 1.782 4.587 2.878 7.444 2.878s5.464-1.097 7.444-2.878c1.98 1.782 4.587 2.878 7.444 2.878 6.142 0 11.167-5.025 11.167-11.167v-.931c-.689-.398-1.339-.858-1.928-1.388z" fill="#f6a96c"/></g></g><g><g><path d="m435.151 252.146h-44.667c-6.142 0-11.167 5.025-11.167 11.167v21.093c0 6.142 5.025 11.167 11.167 11.167 2.857 0 5.464-1.097 7.444-2.878 1.98 1.782 4.587 2.878 7.444 2.878s5.464-1.097 7.444-2.878c1.98 1.782 4.587 2.878 7.444 2.878s5.464-1.097 7.444-2.878c1.98 1.782 4.587 2.878 7.444 2.878 6.142 0 11.167-5.025 11.167-11.167v-21.093c.003-6.142-5.022-11.167-11.164-11.167z" fill="#ffbd86"/></g><g><path d="m444.389 282.086c-1.98 1.782-4.587 2.878-7.444 2.878s-5.464-1.097-7.444-2.878c-1.98 1.782-4.587 2.878-7.444 2.878s-5.464-1.097-7.444-2.878c-1.98 1.782-4.587 2.878-7.444 2.878-6.142 0-11.167-5.025-11.167-11.167v-21.093c0-.189.019-.373.028-.559h-5.544c-6.142 0-11.167 5.025-11.167 11.167v21.093c0 6.142 5.025 11.167 11.167 11.167 2.857 0 5.464-1.097 7.444-2.878 1.98 1.782 4.587 2.878 7.444 2.878s5.464-1.097 7.444-2.878c1.98 1.782 4.587 2.878 7.444 2.878s5.464-1.097 7.444-2.878c1.98 1.782 4.587 2.878 7.444 2.878 6.142 0 11.167-5.025 11.167-11.167v-.931c-.689-.398-1.339-.858-1.928-1.388z" fill="#f6a96c"/></g></g></g><g><path d="m98.962 194.04-23.161 23.161c-1.066 1.066-2.794 1.066-3.86 0l-14.154-14.154c-1.066-1.066-1.066-2.794 0-3.86l23.161-23.161c1.066-1.066 2.794-1.066 3.86 0l14.154 14.154c1.066 1.065 1.066 2.794 0 3.86z" fill="#05e39c"/></g><path d="m72.026 202.047c-1.066-1.066-1.066-2.794 0-3.86l17.472-17.472-4.689-4.689c-1.066-1.066-2.794-1.066-3.86 0l-23.161 23.161c-1.066 1.066-1.066 2.794 0 3.86l14.154 14.154c1.066 1.066 2.794 1.066 3.86 0l5.689-5.689z" fill="#0ed290"/><g><path d="m126.186 78.201-23.16-23.161c-1.066-1.066-1.066-2.794 0-3.86l14.154-14.154c1.066-1.066 2.794-1.066 3.86 0l23.16 23.161c1.066 1.066 1.066 2.794 0 3.86l-14.154 14.154c-1.065 1.065-2.794 1.065-3.86 0z" fill="#fe76a8"/></g><path d="m116.799 55.04c-1.066-1.066-1.066-2.794 0-3.86l9.197-9.197-4.957-4.957c-1.066-1.066-2.794-1.066-3.86 0l-14.153 14.154c-1.066 1.066-1.066 2.794 0 3.86l23.161 23.161c1.066 1.066 2.794 1.066 3.86 0l4.957-4.957z" fill="#fe5694"/><g><path d="m390.2 121.04-23.161 23.161c-1.066 1.066-2.794 1.066-3.86 0l-14.154-14.154c-1.066-1.066-1.066-2.794 0-3.86l23.161-23.161c1.066-1.066 2.794-1.066 3.86 0l14.154 14.154c1.066 1.065 1.066 2.794 0 3.86z" fill="#fe76a8"/></g><path d="m362.799 130.047c-1.066-1.066-1.066-2.794 0-3.86l18.204-18.204-4.957-4.957c-1.066-1.066-2.794-1.066-3.86 0l-23.161 23.161c-1.066 1.066-1.066 2.794 0 3.86l14.154 14.154c1.066 1.066 2.794 1.066 3.86 0l4.957-4.957z" fill="#fe5694"/><g><path d="m82.2 113.813-23.16 23.161c-1.066 1.066-2.794 1.066-3.86 0l-14.154-14.154c-1.066-1.066-1.066-2.794 0-3.86l23.161-23.161c1.066-1.066 2.794-1.066 3.86 0l14.153 14.154c1.066 1.066 1.066 2.795 0 3.86z" fill="#fed402"/></g><path d="m54.799 122.82c-1.066-1.066-1.066-2.794 0-3.86l18.204-18.204-4.957-4.957c-1.066-1.066-2.794-1.066-3.86 0l-23.16 23.161c-1.066 1.066-1.066 2.794 0 3.86l14.154 14.154c1.066 1.066 2.794 1.066 3.86 0l4.957-4.957z" fill="#fac600"/><g><path d="m157.643 125.815-31.95-18.447c-1.82-1.051-4.094.263-4.094 2.364v36.893c0 2.101 2.275 3.414 4.094 2.364l31.95-18.447c1.819-1.05 1.819-3.676 0-4.727z" fill="#01d0fb"/></g><path d="m134.59 112.506-8.898-5.137c-1.82-1.051-4.094.263-4.094 2.364v36.893c0 2.101 2.275 3.414 4.094 2.364l8.898-5.137z" fill="#01c0fa"/><g><path d="m408.654 193.144-31.95-18.447c-1.82-1.051-4.094.263-4.094 2.364v36.893c0 2.101 2.275 3.414 4.094 2.364l31.95-18.447c1.82-1.05 1.82-3.677 0-4.727z" fill="#fed402"/></g><path d="m385 179.487-8.296-4.79c-1.82-1.051-4.094.263-4.094 2.364v36.893c0 2.101 2.275 3.414 4.094 2.364l8.296-4.79z" fill="#fac600"/><g><path d="m475.184 195.045 18.447-31.95c1.051-1.82-.263-4.094-2.364-4.094h-36.893c-2.101 0-3.414 2.275-2.364 4.094l18.447 31.95c1.05 1.819 3.676 1.819 4.727 0z" fill="#05e39c"/></g><path d="m466.37 163.094c-1.051-1.82.263-4.094 2.364-4.094h-14.36c-2.101 0-3.415 2.275-2.364 4.094l18.447 31.95c1.051 1.82 3.677 1.82 4.728 0l4.816-8.342z" fill="#0ed290"/><g><path d="m453.045 91.456-31.95-18.447c-1.82-1.051-4.094.263-4.094 2.364v36.893c0 2.101 2.275 3.414 4.094 2.364l31.95-18.447c1.819-1.05 1.819-3.676 0-4.727z" fill="#01d0fb"/></g><path d="m430 78.151-8.906-5.142c-1.82-1.051-4.094.263-4.094 2.364v36.893c0 2.101 2.275 3.414 4.094 2.364l8.906-5.142z" fill="#01c0fa"/><g><circle cx="97.5" cy="381.5" fill="#8379c1" r="7.5"/></g></g></svg>