<?xml version="1.0" encoding="UTF-8" standalone="no"?>
<!-- Created with Inkscape (http://www.inkscape.org/) -->

<svg
   version="1.1"
   id="svg273"
   xml:space="preserve"
   width="682.66669"
   height="682.66669"
   viewBox="0 0 682.66669 682.66669"
   xmlns="http://www.w3.org/2000/svg"
   xmlns:svg="http://www.w3.org/2000/svg"><defs
     id="defs277"><clipPath
       clipPathUnits="userSpaceOnUse"
       id="clipPath287"><path
         d="M 0,512 H 512 V 0 H 0 Z"
         id="path285" /></clipPath></defs><g
     id="g279"
     transform="matrix(1.3333333,0,0,-1.3333333,0,682.66667)"><g
       id="g281"><g
         id="g283"
         clip-path="url(#clipPath287)"><g
           id="g289"
           transform="translate(7.5,319.7505)"><path
             d="m 0,0 v -127.501 c 0,-8.25 6.751,-14.999 15,-14.999 h 467 c 8.249,0 15,6.75 15,14.999 V 0 c 0,8.249 -6.75,15 -15,15 H 15 C 6.75,15 0,8.25 0,0"
             style="fill:#fff08b;fill-opacity:1;fill-rule:evenodd;stroke:none"
             id="path291" /></g><g
           id="g293"
           transform="translate(321.5356,382.2495)"><path
             d="M 0,0 C 0,9.665 7.835,17.5 17.5,17.5 27.165,17.5 35,9.665 35,0 35,-9.665 27.165,-17.5 17.5,-17.5 7.835,-17.5 0,-9.665 0,0 m -148.571,-17.5 c -9.665,0 -17.5,7.835 -17.5,17.5 0,9.665 7.835,17.5 17.5,17.5 9.665,0 17.499,-7.835 17.499,-17.5 0,-9.665 -7.834,-17.5 -17.499,-17.5 M 0,-252.499 c 0,-9.665 7.835,-17.5 17.5,-17.5 9.665,0 17.5,7.835 17.5,17.5 C 35,-242.834 27.165,-235 17.5,-235 7.835,-235 0,-242.834 0,-252.499 M -148.571,-235 c -9.665,0 -17.5,-7.834 -17.5,-17.499 0,-9.665 7.835,-17.5 17.5,-17.5 9.665,0 17.499,7.835 17.499,17.5 0,9.665 -7.834,17.499 -17.499,17.499 m -123.616,30 h 413.303 v -40.56 l -55.372,-31.969 -31.97,-55.372 h -63.938 l -55.372,-31.969 -55.372,31.969 h -63.938 l -31.969,55.372 -55.372,31.969 z m 206.651,-30 c -12.426,0 -22.5,-10.073 -22.5,-22.5 0,-12.425 10.074,-22.5 22.5,-22.5 12.427,0 22.5,10.075 22.5,22.5 0,12.427 -10.073,22.5 -22.5,22.5 m -22.5,240 c 0,12.426 10.074,22.5 22.5,22.5 12.427,0 22.5,-10.074 22.5,-22.5 0,-12.426 -10.073,-22.5 -22.5,-22.5 -12.426,0 -22.5,10.074 -22.5,22.5 M -272.187,-47.5 H 141.116 V -6.939 L 85.744,25.03 53.774,80.402 h -63.938 l -55.372,31.969 -55.372,-31.969 h -63.938 L -216.815,25.03 -272.187,-6.939 Z"
             style="fill:#5b92f2;fill-opacity:1;fill-rule:evenodd;stroke:none"
             id="path295" /></g><path
           d="m 49.349,177.25 h 413.303 v -22.5 H 49.349 Z m 0,157.5 h 413.303 v 22.5 H 49.349 Z"
           style="fill:#006dee;fill-opacity:1;fill-rule:evenodd;stroke:none"
           id="path297" /><g
           id="g299"
           transform="translate(321.5356,382.2495)"><path
             d="M 0,0 C 0,-9.665 7.835,-17.5 17.5,-17.5 27.165,-17.5 35,-9.665 35,0 35,9.665 27.165,17.5 17.5,17.5 7.835,17.5 0,9.665 0,0 m 0,-252.499 c 0,9.665 7.835,17.499 17.5,17.499 9.665,0 17.5,-7.834 17.5,-17.499 0,-9.665 -7.835,-17.5 -17.5,-17.5 -9.665,0 -17.5,7.835 -17.5,17.5 M -148.571,-235 c 9.665,0 17.499,-7.834 17.499,-17.499 0,-9.665 -7.834,-17.5 -17.499,-17.5 -9.665,0 -17.5,7.835 -17.5,17.5 0,9.665 7.835,17.499 17.5,17.499 m 83.035,0 c -12.426,0 -22.5,-10.073 -22.5,-22.5 0,-12.425 10.074,-22.5 22.5,-22.5 12.427,0 22.5,10.075 22.5,22.5 0,12.427 -10.073,22.5 -22.5,22.5 m -22.5,240 c 0,-12.426 10.074,-22.5 22.5,-22.5 12.427,0 22.5,10.074 22.5,22.5 0,12.426 -10.073,22.5 -22.5,22.5 -12.426,0 -22.5,-10.074 -22.5,-22.5 m -60.535,-22.5 c 9.665,0 17.499,7.835 17.499,17.5 0,9.665 -7.834,17.5 -17.499,17.5 -9.665,0 -17.5,-7.835 -17.5,-17.5 0,-9.665 7.835,-17.5 17.5,-17.5"
             style="fill:#fff08b;fill-opacity:1;fill-rule:evenodd;stroke:none"
             id="path301" /></g><g
           id="g303"
           transform="translate(7.5,319.7505)"><path
             d="m 0,0 v -127.501 c 0,-8.25 6.751,-14.999 15,-14.999 h 22.5 c -8.249,0 -15,6.749 -15,14.999 V 0 c 0,8.25 6.75,15 15,15 H 15 C 6.75,15 0,8.25 0,0"
             style="fill:#ffe400;fill-opacity:1;fill-rule:evenodd;stroke:none"
             id="path305" /></g><g
           id="g307"
           transform="translate(151.6895,432.6519)"><path
             d="M 0,0 H 15 M 0,-353.304 h 15 m 178.621,0 h 15 M 193.621,0 h 15"
             style="fill:none;stroke:#ffffff;stroke-width:15;stroke-linecap:butt;stroke-linejoin:miter;stroke-miterlimit:2.613;stroke-dasharray:none;stroke-opacity:1"
             id="path309" /></g><g
           id="g311"
           transform="translate(56.6519,285.2959)"><path
             d="M 0,0 V -58.567 H 20.526"
             style="fill:none;stroke:#000000;stroke-width:15;stroke-linecap:square;stroke-linejoin:miter;stroke-miterlimit:3;stroke-dasharray:none;stroke-opacity:1"
             id="path313" /></g><g
           id="g315"
           transform="translate(330.6196,285.2959)"><path
             d="M 0,0 H -24.473 V -58.082 H 0"
             style="fill:none;stroke:#000000;stroke-width:15;stroke-linecap:square;stroke-linejoin:miter;stroke-miterlimit:10;stroke-dasharray:none;stroke-opacity:1"
             id="path317" /></g><g
           id="g319"
           transform="translate(328.8149,256.2549)"><path
             d="M 0,0 H -22.668"
             style="fill:none;stroke:#000000;stroke-width:15;stroke-linecap:square;stroke-linejoin:miter;stroke-miterlimit:10;stroke-dasharray:none;stroke-opacity:1"
             id="path321" /></g><g
           id="g323"
           transform="translate(418.0552,285.2959)"><path
             d="m 0,0 18.723,-28.674 18.57,28.525"
             style="fill:none;stroke:#000000;stroke-width:15;stroke-linecap:square;stroke-linejoin:round;stroke-miterlimit:10;stroke-dasharray:none;stroke-opacity:1"
             id="path325" /></g><g
           id="g327"
           transform="translate(436.7051,226.6792)"><path
             d="M 0,0 0.073,29.942"
             style="fill:none;stroke:#000000;stroke-width:15;stroke-linecap:square;stroke-linejoin:round;stroke-miterlimit:10;stroke-dasharray:none;stroke-opacity:1"
             id="path329" /></g><g
           id="g331"
           transform="translate(181.4038,285.2959)"><path
             d="M 0,0 H 32.371"
             style="fill:none;stroke:#000000;stroke-width:15;stroke-linecap:square;stroke-linejoin:round;stroke-miterlimit:10;stroke-dasharray:none;stroke-opacity:1"
             id="path333" /></g><g
           id="g335"
           transform="translate(197.5239,285.2959)"><path
             d="M 0,0 V -58.617"
             style="fill:none;stroke:#000000;stroke-width:15;stroke-linecap:square;stroke-linejoin:round;stroke-miterlimit:10;stroke-dasharray:none;stroke-opacity:1"
             id="path337" /></g><g
           id="g339"
           transform="translate(372.5518,251.3896)"><path
             d="M 0,0 19.749,-24.71"
             style="fill:none;stroke:#000000;stroke-width:15;stroke-linecap:square;stroke-linejoin:round;stroke-miterlimit:10;stroke-dasharray:none;stroke-opacity:1"
             id="path341" /></g><g
           id="g343"
           transform="translate(360.6094,226.6792)"><path
             d="m 0,0 0.009,58.617 h 15.587 c 8.718,0 16.095,-6.821 16.095,-15.234 0,-8.414 -7.377,-15.234 -16.095,-15.234 L 0.127,28.082"
             style="fill:none;stroke:#000000;stroke-width:15;stroke-linecap:square;stroke-linejoin:miter;stroke-miterlimit:10;stroke-dasharray:none;stroke-opacity:1"
             id="path345" /></g><g
           id="g347"
           transform="translate(158.7329,256.0127)"><path
             d="m 0,0 c 0,-16.187 -13.122,-29.309 -29.308,-29.309 -16.187,0 -29.309,13.122 -29.309,29.309 0,16.187 13.122,29.308 29.309,29.308 C -13.122,29.308 0,16.187 0,0 Z"
             style="fill:none;stroke:#000000;stroke-width:15;stroke-linecap:round;stroke-linejoin:bevel;stroke-miterlimit:10;stroke-dasharray:none;stroke-opacity:1"
             id="path349" /></g><g
           id="g351"
           transform="translate(243.7749,285.2959)"><path
             d="M 0,0 H 32.372"
             style="fill:none;stroke:#000000;stroke-width:15;stroke-linecap:square;stroke-linejoin:round;stroke-miterlimit:10;stroke-dasharray:none;stroke-opacity:1"
             id="path353" /></g><g
           id="g355"
           transform="translate(259.8955,285.2959)"><path
             d="M 0,0 V -58.617"
             style="fill:none;stroke:#000000;stroke-width:15;stroke-linecap:square;stroke-linejoin:round;stroke-miterlimit:10;stroke-dasharray:none;stroke-opacity:1"
             id="path357" /></g><g
           id="g359"
           transform="translate(7.5,263.5)"><path
             d="m 0,0 v 56.25 c 0,8.25 6.75,15 15,15 h 467 c 8.25,0 15,-6.751 15,-15 v -127.5 c 0,-8.249 -6.751,-15 -15,-15 H 271 m -45,0 H 15 c -8.249,0 -15,6.75 -15,15 V -15 m 256,-71.25 h -15"
             style="fill:none;stroke:#000000;stroke-width:15;stroke-linecap:butt;stroke-linejoin:miter;stroke-miterlimit:22.926;stroke-dasharray:none;stroke-opacity:1"
             id="path361" /></g><g
           id="g363"
           transform="translate(49.3486,334.75)"><path
             d="m 0,0 v 40.56 l 55.372,31.969 31.969,55.372 h 63.938 l 55.372,31.97 55.372,-31.97 h 63.938 L 357.931,72.529 413.303,40.56 V 0 m 0,-157.5 v -40.56 l -55.372,-31.969 -31.97,-55.372 h -63.938 l -55.372,-31.97 -55.372,31.97 H 87.341 L 55.372,-230.029 0,-198.06 v 40.56"
             style="fill:none;stroke:#000000;stroke-width:15;stroke-linecap:butt;stroke-linejoin:miter;stroke-miterlimit:22.926;stroke-dasharray:none;stroke-opacity:1"
             id="path365" /></g><g
           id="g367"
           transform="translate(172.9644,399.7495)"><path
             d="M 0,0 C 9.665,0 17.5,-7.835 17.5,-17.5 17.5,-27.165 9.665,-35 0,-35 c -9.665,0 -17.5,7.835 -17.5,17.5 C -17.5,-7.835 -9.665,0 0,0 Z m 166.071,0 c -9.664,0 -17.5,-7.835 -17.5,-17.5 0,-9.665 7.836,-17.5 17.5,-17.5 9.665,0 17.5,7.835 17.5,17.5 0,9.665 -7.835,17.5 -17.5,17.5 z"
             style="fill:none;stroke:#000000;stroke-width:15;stroke-linecap:butt;stroke-linejoin:miter;stroke-miterlimit:22.926;stroke-dasharray:none;stroke-opacity:1"
             id="path369" /></g><g
           id="g371"
           transform="translate(172.9644,112.2505)"><path
             d="M 0,0 C 9.665,0 17.5,7.835 17.5,17.5 17.5,27.165 9.665,35 0,35 -9.665,35 -17.5,27.165 -17.5,17.5 -17.5,7.835 -9.665,0 0,0 Z m 166.071,0 c -9.664,0 -17.5,7.835 -17.5,17.5 0,9.665 7.836,17.5 17.5,17.5 9.665,0 17.5,-7.835 17.5,-17.5 0,-9.665 -7.835,-17.5 -17.5,-17.5 z"
             style="fill:none;stroke:#000000;stroke-width:15;stroke-linecap:butt;stroke-linejoin:miter;stroke-miterlimit:22.926;stroke-dasharray:none;stroke-opacity:1"
             id="path373" /></g><g
           id="g375"
           transform="translate(256,409.75)"><path
             d="M 0,0 C 12.426,0 22.5,-10.074 22.5,-22.5 22.5,-34.926 12.426,-45 0,-45 -12.426,-45 -22.5,-34.926 -22.5,-22.5 -22.5,-10.074 -12.426,0 0,0 Z"
             style="fill:none;stroke:#000000;stroke-width:15;stroke-linecap:butt;stroke-linejoin:miter;stroke-miterlimit:22.926;stroke-dasharray:none;stroke-opacity:1"
             id="path377" /></g><g
           id="g379"
           transform="translate(256,147.25)"><path
             d="M 0,0 C 12.426,0 22.5,-10.074 22.5,-22.5 22.5,-34.926 12.426,-45 0,-45 -12.426,-45 -22.5,-34.926 -22.5,-22.5 -22.5,-10.074 -12.426,0 0,0 Z"
             style="fill:none;stroke:#000000;stroke-width:15;stroke-linecap:butt;stroke-linejoin:miter;stroke-miterlimit:22.926;stroke-dasharray:none;stroke-opacity:1"
             id="path381" /></g></g></g></g></svg>
