<svg id="glipy_copy_3" height="512" viewBox="0 0 64 64" width="512" xmlns="http://www.w3.org/2000/svg" xmlns:xlink="http://www.w3.org/1999/xlink" data-name="glipy copy 3"><linearGradient id="linear-gradient" gradientUnits="userSpaceOnUse" x1="3" x2="61" y1="32" y2="32"><stop offset="0" stop-color="#ffde00"/><stop offset="1" stop-color="#fd5900"/></linearGradient><path d="m32 3a29 29 0 1 0 29 29 29.0337 29.0337 0 0 0 -29-29zm7.89 47.88-10.43 6.95a1.01212 1.01212 0 0 1 -1.56-.83v-2.5a18.39 18.39 0 0 1 -12.05-31.32 1.00059 1.00059 0 0 1 1.42 1.41 16.30655 16.30655 0 0 0 -4.39 8.06 16.44244 16.44244 0 0 0 15.02 12.89v-2.45a1.00736 1.00736 0 0 1 1.56-.83l10.43 6.95a1.00914 1.00914 0 0 1 0 1.67zm-17.39-18.88a9.5 9.5 0 0 1 19 0c-.52 12.6-18.48 12.6-19 0zm25.65 8.82a1.00091 1.00091 0 0 1 -1.42-1.41 16.306 16.306 0 0 0 4.39-8.06 16.44251 16.44251 0 0 0 -15.02-12.89v2.45a1.00593 1.00593 0 0 1 -1.56.83l-10.43-6.95a1.00908 1.00908 0 0 1 0-1.67l10.43-6.95a1.009 1.009 0 0 1 1.56.83v2.5c15.66.78 23.22 20.17 12.05 31.32zm3.27-14.48a18.46921 18.46921 0 0 0 -16.32-9.91 1.003 1.003 0 0 0 -1 1v1.61l-7.64-5.08 7.64-5.09v1.61a1.003 1.003 0 0 0 1 1 16.42133 16.42133 0 0 1 16.32 14.86zm-26.92 5.66a7.5 7.5 0 0 0 15 0c-.35-9.92-14.65-9.93-15 0zm7.5-1a2.99507 2.99507 0 0 1 1 5.82v1.19a1.00016 1.00016 0 0 1 -2 0v-1.19a2.99084 2.99084 0 0 1 -2-2.82 1.00032 1.00032 0 0 1 2 0 1 1 0 1 0 1-1 2.99507 2.99507 0 0 1 -1-5.82v-1.19a1.00016 1.00016 0 0 1 2 0v1.19c1.42.26 3.18 3.5 1 3.82a1.003 1.003 0 0 1 -1-1 1.005 1.005 0 1 0 -1 1zm-2.1 13.96 7.64 5.08-7.64 5.09v-1.61a1.003 1.003 0 0 0 -1-1 16.42133 16.42133 0 0 1 -16.32-14.86 18.46915 18.46915 0 0 0 16.32 9.91 1.003 1.003 0 0 0 1-1z" fill="url(#linear-gradient)"/></svg>