<svg id="line_copy" height="512" viewBox="0 0 64 64" width="512" xmlns="http://www.w3.org/2000/svg" xmlns:xlink="http://www.w3.org/1999/xlink" data-name="line copy"><linearGradient id="linear-gradient" gradientUnits="userSpaceOnUse" x1="7.952" x2="56.034" y1="32" y2="32"><stop offset="0" stop-color="#9cffac"/><stop offset="1" stop-color="#00b59c"/></linearGradient><path d="m29.07 42.516a1.00639 1.00639 0 0 0 -1.5546.832v2.88607a18.61082 18.61082 0 0 1 -17.1514-14.62858 18.45084 18.45084 0 0 1 4.97091-9.15036.99984.99984 0 1 0 -1.41887-1.4091 20.56056 20.56056 0 0 0 13.59935 35.01608v2.93636a1.007 1.007 0 0 0 1.5546.83192l11.73957-7.82518a1.007 1.007 0 0 0 0-1.664zm.44529 14.6144v-2.04431a1 1 0 0 0 -1-.99994 18.58634 18.58634 0 0 1 -18.53064-17.46483 20.6438 20.6438 0 0 0 18.53068 11.63948 1 1 0 0 0 1-1v-2.0448l8.937 5.95718zm6.96932-49.19251v-2.93636a1.00709 1.00709 0 0 0 -1.5546-.832l-11.73957 7.82526a.99989.99989 0 0 0 0 1.664l11.73956 7.82521a1.00681 1.00681 0 0 0 1.5546-.832v-2.886a18.61082 18.61082 0 0 1 17.1514 14.62851 18.45084 18.45084 0 0 1 -4.97091 9.15036 1.00006 1.00006 0 0 0 1.41893 1.409c12.52637-12.50231 3.9829-34.24051-13.59941-35.01598zm-.99994 7.80131a1 1 0 0 0 -.99995.99995v2.04485l-8.937-5.95718 8.937-5.95718v2.04427a1 1 0 0 0 .99995.99994 18.58634 18.58634 0 0 1 18.53068 17.46483 20.64381 20.64381 0 0 0 -18.53068-11.63948zm-3.48467 6.11636a10.15623 10.15623 0 0 0 -10.14444 10.14444c.55758 13.45792 19.73337 13.454 20.28888-.00012a10.1562 10.1562 0 0 0 -10.14444-10.14432zm0 18.289a8.15374 8.15374 0 0 1 -8.14456-8.14456c.40934-10.79 15.88143-10.787 16.28912.00006a8.15373 8.15373 0 0 1 -8.14456 8.1445zm0-9.1445a3.23665 3.23665 0 0 1 .99994 6.31794v1.42033a1.00014 1.00014 0 0 1 -1.99988.00006v-1.42039a3.23913 3.23913 0 0 1 -2.246-3.072 1.00013 1.00013 0 0 1 1.99989-.00012 1.246 1.246 0 1 0 1.24605-1.24594 3.23665 3.23665 0 0 1 -.99994-6.31794v-1.42039a.99994.99994 0 0 1 1.99988 0v1.42039a3.23915 3.23915 0 0 1 2.246 3.072.99995.99995 0 1 1 -1.99989 0 1.246 1.246 0 1 0 -1.24605 1.24606z" fill="url(#linear-gradient)"/></svg>