<svg id="Capa_1" enable-background="new 0 0 512 512" height="512" viewBox="0 0 512 512" width="512" xmlns="http://www.w3.org/2000/svg"><g><path d="m287 361v-120l-153.5-10 10 130z" fill="#f37"/><path d="m0 361h143.5v-130l-143.5 10z" fill="#f66"/><path d="m287 151h-143.5l-10 70 153.5-10z" fill="#f37"/><path d="m0 151v60l143.5 10v-70z" fill="#f66"/><path d="m227 271h30v30h-30z" fill="#e6ecf2"/><path d="m287 211h-143.5l-10 15 10 15h143.5z" fill="#522866"/><path d="m197 301v-30h-53.5l-10 15 10 15z" fill="#e6ecf2"/><path d="m0 211h143.5v30h-143.5z" fill="#604080"/><path d="m30 271h113.5v30h-113.5z" fill="#fff5f5"/><path d="m392 211c8.271 0 15 6.729 15 15h30c0-24.813-20.187-45-45-45v-30h-15l-10 45 10 15z" fill="#24b3b3"/><path d="m392 241h-15l-10 15 10 15h15c8.271 0 15 6.729 15 15s-6.729 15-15 15h-15l-10 15 10 45h15v-30c24.813 0 45-20.187 45-45s-20.187-45-45-45z" fill="#24b3b3"/><path d="m362 301c-8.271 0-15-6.729-15-15h-30c0 24.813 20.187 45 45 45v30h15v-60z" fill="#2ee6a8"/><path d="m362 241c-8.271 0-15-6.729-15-15s6.729-15 15-15h15v-60h-15v30c-24.813 0-45 20.187-45 45s20.187 45 45 45h15v-30z" fill="#2ee6a8"/><path d="m437.02 74.98c-48.353-48.351-112.64-74.98-181.02-74.98l-10 15 10 15c60.367 0 117.121 23.508 159.806 66.194 42.686 42.686 66.194 99.439 66.194 159.806s-23.508 117.12-66.194 159.806c-42.685 42.686-99.439 66.194-159.806 66.194l-10 15 10 15c68.38 0 132.667-26.629 181.02-74.98 48.352-48.353 74.98-112.64 74.98-181.02s-26.628-132.667-74.98-181.02z" fill="#8066ff"/><g fill="#8095ff"><path d="m82.359 67.871v-51.871h-30v105h105v-30h-55.826c41.626-39.09 96.367-61 154.467-61v-30c-65.202 0-126.659 24.366-173.641 67.871z"/><path d="m79.094 396.657-23.47 18.687c48.909 61.426 121.943 96.656 200.376 96.656v-30c-69.242 0-133.722-31.106-176.906-85.343z"/></g></g></svg>