<?xml version="1.0" encoding="iso-8859-1"?>
<!-- Generator: Adobe Illustrator 19.0.0, SVG Export Plug-In . SVG Version: 6.00 Build 0)  -->
<svg version="1.1" id="Capa_1" xmlns="http://www.w3.org/2000/svg" xmlns:xlink="http://www.w3.org/1999/xlink" x="0px" y="0px"
	 viewBox="0 0 512 512" style="enable-background:new 0 0 512 512;" xml:space="preserve">
<linearGradient id="SVGID_1_" gradientUnits="userSpaceOnUse" x1="-43.5132" y1="638.7945" x2="-25.893" y2="621.1743" gradientTransform="matrix(21.3333 0 0 -21.3333 996.3334 13791.667)">
	<stop  offset="0" style="stop-color:#369CDC"/>
	<stop  offset="1" style="stop-color:#AA56D0"/>
</linearGradient>
<path style="fill:url(#SVGID_1_);" d="M480,213.333h-89.643L286.549,93.675c7.467-7.701,12.117-18.133,12.117-29.675
	c0-23.509-19.136-42.667-42.667-42.667S213.333,40.491,213.333,64c0,11.541,4.651,21.973,12.117,29.675L121.643,213.333H32
	c-17.643,0-32,14.357-32,32v213.333c0,17.643,14.357,32,32,32h448c17.643,0,32-14.357,32-32V245.333
	C512,227.691,497.643,213.333,480,213.333z M256,42.667c11.755,0,21.333,9.557,21.333,21.333S267.755,85.333,256,85.333
	c-11.755,0-21.333-9.557-21.333-21.333S244.245,42.667,256,42.667z M244.053,104.747c3.819,1.131,7.765,1.92,11.947,1.92
	s8.128-0.789,11.947-1.92l94.165,108.587H149.888L244.053,104.747z M490.667,458.667c0,5.867-4.779,10.667-10.667,10.667H32
	c-5.888,0-10.667-4.8-10.667-10.667V245.333c0-5.867,4.779-10.667,10.667-10.667h448c5.888,0,10.667,4.8,10.667,10.667V458.667z"/>
<linearGradient id="SVGID_2_" gradientUnits="userSpaceOnUse" x1="-40.3073" y1="632.5866" x2="-35.0989" y2="627.3821" gradientTransform="matrix(21.3333 0 0 -21.3333 996.3334 13791.667)">
	<stop  offset="0" style="stop-color:#369CDC"/>
	<stop  offset="1" style="stop-color:#AA56D0"/>
</linearGradient>
<path style="fill:url(#SVGID_2_);" d="M224,298.667c5.888,0,10.667-4.779,10.667-10.667s-4.779-10.667-10.667-10.667h-64
	c-5.888,0-10.667,4.779-10.667,10.667v128c0,5.888,4.779,10.667,10.667,10.667h64c5.888,0,10.667-4.779,10.667-10.667
	c0-5.888-4.779-10.667-10.667-10.667h-53.333v-42.667H224c5.888,0,10.667-4.779,10.667-10.667c0-5.888-4.779-10.667-10.667-10.667
	h-53.333v-42.667H224z"/>
<linearGradient id="SVGID_3_" gradientUnits="userSpaceOnUse" x1="-45.5271" y1="632.3668" x2="-40.3191" y2="627.1617" gradientTransform="matrix(21.3333 0 0 -21.3333 996.3334 13791.667)">
	<stop  offset="0" style="stop-color:#369CDC"/>
	<stop  offset="1" style="stop-color:#AA56D0"/>
</linearGradient>
<path style="fill:url(#SVGID_3_);" d="M128,320c0-23.509-19.136-42.667-42.667-42.667h-32c-5.888,0-10.667,4.779-10.667,10.667v128
	c0,5.888,4.779,10.667,10.667,10.667S64,421.888,64,416v-38.251l45.803,45.781c2.069,2.091,4.8,3.136,7.531,3.136
	s5.461-1.045,7.531-3.115c4.16-4.16,4.16-10.923,0-15.083l-45.781-45.803h6.251C108.864,362.667,128,343.531,128,320z M106.667,320
	c0,11.776-9.579,21.333-21.333,21.333H64v-42.667h21.333C97.088,298.667,106.667,308.224,106.667,320z"/>
<linearGradient id="SVGID_4_" gradientUnits="userSpaceOnUse" x1="-35.3071" y1="632.5868" x2="-30.0992" y2="627.382" gradientTransform="matrix(21.3333 0 0 -21.3333 996.3334 13791.667)">
	<stop  offset="0" style="stop-color:#369CDC"/>
	<stop  offset="1" style="stop-color:#AA56D0"/>
</linearGradient>
<path style="fill:url(#SVGID_4_);" d="M330.667,277.333c-5.888,0-10.667,4.779-10.667,10.667v82.816l-43.797-87.573
	c-2.219-4.416-7.253-6.869-11.989-5.611c-4.8,1.109-8.213,5.44-8.213,10.368v128c0,5.888,4.779,10.667,10.667,10.667
	s10.667-4.779,10.667-10.667v-82.816l43.797,87.573c1.835,3.691,5.568,5.909,9.536,5.909c0.811,0,1.643-0.085,2.453-0.299
	c4.8-1.109,8.213-5.44,8.213-10.368V288C341.333,282.112,336.555,277.333,330.667,277.333z"/>
<linearGradient id="SVGID_5_" gradientUnits="userSpaceOnUse" x1="-29.5552" y1="633.3393" x2="-24.8494" y2="628.6295" gradientTransform="matrix(21.3333 0 0 -21.3333 996.3334 13791.667)">
	<stop  offset="0" style="stop-color:#369CDC"/>
	<stop  offset="1" style="stop-color:#AA56D0"/>
</linearGradient>
<path style="fill:url(#SVGID_5_);" d="M458.667,277.333h-85.333c-5.888,0-10.667,4.779-10.667,10.667s4.779,10.667,10.667,10.667h32
	V416c0,5.888,4.779,10.667,10.667,10.667c5.888,0,10.667-4.779,10.667-10.667V298.667h32c5.888,0,10.667-4.779,10.667-10.667
	S464.555,277.333,458.667,277.333z"/>
<g>
</g>
<g>
</g>
<g>
</g>
<g>
</g>
<g>
</g>
<g>
</g>
<g>
</g>
<g>
</g>
<g>
</g>
<g>
</g>
<g>
</g>
<g>
</g>
<g>
</g>
<g>
</g>
<g>
</g>
</svg>
