<?xml version="1.0" encoding="iso-8859-1"?>
<!-- Generator: Adobe Illustrator 19.0.0, SVG Export Plug-In . SVG Version: 6.00 Build 0)  -->
<svg version="1.1" id="Layer_1" xmlns="http://www.w3.org/2000/svg" xmlns:xlink="http://www.w3.org/1999/xlink" x="0px" y="0px"
	 viewBox="0 0 511.999 511.999" style="enable-background:new 0 0 511.999 511.999;" xml:space="preserve">
<polygon style="fill:#9B9B9B;" points="406.406,192.02 250.996,60.191 271.274,36.286 446.908,185.271 "/>
<polygon style="fill:#C1C1C1;" points="57.435,277.701 18.735,272.273 251.812,36.286 274.115,58.314 "/>
<polygon style="fill:#E43138;" points="463.944,169.839 231.972,215.982 216.641,351.088 280.026,457.57 511.999,411.428 "/>
<rect x="16.851" y="241.579" transform="matrix(0.1951 0.9808 -0.9808 0.1951 465.6209 152.31)" style="fill:#F25F67;" width="246.328" height="236.516"/>
<g>
	<polygon style="fill:#F7C02D;" points="337.99,255.292 307.245,261.408 317.85,314.72 250.996,267.846 276.845,397.803 
		307.59,391.689 296.986,338.376 363.84,385.25 	"/>
	<polygon style="fill:#F7C02D;" points="448.047,265.978 441.931,235.233 354.661,252.592 360.776,283.337 389.04,277.715 
		407.747,371.766 438.491,365.651 419.785,271.6 	"/>
</g>
<g>
	<polygon style="fill:#FBE27B;" points="198.125,380.885 194.946,364.901 221.968,359.526 215.851,328.781 188.831,334.155 
		185.651,318.172 241.585,307.046 235.469,276.301 148.791,293.541 173.497,417.745 260.174,400.504 254.059,369.759 	"/>
	<path style="fill:#FBE27B;" d="M147.115,374.415l-15.412-77.474l-86.084,17.123l12.353,62.101l0,0l12.471,62.694l30.745-6.116
		l-5.818-29.248l41.301,23.254l15.38-27.316l-34.124-19.214L147.115,374.415z M107.075,333.801l3.18,15.984l-24.596,4.892
		l-3.18-15.984L107.075,333.801z"/>
</g>
<path style="fill:#F7C02D;" d="M261.446,8.293l-20.915,39.58l20.915,38.405c21.534,0,38.992-17.457,38.992-38.992
	S282.98,8.293,261.446,8.293z"/>
<path style="fill:#FBE27B;" d="M222.454,47.285c0,21.535,17.457,38.992,38.992,38.992V8.293
	C239.911,8.293,222.454,25.75,222.454,47.285z"/>
<g>
</g>
<g>
</g>
<g>
</g>
<g>
</g>
<g>
</g>
<g>
</g>
<g>
</g>
<g>
</g>
<g>
</g>
<g>
</g>
<g>
</g>
<g>
</g>
<g>
</g>
<g>
</g>
<g>
</g>
</svg>
