<svg id="flat_gradient_copy" height="512" viewBox="0 0 64 64" width="512" xmlns="http://www.w3.org/2000/svg" xmlns:xlink="http://www.w3.org/1999/xlink" data-name="flat gradient copy"><linearGradient id="linear-gradient" gradientUnits="userSpaceOnUse" x1="4" x2="60" y1="32.385" y2="32.385"><stop offset="0" stop-color="#ffde00"/><stop offset="1" stop-color="#fd5900"/></linearGradient><path d="m56.61 28.3h-4.44l-16.82-13.12a3.4958 3.4958 0 1 0 -6.69993.01l-16.82007 13.11h-4.44a3.39291 3.39291 0 0 0 -3.39 3.39v19a3.39286 3.39286 0 0 0 3.39 3.39h49.22a3.39286 3.39286 0 0 0 3.39-3.39v-19a3.39291 3.39291 0 0 0 -3.39-3.39zm-13.61 8.2a1.00012 1.00012 0 0 1 .00005-2h8.82a1 1 0 0 1 0 2h-3.41005v10.39a1.00011 1.00011 0 0 1 -2 0v-10.39zm-3.3-1v11.39a1.00248 1.00248 0 0 1 -1.86.5l-4.85-8.22v7.72a1 1 0 0 1 -2 0v-11.39a1.00447 1.00447 0 0 1 1.86-.51l4.85 8.23v-7.72a1.00012 1.00012 0 0 1 2 0zm-12.49 4.69a1.00011 1.00011 0 0 1 0 2h-4.37v3.7h4.37a1 1 0 1 1 0 2h-5.37a1.00291 1.00291 0 0 1 -1-1v-11.39a1.00291 1.00291 0 0 1 1-1h5.37a1 1 0 0 1 0 2h-4.37v3.69zm-9.39 6.05a1.00024 1.00024 0 0 1 -1.52 1.29993l-3.12-3.63993v2.99a1.00011 1.00011 0 0 1 -2 0v-11.39a1.003 1.003 0 0 1 1-1h1.22c2.57 0 4.66 1.73 4.66 3.85a4.11871 4.11871 0 0 1 -3.77 3.77zm-8.11-13.73a.99532.99532 0 0 1 -1.99 0 .99532.99532 0 0 1 1.99 0zm-.99 16.38a.99011.99011 0 0 1 0 1.98.99011.99011 0 0 1 0-1.98zm45.57.99a.99532.99532 0 0 1 1.99.00006.99532.99532 0 0 1 -1.99-.00006zm.99-16.38a.99013.99013 0 0 1 0-1.98.99013.99013 0 0 1 0 1.98zm-25.53-16.64a3.49828 3.49828 0 0 0 4.5-.00006l14.66 11.44006h-33.82zm-16.57 23.33v-3.69h.22c3.7078.145 3.35757 3.79433-.22 3.69z" fill="url(#linear-gradient)"/></svg>