<svg id="Layer_4" height="512" viewBox="0 0 300 300" width="512" xmlns="http://www.w3.org/2000/svg" data-name="Layer 4"><path d="m240.71 187.86c-5.35-16-27.91 15.81-21.81 23.63 1.59 2.07 4.58 2.23 6.96 1.67 10.4-2.56 16.72-15.2 14.85-25.31z" fill="#ffd7cd"/><path d="m235.35 183.48c-1.53 8.97-8.24 22.92-14.71 29.37-3.51-1.5-2.89-5.98-2.03-9.04 2.36-8.43 8.05-17.49 16.74-20.33z" fill="#ffa4a4"/><g fill="#fc5061"><path d="m275.67 101.45c-5.45-14.52-22.66-9.57-28.72-3.22-28.36-22.68-49.07 20.63 0 45.09 10.18-3.92 35.63-24.02 28.72-41.87z"/><path d="m62.49 35.45c-5.92-1.46-13.32 4.16-14.07 5.01-.1 0-4.72-4.62-10.49-5.1-16.73-.72-17.93 18.48-5.67 30.41 3.43 4.04 13.91 11.01 16.18 11.71 8.34-3.26 29.22-19.71 23.55-34.38-1.57-4.63-5.21-7.08-9.52-7.66z"/><path d="m51.29 110.33c-3.29-1.02-8.65 2.76-8.78 3.13-.06 0-2.95-2.89-6.55-3.18-10.45-.45-11.19 11.54-3.54 18.99 2.16 2.53 8.68 6.89 10.13 7.31 0 0 5.19-2.36 10.08-7.31 6.82-6.94 7.4-17.13-1.34-18.94z"/></g><path d="m211.6 61.11c1.21 12.22-5.37 23.12-16.65 28.11-6.81-2.59-30.6-11.28-41.79-29.85-1.25-2.07-4.08-2.52-5.88-.91-10.3 9.24-6.11 22.62-16.71 21.26-1.37-12.15-15.33-10.22-18.92 1.15-2.72 7.78.07 15.96 7.15 16.03l.19.36c-1.4 7.98.07 16.08 3.95 23.03v22.96c-42 10.97-35.63 39.95-21.1 79.82-17.41-1.89-31.53-20.02-31.53-20.02-2.03 6.1 1.32 12.22 4.62 16.36.79 1-.41 2.39-1.53 1.75-44-22.44-20.46-55.29-1.29-79.49 27.55-29.32 18.04-75.01 37.84-108.12 9.55-17.2 29.97-24.42 39.97-24.09 13.11.73 30.4 6.92 35.04 20.26 16.25-.29 26.56 16.45 26.65 31.38z" fill="#9b503c"/><path d="m220.64 212.86c-3.52-1.5-2.89-5.98-2.03-9.04-11.32 4.69-27.14 7.46-38.27 1.46-5.53-2.44-10.69-5.79-15.4-9.62-1.6-1.29-2.62-7.42-2.12-9.43-3.23 2.58-8.61 5.51-12.56 6.95l.31 3.11c3.77 9.87 14.57 32.84 14.23 31.88 10.84-2.68 51.21-2.59 56.76-14.97-.31-.1-.62-.19-.91-.33z" fill="#cfdadb"/><path d="m194.95 89.24h-.02v-.02c-6.9-2.65-31.4-11.58-42.32-30.8-.88-1.54-2.9-1.94-4.28-.84-11.63 9.24-6.82 23.55-17.76 22.15-1.37-12.15-15.33-10.22-18.92 1.15-2.72 7.78.07 15.96 7.15 16.03l.19.36c-1.4 7.98.07 16.08 3.95 23.03-.23 12.58.66 17.99-.77 29.82.19.22 5.96 2.83 11.74 4.89 6.45 2.38 23.56 4.76 18.88-5.52-1.61-2.16-1.09-9.04-1.15-11.47 29.72.77 35.57-25.97 43.32-48.77zm-44.7 48.66c.46.04.92.09 1.38.11-.44 0-.91-.05-1.38-.11z" fill="#ffd7cd"/><path d="m226.12 223.86c-.45-5.21-5.12-8.85-5.12-8.85-15.93 12.03-39.77 9.51-56.21 13.16-2.89-4.4-18.3-41.87-22.6-52.98-4.27-11.08-14.38-23.6-25.5-21.93-10.46 2.92-16.76 6.62-14.09 24.68 1.14 7.23 5.76 16.49 9.71 23.92 8.99 16.74 21.55 35.35 26.17 43.06 6.94 11.55 18.32 9.71 32.05 9.57 14.24.39 55.46-14.47 55.59-30.62z" fill="#ffd7cd"/><path d="m172.85 286.03c-1.12-6.57-2.51-19.95-2.32-31.55-13.73.14-25.12 1.99-32.05-9.57-7.23-12.63-31.67-46.19-35.88-66.97-2.68-18.09 3.64-21.76 14.09-24.69 11.13-1.65 21.23 10.85 25.5 21.93 2.94 6.55 5.53 13.9 8.37 21.1 4.02-1.48 8.28-3.12 11.58-5.76v-.02c7.58-5.53 5.32-15.87 8.18-23.73-1.75-1.41-4.14-3.88-6.63-6.63-5.76-6.46-12.06-14.5-12.06-14.5v2.39c3.61 14.78-25.44 3.13-28.7 0v-4.78c-13.95 2.97-32.75 13.37-32.29 34.68-.4 17.63 4.85 21.9 11.96 47.84 10.02 36.13-28.53 68.31-7.1 65.78 8.44-1 53.45 0 62.91 0 4.5-.5 15.19 2.37 14.45-5.53z" fill="#ffba9c"/><path d="m125.63 81.73c.09-2-.61-3.85-1.89-5.38-.34-.4-.9.18-.57.57 2.02 2.27 2.02 5.54.86 8.22-3.96-2.9-9.1 5.33-4.92 7.74 2.96.36 6.32-7.86 6.53-11.16z" fill="#ffa4a4"/><path d="m168.36 104.25c-.91 2.99 1.45 5.87.45 8.68-.45.84-1.15 1.51-1.82 2.17-.74.73.4 1.87 1.14 1.14 2.86-2.35 3.14-5.06 1.83-8.37-.57-1.28.65-3.39-.61-4.18-.38-.11-.93.13-.99.56z" fill="#ffa4a4"/><path d="m159.12 87.4c4.46.55 2.54 14.4-1.91 13.72-4.47-.55-2.54-14.41 1.91-13.72z" fill="#594449"/><path d="m180.2 94.27c4.46.55 2.54 14.4-1.91 13.72-4.47-.55-2.54-14.41 1.91-13.72z" fill="#594449"/><path d="m153.34 116.52c-.13 11.71 11.06 12.11 18.59 6.21.87-.55.07-1.95-.81-1.39-6.44 5.07-16.29 5.7-16.17-4.81.07-1.03-1.54-1.03-1.61 0z" fill="#ffa4a4"/><path d="m232.61 184.5c.33-17.76-8.24-40.32-28.66-41.68-15.47-1.7-27.37 11.21-33.63 23.94-1.03 2.68-7.74 4.09-8.05 6.96-.48 3.97 1.65 5.34-.38 8.71-.96 1.58.27 2.64-1.14 3.79h-.76c1.2 9.74 12.49 15.08 20.34 19.05 11.12 6 26.97 3.23 38.27-1.46 1.38-7.28 8.22-15.97 14-19.31z" fill="#fff"/><path d="m211.5 59.8c-.48-14.53-10.84-30.38-26.55-30.08-4.64-13.32-21.93-19.54-35.04-20.26-5.36-.18-13.72 1.82-21.79 6.35 5.62 31.46 56.23 42.44 83.38 43.98z" fill="#b06758"/><path d="m275.67 101.45c6.9 17.96-18.57 37.86-28.64 41.87-.16.03-3.99-1.8-9.47-5.6l.1-.14c8.53-2.42 18.25-9.52 23.88-16.3 5.58-8 9.77-20.9 2.54-29.1v-.06c5.25.71 9.68 3.68 11.6 9.32z" fill="#de354e"/><path d="m230.41 96.43c7.94.04 7.94 12.11 0 12.15-7.95-.04-7.95-12.12 0-12.15z" fill="#fff"/><path d="m72 43.11c5.67 14.74-15.26 31.09-23.52 34.38-.15.03-3.27-1.48-7.77-4.6l.08-.11c7.28-2.16 14.74-7.63 19.61-13.39 4.57-6.57 8.02-17.17 2.08-23.89v-.05c4.31.58 7.95 3.03 9.52 7.66z" fill="#de354e"/><path d="m34.85 38.98c6.52.03 6.52 9.95 0 9.98-6.53-.03-6.52-9.95 0-9.98z" fill="#fff"/><path d="m57.24 115.11c3.54 9.2-9.53 19.41-14.68 21.47-.08.01-2.04-.92-4.85-2.87l.05-.07c4.66-1.42 9.1-4.69 12.24-8.36 2.85-4.1 5.01-10.72 1.3-14.92v-.03c2.69.36 4.96 1.89 5.94 4.78z" fill="#de354e"/><path d="m34.04 112.53c4.04-.06 4.04 6.29 0 6.23-4.04.06-4.04-6.29 0-6.23z" fill="#fff"/><path d="m151.63 145.64v-7.63c-8.86-.19-24.88-10.81-28.7-17.72.11 2.07-.39 4.73.6 6.41 5.31 15.05 14.37 19.41 28.06 25.62.9-2.01.04-4.28.04-4.28v-2.39z" fill="#ffa4a4"/><path d="m209.12 148.83c27.76 11.06 12.05 52.6-16.07 42.53-27.76-11.06-12.05-52.6 16.07-42.53z" fill="#ffd7cd"/><path d="m196.58 160.69c2.94.37 2.33 4.77-.6 4.32-2.94-.37-2.33-4.77.6-4.32z" fill="#594449"/><path d="m192.37 174.84c-.57 2.65 6.07 5.44 6.15 2.64-.17-.54-.74-.7-1.24-.5-.01 0 .21-.02.14-.02-.68.05-.82 0-1.45-.16-.58-.11-1.49-.74-1.63-.98-.25-.34-.31-.64-.34-.77.19-1.14-1.58-1.39-1.62-.2z" fill="#ffa4a4"/><path d="m206.47 165.05c2.94.37 2.33 4.77-.6 4.32-2.94-.37-2.33-4.77.6-4.32z" fill="#594449"/><path d="m190.59 166.65c-.97 1.45-5.51-1.88-4.42-3.24.97-1.45 5.51 1.88 4.42 3.24z" fill="#ffba9c"/><path d="m209.77 177.88c-.97 1.45-5.51-1.88-4.42-3.24.97-1.45 5.51 1.88 4.42 3.24z" fill="#ffba9c"/><path d="m210.61 151.67c-1.08-.51-4.37-.23-4.26 1.33.1.38.59.73.99.56 5.27-2.08 3.16 2.87-.77 2.55-5.55.29-1.46-6.54 1.38-7.68-.68-.21-1.37-.4-2.08-.56-3.96 2.76-6.06 10.38 1.02 9.83 3.07.28 7.65-3.8 3.7-6.04z" fill="#594449"/><path d="m170.31 166.76c-2.86 7.86-.61 18.21-8.18 23.73v.02c-3.29 2.64-7.56 4.28-11.58 5.76-2.85-7.2-5.43-14.54-8.37-21.1 17.76 22.39 23.27-13.25 21.5-15.05 2.49 2.75 4.88 5.21 6.63 6.63z" fill="#ff9271"/><path d="m172.85 286.03c-1.12-6.57-2.51-19.95-2.32-31.55-13.73.14-25.12 1.99-32.05-9.57-5.68-9.41-24.27-36.99-31.77-54.42-.19 17.73 6.13 34.6 12.27 51 6.87 20.61 20.73 38.81 39.42 50.06 4.52-.49 15.2 2.35 14.45-5.53z" fill="#ff9271"/><path d="m226.12 223.86-3.83.17c-15.67 6.02-40.59 16.72-57.1 13.73-21.18-8.92-42.86-62.46-48.51-84.51-40.81 9.14 14.75 77.12 21.79 91.66 7.05 11.99 19.64 9.55 33.49 9.57 14.15-.37 53.89-14.52 54.15-30.62z" fill="#ffa4a4"/><path d="m142.19 175.18c-5.05-13.27-18.25-27.67-31.22-19.97-16.19 6.59-7.39 31.56 1.08 46.16 13.49 28.19 3.29 8.72 38.74-5.18-1.25-3.22-7.27-18.02-8.61-21z" fill="#ffba9c"/><path d="m194.93 89.24v-.02c-6.98-2.68-31.96-11.79-42.69-31.46-.64-1.18-2.17-1.49-3.25-.69-11.83 8.73-7.78 22.53-16.82 22.74 8.66 1.37 14.49-9.64 17.1-16.35.34-.87 1.54-.88 1.91-.02 7.38 16.87 43.49 26.84 43.49 26.84-.01 0 .4-1.05.26-1.03z" fill="#ffa4a4"/><g fill="#3f3436"><path d="m152.59 138.76c29.37-.32 35.18-26.56 42.99-49.12 28.15-11.84 18.72-60.28-10.19-61.52-4.93-13.07-23.39-19.73-35.84-20.2-34.97-.47-53.25 40.35-55.52 71.76-2.31 21.23-7.83 41.86-23.13 60.56-.52.61-12.71 14.99-18.68 28.12-16.43 32.17 7.37 46.65 26.82 56.57 1.45.73 2.69-1.38 1.32-2.26-1.45-1.26-9.95-9.01-9.54-17.11 4.25 5.61 15.55 18.52 30.16 19.52 8.31 28.73-15.03 64.48-15.27 64.77-.27.4-.29.92-.06 1.34.55 1.98 86.56.03 87.71.69.8.02 1.46-.79 1.28-1.57-.61.13-2.89-18.55-3.48-35.41 15.98-.13 71.92-20.11 50.86-40.98 18.6 1.48 27.53-35.57 11.25-32.12-.36-18.56-9.68-39.53-29.77-40.87-15.46-1.78-27.17 10.49-34.09 22.95-5-4.21-15.22-17.11-16.89-19.28v-5.82s.04 0 .06 0zm-81.38 62.82c-.55-.91-2.04-.72-2.34.3-2.12 6.36 1.01 12.58 4.35 16.97-8.5-5.03-20.88-13.16-23.28-24.13-5.63-14.97 17.87-47.99 22.99-52.83 10.95-13.99 18.16-29.17 20.82-43.9 4.62-24.51 3.57-40.27 17.03-64.11 9.49-17.1 29.88-23.65 38.68-23.35 11.79.46 29.58 6.72 33.74 19.29.17.56.7.94 1.28.92 6.76-.17 13.81 3.47 18.44 9.5 10.85 16.34 10.12 38.28-8.61 47.1-8.69-2.84-33.3-13.74-43.19-33.33-8.45 2.96-11.49 12.08-13.19 16.72-1.76 5.05-2.79 7.46-6.57 7.35-2.55-12.71-17.4-10.06-21.27 1.93-2.81 7.25-.19 16.84 7.09 17.65-1.16 7.78.47 16.06 4.39 22.95-.18.22-.29.51-.29.81v20.2c-30.99 7.2-38.66 32.48-27.56 60.85 1.71 4.76 3.81 10.64 6.48 19.89-16.51-1.81-28.87-20.58-29-20.78zm153 21.58c-.71 14.94-38.88 28.7-52.71 29.11-12.22-.08-25.85 2.53-32.28-8.91-9.31-17.75-60.34-80.8-22.69-89.45 22.35-.65 27.37 33.89 35.99 50.75 7.54 15.99 9.37 23.29 11.99 23.97 16.72-3.7 39.16-1.19 55.9-12.65 1.24 1.23 3.51 3.88 3.79 7.17zm-6.96-11.68c.57.78 1.33 1.38 2.26 1.78-14.6 11.24-38.98 9.3-54.41 12.65-1.14-2.34-4.58-9.48-9.34-20.36 23.27 6 45.5-3.19 66.05-13.85-3.42 5.43-7.92 13.82-4.57 19.78zm15.45-26.59c2.83-1.27 4.46-1.87 6.11 2.63 1.41 5.13-1.55 13.36-4.61 17.31-3.38 5.57-17.44 11.24-15.3.23 1.33-7.69 7.04-16.39 13.8-20.17zm-61.61-18.38c6.08-12.11 17.36-24.67 32.19-22.99 19.16 1.27 27.38 22.05 27.38 39.51-13.42 9.13-32.35 18.19-49.37 21.06-4.62-11.27-15.01-24.84-10.2-37.58zm-2.04 16.87c2.74 7.14 5.97 14.22 9.59 21.03-8.06.97-16.26-.14-24.1-1.67-.9-2.09-1.89-4.39-2.7-6.45 7.14-2.4 15.12-6.97 16.57-15.03.23.88.45 1.63.64 2.12zm-16.17-34.13c3.68 4.54 10.63 13.2 15.48 17.12-3.44 14.85-.19 21.57-17.47 27.48-4.69-12.11-11.14-31.44-20.34-37.93-5.81-5.2-15.87-6.17-21.01-2.21-5.89 3.52-10.98 6.56-8.53 23.7 4.06 18.97 20.51 42.17 30.23 58.17 10.87 19.82 16.71 20.11 37.76 19.31-.89 14.32 2.14 29.87 2.78 34.34h-82.59c14.46-24.14 23.38-50.62 7-87.67-10.28-26.25-4.11-50.23 25.1-57.25.16.66-.29 3.39.28 3.89 4.68 3.71 30.46 15.2 31.33 1.03zm-2.89-1.38c2.71 12.04-23.04 1.36-26.09-1.15v-22.54c6.07 8.29 15.75 13.69 26.01 14.45v8.78c0 .15.03.31.08.46zm1.29-11.76c-14.35-.46-27.38-11.1-30.77-25.05-1.21-4.67-1.4-9.41-.57-14.06.1-.43-.12-.85-.32-1.2-.68-1.17-2.22-.45-3.29-1.02-3.54-1.27-5.42-5.99-4.47-11.23.88-6.52 7.43-13.09 12.44-11.02 2.69.86 4.31 4.02 4.75 7.38.2.37.57.63.99.68 6.93.89 8.6-3.91 10.37-9 1.61-4.6 3.58-10.27 9.8-14.44 10.17 19.71 34.03 29.13 42.62 32.43-7.49 21.53-13.08 47.26-41.54 46.54z"/><path d="m184.11 187.01c24.53 22.89 57.58-14.21 31.64-35.86-23.75-17.86-52.32 14.5-31.64 35.86zm-3.02-24.48c10.59-26.08 49.32-11.49 39.97 15.1-10.68 26.09-49.25 11.46-39.97-15.1z"/><path d="m245.74 143.92c2.09.26 10.52-4.35 21.17-14.5 10.45-10.58 11.64-21.85 9.26-28.88-4.56-12.07-18.88-13.86-29.85-4.47-30.15-22.29-50.44 23.28-.58 47.85zm-26.78-42.54c1.9-5.99 7.89-9.18 14.48-8.52 2.62.21 6.77 1.37 11.71 5.66.36.32.68.57 1.21.54 28.59-21.96 45.58 19.1-.04 42.23-11.62-5.14-33.47-23.71-27.36-39.91z"/><path d="m47.74 78.26c2.03.25 8.67-3.49 17.64-11.95 8.66-8.77 9.63-18.12 7.66-23.95-3.74-10-15.63-11.59-24.73-3.9-25.26-18.24-41.53 19.76-.57 39.8zm-21.68-35.06c1.54-4.89 6.31-7.38 11.65-6.84 2.11.17 5.47 1.11 9.48 4.58.3.26.58.5 1.15.5 23.77-17.97 36.62 15.63-.03 34.18-9.55-4.27-27.18-19.31-22.25-32.43z"/><path d="m41.84 137.19c1.69.34 5.67-2.12 11.57-7.57 5.56-5.63 6.18-11.68 4.89-15.46-2.33-6.44-10.02-7.65-15.9-2.91-16.76-11.26-26.2 13.57-.56 25.93zm-12.86-22.18c1.4-3.76 4.47-4.05 6.77-3.94 1.25.1 3.24.66 5.64 2.75.2.17.49.43 1.03.43.5 0 .79-.25 1-.44 2.41-2.08 4.39-2.64 5.64-2.75 1.59-.13 5.43 0 6.77 3.94 2.96 7.69-7.62 16.91-13.42 19.54-5.83-2.65-16.37-11.85-13.42-19.54z"/></g></svg>