<svg id="Capa_1" enable-background="new 0 0 512 512" height="512" viewBox="0 0 512 512" width="512" xmlns="http://www.w3.org/2000/svg"><g><g><path d="m175.379 90.525c-8.251-7.508-12.865-18.209-12.872-29.364l-.007-12.661c0-20.711-16.789-37.5-37.5-37.5-20.711 0-37.5 16.789-37.5 37.5l-.007 12.661c-.006 11.155-4.621 21.856-12.872 29.364-15.463 14.07-24.621 34.208-24.621 55.475v15h150v-15c0-21.267-9.158-41.405-24.621-55.475z" fill="#f1f4f6"/><path d="m175.379 90.525c-8.251-7.508-12.865-18.209-12.872-29.364l-.007-12.661c0-20.711-16.789-37.5-37.5-37.5v150h75v-15c0-21.267-9.158-41.405-24.621-55.475z" fill="#daeaec"/><path d="m195 501h-140c-30.327 0-55-24.673-55-55v-151.69c0-41.206 21.95-79.973 57.283-101.172l3.562-2.138h128.31l3.563 2.138c35.332 21.199 57.282 59.966 57.282 101.172v151.69c0 30.327-24.673 55-55 55z" fill="#acceff"/><path d="m192.717 193.138-3.562-2.138h-64.155v310h70c30.327 0 55-24.673 55-55v-151.69c0-41.206-21.95-79.973-57.283-101.172z" fill="#8bb9ff"/><path d="m195 211h-140c-19.299 0-35-15.701-35-35s15.701-35 35-35h140c19.299 0 35 15.701 35 35s-15.701 35-35 35z" fill="#ffd0f9"/><path d="m195 141h-70v70h70c19.299 0 35-15.701 35-35s-15.701-35-35-35z" fill="#ffa2ff"/><g fill="#f1f4f6"><path d="m55 441h-55v-30h55c8.284 0 15 6.716 15 15 0 8.284-6.716 15-15 15z"/><path d="m55 381h-55v-30h55c8.284 0 15 6.716 15 15 0 8.284-6.716 15-15 15z"/><path d="m55 321h-55v-30h55c8.284 0 15 6.716 15 15 0 8.284-6.716 15-15 15z"/></g></g><g><path d="m437 311h-12.587c-4.389 0-8.557-1.922-11.407-5.259-2.85-3.338-4.095-7.756-3.408-12.09l9.512-60c1.155-7.286 7.438-12.651 14.815-12.651h63.075c8.284 0 15 6.716 15 15 0 41.355-33.645 75-75 75z" fill="#ec8600"/><path d="m190.787 326.952c-15.345-6.922-30.025-17.43-42.803-31.168-4.2-4.515-10.734-6.002-16.472-3.744-5.739 2.256-9.512 7.794-9.512 13.96v80c0 63.411 51.589 115 115 115h106.586c27.727 0 54.223-10.297 74.606-28.994 20.83-19.106 32.814-44.815 33.746-72.393.682-20.196-4.398-39.985-14.691-57.228-7.556-12.657-7.808-27.427-.641-37.628 10.526-14.981 15.839-32.615 15.364-50.996-1.161-44.938-38.682-82.061-83.641-82.751-22.97-.32-44.617 8.321-60.969 24.423-16.353 16.106-25.36 37.616-25.36 60.567 0 18.436 5.824 35.938 16.613 50.469l-20.613 82.531z" fill="#ffe278"/><path d="m436.607 304.758c10.526-14.981 15.839-32.615 15.364-50.996-1.161-44.938-38.682-82.061-83.641-82.751-18.702-.261-36.526 5.422-51.33 16.232v313.757h26.586c27.727 0 54.223-10.297 74.606-28.994 20.83-19.106 32.814-44.815 33.746-72.393.682-20.196-4.398-39.985-14.691-57.228-7.556-12.656-7.807-27.426-.64-37.627z" fill="#ffd845"/><circle cx="382" cy="246" fill="#595e63" r="15"/><path d="m298.613 306.469c-8.438 9.575-20.475 19.684-36.613 25.39-22.313 7.888-47.555 5.766-71.213-4.906-10.544 13.077-13.288 30.855-6.979 46.424 4.741 11.701 11.305 23.967 20.364 34.844 18.325 22.003 42.925 33.41 71.704 33.41 4.174 0 8.439-.24 12.781-.723 35.069-3.896 57.756-17.148 67.432-39.389 8.229-18.917 6.093-42.586-6.35-70.348-.373-.833-.75-1.656-1.13-2.47-8.772-18.792-30.127-28.178-49.996-22.232z" fill="#ffd845"/><path d="m348.608 328.702c-6.067-12.999-18.156-21.493-31.608-23.53v129.655c19.227-6.64 32.333-17.78 39.088-33.308 8.229-18.917 6.093-42.586-6.35-70.348-.373-.832-.75-1.655-1.13-2.469z" fill="#ffcb00"/></g></g></svg>