<svg id="Layer_1" enable-background="new 0 0 512 512" height="512" viewBox="0 0 512 512" width="512" xmlns="http://www.w3.org/2000/svg"><g><path d="m50.122 399.851 45.458 52.33c10.791 9.356 22.415 17.774 34.733 25.151l331.847-77.91c24.578-38.185 38.842-83.638 38.842-132.424 0-135.311-109.691-245.002-245.002-245.002s-245.002 109.691-245.002 245.002c0 48.97 14.375 94.579 39.124 132.853z" fill="#1c2e7a"/><path d="m467.754 32.944h-184.986c-2.423 0-4.734-.5-6.839-1.4l13.879 126.287h43.107c7.342 0 13.294 5.952 13.294 13.294v115.346c2.656-1.651 5.35-2.919 7.969-3.707 7.752-2.327 14.036-.154 13.957 7.732l.005 87.679h2.018c1.945 0 3.527 1.582 3.527 3.527v29.805h13.454v-138.042c0-6.202 5.045-11.246 11.247-11.246h50.952c.579 0 1.143.058 1.699.142l23.766-230.918c-2.162.959-4.544 1.501-7.049 1.501z" fill="#4fabf7"/><path d="m474.801 31.444c-2.161.958-4.542 1.5-7.047 1.5h-184.986c-2.423 0-4.734-.5-6.839-1.399l13.879 126.287h43.107c7.342 0 13.294 5.952 13.294 13.294v115.346c2.656-1.65 5.35-2.919 7.969-3.706 7.752-2.327 14.036-.154 13.957 7.732l.005 87.679h2.018c1.945 0 3.527 1.582 3.527 3.527v29.805h13.454v-126.552c-17.05-14.092-17.421-35.293-17.421-35.293l-3.299-132.559c-.475-19.003 14.801-34.665 33.811-34.665h69.323z" fill="#2e8be6"/><g><path d="m165.073 363.295h9.019v-15.021c0-4.38 2.613-8.353 6.657-10.121l6.915-3.022h-15.699c-2.98 0-5.404-2.424-5.404-5.403v-64.921h-24.273v107.581c5.948-5.629 13.967-9.093 22.785-9.093z" fill="#ffb332"/></g><path d="m50.122 399.851c12.628 19.53 27.953 37.152 45.458 52.33v-187.374h-45.458z" fill="#73c3f9"/><g fill="#4fabf7"><path d="m72.851 301.758c0-7.981 6.47-14.451 14.451-14.451h8.278v-22.5h-45.458v135.043c6.816 10.54 14.424 20.52 22.729 29.865z"/><path d="m95.209 451.853c.125.108.247.219.371.328v-.573c-.122.087-.248.163-.371.245z"/></g><path d="m206.411 99.58c-23.461-23.391-60.453-22.311-82.794.009-5.511 5.498-6.26 14.177-1.958 20.666 6.334 9.556 15.414 25.278 20.148 42.862h46.424c4.732-17.578 13.807-33.295 20.141-42.851 4.305-6.496 3.557-15.184-1.961-20.686z" fill="#fcf0be"/><path d="m167.053 101.564c0-9.316 10.474-13.987 16.967-15.989-20.728-7.097-44.349-2.026-60.404 14.014-5.511 5.498-6.26 14.178-1.958 20.666 6.334 9.556 15.414 25.278 20.148 42.862h31.247v-1.658c-6.25-1.606-6.001-9.144-6.001-9.144s.001-37.251.001-50.751z" fill="#ffdd40"/><path d="m140.722 268.123h25.838v-23.238c0-2.979 2.424-5.403 5.404-5.403h25.383v-69.987c0-4.439-3.598-8.037-8.037-8.037h-48.588c-4.439 0-8.037 3.598-8.037 8.037v90.591c0 4.439 3.599 8.037 8.037 8.037z" fill="#e9efff"/><path d="m166.017 260.086v-90.591c0-4.439 3.598-8.037 8.037-8.037h-33.331c-4.439 0-8.037 3.598-8.037 8.037v90.591c0 4.439 3.598 8.037 8.037 8.037h25.838v-5.148c-.347-.897-.544-1.869-.544-2.889z" fill="#bec8f7"/><path d="m114.246 99.58c-23.461-23.391-60.453-22.311-82.794.009-5.511 5.498-6.26 14.177-1.958 20.666 6.334 9.556 15.414 25.278 20.148 42.862h46.424c4.732-17.578 13.807-33.295 20.141-42.851 4.304-6.496 3.557-15.184-1.961-20.686z" fill="#fcf0be"/><path d="m74.888 101.564c0-9.316 10.473-13.987 16.967-15.989-20.728-7.097-44.349-2.026-60.404 14.014-5.512 5.498-6.26 14.178-1.959 20.666 6.334 9.556 15.414 25.278 20.148 42.862h31.247v-1.658c-6.25-1.606-6-9.144-6-9.144s.001-37.251.001-50.751z" fill="#ffdd40"/><path d="m97.145 161.459h-48.588c-4.439 0-8.037 3.598-8.037 8.037v90.591c0 4.439 3.598 8.037 8.037 8.037h48.588c4.439 0 8.037-3.598 8.037-8.037v-90.591c0-4.439-3.598-8.037-8.037-8.037z" fill="#e9efff"/><path d="m72.851 260.086v-90.591c0-4.439 3.598-8.037 8.037-8.037h-32.331c-4.439 0-8.037 3.598-8.037 8.037v90.591c0 4.439 3.598 8.037 8.037 8.037h32.331c-4.439 0-8.037-3.598-8.037-8.037z" fill="#bec8f7"/><g><path d="m267.31 239.483c2.979 0 5.403 2.424 5.403 5.403v84.843c0 2.979-2.424 5.403-5.403 5.403h-15.701l6.916 3.023c4.044 1.767 6.657 5.74 6.657 10.12v15.021h9.018c18.297 0 33.183 14.885 33.183 33.182v15.031h13.453v-29.805c0-1.945 1.582-3.527 3.527-3.527h2.018v-60.561l.04.015-.027-2.324c-.074-6.539 4.275-14.995 11.348-22.069 3.018-3.017 6.284-5.493 9.518-7.364v-115.8c0-7.342-5.952-13.294-13.294-13.294h-101.673c-7.342 0-13.294 5.952-13.294 13.294v69.409z" fill="#73c3f9"/></g><path d="m266.759 170.074c0-7.342 5.952-13.294 13.294-13.294h-47.761c-7.342 0-13.294 5.952-13.294 13.294v69.409h47.761z" fill="#4fabf7"/><path d="m462.16 399.422v-125.956c0-7.082-5.741-12.824-12.824-12.824h-50.952c-7.082 0-12.824 5.741-12.824 12.824v137.208h68.893c2.667-3.678 5.244-7.425 7.707-11.252z" fill="#ffc839"/><path d="m421.86 272.466c0-5.32 3.24-9.882 7.853-11.824h-31.33c-7.082 0-12.824 5.741-12.824 12.824v137.208h36.3v-138.208z" fill="#ffb332"/><path d="m385.56 474.958c16.383-10.228 31.469-22.335 44.958-36.024h-44.958z" fill="#ffc839"/><path d="m421.86 438.934h-36.3v36.024c12.967-8.096 25.107-17.385 36.3-27.688z" fill="#ffb332"/><path d="m454.995 409.931h-69.435v29.745h44.233c9.162-9.22 17.591-19.168 25.202-29.745z" fill="#fcf0be"/><path d="m385.56 409.931h36.3v29.745h-36.3z" fill="#ffdd40"/><path d="m369.534 290.513c-.854 6.306-4.962 13.984-11.64 20.663-10.921 10.921-24.535 15.013-30.408 9.141-1.293-1.293-2.076-2.977-2.436-4.91l-.246-.088v63.494h44.913v-88.3z" fill="#ff4155"/><path d="m351.888 378.148c-9.833-1.833-8.75-13.583-8.75-13.583s0-1.75 0-22.75c0-13.214 5.841-21.927 10.174-26.573-9.901 7.779-20.752 10.148-25.825 5.075-1.293-1.293-2.076-2.977-2.436-4.91l-.246-.088v63.493h28.85c-.475-.298-1.049-.53-1.767-.664z" fill="#e80054"/><path d="m367.035 282.982c-5.873-5.872-19.486-1.78-30.407 9.141s-15.014 24.535-9.141 30.407c5.872 5.872 19.486 1.78 30.408-9.141 10.92-10.92 15.012-24.534 9.14-30.407z" fill="#ff7186"/><path d="m308.96 506.242c27.563-6.074 53.381-16.788 76.6-31.284v-36.024h-76.6z" fill="#ffc839"/><path d="m347.26 438.934h-38.3v67.308c13.2-2.909 25.994-6.893 38.3-11.836z" fill="#ffb332"/><path d="m370.157 376.599h-45.794c-2.819 0-5.104 2.285-5.104 5.104v28.97h56.002v-28.97c0-2.819-2.285-5.104-5.104-5.104z" fill="#e9efff"/><path d="m344.093 403.977v-20.682c0-3.078 1.951-5.693 4.68-6.696h-24.41c-2.819 0-5.104 2.285-5.104 5.104v28.97h29.514c-2.729-1.003-4.68-3.618-4.68-6.696z" fill="#d3dcfb"/><path d="m254.143 335.657h-69.011c-6.939 0-12.617 5.678-12.617 12.617v14.495h94.245v-14.495c-.001-6.939-5.678-12.617-12.617-12.617z" fill="#d3dcfb"/><path d="m219.633 361.718c-14.588-12.43 0-25.009 0-25.009l.154-1.052h-34.655c-6.939 0-12.617 5.678-12.617 12.617v14.495h48.094c-.26-.358-.576-.71-.976-1.051z" fill="#bec8f7"/><path d="m267.31 237.906h-27.108v98.803h27.108c3.855 0 6.98-3.125 6.98-6.98v-84.842c0-3.856-3.125-6.981-6.98-6.981z" fill="#fc90ce"/><path d="m199.064 237.906h-27.1c-3.855 0-6.98 3.125-6.98 6.98v84.842c0 3.855 3.125 6.98 6.98 6.98h27.1z" fill="#ff54b6"/><path d="m219.637 434.387c45.265 45.264 89.323 0 89.323 0v-37.91c0-19.118-15.642-34.759-34.759-34.759h-109.128c-19.118 0-34.759 15.642-34.759 34.759v37.91c-.001 0 44.058-45.264 89.323 0z" fill="#e9efff"/><path d="m130.313 396.477v37.91s24.082-24.73 54.927-19.341c0-10.973 0-20.169 0-25.482 0-22.75 23.897-27.847 23.897-27.847h-44.065c-19.117.001-34.759 15.642-34.759 34.76z" fill="#d3dcfb"/><path d="m308.96 433.336h.772l-.772-1.051c-50.719-50.719-89.323 0-89.323 0l-.638.433c47.265 46.377 89.11.614 89.961.618z" fill="#ff7acb"/><g><path d="m258.309 431.616c0-9.318 5.449-17.361 13.334-21.121-31.169-5.586-52.006 21.789-52.006 21.789l-.638.433c19.324 18.961 37.739 22.517 52.82 20.1-7.979-3.724-13.51-11.814-13.51-21.201z" fill="#ff54b6"/></g><path d="m219.637 432.284c-45.264-45.264-89.323 0-89.323 0v45.047c36.748 22.008 79.736 34.669 125.686 34.669 18.186 0 35.904-1.999 52.96-5.758v-73.958s-44.059 45.265-89.323 0z" fill="#fc90ce"/><path d="m185.24 412.944c-30.845-5.389-54.927 19.341-54.927 19.341v45.047c17.072 10.223 35.491 18.426 54.927 24.283 0-14.329 0-58.871 0-88.671z" fill="#ff7acb"/><path d="m308.96 409.931h76.6v29.745h-76.6z" fill="#fcf0be"/><path d="m347.26 417.352c0-3.211 1.798-6.001 4.441-7.421h-42.741v29.745h38.3z" fill="#ffdd40"/><circle cx="212.954" cy="455.364" fill="#ffbbe5" r="9.09"/><circle cx="185.24" cy="472.933" fill="#ffbbe5" r="14.329"/><path d="m197.928 237.906h43.41v98.803h-43.41z" fill="#ff7acb"/><path d="m467.754 0h-184.986c-9.638 0-17.523 7.885-17.523 17.523s7.885 17.523 17.523 17.523h184.986c9.638 0 17.523-7.885 17.523-17.523s-7.885-17.523-17.523-17.523z" fill="#73c3f9"/><path d="m359.245 17.523c0-9.638 7.886-17.523 17.523-17.523h-94c-9.638 0-17.523 7.885-17.523 17.523s7.885 17.524 17.523 17.524h94c-9.637 0-17.523-7.886-17.523-17.524z" fill="#4fabf7"/></g></svg>