<svg id="Capa_1" enable-background="new 0 0 512 512" height="512" viewBox="0 0 512 512" width="512" xmlns="http://www.w3.org/2000/svg"><g><g><path d="m486.226 244.99c-45.332-21.054-118-21.054-118-21.054l-62.576-39.821c-16.721-10.64-36.129-16.292-55.948-16.292h-71.419c-17.422 0-34.605 4.056-50.188 11.848l-38.044 19.022c-12.193 6.096-25.333 10.075-38.86 11.766l-29.648 3.706c-8.022 1.002-14.043 7.822-14.043 15.907v48.115c0 10.62 6.966 19.982 17.138 23.034l63.023 18.907h362.589l54.25-16.032v-30.126c0-12.376-7.049-23.767-18.274-28.98z" fill="#c3ddff"/><path d="m504.499 296.081h-17.88c-3.734 0-6.927-2.571-7.764-6.252-6.674-29.357-32.388-49.861-62.534-49.861s-55.86 20.503-62.534 49.861c-.837 3.681-4.03 5.63-7.764 5.63h-172.032c-3.734 0-6.927-1.949-7.764-5.63-6.674-29.357-32.388-49.861-62.534-49.861-24.515 0-46.506 13.684-57.39 35.713-1.356 2.743-4.086 4.447-7.126 4.447-.768 0-1.537-.114-2.285-.338-3.197-.959-5.345-3.846-5.345-7.183v-58.692-1.002l-10.004 1.251c-8.023 1.003-14.043 7.823-14.043 15.908v48.115c0 10.62 6.966 19.983 17.138 23.034l63.023 18.907h400.806c8.855 0 16.032-7.178 16.032-16.032z" fill="#a4ccff"/><circle cx="103.693" cy="304.097" fill="#5d5360" r="40.081"/><circle cx="416.322" cy="304.097" fill="#5d5360" r="40.081"/><path d="m305.65 184.115c-16.721-10.641-36.129-16.292-55.948-16.292h-71.419c-17.422 0-34.604 4.056-50.188 11.848l-29.746 14.873 17.654 17.653 252.223 11.739z" fill="#8bb3ea"/><path d="m144.344 223.936h179.089l-30.693-19.532c-12.884-8.199-27.767-12.533-43.038-12.533h-71.419c-13.617 0-27.253 3.219-39.433 9.309l-22.539 11.269c7.488 7.34 17.537 11.487 28.033 11.487z" fill="#739ad6"/></g><g><path d="m98.025 317.265c1.919 0 3.839-.732 5.303-2.196l11.336-11.337c2.929-2.929 2.929-7.677 0-10.606s-7.678-2.929-10.606 0l-11.336 11.337c-2.929 2.929-2.929 7.677 0 10.606 1.465 1.464 3.384 2.196 5.303 2.196z"/><path d="m416.688 315.068c1.464 1.464 3.384 2.196 5.303 2.196s3.839-.732 5.303-2.196c2.929-2.929 2.929-7.678 0-10.606l-11.336-11.337c-2.929-2.929-7.678-2.929-10.606 0-2.929 2.929-2.929 7.678 0 10.606z"/><path d="m489.383 238.186c-42.36-19.672-106.078-21.554-118.944-21.731l-60.762-38.667c-17.955-11.426-38.693-17.465-59.974-17.465h-71.419c-18.49 0-37.005 4.371-53.543 12.64l-38.043 19.021c-11.461 5.731-23.72 9.442-36.436 11.032l-29.648 3.706c-11.752 1.468-20.614 11.507-20.614 23.35v47.869c0 14.011 9.409 26.485 22.881 30.334l35.431 10.123c6.086 19.269 24.126 33.279 45.381 33.279 17.679 0 33.125-9.699 41.328-24.049h229.973c8.203 14.35 23.649 24.049 41.328 24.049 26.236 0 47.581-21.345 47.581-47.581s-21.345-47.581-47.581-47.581-47.581 21.344-47.581 47.581c0 2.914.277 5.762.781 8.532h-219.03c.504-2.771.781-5.619.781-8.532 0-26.236-21.345-47.581-47.581-47.581-25.594 0-46.523 20.316-47.532 45.667l-29.159-8.331c-7.065-2.018-12.001-8.56-12.001-15.91v-22.457h8.532c4.142 0 7.5-3.358 7.5-7.5s-3.358-7.5-7.5-7.5h-8.532v-10.412c0-4.294 3.213-7.934 7.474-8.466l29.648-3.706c14.408-1.801 28.297-6.007 41.284-12.5l3.421-1.71 13.873 13.809c8.987 8.987 20.936 13.937 33.645 13.937h15.462c4.142 0 7.5-3.358 7.5-7.5s-3.358-7.5-7.5-7.5h-15.462c-1.311 0-2.607-.086-3.889-.238l8.287-36.604c9.582-2.812 19.566-4.272 29.542-4.272h38.152v41.113h-24.564c-4.142 0-7.5 3.358-7.5 7.5s3.358 7.5 7.5 7.5h176.353c.711 0 71.566.258 114.84 20.354 2.539 1.179 4.801 2.794 6.734 4.726h-9.347c-4.142 0-7.5 3.358-7.5 7.5s3.358 7.5 7.5 7.5h16.412c.081.812.136 1.628.136 2.456v26.612c0 7.43-3.27 12.045-8.532 12.045-4.142 0-7.5 3.358-7.5 7.5s3.358 7.5 7.5 7.5c6.642 0 12.677-2.733 16.995-7.696 4.276-4.917 6.537-11.607 6.537-19.349v-26.612c-.001-15.358-8.879-29.405-22.618-35.785zm-73.061 33.33c17.965 0 32.581 14.616 32.581 32.581s-14.616 32.581-32.581 32.581-32.581-14.616-32.581-32.581 14.616-32.581 32.581-32.581zm-312.629 0c17.965 0 32.581 14.616 32.581 32.581s-14.616 32.581-32.581 32.581-32.581-14.616-32.581-32.581 14.617-32.581 32.581-32.581zm22.566-60.549c-1.761-1.18-3.42-2.541-4.953-4.074l-10.295-10.295 20.438-10.219c.14-.07.283-.135.423-.204zm105.177-35.645h18.267c18.423 0 36.377 5.229 51.921 15.12l40.847 25.994h-111.035z"/><path d="m175.839 280.564c-4.142 0-7.5 3.358-7.5 7.5s3.358 7.5 7.5 7.5h168.338c4.142 0 7.5-3.358 7.5-7.5s-3.358-7.5-7.5-7.5z"/></g></g></svg>