<svg id="e98f5ff2-36bd-4f80-927b-38f16edfbf92" height="512" viewBox="0 0 64 64" width="512" xmlns="http://www.w3.org/2000/svg" xmlns:xlink="http://www.w3.org/1999/xlink" data-name="flat gradient copy"><linearGradient id="fd3d4a15-54e6-4d21-9153-350d57ed7430" gradientUnits="userSpaceOnUse" x1="4.421" x2="59.579" y1="32" y2="32"><stop offset="0" stop-color="#9cffac"/><stop offset="1" stop-color="#00b59c"/></linearGradient><path d="m48.11965 36.28929c-.01289-3.35915.02725-7.0846.09871-10.31116a.99862.99862 0 0 1 1.00022-.97858c1.27158.06282.97768 1.42377.971 2.36994 1.19482-.68219 5.36466-2.837 6.45993-3.58993l-5.8499-10.77975a8.99943 8.99943 0 0 0 -4.92991-4.20993l-4.59988-1.64c-.67526 3.70662-1.79579 6.39333-5.45976 10.72987a1.00648 1.00648 0 0 1 -1.55006-.06005l-2.26-3.01994-2.26 3.02a1.00628 1.00628 0 0 1 -1.54995.06c-3.60245-4.25834-4.7506-6.9929-5.52-10.70971l-4.53975 1.61983a8.99943 8.99943 0 0 0 -4.92988 4.20993l-5.97992 11.01972c1.10975.60233 5.37975 2.92571 6.57992 3.56993.036-1.01525-.38569-2.49966.97648-2.58993a.99991.99991 0 0 1 1.00338.9812c.12885 8.90013.287 23.17569-.9899 30.21817a3.09515 3.09515 0 0 0 .66 2.53992 3.53418 3.53418 0 0 0 2.74994 1.26h27.59937a3.32169 3.32169 0 0 0 3.40993-3.8c-.82997-4.29988-1.06995-12.7297-1.08997-19.90953zm-16.11965-8.6098a1.065 1.065 0 0 1 .00005-2.13 1.065 1.065 0 0 1 -.00005 2.13zm0-3.6a1.07007 1.07007 0 0 1 .00005-2.13991 1.07007 1.07007 0 0 1 -.00005 2.13995zm0-3.60991a1.065 1.065 0 0 1 .00005-2.13 1.065 1.065 0 0 1 -.00005 2.13004zm27.05942 9.83981-8.93982 4.88995c.00147-1.82566.01421-3.823.03005-5.53988 1.28595-.72885 6.3172-3.34315 7.45979-4.11994l1.85 3.41991a1.00081 1.00081 0 0 1 -.40002 1.35zm-34.51928-24.23939.95-.99a19.127 19.127 0 0 0 .63 2.24 11.6265 11.6265 0 0 0 4.38986 6.13976l-1.62 2.15c-2.86507-3.70969-3.88443-6.29269-4.34986-9.53976zm2.78-2.07h9.10986c-.39547 2.808-1.33491 6.30467-4.43 8.0298-2.94473-1.64431-4.11209-5.1398-4.67989-8.0298zm11.00977.89 1.04009 1.1c-.28911 3.16217-1.35739 5.87646-4.26 9.61976l-1.61-2.15c3.18345-2.08309 4.29229-5.45568 4.82988-8.56976zm-24.45953 30.30934-8.9298-4.88991a1.00081 1.00081 0 0 1 -.4-1.35l1.72-3.17993 7.57986 4.11c.01656 1.6575.02921 3.5574.02994 5.30984z" fill="url(#fd3d4a15-54e6-4d21-9153-350d57ed7430)"/></svg>