<svg height="512" viewBox="0 0 46 58" width="512" xmlns="http://www.w3.org/2000/svg"><g id="Page-1" fill="none" fill-rule="evenodd"><g id="022---Laundry" fill-rule="nonzero"><path id="Shape" d="m21 20.6v37.4h-13c-3.3137085 0-6-2.6862915-6-6v-36c0-3.3137085 2.6862915-6 6-6h.38l-.44.96c-.59769539 1.2983633-.61225012 2.7902226-.04 4.1l4.8 10.98c.2794725.6343229.8674626 1.0787106 1.5539779 1.1744561.6865153.0957454 1.3736571-.1708049 1.8160221-.7044561z" fill="#3b97d3"/><path id="Shape" d="m46 16v36c0 3.3137085-2.6862915 6-6 6h-19v-37.4l3-3.6 7.93 9.51c.442365.5336512 1.1295068.8002015 1.8160221.7044561.6865153-.0957455 1.2745054-.5401332 1.5539779-1.1744561l4.8-10.98c.5722501-1.3097774.5576954-2.8016367-.04-4.1l-.44-.96h.38c3.3137085 0 6 2.6862915 6 6z" fill="#2980ba"/><path id="Shape" d="m24 17-3 3.6-4.93 5.91c-.442365.5336512-1.1295068.8002015-1.8160221.7044561-.6865153-.0957455-1.2745054-.5401332-1.5539779-1.1744561l-4.8-10.98c-.57225012-1.3097774-.55769539-2.8016367.04-4.1l.44-.96 4.03-8.73 5.7 7.73z" fill="#9fc9d3"/><path id="Shape" d="m35.59 1.27-5.7 7.73h-11.78l-5.7-7.73.05-.11c.3280783-.70890847 1.038858-1.16193293 1.82-1.16h19.44c.781142-.00193293 1.4919217.45109153 1.82 1.16z" fill="#3b97d3"/><path id="Shape" d="m29.89 9-5.89 8-5.89-8z" fill="#285680"/><path id="Shape" d="m40.1 15.06-4.8 10.98c-.2794725.6343229-.8674626 1.0787106-1.5539779 1.1744561-.6865153.0957454-1.3736571-.1708049-1.8160221-.7044561l-7.93-9.51 5.89-8 5.7-7.73 4.03 8.73.44.96c.5976954 1.2983633.6122501 2.7902226.04 4.1z" fill="#84b5cb"/><g fill="#fff"><path id="Shape" d="m26 29h-1c-.5522847 0-1-.4477153-1-1s.4477153-1 1-1h1c.5522847 0 1 .4477153 1 1s-.4477153 1-1 1z"/><path id="Shape" d="m26 35h-1c-.5522847 0-1-.4477153-1-1s.4477153-1 1-1h1c.5522847 0 1 .4477153 1 1s-.4477153 1-1 1z"/><path id="Shape" d="m26 41h-1c-.5522847 0-1-.4477153-1-1s.4477153-1 1-1h1c.5522847 0 1 .4477153 1 1s-.4477153 1-1 1z"/><path id="Shape" d="m26 47h-1c-.5522847 0-1-.4477153-1-1s.4477153-1 1-1h1c.5522847 0 1 .4477153 1 1s-.4477153 1-1 1z"/><path id="Shape" d="m26 53h-1c-.5522847 0-1-.4477153-1-1s.4477153-1 1-1h1c.5522847 0 1 .4477153 1 1s-.4477153 1-1 1z"/></g><path id="Shape" d="m14.77 48.344c-1.0557268.5166936-1.9093064 1.3702732-2.426 2.426-.0573832.1394145-.1932378.230409-.344.230409s-.2866168-.0909945-.344-.230409c-.5154948-1.0565826-1.3694174-1.9105052-2.426-2.426-.13941448-.0573832-.23040904-.1932378-.23040904-.344s.09099456-.2866168.23040904-.344c1.0565826-.5154948 1.9105052-1.3694174 2.426-2.426.0581005-.1386053.1937099-.2288022.344-.2288022s.2858995.0901969.344.2288022c.5166936 1.0557268 1.3702732 1.9093064 2.426 2.426.1394145.0573832.230409.1932378.230409.344s-.0909945.2866168-.230409.344z" fill="#f3d55b"/><path id="Shape" d="m11.541 34.689c-2.11203776 1.0325692-3.81943079 2.7399622-4.852 4.852-.11631034.2776811-.3879437.4584034-.689.4584034s-.57268966-.1807223-.689-.4584034c-1.02978311-2.1140255-2.73797446-3.8222169-4.852-4.852-.27768111-.1163103-.4584034-.3879437-.4584034-.689s.18072229-.5726897.4584034-.689c2.11443414-1.0292099 3.82279012-2.7375659 4.852-4.852.11631034-.2776811.3879437-.4584034.689-.4584034s.57268966.1807223.689.4584034c1.03256921 2.1120378 2.73996224 3.8194308 4.852 4.852.2776811.1163103.4584034.3879437.4584034.689s-.1807223.5726897-.4584034.689z" fill="#f3d55b"/></g></g></svg>