<svg id="Layer_1" enable-background="new 0 0 512 512" height="512" viewBox="0 0 512 512" width="512" xmlns="http://www.w3.org/2000/svg"><g clip-rule="evenodd" fill-rule="evenodd"><g><g><path d="m37.132 412.485 329.474-.001c8.996 0 15.656-8.152 13.86-16.968-16.939-83.136-90.459-145.695-178.596-145.695-88.139 0-161.658 62.56-178.597 145.696-1.797 8.815 4.864 16.968 13.859 16.968z" fill="#8ac9fe"/><path d="m334.393 412.484h32.213c8.996 0 15.656-8.152 13.86-16.967-16.939-83.136-90.459-145.696-178.597-145.696-5.428 0-10.8.24-16.106.705 80.87 7.081 146.594 66.975 162.49 144.991 1.796 8.815-4.864 16.967-13.86 16.967z" fill="#60b7ff"/><path d="m201.856 289.038-43.807-33.93c-9.594 2.367-18.889 5.494-27.818 9.313l34.004 60.598c.682 1.215 1.815 1.952 3.201 2.084s2.638-.379 3.536-1.444z" fill="#ffe177"/><path d="m137.445 261.517c-2.43.918-4.835 1.886-7.213 2.904l34.004 60.598c.682 1.215 1.815 1.952 3.201 2.084s2.638-.379 3.536-1.444l5.31-6.296c-.898 1.065-2.15 1.576-3.536 1.444s-2.52-.869-3.201-2.083z" fill="#ffd064"/><path d="m201.856 289.038 43.807-33.93c9.594 2.367 18.89 5.494 27.818 9.313l-34.003 60.598c-.682 1.215-1.815 1.952-3.201 2.084s-2.638-.379-3.536-1.444z" fill="#ffe177"/><path d="m266.268 261.517c2.43.918 4.834 1.886 7.213 2.904l-34.003 60.598c-.682 1.215-1.815 1.952-3.201 2.084s-2.638-.379-3.536-1.444l-5.31-6.296c.898 1.065 2.15 1.576 3.536 1.444 1.387-.132 2.52-.869 3.201-2.083z" fill="#ffd064"/><path d="m236.271 262.382 9.391-7.274c9.594 2.367 18.89 5.494 27.818 9.313l-7.313 13.032c-9.423-5.895-19.421-10.956-29.896-15.071z" fill="#ffd064"/><path d="m266.268 261.517c2.43.918 4.834 1.886 7.213 2.904l-7.313 13.032c-2.178-1.362-4.385-2.683-6.623-3.954z" fill="#ffc338"/><path d="m201.856 289.038 43.797-33.923.009-.007c-13.438-3.315-27.463-5.14-41.89-5.289-.637.013-1.276.02-1.916.02-.643 0-1.284-.007-1.924-.02-14.425.149-28.448 1.973-41.884 5.288z" fill="#f6dccd"/><path d="m236.272 262.382 9.382-7.267.009-.007c-13.438-3.315-27.463-5.14-41.89-5.289-.637.013-1.276.02-1.916.02-.643 0-1.284-.007-1.924-.02-4.771.049-9.498.282-14.175.691l.005.015c17.681 1.549 34.638 5.622 50.509 11.857z" fill="#f1cbbc"/><ellipse cx="201.87" cy="157.662" fill="#f6dccd" rx="92.157" ry="92.157" transform="matrix(.707 -.707 .707 .707 -52.358 188.922)"/><path d="m201.87 65.505c50.897 0 92.157 41.261 92.157 92.158s-41.261 92.157-92.157 92.157c-4.358 0-8.643-.31-12.839-.895 44.818-6.249 79.319-44.724 79.319-91.262 0-46.539-34.5-85.014-79.319-91.263 4.196-.585 8.481-.895 12.839-.895z" fill="#f1cbbc"/></g><g><path d="m329.677 123.834 17.083 9.029v47.694l-17.083-11.759-17.084 11.759v-47.694z" fill="#ffd064"/><path d="m201.87 47.57 93.02 2.288v82.742c0 3.942-2.751 7.248-6.629 7.963-100.841 18.676-71.941 18.676-172.782 0-3.877-.715-6.629-4.021-6.629-7.963v-82.742z" fill="#837683"/><path d="m294.89 118.129v14.471c0 3.942-2.751 7.248-6.629 7.963-100.841 18.676-71.941 18.676-172.782 0-3.877-.715-6.629-4.021-6.629-7.963v-82.742l12.491-.308v77.634c93.86 17.574 68.089 17.211 166.92-1.092 3.878-.715 6.629-4.021 6.629-7.963z" fill="#685e68"/><path d="m201.87 17.47 130.132 34.567c1.601.426 1.601 2.711 0 3.137l-130.132 34.567-130.131-34.567c-1.601-.426-1.601-2.711 0-3.137z" fill="#837683"/><path d="m307.436 45.513 24.565 6.525c1.601.426 1.601 2.712 0 3.137l-130.131 34.566-130.131-34.566c-1.601-.425-1.601-2.711 0-3.137l24.565-6.525 105.566 28.041z" fill="#685e68"/></g><g><path d="m453.188 257.782c14.203 18.34 26.536 39.702 35.317 61.172.716 1.751.687 3.521-.087 5.248s-2.076 2.927-3.86 3.558c-97.144 34.354-207.753 98.215-286.077 165.166-1.438 1.229-3.129 1.757-5.011 1.564s-3.43-1.053-4.589-2.549c-14.202-18.338-26.537-39.703-35.317-61.172-.716-1.751-.687-3.522.086-5.248.774-1.727 2.076-2.927 3.86-3.558 97.144-34.354 207.753-98.214 286.076-165.166 1.438-1.229 3.129-1.757 5.011-1.564 1.884.194 3.433 1.054 4.591 2.549z" fill="#eceff1"/><path d="m486.703 314.667c.616 1.428 1.217 2.857 1.802 4.287.716 1.751.687 3.522-.087 5.248-.774 1.727-2.076 2.927-3.86 3.558-97.144 34.354-207.753 98.215-286.076 165.167-1.438 1.229-3.129 1.757-5.011 1.564-1.882-.194-3.43-1.053-4.589-2.549-14.202-18.338-26.537-39.703-35.317-61.172-.716-1.751-.687-3.522.087-5.248.774-1.727 2.076-2.927 3.86-3.558.482-.171.968-.346 1.451-.518 8.631 20.014 20.259 39.768 33.516 56.885 1.158 1.496 2.707 2.355 4.589 2.549 1.882.193 3.573-.335 5.011-1.564 77.933-66.62 187.831-130.175 284.624-164.649z" fill="#d1d1d6"/><path d="m427.042 266.729c8.076 9.655 16 20.965 23.242 33.51 7.243 12.545 13.077 25.062 17.4 36.884 1.247 3.408-.473 7.199-3.858 8.507-39.987 15.443-82.322 35.639-124.9 60.221-42.578 24.583-81.234 51.147-114.603 78.056-2.825 2.278-6.968 1.871-9.296-.912-8.076-9.655-16-20.965-23.242-33.511-7.243-12.545-13.077-25.062-17.4-36.884-1.247-3.408.473-7.199 3.858-8.507 39.987-15.443 82.321-35.639 124.9-60.221 42.578-24.582 81.234-51.147 114.603-78.056 2.825-2.277 6.968-1.87 9.296.913z" fill="#6cf5c2"/><path d="m466.107 332.952c.547 1.399 1.073 2.79 1.578 4.172 1.247 3.408-.473 7.199-3.858 8.507-39.987 15.443-82.322 35.638-124.9 60.221s-81.234 51.147-114.603 78.056c-2.825 2.278-6.968 1.871-9.296-.912-8.076-9.655-16-20.965-23.242-33.511-7.243-12.545-13.077-25.062-17.4-36.884-1.247-3.408.473-7.199 3.858-8.507.759-.293 1.52-.589 2.281-.885 4.129 10.576 9.426 21.633 15.823 32.712 7.242 12.546 15.166 23.856 23.242 33.511 2.328 2.783 6.471 3.19 9.296.912 33.368-26.909 72.025-53.473 114.603-78.056 41.769-24.117 83.303-44.009 122.618-59.336z" fill="#00e499"/><path d="m303.073 378.09c24.078 2.635 36.117 3.953 36.117 3.953l-3.875 66.417-17.89-12.883-18.279 12.326z" fill="#fe646f"/><path d="m303.073 378.09 4.597.503-3.717 66.067-4.808 3.242zm32.616 63.936-.375 6.434-17.89-12.883 4.808-3.242z" fill="#fd4755"/><path d="m332.812 360.92c-9.757 22.169-14.635 33.254-14.635 33.254l59.457 29.853-2.211-21.935 19.814-9.667z" fill="#fe646f"/><path d="m332.812 360.92c-9.757 22.17-14.635 33.254-14.635 33.254l59.457 29.853-.601-5.958-54.048-27.137 12.594-28.616z" fill="#fd4755"/><ellipse cx="321.035" cy="374.862" fill="#ffe177" rx="31.723" ry="31.723" transform="matrix(.707 -.707 .707 .707 -171.039 336.801)"/><path d="m321.035 343.139c17.52 0 31.723 14.203 31.723 31.723s-14.203 31.723-31.723 31.723c-1.353 0-2.686-.085-3.995-.249 15.634-1.965 27.728-15.307 27.728-31.474s-12.094-29.509-27.728-31.474c1.309-.164 2.642-.249 3.995-.249z" fill="#ffd064"/></g></g><path d="m471.315 322.652c-3.954-9.306-8.661-18.738-13.932-27.893-5.319-9.155-11.108-17.948-17.204-26.015 2.603-2.156 5.154-4.307 7.696-6.449 13.132 17.18 24.57 36.935 32.854 56.916-3.107 1.111-6.26 2.265-9.414 3.441zm-92.462 51.009c27.168-13.88 54.378-26.147 81.024-36.488-4.236-11.306-9.837-23.069-16.38-34.417-6.538-11.343-13.928-22.061-21.605-31.376-27.742 22.297-58.102 43.614-90.584 63.609 14.022 3.704 25.022 14.911 28.453 29.041zm-6.801 19.783c-3.012 1.473-4.792 4.66-4.453 7.992l.753 7.461-17.712-8.897c4.523-5.003 7.78-11.155 9.291-17.961l17.448 8.806zm-49.832 34.195c-2.72-1.958-6.368-2.019-9.15-.146l-4.909 3.318 1.092-19.505c3.756 1.181 7.757 1.822 11.908 1.822 2.843 0 5.62-.306 8.298-.876l-1.158 19.764zm-101.786 47.78c-7.682-9.315-15.072-20.033-21.633-31.381-6.547-11.348-12.129-23.106-16.361-34.412 33.193-12.873 66.833-28.51 100.379-46.645-.899 3.323-1.388 6.811-1.388 10.416 0 11.287 4.73 21.478 12.322 28.721l-1.21 21.374c-25.61 16.592-49.831 34.017-72.109 51.927zm-25.992 9.084c2.528-2.146 5.098-4.297 7.701-6.448-6.091-8.072-11.913-16.86-17.19-26.015-5.291-9.155-9.993-18.588-13.932-27.898-3.168 1.177-6.321 2.335-9.437 3.441 8.307 19.981 19.707 39.74 32.858 56.92zm126.719-87.374c-13.09 0-23.727-10.642-23.727-23.732 0-13.085 10.637-23.732 23.727-23.732 13.08 0 23.727 10.647 23.727 23.732 0 13.09-10.647 23.732-23.727 23.732zm-194.211-123.922 33.353 59.439c1.29 2.287 3.606 3.798 6.218 4.048.259.024.509.033.758.033 2.344 0 4.594-1.031 6.114-2.838l28.599-33.913 28.599 33.913c1.53 1.808 3.77 2.838 6.119 2.838.25 0 .504-.009.753-.033 2.608-.249 4.938-1.76 6.218-4.048l33.33-59.401c20.941 9.983 39.848 24.193 55.612 42.065-10.873 6.872-21.991 13.603-33.362 20.164-43.317 25.017-86.979 45.864-129.759 61.971-2.546.96-4.33 3.097-4.937 5.568h-134.675c9.202-58.06 46.504-105.773 97.06-129.806zm-9.117-117.014c0-2.824.151-5.658.428-8.468 11.113 2.071 20.63 3.911 28.651 5.46 27.276 5.276 41.18 7.912 55.08 7.912s27.799-2.636 55.089-7.912c8.021-1.549 17.543-3.389 28.642-5.46.277 2.81.428 5.643.428 8.468 0 46.4-37.749 84.15-84.14 84.159-.01 0-.01 0-.019 0h-.009c-46.4-.009-84.15-37.758-84.15-84.159zm82.107-60.191c.673.179 1.36.268 2.052.268s1.379-.089 2.062-.268l82.959-22.038v57.245c-12.991 2.405-23.93 4.518-32.972 6.269-52.049 10.059-52.049 10.059-104.097 0-9.042-1.751-19.981-3.864-32.972-6.269v-57.245zm2.052-71.728-104.869 27.86 104.869 27.86 104.879-27.86zm45.591 238.102-34.101 26.41 21.901 25.959 26.787-47.737c-4.787-1.756-9.649-3.305-14.587-4.632zm-57.08 26.41-34.12-26.429c-4.952 1.332-9.814 2.876-14.582 4.622l26.81 47.765zm11.489-11.339 24.947-19.326c-8.176-1.167-16.507-1.77-24.928-1.77-.01 0-.01 0-.019 0 0 0-.009 0-.019 0-8.463 0-16.78.612-24.932 1.77zm135.45-114.386-2.833-2.127c-2.848-2.142-6.768-2.142-9.616 0l-2.829 2.127v-27.05l7.639-4.41 7.639 4.41zm161.267 158.151c-9.979-26.683-25.464-53.499-43.586-75.499-1.365-1.671-3.342-2.711-5.507-2.89s-4.283.527-5.931 1.949c-4.354 3.813-8.924 7.686-13.603 11.56-.41-.471-.824-.941-1.243-1.407-2.848-3.187-7.719-3.558-11.028-.842-22.16 18.187-46.123 35.739-71.601 52.472-26.279-30.571-60.93-51.611-99.292-60.865 32.732-16.498 55.231-50.415 55.231-89.497 0-4.453-.296-8.915-.89-13.33 1.102-1.379 1.751-3.121 1.751-4.994v-68.155l18.79-4.99v53.023l-11.64 6.717c-2.471 1.431-4.001 4.071-4.001 6.928v47.695c0 3.031 1.723 5.804 4.429 7.154 1.134.565 2.353.843 3.573.843 1.699 0 3.398-.542 4.81-1.605l10.831-8.143 10.826 8.143c2.424 1.822 5.672 2.118 8.383.762 2.711-1.351 4.429-4.123 4.429-7.154v-47.695c0-2.857-1.53-5.497-4.001-6.928l-11.64-6.722v-57.268l2.283-.607c3.507-.932 5.949-4.104 5.949-7.733 0-3.624-2.443-6.801-5.949-7.729l-136.028-36.139c-1.351-.353-2.763-.353-4.114 0l-136.038 36.139c-3.502.928-5.94 4.104-5.94 7.729 0 3.629 2.438 6.801 5.94 7.733l37.071 9.847v68.155c0 1.873.659 3.615 1.756 4.994-.589 4.415-.899 8.877-.899 13.33 0 39.095 22.522 73.027 55.273 89.516-30.552 7.404-58.973 22.311-82.681 43.751-34.76 31.432-56.643 74.303-61.608 120.703-.24 2.254.49 4.509 2.005 6.199 1.515 1.685 3.685 2.655 5.954 2.655h123.269c-.071.113-.127.226-.189.344-.922 1.958-1.021 4.203-.263 6.222 10.002 26.688 25.483 53.503 43.59 75.499 1.37 1.671 3.37 2.716 5.521 2.89.221.019.442.028.664.028 1.916 0 3.798-.697 5.257-1.972 4.382-3.827 8.939-7.696 13.608-11.56.414.47.833.941 1.242 1.403 1.577 1.76 3.761 2.664 5.959 2.664 1.789 0 3.592-.598 5.07-1.817 20.663-16.949 43.119-33.508 66.922-49.361l-.141 2.65c-.179 3.036 1.388 5.907 4.029 7.409 2.641 1.497 5.898 1.375 8.43-.325l13.659-9.211 13.372 9.63c1.379.998 3.017 1.506 4.669 1.506 1.167 0 2.349-.254 3.441-.777 2.631-1.257 4.378-3.845 4.547-6.759l1.883-32.252 28.872 14.497c1.139.57 2.358.852 3.586.852 1.591 0 3.182-.475 4.542-1.412 2.401-1.657 3.709-4.486 3.417-7.395l-1.647-16.389 14.798-7.225c2.739-1.332 4.481-4.095 4.5-7.136s-1.69-5.827-4.401-7.197l-2.367-1.196c25.629-12.689 51.216-23.859 76.209-33.273 4.001-1.511 6.119-5.907 4.801-9.979-.188-.588-.423-1.181-.612-1.77 5.695-2.118 11.343-4.137 16.803-6.015 2.071-.701 3.719-2.198 4.66-4.156.942-1.953.99-4.198.236-6.222z"/></g></svg>