<svg height="512" viewBox="0 0 256 256" width="512" xmlns="http://www.w3.org/2000/svg"><g id="Layer_1"><g><path d="m153.002 160.776h-50c-8.284 0-15-6.716-15-15v-44c0-2.761 2.239-5 5-5h70c2.761 0 5 2.239 5 5v44c0 8.285-6.716 15-15 15z" fill="#72c1e8"/><path d="m153.002 153.276h-37.145c-1.381 0-2.5-1.119-2.5-2.5s1.119-2.5 2.5-2.5h37.145c1.379 0 2.5-1.122 2.5-2.5v-39c0-1.381 1.119-2.5 2.5-2.5s2.5 1.119 2.5 2.5v39c0 4.136-3.365 7.5-7.5 7.5zm-47.145 0h-2.855c-1.381 0-2.5-1.119-2.5-2.5s1.119-2.5 2.5-2.5h2.855c1.381 0 2.5 1.119 2.5 2.5s-1.119 2.5-2.5 2.5z" fill="#c5e5fe"/><path d="m112.002 96.776h-16v-24c0-4.418 3.582-8 8-8 4.418 0 8 3.582 8 8z" fill="#efefef"/><path d="m160.002 96.776h-16v-24c0-4.418 3.582-8 8-8 4.418 0 8 3.582 8 8z" fill="#efefef"/><path d="m139.002 176.776h-22c-2.761 0-5-2.239-5-5v-11h32v11c0 2.762-2.239 5-5 5z" fill="#f0c020"/><path d="m126.835 8.782c-64.597.614-116.705 52.604-118.77 116.064-1.808 55.57 34.452 103.689 85.586 118.942l4.677-15.303c-44.236-13.149-76.145-54.922-74.247-103.849 2.132-54.955 47.44-99.08 102.431-99.849 58.122-.813 105.488 46.054 105.488 103.99 0 51.555-37.508 94.345-86.726 102.572-4.858.812-9.274-2.976-9.274-7.901v-46.671h-16v50.586c0 12.105 10.686 21.555 22.666 19.823 67.378-9.744 105.334-62.771 105.334-118.409.002-66.68-54.381-120.63-121.165-119.995z" fill="#afafaf"/><g><circle cx="88.002" cy="122.346" r="2.5"/><path d="m126.752 6.282c-65.524.621-119.105 53.361-121.19 118.564-.637 19.916 3.535 39.804 12.45 57.92.59 1.2 2.13 1.73 3.35 1.14 1.243-.621 1.736-2.116 1.14-3.35-8.807-17.912-12.554-36.827-11.939-55.71 2.04-62.656 52.723-112.823 116.021-113.562 65.605-.766 118.918 52.09 118.918 117.492-.061 59.45-42.5 107.12-103.19 115.93-10.533 1.524-19.788-6.803-19.81-17.35v-48.08h11v44.17c.011 6.277 5.562 11.413 12.18 10.37 47.348-7.918 83.837-46.935 88.34-94.91.146-1.389-.885-2.586-2.25-2.73-1.399-.13-2.59.89-2.72 2.26-4.31 45.69-38.93 82.88-84.19 90.45-3.345.556-6.349-2.054-6.359-5.44v-44.17h.5c4.136 0 7.5-3.364 7.5-7.5v-8.5h6.5c9.649 0 17.5-7.85 17.5-17.5v-44c0-4.13-3.37-7.5-7.5-7.5h-.5v-21.5c0-5.79-4.71-10.5-10.5-10.5s-10.5 4.71-10.5 10.5v21.5h-27v-21.5c0-5.79-4.71-10.5-10.5-10.5s-10.5 4.71-10.5 10.5v21.5h-.5c-4.13 0-7.5 3.37-7.5 7.5v10.57c0 1.38 1.12 2.5 2.5 2.5s2.5-1.12 2.5-2.5v-10.57c0-1.38 1.12-2.5 2.5-2.5h70c1.38 0 2.5 1.12 2.5 2.5v44c-.01 6.88-5.62 12.49-12.5 12.5-6.015 0-44.054 0-50 0-6.88-.01-12.49-5.62-12.5-12.5v-13.43c0-1.38-1.12-2.5-2.5-2.5s-2.5 1.12-2.5 2.5v13.43c0 9.65 7.85 17.5 17.5 17.5h6.5v8.5c0 4.136 3.364 7.5 7.5 7.5h.5v48.08c.011 13.732 12.157 24.281 25.52 22.3 66.349-9.547 107.543-61.796 107.48-120.88-.001-67.891-55.281-123.142-123.751-122.494zm-17.25 87.994h-11v-21.5c0-3.033 2.467-5.5 5.5-5.5s5.5 2.467 5.5 5.5zm48 0h-11v-21.5c0-3.033 2.468-5.5 5.5-5.5s5.5 2.467 5.5 5.5zm-40.5 80c-1.378 0-2.5-1.122-2.5-2.5v-8.5h27v8.5c0 1.378-1.121 2.5-2.5 2.5z"/><path d="m94.371 241.396c-24.72-7.37-46.66-23.02-61.81-44.07-.77-1.07-2.41-1.34-3.49-.57-1.149.829-1.346 2.415-.57 3.49 16.062 22.312 38.86 38.314 64.44 45.94 1.264.387 2.7-.336 3.11-1.68.399-1.341-.374-2.716-1.68-3.11z"/><path d="m23.752 188.296c-1.18.71-1.57 2.25-.86 3.43 0 .01.01.01.01.01.701 1.153 2.224 1.555 3.42.85 1.18-.71 1.57-2.25.86-3.43-.68-1.14-2.291-1.55-3.43-.86z"/><path d="m99.042 226.086c-43.469-12.926-74.244-54.443-72.46-101.35 2.08-53.9 45.99-96.7 99.97-97.45 51.631-1.072 97.303 37.764 102.48 91.66.13 1.37 1.359 2.39 2.729 2.25 1.37-.13 2.38-1.36 2.25-2.73-5.353-55.727-53.164-97.264-107.53-96.18-56.324.818-102.691 45.906-104.9 102.25-1.817 50.723 31.128 92.996 76.03 106.34 1.416.413 2.742-.435 3.11-1.68.4-1.32-.359-2.72-1.679-3.11z"/><path d="m229.502 128.686v.02c.01 1.37 1.13 2.48 2.5 2.48 1.38 0 2.49-1.12 2.5-2.49 0 0 0 0 0-.01 0-1.38-1.12-2.5-2.5-2.5-1.403 0-2.5 1.132-2.5 2.5z"/><path d="m128.252 110.496c-1.23-.55-2.75.03-3.31 1.25l-5.44 12.06c-.738 1.623.448 3.53 2.28 3.53h8.39l-4.41 8.82c-.617 1.276-.084 2.758 1.12 3.36 1.258.61 2.736.111 3.36-1.12l6.22-12.45c.827-1.656-.368-3.61-2.24-3.61h-8.57l3.85-8.53c.584-1.323-.038-2.753-1.25-3.31z"/></g></g></g></svg>