<svg id="Capa_1" enable-background="new 0 0 512 512" height="512" viewBox="0 0 512 512" width="512" xmlns="http://www.w3.org/2000/svg"><g id="Page-1"><g id="_x30_10---PC-Tower-Repair"><g clip-rule="evenodd" fill-rule="evenodd"><path id="Path" d="m469.333 119.552v332.715c-.028 9.414-7.653 17.039-17.067 17.067h-401.066c-11.316 0-22.168-4.495-30.17-12.497s-12.497-18.854-12.497-30.17v-341.334c0-23.564 19.103-42.667 42.667-42.667h341.248" fill="#607d8b"/><path id="Path_1_" d="m392.448 42.667h-25.6l76.885 76.885v332.715c-.028 9.414-7.653 17.039-17.067 17.067h25.6c9.414-.028 17.039-7.653 17.067-17.067v-332.715z" fill="#37474f"/><path id="Path_2_" d="m213.333 76.8v358.4h-120.234c-4.163-.03-7.697-3.059-8.363-7.168-3.056-17.858-17.044-31.846-34.901-34.901-4.109-.666-7.138-4.2-7.168-8.363v-257.536c.03-4.163 3.059-7.697 7.168-8.363 17.858-3.056 31.846-17.044 34.901-34.901.666-4.109 4.2-7.138 8.363-7.168z" fill="#545c60"/><path id="Path_3_" d="m435.2 153.685v231.083c-.03 4.163-3.059 7.697-7.168 8.363-17.858 3.056-31.846 17.044-34.901 34.901-.666 4.109-4.2 7.138-8.363 7.168h-171.435v-358.4h144.981z" fill="#37474f"/><path id="Path_4_" d="m51.2 469.333h102.4v17.067c0 9.426-7.641 17.067-17.067 17.067h-68.266c-9.426 0-17.067-7.641-17.067-17.067z" fill="#9e9e9e"/><path id="Path_5_" d="m341.333 469.333h102.4v17.067c0 9.426-7.641 17.067-17.067 17.067h-68.266c-9.426 0-17.067-7.641-17.067-17.067z" fill="#9e9e9e"/><path id="Rectangle" d="m93.867 315.733h59.733c9.426 0 17.067 7.641 17.067 17.067v17.067c0 9.426-7.641 17.067-17.067 17.067h-59.733c-9.426 0-17.067-7.641-17.067-17.067v-17.067c0-9.426 7.641-17.067 17.067-17.067z" fill="#ffdc00"/><path id="Rectangle_1_" d="m93.867 230.4h59.733c9.426 0 17.067 7.641 17.067 17.067v17.067c0 9.426-7.641 17.067-17.067 17.067h-59.733c-9.426 0-17.067-7.641-17.067-17.067v-17.067c0-9.426 7.641-17.067 17.067-17.067z" fill="#ffdc00"/><path id="Rectangle_2_" d="m93.867 145.067h59.733c9.426 0 17.067 7.641 17.067 17.067v17.066c0 9.426-7.641 17.067-17.067 17.067h-59.733c-9.426 0-17.067-7.641-17.067-17.067v-17.067c0-9.425 7.641-17.066 17.067-17.066z" fill="#ffdc00"/><path id="Path_6_" d="m263.253 281.6h95.147c4.713 0 8.533 3.821 8.533 8.533v102.4c0 4.713-3.82 8.533-8.533 8.533h-102.4c-4.713 0-8.533-3.82-8.533-8.533v-93.525z" fill="#60a917"/><path id="Path_7_" d="m358.4 281.6h-25.6c4.713 0 8.533 3.821 8.533 8.533v102.4c0 4.713-3.82 8.533-8.533 8.533h25.6c4.713 0 8.533-3.82 8.533-8.533v-102.4c0-4.712-3.82-8.533-8.533-8.533z" fill="#549414"/><path id="Rectangle_3_" d="m213.333 341.333h34.133v51.2h-34.133z" fill="#fec108"/><path id="Path_8_" d="m498.091 90.795-62.976 62.976c-2.298 2.603-5.963 3.52-9.216 2.304-6.515-2.778-14.07-1.213-18.944 3.925-5.156 4.897-6.751 12.468-4.011 19.029 1.195 3.254.282 6.908-2.304 9.216l-4.181 4.181c-6.068 6.643-16.362 7.139-23.04 1.109l-54.955-54.955c-2.915-3.199-4.437-7.427-4.229-11.75s2.129-8.386 5.338-11.29l4.181-4.267c2.341-2.535 5.978-3.41 9.216-2.219 6.555 2.567 14.008 1.008 18.985-3.969 4.978-4.978 6.536-12.43 3.969-18.985-1.216-3.253-.299-6.918 2.304-9.216l62.976-62.976c4.226-4.39 10.447-6.237 16.384-4.864 15.492 4.486 29.473 13.099 40.448 24.917 11.835 10.961 20.451 24.947 24.917 40.448 1.375 5.938-.472 12.16-4.862 16.386z" fill="#ff9801"/><path id="Path_9_" d="m502.955 74.411c-4.466-15.501-13.082-29.487-24.917-40.448-10.975-11.818-24.956-20.431-40.448-24.917-5.3-1.201-10.855.193-14.959 3.755 11.161 5.147 21.268 12.323 29.807 21.163 11.835 10.961 20.451 24.947 24.917 40.448 1.373 5.937-.474 12.158-4.864 16.384l-62.976 62.976c-2.298 2.603-5.963 3.52-9.216 2.304-6.515-2.778-14.07-1.213-18.944 3.925-5.156 4.897-6.751 12.468-4.011 19.029 1.196 3.254.282 6.908-2.304 9.216l-3.456 3.456 1.835 1.835c6.678 6.029 16.972 5.534 23.04-1.109l4.181-4.181c2.586-2.308 3.5-5.962 2.304-9.216-2.741-6.561-1.145-14.133 4.011-19.029 4.874-5.138 12.429-6.704 18.944-3.925 3.253 1.216 6.918.299 9.216-2.304l62.976-62.976c4.39-4.228 6.237-10.45 4.864-16.386z" fill="#f57c00"/><path id="Path_10_" d="m358.059 178.176-87.04 86.955c-.749.769-1.356 1.664-1.792 2.645l-8.021 18.603c-1.811 4.247-4.997 7.763-9.045 9.984l-33.365 18.688c-2.745 1.493-6.145 1.007-8.363-1.195l-12.288-12.373c-2.197-2.15-2.686-5.504-1.195-8.192l18.603-33.451c2.247-4.079 5.79-7.293 10.069-9.131l18.517-7.936c1.018-.414 1.946-1.022 2.731-1.792l87.04-86.955z" fill="#9e9e9e"/></g><g><path id="Shape" d="m42.667 477.099v9.301c0 14.138 11.462 25.6 25.6 25.6h68.267c14.138 0 25.6-11.461 25.6-25.6v-8.533h170.666v8.533c0 14.138 11.462 25.6 25.6 25.6h68.267c14.138 0 25.6-11.461 25.6-25.6v-8.533c14.138 0 25.6-11.462 25.6-25.6v-329.148l26.266-26.266c6.508-6.355 9.214-15.653 7.134-24.508-4.887-16.978-14.286-32.313-27.196-44.373-12.073-12.93-27.426-22.343-44.425-27.238-8.857-2.066-18.15.638-24.516 7.134l-26.257 26.266h-337.673c-28.265.028-51.172 22.934-51.2 51.199v341.333c.046 24.957 18.062 46.253 42.667 50.433zm102.4 9.301c0 4.713-3.821 8.533-8.533 8.533h-68.267c-4.713 0-8.533-3.82-8.533-8.533v-8.533h85.333zm290.133 0c0 4.713-3.82 8.533-8.533 8.533h-68.267c-4.713 0-8.533-3.82-8.533-8.533v-8.533h85.333zm-7.996-466.466c2.089-2.274 5.22-3.282 8.243-2.654 14.016 4.13 26.65 11.984 36.557 22.724 10.736 9.908 18.588 22.537 22.724 36.548.607 3.021-.402 6.141-2.662 8.235l-63.394 63.147c-9.68-3.635-20.592-1.247-27.871 6.097-7.278 7.345-9.567 18.278-5.844 27.925l-4.523 4.42c-2.758 3.303-7.651 3.792-11.008 1.101l-54.955-54.904c-1.221-1.317-1.839-3.082-1.707-4.873.152-2.327 1.165-4.514 2.842-6.135l4.634-4.429c9.683 3.634 20.596 1.245 27.876-6.101s9.569-18.281 5.848-27.93zm-80.204 65.399c.168 1.503.569 2.971 1.186 4.352 1.067 3.295.197 6.911-2.253 9.359s-6.066 3.316-9.361 2.246c-6.504-2.735-14.022-1.143-18.859 3.994l-4.207 4.207c-4.682 4.62-7.47 10.822-7.817 17.391-.397 6.604 2.046 13.063 6.716 17.749l9.387 9.344-80.981 80.939-18.517 7.953c-.154.068-.282.162-.427.23v-157.764zm-1.059 92.826-80.939 80.939c-1.538 1.528-2.767 3.339-3.618 5.333l-8.013 18.637c-1.076 2.499-2.964 4.562-5.359 5.854l-32.341 18.039-10.633-10.633 18.022-32.427c1.303-2.4 3.382-4.286 5.897-5.35l18.577-7.987c1.996-.853 3.809-2.081 5.342-3.618l80.947-80.939zm-107.008 205.841h-17.067v-34.133h17.067zm0-51.2h-17.067v-9.933c.35-.154.708-.222 1.05-.401l16.017-8.934zm17.067-28.783.299-.171c5.579-3.076 9.999-7.891 12.587-13.713h89.514v102.4h-102.4zm-51.2-42.368-15.36 27.563c-3.331 6.013-2.245 13.508 2.654 18.33l12.186 12.186c.154.154.333.265.486.41v106.53h-111.659c-3.598-21.477-20.429-38.305-41.907-41.899l.068-257.485c21.46-3.637 38.255-20.479 41.83-41.95h111.702zm17.067 139.418h19.439c3.024 5.263 8.624 8.515 14.694 8.533h102.4c9.426 0 17.067-7.641 17.067-17.067v-102.4c0-9.426-7.641-17.067-17.067-17.067h-82.15l.853-1.903 80.939-80.939 9.387 9.387c4.399 4.368 10.364 6.792 16.563 6.733 6.987-.043 13.67-2.861 18.577-7.834l4.198-4.198c5.142-4.84 6.737-12.365 4.002-18.876-1.068-3.293-.199-6.907 2.25-9.354s6.063-3.314 9.355-2.243c1.381.615 2.849 1.012 4.352 1.178l-.102 219.742c-21.448 3.639-38.244 20.454-41.856 41.907h-162.901zm-204.8-315.734c0-18.851 15.282-34.133 34.133-34.133h320.606l-17.067 17.067h-261.64c-8.323-.002-15.423 6.022-16.777 14.234-2.416 14.295-13.598 25.505-27.887 27.955-8.241 1.32-14.302 8.431-14.302 16.777v257.536c-.006 8.319 6.016 15.418 14.225 16.768 14.3 2.418 25.511 13.608 27.955 27.904 1.335 8.235 8.443 14.288 16.785 14.293h291.669c8.334-.001 15.438-6.042 16.777-14.268 2.445-14.273 13.617-25.458 27.887-27.921 8.241-1.32 14.302-8.431 14.302-16.777v-227.516l17.067-17.067v312.081c0 4.713-3.82 8.533-8.533 8.533h-401.067c-18.851 0-34.133-15.282-34.133-34.133z"/><path id="Shape_1_" d="m153.6 307.2h-59.733c-14.138 0-25.6 11.462-25.6 25.6v17.067c0 14.138 11.462 25.6 25.6 25.6h59.733c14.138 0 25.6-11.462 25.6-25.6v-17.067c0-14.138-11.462-25.6-25.6-25.6zm8.533 42.667c0 4.713-3.821 8.533-8.533 8.533h-59.733c-4.713 0-8.533-3.821-8.533-8.533v-17.067c0-4.713 3.821-8.533 8.533-8.533h59.733c4.713 0 8.533 3.82 8.533 8.533z"/><path id="Shape_2_" d="m153.6 221.867h-59.733c-14.138 0-25.6 11.462-25.6 25.6v17.067c0 14.138 11.462 25.6 25.6 25.6h59.733c14.138 0 25.6-11.462 25.6-25.6v-17.067c0-14.139-11.462-25.6-25.6-25.6zm8.533 42.666c0 4.713-3.821 8.533-8.533 8.533h-59.733c-4.713 0-8.533-3.82-8.533-8.533v-17.067c0-4.713 3.821-8.533 8.533-8.533h59.733c4.713 0 8.533 3.821 8.533 8.533z"/><path id="Shape_3_" d="m68.267 162.133v17.067c0 14.138 11.462 25.6 25.6 25.6h59.733c14.138 0 25.6-11.462 25.6-25.6v-17.067c0-14.139-11.462-25.6-25.6-25.6h-59.733c-14.139 0-25.6 11.462-25.6 25.6zm17.066 0c0-4.713 3.821-8.533 8.533-8.533h59.734c4.713 0 8.533 3.821 8.533 8.533v17.067c0 4.713-3.821 8.533-8.533 8.533h-59.733c-4.713 0-8.533-3.82-8.533-8.533v-17.067z"/><g clip-rule="evenodd" fill-rule="evenodd"><path id="Path_11_" d="m162.133 392.533h-42.667c-4.713 0-8.533 3.82-8.533 8.533s3.821 8.533 8.533 8.533h42.667c4.713 0 8.533-3.821 8.533-8.533s-3.82-8.533-8.533-8.533z"/><path id="Path_12_" d="m119.467 119.467h42.667c4.713 0 8.533-3.821 8.533-8.533 0-4.713-3.821-8.533-8.533-8.533h-42.667c-4.713 0-8.533 3.821-8.533 8.533-.001 4.712 3.82 8.533 8.533 8.533z"/><circle id="Oval" cx="281.6" cy="315.733" r="8.533"/><path id="Path_13_" d="m332.8 358.4h-51.2c-4.713 0-8.533 3.82-8.533 8.533s3.82 8.533 8.533 8.533h51.2c4.713 0 8.533-3.82 8.533-8.533s-3.82-8.533-8.533-8.533z"/><path id="Path_14_" d="m401.067 307.2c4.713 0 8.533-3.82 8.533-8.533v-17.067c0-4.713-3.821-8.533-8.533-8.533s-8.533 3.82-8.533 8.533v17.067c-.001 4.713 3.82 8.533 8.533 8.533z"/><path id="Path_15_" d="m401.067 358.4c4.713 0 8.533-3.821 8.533-8.533v-17.067c0-4.713-3.821-8.533-8.533-8.533s-8.533 3.82-8.533 8.533v17.067c-.001 4.712 3.82 8.533 8.533 8.533z"/><path id="Path_16_" d="m391.526 104.823c2.264.006 4.437-.894 6.033-2.5l38.17-38.153c2.157-2.157 2.999-5.301 2.21-8.247s-3.091-5.248-6.037-6.037-6.09.053-8.247 2.21l-38.161 38.161c-2.44 2.44-3.169 6.11-1.849 9.298 1.32 3.189 4.431 5.268 7.881 5.268z"/><path id="Path_17_" d="m409.668 126.498c3.332 3.331 8.734 3.331 12.066 0l38.161-38.161c3.332-3.334 3.33-8.738-.004-12.07s-8.738-3.33-12.07.004l-38.153 38.161c-3.331 3.332-3.331 8.734 0 12.066z"/><circle id="Oval_1_" cx="247.467" cy="110.933" r="8.533"/><circle id="Oval_2_" cx="281.6" cy="145.067" r="8.533"/><circle id="Oval_3_" cx="281.6" cy="110.933" r="8.533"/><path id="Path_18_" d="m247.467 204.8c4.713 0 8.533-3.821 8.533-8.533v-51.2c0-4.713-3.82-8.533-8.533-8.533s-8.533 3.821-8.533 8.533v51.2c-.001 4.713 3.82 8.533 8.533 8.533z"/></g></g></g></g></svg>