<svg height="512" viewBox="0 0 64 64" width="512" xmlns="http://www.w3.org/2000/svg"><g id="Fill_Outline" data-name="Fill Outline"><g id="Color"><path d="m30 3h31v58h-31z" fill="#d0d8da"/><path d="m61 19v7h-31v-23h9v5a10.994 10.994 0 0 0 11 11z" fill="#93999a"/><rect fill="#57b7eb" height="8" rx="2" width="4" x="53" y="31"/><rect fill="#57b7eb" height="8" rx="2" width="4" x="53" y="10"/><path d="m30 26h31v2h-31z" fill="#656b76"/><path d="m61 41v20h-31v-33h14v1a12 12 0 0 0 12 12z" fill="#93999a"/><path d="m57 37a2 2 0 0 1 -4 0v-4a2.006 2.006 0 0 1 2-2v4a2.006 2.006 0 0 0 2 2z" fill="#4891d3"/><path d="m57 16a2 2 0 0 1 -4 0v-4a2.006 2.006 0 0 1 2-2v4a2.006 2.006 0 0 0 2 2z" fill="#4891d3"/><path d="m3 27h36v34h-36z" fill="#e9f1f2"/><path d="m39 54v7h-36v-34h8v3a24.006 24.006 0 0 0 24 24z" fill="#d0d8da"/><circle cx="21" cy="44" fill="#f9e109" r="12"/><path d="m28.75 53.17a12.007 12.007 0 0 1 -16.92-16.92 24.014 24.014 0 0 0 16.92 16.92z" fill="#fcbc04"/><path d="m3 19h36v8h-36z" fill="#e9f1f2"/><path d="m39 23v4h-36v-8h17.35a5.981 5.981 0 0 0 5.65 4z" fill="#d0d8da"/><path d="m3 19h14v8h-14z" fill="#84d2f4"/><circle cx="21" cy="44" fill="#57b7eb" r="8"/><path d="m24.11 51.38a8.018 8.018 0 0 1 -10.49-10.49 23.955 23.955 0 0 0 10.49 10.49z" fill="#4891d3"/><path d="m24.11 51.38a8.018 8.018 0 0 1 -10.49-10.49 23.955 23.955 0 0 0 10.49 10.49z" fill="#4891d3"/><path d="m3 55h8v6h-8z" fill="#fcbc04"/><path d="m17 27h-14v-8h5z" fill="#57b7eb"/><path d="m28.93 45.1a8.04 8.04 0 0 1 -1.72 3.94l-11.25-11.25a8.04 8.04 0 0 1 3.94-1.72z" fill="#84d2f4"/><path d="m24.89 50.98a7.41 7.41 0 0 1 -2.02.8l-9.65-9.65a7.41 7.41 0 0 1 .8-2.02z" fill="#84d2f4"/><g fill="#57b7eb"><path d="m13.63 40.9a23.515 23.515 0 0 0 3.81 5.45l-4.22-4.22a7.1 7.1 0 0 1 .41-1.23z"/><path d="m24.1 51.37a7.1 7.1 0 0 1 -1.23.41l-4.22-4.22a23.515 23.515 0 0 0 5.45 3.81z"/><path d="m13.63 40.9a23.515 23.515 0 0 0 3.81 5.45l-4.22-4.22a7.1 7.1 0 0 1 .41-1.23z"/><path d="m24.1 51.37a7.1 7.1 0 0 1 -1.23.41l-4.22-4.22a23.515 23.515 0 0 0 5.45 3.81z"/></g><path d="m39 45h18v16h-18z" fill="#e9f1f2"/><path d="m57 56v5h-18v-16h4v5a6 6 0 0 0 6 6z" fill="#d0d8da"/><path d="m39 49h9a1 1 0 0 1 1 1v6a1 1 0 0 1 -1 1h-9a0 0 0 0 1 0 0v-8a0 0 0 0 1 0 0z" fill="#84d2f4"/><path d="m48 49h-1l-8 8h9a1 1 0 0 0 1-1v-6a1 1 0 0 0 -1-1z" fill="#57b7eb"/><path d="m49 56a1 1 0 0 1 -1 1h-9v-8h4v1a6 6 0 0 0 6 6z" fill="#57b7eb"/><path d="m49 56a1 1 0 0 1 -1 1h-9l4.53-4.53a6.006 6.006 0 0 0 5.47 3.53z" fill="#4891d3"/><path d="m5 7h20v12h-20z" fill="#f9e109"/><path d="m13 7h12v12h-12z" fill="#4891d3"/><rect fill="#2d72bc" height="8" rx="2" width="8" x="15" y="9"/><path d="m13 16v3h-8v-12h3v5a4 4 0 0 0 4 4z" fill="#fcbc04"/><path d="m11 7h2v10h-2z" fill="#fcbc04"/></g><g id="Outline_copy" fill="#464a51" data-name="Outline copy"><path d="m61 2h-31a1 1 0 0 0 -1 1v12a1 1 0 0 0 2 0v-11h29v21h-20v-6a1 1 0 0 0 -1-1h-13v-11a1 1 0 0 0 -1-1h-3.586l2.293-2.293a1 1 0 1 0 -1.414-1.414l-3.293 3.293-3.293-3.293a1 1 0 0 0 -1.414 1.414l2.293 2.293h-11.586a1 1 0 0 0 -1 1v8a1 1 0 0 0 2 0v-7h6v10h-9a1 1 0 0 0 -1 1v20a1 1 0 0 0 2 0v-11h31a1 1 0 0 0 0-2h-17v-2h2a1 1 0 0 0 0-2h-2v-2h20v40h-26v-5a1 1 0 0 0 -1-1h-7v-11a1 1 0 0 0 -2 0v18a1 1 0 0 0 1 1h36a1 1 0 0 0 1-1v-3h8a2 2 0 0 0 2-2v-6a2 2 0 0 0 -2-2h-8v-2h16v14h-13a1 1 0 0 0 0 2h14a1 1 0 0 0 1-1v-16a1 1 0 0 0 -1-1h-17v-17h20v34a1 1 0 0 0 2 0v-58a1 1 0 0 0 -1-1zm-43 14h2v2h-2zm-4-4h2v2h-2zm4 0h2v2h-2zm2-4v2h-2v-2zm4 6h-2v-2h2zm-2 2h2v2h-2zm2-6h-2v-2h2zm-8-2v2h-2v-2zm-2 8h2v2h-2zm-10 10v-6h12v6zm0 34v-4h6v4zm44-4h-6.586l6-6h.586zm-3.416-6-4.584 4.586v-4.586z"/><path d="m55 30a3 3 0 0 0 -3 3v4a3 3 0 0 0 6 0v-4a3 3 0 0 0 -3-3zm1 7a1 1 0 0 1 -2 0v-4a1 1 0 0 1 2 0z"/><path d="m55 17a1 1 0 0 1 -1-1 1 1 0 0 0 -2 0 3 3 0 0 0 6 0v-4a3 3 0 0 0 -6 0 1 1 0 0 0 2 0 1 1 0 0 1 2 0v4a1 1 0 0 1 -1 1z"/><circle cx="34" cy="23" r="1"/><circle cx="30" cy="23" r="1"/><circle cx="26" cy="23" r="1"/><path d="m13 22h-6a1 1 0 0 0 0 2h6a1 1 0 0 0 0-2z"/><path d="m21 31a13.024 13.024 0 1 0 10.589 5.475 1 1 0 1 0 -1.629 1.16 11.024 11.024 0 1 1 -2.6-2.595 1 1 0 1 0 1.16-1.629 12.911 12.911 0 0 0 -7.52-2.411z"/><path d="m21 51a6.978 6.978 0 0 1 -3.549-.976 1 1 0 0 0 -1.017 1.723 9.02 9.02 0 1 0 -3.181-3.181 1 1 0 0 0 1.723-1.017 6.994 6.994 0 1 1 6.024 3.451z"/><path d="m35 32a1 1 0 0 0 0-2h-3a1 1 0 0 0 0 2z"/><path d="m10 30h-3a1 1 0 0 0 0 2h3a1 1 0 0 0 0-2z"/><circle cx="53" cy="49" r="1"/><circle cx="53" cy="53" r="1"/><circle cx="9" cy="11" r="1"/><circle cx="9" cy="15" r="1"/></g></g></svg>