<svg height="512" viewBox="0 0 60 58" width="512" xmlns="http://www.w3.org/2000/svg"><g id="Page-1" fill="none" fill-rule="evenodd"><g id="010---Gaming-with-Popcorn"><rect id="Rectangle" fill="#84b5cb" height="40" rx="2" width="58" x="1"/><path id="Path" d="m55 46c-5 0-5-6-5-6h-40s0 6-5 6z" fill="#35495e"/><path id="Path" d="m59 47h-58c-.55228475 0-1-.4477153-1-1s.44771525-1 1-1h58c.5522847 0 1 .4477153 1 1s-.4477153 1-1 1z" fill="#547580"/><path id="Path" d="m6 10c-.4043959-.00008635-.76893405-.2437275-.92367798-.61734544s-.06922994-.80366031.21667798-1.08965456l4-4c.25107447-.25995658.62287789-.3642126.9725073-.27269716.3496295.09151544.6226744.3645604.7141899.71418984.0915154.34962943-.0127406.72143285-.2726972.97250732l-4 4c-.18749273.18754937-.44180519.29294336-.707.293z" fill="#9fc9d3"/><path id="Path" d="m6 16c-.4043959-.0000863-.76893405-.2437275-.92367798-.6173454-.15474393-.373618-.06922994-.8036603.21667798-1.0896546l10-10c.2510745-.25995658.6228779-.3642126.9725073-.27269716.3496295.09151544.6226744.3645604.7141899.71418984.0915154.34962943-.0127406.72143285-.2726972.97250732l-10 10c-.18749273.1875494-.44180519.2929434-.707.293z" fill="#9fc9d3"/><path id="Path" d="m59 35v3c-.0032948 1.1032019-.8967981 1.9967052-2 2h-54c-1.10320187-.0032948-1.9967052-.8967981-2-2v-3z" fill="#547580"/><path id="Path" d="m13.01 19.23-2.57 5.82c-.3710545 1.0213535-.3019583 2.1508465.190825 3.1193552s1.3651258 1.6893049 2.409175 1.9906448c.3482412.0981622.7081908.1486224 1.07.15 1.4106118.0034356 2.7137155-.7532052 3.41-1.98l1.39-2.42z" fill="#bdc3c7"/><path id="Path" d="m46.82 20.55c.1485125-.6278468.2057676-1.2738197.17-1.918-.2895652-3.7814857-3.4698262-6.6858496-7.262-6.632h-19.439c-3.8588731-.0584864-7.0758418 2.9395748-7.289 6.793-.0880694 3.112902 1.8908985 5.9096701 4.8557427 6.862358 2.9648441.9526878 6.2025426-.1678188 7.9442573-2.749358.3701854-.5632249.9980171-.9034256 1.672-.906h5.082c.6796014.0084322 1.3101803.3554194 1.681.925.6933805 1.0265565 1.647791 1.8498003 2.765 2.385z" fill="#ecf0f1"/><path id="Path" d="m20 23c-.5522847 0-1-.4477153-1-1v-6c0-.5522847.4477153-1 1-1s1 .4477153 1 1v6c0 .5522847-.4477153 1-1 1z" fill="#3f5c6c"/><path id="Path" d="m23 20h-6c-.5522847 0-1-.4477153-1-1s.4477153-1 1-1h6c.5522847 0 1 .4477153 1 1s-.4477153 1-1 1z" fill="#3f5c6c"/><circle id="Oval" cx="38" cy="19" fill="#ff5364" r="1"/><circle id="Oval" cx="42" cy="19" fill="#ff5364" r="1"/><circle id="Oval" cx="40" cy="16" fill="#ff5364" r="1"/><path id="Path" d="m33 18h-6c-.5522847 0-1-.4477153-1-1s.4477153-1 1-1h6c.5522847 0 1 .4477153 1 1s-.4477153 1-1 1z" fill="#3f5c6c"/><path id="Path" d="m58.228 30.17-.61 1.83-.29 1c-.07-.01-.93 0-1 0h-21c-.21 0-.08-.97-.27-.91l-.02-.09-.61-1.83c-.24046-.7177416-.0502169-1.509774.49-2.04l1.25-1.26c.1862405-.1847334.4071341-.3308631.65-.43-.1163237-.7351431.1839431-1.4742615.78-1.92l2.03-1.53c.5638204-.4129685 1.3002374-.5073809 1.95-.25l.11.04 3.1-1.85c.9475791-.5699001 2.1324209-.5699001 3.08 0l3.1 1.85h.01l.1-.04c.6497626-.2573809 1.3861796-.1629685 1.95.25l2.03 1.53c.5960569.4457385.8963237 1.1848569.78 1.92.2428659.0991369.4637595.2452666.65.43l1.25 1.26c.5402169.530226.73046 1.3222584.49 2.04z" fill="#f3d55b"/><path id="Path" d="m40.409 28.74c-.3823951.0007653-.7317466-.216609-.9-.56-.1179234-.2339282-.3240916-.411312-.573-.493l-1.045-.348c-.2237519-.0735586-.4664779-.0643321-.684.026-.3089888.1143329-.6540566.0736402-.9279734-.1094328s-.4434907-.4863424-.4560266-.8155672c-.0009155-.4425079.289107-.8330009.713-.96.6388743-.2390915 1.34024-.2528507 1.988-.039l1.05.351c.7544924.2530505 1.3775284.7955091 1.732 1.508.1515508.310173.1324024.6765784-.0506537.9692649-.1830562.2926865-.5041294.4702576-.8493463.4697351z" fill="#f29c1f"/><path id="Path" d="m43.028 24.32c-.1277917.0000536-.2544093-.0243873-.373-.072l-1.341-.54c-.5125202-.2062784-.7607784-.7889798-.5545-1.3015s.7889798-.7607784 1.3015-.5545l1.341.54c.4448789.1786118.7004153.6478126.6091224 1.1184345-.0912928.470622-.503728.8102474-.9831224.8095655z" fill="#f29c1f"/><path id="Path" d="m52.247 28.74c-.3452169.0005225-.6662901-.1770486-.8493463-.4697351-.1830561-.2926865-.2022045-.6590919-.0506537-.9692649.3541873-.7108121.9749372-1.252845 1.727-1.508l1.056-.352c.6659992-.2193419 1.3877908-.1984665 2.04.059.4551008.1651414.7265391.6325767.6443963 1.109694-.0821429.4771173-.4942718.8268663-.9783963.830306-.133175.0001066-.2651662-.0250022-.389-.074-.2175572-.0915313-.4609133-.1011235-.685-.027l-1.05.35c-.2466213.0824524-.4507397.2588998-.568.491-.1677778.3424188-.5156867.5596194-.897.56z" fill="#f29c1f"/><path id="Path" d="m49.628 24.32c-.4793944.0006819-.8918296-.3389435-.9831224-.8095655-.0912929-.4706219.1642435-.9398227.6091224-1.1184345l1.34-.54c.5125202-.2065545 1.0954455.0414798 1.302.554s-.0414798 1.0954455-.554 1.302l-1.342.54c-.1182785.0474874-.2445447.071926-.372.072z" fill="#f29c1f"/><path id="Path" d="m49.327 28c-.197245.0002071-.3900922-.0582737-.554-.168l-1.336-.891c-.6718445-.4479544-1.5471555-.4479544-2.219 0l-1.335.891c-.4595009.306518-1.080482.1825009-1.387-.277s-.1825009-1.080482.277-1.387l1.336-.891c1.3430344-.8980682 3.0949656-.8980682 4.438 0l1.336.891c.3668102.2445875.5301634.700538.4021268 1.122414-.1280366.4218761-.5172499.7101263-.9581268.709586z" fill="#f29c1f"/><path id="Path" d="m58.978 34.3-3.39 22c-.1484567.9785195-.9902838 1.7013004-1.98 1.7h-14.56c-.9897162.0013004-1.8315433-.7214805-1.98-1.7l-3.39-22c-.1430596-.9751673.4409995-1.9105083 1.38-2.21.1941923-.0606303.3965652-.0909862.6-.09h21.342c.0701487-.0016592.1403264.0016826.21.01.5419329.0607013 1.036051.3386737 1.3693043.7703196.3332533.431646.477124.9800278.3986957 1.5196804z" fill="#e64c3c"/><circle id="Oval" cx="46.328" cy="45" fill="#ecf0f1" r="7"/><circle id="Oval" cx="46.328" cy="41" fill="#35495e" r="1"/><circle id="Oval" cx="46.328" cy="45" fill="#e64c3c" r="2"/><g fill="#35495e"><circle id="Oval" cx="46.328" cy="49" r="1"/><circle id="Oval" cx="42.864" cy="43" r="1"/><circle id="Oval" cx="49.792" cy="47" r="1"/><circle id="Oval" cx="42.864" cy="47" r="1"/><circle id="Oval" cx="49.792" cy="43" r="1"/></g></g></g></svg>