<svg id="Layer_1" enable-background="new 0 0 468 468" height="512" viewBox="0 0 468 468" width="512" xmlns="http://www.w3.org/2000/svg"><g><g><g><g><path d="m68.875 409h-42.875c-3.313 0-6-2.687-6-6s2.687-6 6-6h42.875c3.313 0 6 2.687 6 6s-2.687 6-6 6z" fill="#f4c500"/></g><g><path d="m38.875 359.022h-32.875c-3.313 0-6-2.687-6-6s2.687-6 6-6h32.875c3.313 0 6 2.687 6 6s-2.687 6-6 6z" fill="#e0e0e0"/></g></g><g><g><path d="m442 409h-42.875c-3.313 0-6-2.687-6-6s2.687-6 6-6h42.875c3.313 0 6 2.687 6 6s-2.687 6-6 6z" fill="#e0e0e0"/></g><g><path d="m462 359.022h-32.875c-3.313 0-6-2.687-6-6s2.687-6 6-6h32.875c3.313 0 6 2.687 6 6s-2.687 6-6 6z" fill="#f4c500"/></g></g><g id="XMLID_32_"><g><g id="XMLID_34_"><path d="m414 301.631h-360c-13.255 0-24-10.745-24-24v-250.631c0-13.255 10.745-24 24-24h360c13.255 0 24 10.745 24 24v250.631c0 13.255-10.745 24-24 24z" fill="#4c62bf"/></g><g><path d="m70 23h367.662c-1.905-11.35-11.771-20-23.662-20h-360c-13.255 0-24 10.745-24 24v250.631c0 11.891 8.65 21.757 20 23.662v-258.293c0-11.046 8.954-20 20-20z" fill="#4057a0"/></g></g><g><g><path d="m65 35.752h338v233.128h-338z" fill="#eee"/></g><g><path d="m115 55.752h288v-20h-338v233.128h20v-183.128c0-16.569 13.431-30 30-30z" fill="#e0e0e0"/></g></g></g><g><g><g><g><path d="m49.571 459h122.929v-43.563c0-33.946-27.519-61.465-61.465-61.465-33.946 0-61.465 27.519-61.465 61.465v43.563z" fill="#00c9ff"/></g><g><path d="m69.571 423.437c0-33.946 27.519-61.465 61.465-61.465 4.26 0 8.419.435 12.435 1.26-9.416-5.863-20.527-9.26-32.435-9.26-33.946 0-61.465 27.519-61.465 61.465v43.563h20z" fill="#00c0ed"/></g></g><g><g><ellipse cx="111.035" cy="307.486" fill="#4c4c4c" rx="47.057" ry="46.486"/></g><g><path d="m83.979 307.486c0-22.282 15.874-40.894 37.057-45.424-3.224-.69-6.567-1.062-10-1.062-25.989 0-47.057 20.813-47.057 46.486s21.068 46.486 47.057 46.486c3.433 0 6.776-.373 10-1.062-21.184-4.53-37.057-23.141-37.057-45.424z" fill="#3a3a3a"/></g></g></g><g><g><g><path d="m172.535 459h122.929v-43.563c0-33.946-27.519-61.465-61.465-61.465-33.946 0-61.465 27.519-61.465 61.465v43.563z" fill="#f4c500"/></g><g><path d="m192.535 423.437c0-33.946 27.519-61.465 61.465-61.465 4.26 0 8.419.435 12.435 1.26-9.416-5.863-20.527-9.26-32.435-9.26-33.946 0-61.465 27.519-61.465 61.465v43.563h20z" fill="#e0b500"/></g></g><g><g><ellipse cx="234" cy="307.486" fill="#4c4c4c" rx="47.057" ry="46.486"/></g><g><path d="m206.943 307.486c0-22.282 15.874-40.894 37.057-45.424-3.224-.69-6.567-1.062-10-1.062-25.989 0-47.057 20.813-47.057 46.486s21.068 46.486 47.057 46.486c3.433 0 6.776-.373 10-1.062-21.183-4.53-37.057-23.141-37.057-45.424z" fill="#3a3a3a"/></g></g></g><g><g><g><path d="m295.333 459h122.929v-43.563c0-33.946-27.519-61.465-61.465-61.465-33.946 0-61.465 27.519-61.465 61.465v43.563z" fill="#75af23"/></g><g><path d="m315.333 423.437c0-33.946 27.519-61.465 61.465-61.465 4.26 0 8.419.435 12.435 1.26-9.416-5.863-20.527-9.26-32.435-9.26-33.946 0-61.465 27.519-61.465 61.465v43.563h20z" fill="#62960f"/></g></g><g><g><ellipse cx="356.798" cy="307.486" fill="#4c4c4c" rx="47.057" ry="46.486"/></g><g><path d="m329.741 307.486c0-22.282 15.874-40.894 37.057-45.424-3.224-.69-6.567-1.062-10-1.062-25.989 0-47.057 20.813-47.057 46.486s21.068 46.486 47.057 46.486c3.433 0 6.776-.373 10-1.062-21.183-4.53-37.057-23.141-37.057-45.424z" fill="#3a3a3a"/></g></g></g></g><g><g><path d="m462 465h-20.99c-3.313 0-6-2.687-6-6s2.687-6 6-6h20.99c3.313 0 6 2.687 6 6s-2.687 6-6 6z" fill="#e0e0e0"/></g><g><path d="m417.01 465h-411.01c-3.313 0-6-2.686-6-6s2.687-6 6-6h411.01c3.313 0 6 2.686 6 6s-2.687 6-6 6z" fill="#e0e0e0"/></g></g></g><g><g><g><circle cx="245" cy="136.316" fill="#d8d8d8" r="64"/></g><g><circle cx="234" cy="136.316" fill="#ea2f2f" r="64"/></g><g><path d="m190 136.316c0-31.944 23.405-58.416 54-63.217-3.259-.511-6.597-.783-10-.783-35.346 0-64 28.654-64 64s28.654 64 64 64c3.403 0 6.741-.271 10-.783-30.595-4.802-54-31.274-54-63.217z" fill="#cc2929"/></g><g><path d="m217.115 170.275v-67.918l54.784 33.959z" fill="#eee"/></g><g><path d="m230.115 141.089v-30.674l-13-8.058v67.918l54.784-33.959-11.246-6.971-24.431 15.144c-2.664 1.652-6.107-.265-6.107-3.4z" fill="#e0e0e0"/></g></g><path d="m333 224.315h-147.259v-4.169c0-3.313-2.687-6-6-6s-6 2.687-6 6v4.169h-38.741c-3.313 0-6 2.687-6 6s2.687 6 6 6h38.741v4.17c0 3.313 2.687 6 6 6s6-2.687 6-6v-4.17h147.259c3.313 0 6-2.687 6-6s-2.687-6-6-6z" fill="#d6d6d6"/></g><g><path d="m323.013 184.74c.239 6.157 3.772 10.702 7.891 10.151s7.264-5.989 7.025-12.147c-.239-6.157-3.772-10.702-7.891-10.151-4.119.552-7.264 5.99-7.025 12.147z" fill="#fff"/></g><g><ellipse cx="364.348" cy="134.024" fill="#fff" rx="10.875" ry="17.024"/></g></g></svg>