<?xml version="1.0" encoding="iso-8859-1"?>
<!-- Generator: Adobe Illustrator 19.0.0, SVG Export Plug-In . SVG Version: 6.00 Build 0)  -->
<svg version="1.1" id="Capa_1" xmlns="http://www.w3.org/2000/svg" xmlns:xlink="http://www.w3.org/1999/xlink" x="0px" y="0px"
	 viewBox="0 0 466.341 466.341" style="enable-background:new 0 0 466.341 466.341;" xml:space="preserve">
<path style="fill:#80C3FF;" d="M56.694,433.427c0,10.971-8.777,19.749-19.749,19.749l0,0c-10.971,0-19.749-8.777-19.749-19.749
	V255.324c0-10.971,8.777-19.749,19.749-19.749l0,0c10.971,0,19.749,8.777,19.749,19.749V433.427z"/>
<path style="fill:#2A8BF4;" d="M36.946,235.576L36.946,235.576c10.971,0,19.749,8.777,19.749,19.749v178.103
	c0,10.971-8.777,19.749-19.749,19.749l0,0"/>
<g>
	<path style="fill:#33363A;" d="M36.946,458.661c-13.897,0-25.234-11.337-25.234-25.234V255.324
		c0-13.897,11.337-25.234,25.234-25.234s25.234,11.337,25.234,25.234v178.103C62.18,447.324,50.843,458.661,36.946,458.661z
		 M36.946,241.061c-8.046,0-14.263,6.583-14.263,14.263v178.103c0,8.046,6.583,14.263,14.263,14.263s14.263-6.583,14.263-14.263
		V255.324C51.209,247.644,44.992,241.061,36.946,241.061z"/>
	<path style="fill:#33363A;" d="M36.946,428.673c-2.926,0-5.486-2.56-5.486-5.486v-4.754c0-2.926,2.56-5.486,5.486-5.486
		s5.486,2.56,5.486,5.486v4.754C42.432,426.113,40.237,428.673,36.946,428.673z"/>
	<path style="fill:#33363A;" d="M36.946,162.067c-2.926,0-5.486-2.56-5.486-5.486V79.05c0-2.926,2.56-5.486,5.486-5.486
		s5.486,2.56,5.486,5.486v77.531C42.432,159.873,40.237,162.067,36.946,162.067z"/>
	<path style="fill:#33363A;" d="M36.946,240.33c-5.12,0-9.143-4.023-9.143-9.143v-59.246c0-5.12,4.023-9.143,9.143-9.143
		s9.143,4.023,9.143,9.143v59.246C46.089,235.941,42.066,240.33,36.946,240.33z"/>
	<path style="fill:#33363A;" d="M36.946,160.604c-16.823,0-30.72-13.897-30.72-30.72v-48.64c0-2.926,2.56-5.486,5.486-5.486
		s5.486,2.56,5.486,5.486v48.64c0,10.971,8.777,19.749,19.749,19.749s19.749-8.777,19.749-19.749v-48.64
		c0-2.926,2.56-5.486,5.486-5.486s5.486,2.56,5.486,5.486v48.64C67.666,147.073,54.134,160.604,36.946,160.604z"/>
	<path style="fill:#33363A;" d="M64.009,168.65c0,8.411-6.949,15.36-15.36,15.36H25.243c-8.411,0-15.36-6.949-15.36-15.36v-28.16
		c0-8.411,6.949-15.36,15.36-15.36h23.406c8.411,0,15.36,6.949,15.36,15.36V168.65z"/>
	<path style="fill:#33363A;" d="M48.649,189.13H25.243c-11.337,0-20.846-9.143-20.846-20.846v-28.16
		c0-11.337,9.143-20.846,20.846-20.846h23.406c11.337,0,20.846,9.143,20.846,20.846v28.16
		C69.494,179.987,59.986,189.13,48.649,189.13z M25.243,130.616c-5.486,0-9.874,4.389-9.874,9.874v28.16
		c0,5.486,4.389,9.874,9.874,9.874h23.406c5.486,0,9.874-4.389,9.874-9.874v-28.16c0-5.486-4.389-9.874-9.874-9.874H25.243z"/>
</g>
<path style="fill:#FFFFFF;" d="M456.054,273.244c0,103.863-84.114,187.977-187.977,187.977S80.466,377.107,80.466,273.244
	S164.58,85.267,268.077,85.267C371.94,85.267,456.054,169.381,456.054,273.244z"/>
<path style="fill:#C8DBDB;" d="M268.443,85.267c103.863,0,187.977,84.114,187.977,187.977s-84.114,187.977-187.977,187.977"/>
<path style="fill:#33363A;" d="M268.443,466.341c-106.423,0-193.097-86.674-193.097-193.463
	c0-106.423,86.674-193.463,193.097-193.463s193.463,86.674,193.463,193.463C461.54,379.667,374.866,466.341,268.443,466.341z
	 M268.443,90.753c-100.571,0-182.126,81.92-182.126,182.491s81.92,182.491,182.126,182.491c100.571,0,182.491-81.92,182.491-182.491
	C450.569,172.673,369.014,90.753,268.443,90.753z"/>
<circle style="fill:#FFFFFF;" cx="268.443" cy="273.244" r="124.709"/>
<path style="fill:#C8DBDB;" d="M143.734,273.244c0-68.754,55.954-124.709,124.709-124.709s124.709,55.954,124.709,124.709"/>
<path style="fill:#33363A;" d="M268.443,403.438c-71.68,0-130.194-58.514-130.194-130.194S196.763,143.05,268.443,143.05
	s130.194,58.514,130.194,130.194C398.637,344.924,340.123,403.438,268.443,403.438z M268.443,154.021
	c-65.829,0-119.223,53.394-119.223,119.223s53.394,119.223,119.223,119.223s119.223-53.394,119.223-119.223
	C387.666,207.416,334.272,154.021,268.443,154.021z"/>
<circle style="fill:#C8DBDB;" cx="268.443" cy="273.244" r="75.337"/>
<path style="fill:#FFFFFF;" d="M268.443,348.581c-41.691,0-75.337-33.646-75.337-75.337s33.646-75.337,75.337-75.337"/>
<path style="fill:#83ED88;" d="M447.643,202.296C421.677,84.901,305.746,11.027,188.352,36.993l46.811,212.48L447.643,202.296z"/>
<path style="fill:#5FCE96;" d="M424.237,207.416c-23.04-104.229-126.171-170.057-230.4-147.017l41.691,188.709L424.237,207.416z"/>
<path style="fill:#F42535;" d="M409.609,210.707c-21.211-96.183-116.297-156.891-212.48-135.68l38.4,174.08L409.609,210.707z"/>
<path style="fill:#FC4259;" d="M235.529,249.107L235.529,249.107l174.08-38.4c-10.606-47.909-39.863-87.406-78.263-111.909
	L235.529,249.107z"/>
<path style="fill:#D60024;" d="M397.54,213.267l12.069-2.56c-21.211-96.183-116.297-156.891-212.48-135.68l2.56,12.069
	C287.826,73.564,372.672,127.69,397.54,213.267z"/>
<path style="fill:#F42535;" d="M400.1,181.45c-14.263-34.743-38.766-63.269-69.12-82.651l-9.143,14.263
	c35.474,22.674,62.903,57.417,75.337,100.206l12.069-2.56c-1.463-7.314-3.657-14.629-6.217-21.577
	C402.294,186.57,401.197,184.01,400.1,181.45z"/>
<polygon style="fill:#FC4259;" points="196.763,75.393 235.529,249.107 409.609,210.707 249.06,227.896 "/>
<polygon style="fill:#FF647E;" points="249.06,227.896 235.529,249.107 235.529,249.107 409.609,210.707 "/>
<g>
	<path style="fill:#33363A;" d="M235.529,254.593c-2.56,0-4.754-1.829-5.486-4.389l-46.811-212.48c-0.366-1.463,0-2.926,0.731-4.023
		s2.194-2.194,3.291-2.56C307.209,4.444,426.432,80.513,453.129,200.467c0.366,1.463,0,2.926-0.731,4.023
		c-0.731,1.097-2.194,2.194-3.291,2.56l-212.114,46.811C236.26,254.593,235.894,254.593,235.529,254.593z M194.934,41.381
		l44.617,201.509l201.509-44.617C413.997,88.924,305.38,19.804,194.934,41.381z"/>
	<path style="fill:#33363A;" d="M409.609,216.193c-2.56,0-4.754-1.829-5.486-4.389c-20.48-92.891-113.006-151.771-205.897-131.291
		c-2.926,0.731-5.851-1.097-6.583-4.023c-0.731-2.926,1.097-5.851,4.023-6.583c99.109-21.943,197.12,40.96,219.063,139.703
		c0.731,2.926-1.097,5.851-4.023,6.583C410.34,216.193,409.974,216.193,409.609,216.193z"/>
</g>
<path style="fill:#A07F3C;" d="M298.432,204.856c0,58.149-47.177,105.326-105.326,105.326c-58.149,0-105.326-47.177-105.326-105.326
	S134.957,99.53,193.106,99.53C251.254,99.164,298.432,146.341,298.432,204.856z"/>
<g>
	<path style="fill:#84692C;" d="M298.432,204.856c0,58.149-47.177,105.326-105.326,105.326
		c-58.149,0-105.326-47.177-105.326-105.326"/>
	<path style="fill:#84692C;" d="M193.106,99.164v211.017c58.149,0,105.326-47.177,105.326-105.326S251.254,99.164,193.106,99.164z"
		/>
</g>
<path style="fill:#705622;" d="M193.106,204.856v105.326c58.149,0,105.326-47.177,105.326-105.326H193.106z"/>
<path style="fill:#33363A;" d="M193.106,315.667c-61.074,0-110.811-49.737-110.811-110.811c0-61.074,49.737-110.811,110.811-110.811
	l0,0c29.623,0,57.417,11.703,78.263,32.549c20.846,20.846,32.549,48.64,32.549,78.263
	C303.917,265.93,254.18,315.667,193.106,315.667z M193.106,104.65L193.106,104.65c-55.223,0-99.84,44.983-99.84,99.84
	c0,55.223,44.983,99.84,99.84,99.84c55.223,0,99.84-44.983,99.84-99.84c0-26.697-10.24-51.931-29.257-70.583
	C244.672,115.256,219.803,104.65,193.106,104.65z"/>
<circle style="fill:#BEDD05;" cx="193.106" cy="204.856" r="70.949"/>
<path style="fill:#DEF21D;" d="M122.157,204.856c0-39.131,31.817-70.949,70.949-70.949"/>
<path style="fill:#85C606;" d="M122.157,204.856c0,39.131,31.817,70.949,70.949,70.949s70.949-31.817,70.949-70.949H122.157z"/>
<path style="fill:#BEDD05;" d="M122.157,204.856c0,39.131,31.817,70.949,70.949,70.949"/>
<path style="fill:#85C606;" d="M193.106,133.907v141.897c39.131,0,70.949-31.817,70.949-70.949
	C263.689,165.724,232.237,133.907,193.106,133.907z"/>
<g>
	<path style="fill:#52C408;" d="M263.689,204.856c0-39.131-31.817-70.949-70.949-70.949"/>
	<path style="fill:#52C408;" d="M193.106,204.856v70.949c39.131,0,70.949-31.817,70.949-70.949H193.106z"/>
</g>
<path style="fill:#25C10A;" d="M193.106,275.438c39.131,0,70.949-31.817,70.949-70.949"/>
<circle style="fill:#BEDD05;" cx="193.106" cy="204.856" r="25.234"/>
<g>
	<path style="fill:#85C606;" d="M193.106,229.724c13.897,0,25.234-11.337,25.234-25.234s-11.337-25.234-25.234-25.234
		C193.106,179.621,193.106,229.724,193.106,229.724z"/>
	<path style="fill:#85C606;" d="M167.872,204.856h50.469c0-13.897-11.337-25.234-25.234-25.234
		C179.209,179.621,167.872,190.958,167.872,204.856z"/>
</g>
<path style="fill:#52C408;" d="M193.106,204.856h25.234c0-13.897-11.337-25.234-25.234-25.234
	C193.106,179.621,193.106,204.856,193.106,204.856z"/>
<circle style="fill:#BEDD05;" cx="193.106" cy="204.856" r="14.994"/>
<g>
	<path style="fill:#85C606;" d="M208.1,204.856c0-8.411-6.583-14.994-14.994-14.994s-14.994,6.583-14.994,14.994H208.1z"/>
	<path style="fill:#85C606;" d="M193.106,219.85v-30.354c-8.411,0-14.994,6.583-14.994,14.994
		C177.746,212.901,184.694,219.85,193.106,219.85z"/>
</g>
<path style="fill:#52C408;" d="M193.106,204.856v-15.36c-8.411,0-14.994,6.583-14.994,14.994h14.994V204.856z"/>
<path style="fill:#33363A;" d="M193.106,280.924c-42.057,0-76.434-34.377-76.434-76.434s34.377-76.434,76.434-76.434
	s76.434,34.377,76.434,76.434C269.174,246.913,235.163,280.924,193.106,280.924z M193.106,139.393
	c-36.206,0-65.463,29.257-65.463,65.463s29.257,65.463,65.463,65.463s65.463-29.257,65.463-65.463
	C258.203,168.65,228.946,139.393,193.106,139.393z"/>
<path style="fill:#FFE108;" d="M325.86,124.033c-9.143,27.429-61.806,256-34.377,265.143
	c27.429,9.143,124.709-204.069,133.851-231.497s-8.046-49.371-35.474-58.514C362.432,90.021,335.369,96.604,325.86,124.033z"/>
<path style="fill:#FFB206;" d="M325.86,124.033c-9.143,27.429-61.806,256-34.377,265.143
	c27.429,9.143,124.709-204.069,133.851-231.497s-13.531-33.646-40.96-42.789C356.946,105.381,335.369,96.604,325.86,124.033z"/>
<path style="fill:#FF8103;" d="M325.86,124.033c-9.143,27.429-61.806,256-34.377,265.143
	c27.429,9.143,124.709-204.069,133.851-231.497"/>
<path style="fill:#FF6B06;" d="M291.483,389.176c-20.846-6.949,4.389-139.703,21.943-215.771l91.794,31.086
	C373.037,275.804,312.329,396.49,291.483,389.176z"/>
<path style="fill:#ED4706;" d="M291.483,389.176c-15.36-5.12-5.486-80.091,8.046-149.577l76.8,25.966
	C344.512,328.833,306.843,394.661,291.483,389.176z"/>
<path style="fill:#D83705;" d="M291.483,389.176c-10.971-3.657-9.143-41.326-2.56-87.406l57.783,19.749
	C324.032,362.113,302.089,392.833,291.483,389.176z"/>
<path style="fill:#33363A;" d="M293.677,395.393c-1.829,0-2.926-0.366-4.023-0.731c-6.583-2.194-21.943-7.68,0-132.023
	c10.971-62.171,26.331-126.171,31.086-140.069l0,0c9.509-28.16,38.034-39.497,70.949-28.526
	c32.914,10.971,48.274,37.669,38.766,65.463c-4.754,14.263-31.451,74.24-60.343,130.194
	C321.472,383.69,302.454,395.393,293.677,395.393z M331.346,125.861c-4.754,13.531-19.749,76.069-30.72,137.509
	c-20.114,113.737-7.314,120.686-7.314,120.686s14.629,2.194,67.657-100.206c28.526-55.223,54.857-114.103,59.246-128
	c9.143-27.063-11.703-44.617-32.183-51.566C367.552,97.336,340.489,98.798,331.346,125.861L331.346,125.861z"/>
<path style="fill:#92FC6B;" d="M391.323,101.358c5.12-1.097,8.411-5.851,7.314-10.971c-4.023-19.749,8.777-39.131,28.526-42.789
	c5.12-1.097,8.411-5.851,7.314-10.971c-1.097-5.12-5.851-8.411-10.971-7.314c-29.623,5.851-49.006,35.109-43.154,64.731
	C381.449,99.164,386.203,102.456,391.323,101.358z"/>
<path style="fill:#70D63A;" d="M426.066,41.747c2.56-0.366,5.486,0,7.314,1.829c-1.463,2.194-3.291,3.657-6.217,4.389
	c-19.749,4.023-32.549,23.04-28.526,42.789c1.097,5.12-2.194,9.874-7.314,10.971c-3.657,0.731-7.314-0.731-9.509-3.657
	C380.717,71.004,399.003,46.867,426.066,41.747z"/>
<path style="fill:#33363A;" d="M389.494,107.21c-2.926,0-5.851-0.731-8.046-2.56c-3.291-2.194-5.486-5.486-6.217-9.509
	c-6.583-32.549,14.629-64.731,47.543-71.314c8.046-1.463,15.726,3.657,17.189,11.703c1.463,8.046-3.657,15.726-11.703,17.189
	c-16.823,3.291-27.794,19.749-24.503,36.571c0.731,4.023,0,7.68-2.194,10.971c-2.194,3.291-5.486,5.486-9.509,6.217l0,0
	C391.323,107.21,390.226,107.21,389.494,107.21z M425.334,34.798c-0.366,0-0.366,0-0.731,0
	c-26.697,5.486-44.251,31.451-38.766,58.149c0.366,1.097,0.731,1.829,1.463,2.56c0.731,0.731,1.829,0.731,2.926,0.731l0,0
	c1.097-0.366,1.829-0.731,2.56-1.463c0.731-0.731,0.731-1.829,0.731-2.926c-4.389-22.674,10.24-44.983,32.914-49.371
	c2.194-0.366,3.291-2.56,2.926-4.389C428.626,35.896,427.163,34.798,425.334,34.798z"/>
<path style="fill:#92FC6B;" d="M395.712,99.53c4.023-3.291,4.389-9.143,0.731-13.166c-13.166-14.994-11.703-38.4,3.291-51.566
	c3.657-3.291,4.389-9.143,0.731-13.166c-3.291-4.023-9.143-4.389-13.166-0.731c-22.674,20.114-25.234,54.857-5.12,77.531
	C386.203,102.456,392.054,102.821,395.712,99.53z"/>
<path style="fill:#70D63A;" d="M396.077,30.044c2.194-1.829,4.754-2.56,7.314-2.194c0,2.56-1.097,5.12-3.291,6.949
	c-14.994,13.166-16.457,36.571-3.291,51.566c3.291,4.023,2.926,9.874-0.731,13.166c-2.926,2.56-6.949,2.926-10.24,1.463
	C371.574,78.318,375.232,48.33,396.077,30.044z"/>
<path style="fill:#33363A;" d="M389.86,107.21c-0.366,0-0.731,0-1.097,0c-4.023-0.366-7.68-2.194-10.24-5.12
	c-10.606-12.069-16.091-27.794-14.994-43.886c1.097-16.091,8.411-31.086,20.48-41.691c6.217-5.486,15.36-4.754,20.846,1.463
	c5.486,6.217,4.754,15.36-1.463,20.846c-6.217,5.486-9.874,13.166-10.606,21.211c-0.366,8.411,2.194,16.091,7.68,22.309
	c2.56,2.926,4.023,6.583,3.657,10.606c-0.366,4.023-2.194,7.68-5.12,10.24l0,0C396.809,106.113,393.152,107.21,389.86,107.21z
	 M393.883,24.193c-0.731,0-1.829,0.366-2.56,1.097c-9.874,8.777-15.726,20.846-16.823,34.011
	c-0.731,13.166,3.291,25.966,12.069,35.84c0.731,0.731,1.463,1.097,2.56,1.463c1.097,0,1.829-0.366,2.926-1.097
	c0.731-0.731,1.097-1.463,1.097-2.56c0-1.097-0.366-1.829-1.097-2.56c-7.314-8.411-10.971-19.383-10.24-30.354
	c0.731-11.337,5.851-21.577,14.263-28.891c1.463-1.463,1.829-3.657,0.366-5.486C396.077,24.558,394.98,24.193,393.883,24.193z"/>
<path style="fill:#92FC6B;" d="M392.054,85.633c-3.291-4.023-2.926-9.874,0.731-13.166c14.994-13.166,16.457-36.571,3.291-51.566
	c-3.291-4.023-2.926-9.874,0.731-13.166s9.874-2.926,13.166,0.731c20.114,22.674,17.92,57.783-5.12,77.531
	C401.197,90.021,395.346,89.656,392.054,85.633z"/>
<path style="fill:#70D63A;" d="M400.832,17.244c-1.829-2.194-4.389-2.926-6.949-3.291c-0.366,2.56,0.366,5.12,2.194,7.314
	c13.166,14.994,11.703,38.4-3.291,51.566c-4.023,3.291-4.389,9.143-0.731,13.166c2.56,2.926,6.583,3.657,9.874,2.56
	C418.752,68.078,419.117,37.724,400.832,17.244z"/>
<path style="fill:#33363A;" d="M399.003,94.41c-0.366,0-0.731,0-1.097,0c-4.023-0.366-7.68-2.194-10.24-5.12
	c-2.56-2.926-4.023-6.583-3.657-10.606c0.366-4.023,2.194-7.68,5.12-10.24c12.8-11.337,14.263-31.086,2.926-43.886
	c-5.486-6.217-4.754-15.36,1.463-20.846c2.926-2.56,6.583-4.023,10.606-3.657c4.023,0.366,7.68,2.194,10.24,5.12
	c10.606,12.069,16.091,27.794,14.994,43.886c-1.097,16.091-8.411,31.086-20.48,41.691C405.952,93.313,402.66,94.41,399.003,94.41z
	 M403.392,11.393c-1.097,0-1.829,0.366-2.56,1.097c-1.463,1.463-1.829,3.657-0.366,5.486c15.36,17.554,13.531,43.886-4.023,59.246
	c-1.463,1.463-1.829,3.657-0.366,5.486l0,0c0.731,0.731,1.463,1.097,2.56,1.097s1.829-0.366,2.56-1.097
	c9.874-8.777,15.726-20.846,16.823-34.011c1.097-13.166-3.291-25.966-12.069-35.84C405.586,11.758,404.489,11.393,403.392,11.393
	L403.392,11.393z"/>
<path style="fill:#92FC6B;" d="M389.86,81.244c-1.097-5.12,2.194-9.874,7.314-10.971c19.749-4.023,32.549-23.04,28.526-42.789
	c-1.097-5.12,2.194-9.874,7.314-10.971s9.874,2.194,10.971,7.314c5.851,29.623-13.531,58.88-43.154,64.731
	C395.712,89.656,390.592,86.364,389.86,81.244z"/>
<path style="fill:#70D63A;" d="M431.552,26.387c-0.366-2.56-2.194-4.754-4.389-6.217c-1.463,2.194-2.194,4.754-1.829,7.314
	c4.023,19.749-8.777,39.131-28.526,42.789c-5.12,1.097-8.411,5.851-7.314,10.971c0.731,3.657,3.657,6.583,7.314,7.314
	C421.677,79.416,437.037,53.084,431.552,26.387z"/>
<path style="fill:#33363A;" d="M398.637,94.41c-6.949,0-13.166-4.754-14.629-11.703l0,0c-1.463-8.046,3.657-15.726,11.703-17.189
	c16.823-3.291,27.794-19.749,24.503-36.571c-1.463-8.046,3.657-15.726,11.703-17.189c4.023-0.731,7.68,0,10.971,2.194
	c3.291,2.194,5.486,5.486,6.217,9.509c6.583,32.549-14.629,64.731-47.543,71.314C400.832,94.41,399.734,94.41,398.637,94.41z
	 M394.98,80.513c0.366,2.194,2.56,3.291,4.389,2.926c26.697-5.486,44.251-31.451,38.766-58.149c-0.366-1.097-0.731-1.829-1.463-2.56
	c-0.731-0.731-1.829-0.731-2.926-0.731c-2.194,0.366-3.291,2.56-2.926,4.389c4.389,22.674-10.24,44.983-32.914,49.371
	C396.077,76.124,394.614,78.318,394.98,80.513z"/>
<path style="fill:#92FC6B;" d="M385.837,110.136c-4.754-1.463-7.314-6.949-5.851-11.703c6.583-19.017-3.657-39.863-22.674-46.446
	c-4.754-1.463-7.314-6.949-5.851-11.703c1.829-4.754,6.949-7.314,11.703-5.851c28.891,9.874,44.251,40.96,34.377,69.851
	C396.077,109.038,390.957,111.598,385.837,110.136z"/>
<path style="fill:#70D63A;" d="M359.14,46.136c-2.56-0.731-5.12-0.366-7.314,0.731c1.097,2.194,2.926,4.389,5.486,5.12
	c19.017,6.583,29.257,27.063,22.674,46.446c-1.463,4.754,1.097,10.24,5.851,11.703c3.657,1.097,7.314,0,9.874-2.56
	C400.1,81.244,385.106,54.913,359.14,46.136z"/>
<path style="fill:#33363A;" d="M388.763,115.987c-1.463,0-3.291-0.366-4.754-0.731l0,0c-7.68-2.56-11.703-10.971-9.143-18.651
	c2.56-7.68,2.194-16.091-1.463-23.771c-3.657-7.314-9.874-13.166-17.92-15.726c-7.68-2.56-11.703-10.971-9.143-18.651
	c2.56-7.68,10.971-11.703,18.651-9.143c15.36,5.12,27.794,16.091,34.743,30.72c7.314,14.629,8.411,31.086,2.926,46.08
	c-1.097,3.657-4.023,6.583-7.314,8.411C393.517,115.621,391.323,115.987,388.763,115.987z M360.237,39.553
	c-1.463,0-2.926,1.097-3.657,2.56c-0.731,1.829,0.366,4.023,2.194,4.754c10.606,3.657,19.017,10.971,24.137,21.211
	s5.851,21.577,2.194,32.183c-0.731,1.829,0.366,4.023,2.194,4.754l0,0c1.097,0.366,1.829,0.366,2.926-0.366
	c0.731-0.366,1.463-1.097,1.829-2.194c4.389-12.434,3.291-25.966-2.56-37.669c-5.851-11.703-16.091-20.846-28.526-24.869
	C360.969,39.553,360.603,39.553,360.237,39.553z"/>
<path style="fill:#92FC6B;" d="M386.203,110.136c4.754,1.463,10.24-1.097,11.703-5.851c6.583-19.017,27.063-29.257,46.446-23.04
	c4.754,1.463,10.24-1.097,11.703-5.851c1.463-4.754-1.097-10.24-5.851-11.703c-28.891-9.874-59.977,5.851-69.851,34.377
	C378.889,103.187,381.449,108.673,386.203,110.136z"/>
<path style="fill:#70D63A;" d="M446.18,75.758c2.56,0.731,4.389,2.926,5.486,5.12c-2.194,1.097-4.754,1.463-7.314,0.731
	c-19.017-6.583-39.863,3.657-46.446,23.04c-1.463,4.754-6.949,7.314-11.703,5.851c-3.657-1.097-5.851-4.389-6.217-8.046
	C392.42,78.684,420.214,66.981,446.18,75.758z"/>
<g>
	<path style="fill:#33363A;" d="M389.129,116.353c-1.463,0-3.291-0.366-4.754-0.731l0,0c-3.657-1.097-6.583-4.023-8.411-7.314
		c-1.829-3.291-1.829-7.68-0.731-11.337c10.606-31.451,44.983-48.64,76.8-38.034c7.68,2.56,11.703,10.971,9.143,18.651
		c-2.56,7.68-10.971,11.703-18.651,9.143c-16.091-5.486-34.011,3.291-39.497,19.383C401.197,112.33,395.346,116.353,389.129,116.353
		z M388.032,105.016c1.829,0.731,4.023-0.366,4.754-2.194c7.314-21.943,31.451-33.646,53.394-26.331
		c1.829,0.731,4.023-0.366,4.754-2.194c0.731-1.829-0.366-4.023-2.56-4.754c-25.966-8.777-54.126,5.12-62.903,31.086
		c-0.366,1.097-0.366,1.829,0.366,2.926C386.203,103.918,386.934,104.65,388.032,105.016L388.032,105.016z"/>
	<path style="fill:#33363A;" d="M421.677,162.067c-0.731,0-1.097,0-1.829-0.366l-24.137-8.046c-2.926-1.097-4.389-4.023-3.291-6.949
		c1.097-2.926,4.023-4.389,6.949-3.291l24.137,8.046c2.926,1.097,4.389,4.023,3.291,6.949
		C426.066,160.604,423.872,162.067,421.677,162.067z"/>
	<path style="fill:#33363A;" d="M379.986,147.438c-0.731,0-1.097,0-1.829-0.366l-4.023-1.463c-2.926-1.097-4.389-4.023-3.657-6.949
		c1.097-2.926,4.023-4.389,6.949-3.657l4.023,1.463c2.926,1.097,4.389,4.023,3.657,6.949
		C384.374,145.976,382.18,147.438,379.986,147.438z"/>
	<path style="fill:#33363A;" d="M359.506,140.856c-0.731,0-1.097,0-1.829-0.366l-1.829-0.366c-2.926-1.097-4.389-4.023-3.657-6.949
		c1.097-2.926,4.023-4.389,6.949-3.657l1.829,0.366c2.926,1.097,4.389,4.023,3.657,6.949
		C363.894,139.393,361.7,140.856,359.506,140.856z"/>
	<path style="fill:#33363A;" d="M343.78,135.37c-0.731,0-1.097,0-1.829-0.366l-1.829-0.366c-2.926-1.097-4.389-4.023-3.657-6.949
		c1.097-2.926,4.023-4.389,6.949-3.657l1.829,0.366c2.926,1.097,4.389,4.023,3.657,6.949
		C348.534,133.907,346.34,135.37,343.78,135.37z"/>
	<path style="fill:#33363A;" d="M411.803,190.958c-0.731,0-1.097,0-1.829-0.366l-24.137-8.046c-2.926-1.097-4.389-4.023-3.291-6.949
		c1.097-2.926,4.023-4.389,6.949-3.291l24.137,8.046c2.926,1.097,4.389,4.023,3.291,6.949
		C416.192,189.496,413.997,190.958,411.803,190.958z"/>
	<path style="fill:#33363A;" d="M370.112,176.696c-0.731,0-1.097,0-1.829-0.366l-4.023-1.463c-2.926-1.097-4.389-4.023-3.657-6.949
		c1.097-2.926,4.023-4.389,6.949-3.657l4.023,1.463c2.926,1.097,4.389,4.023,3.657,6.949
		C374.5,175.233,372.306,176.696,370.112,176.696z"/>
	<path style="fill:#33363A;" d="M349.632,169.747c-0.366,0-1.097,0-1.829-0.366l-1.829-0.366c-2.926-0.731-4.389-4.023-3.657-6.949
		s4.023-4.389,6.949-3.657l1.829,0.366c2.926,0.731,4.389,4.023,3.657,6.949C354.02,168.284,351.826,169.747,349.632,169.747z"/>
	<path style="fill:#33363A;" d="M333.906,164.627c-0.366,0-1.097,0-1.829-0.366l-1.829-0.366c-2.926-1.097-4.389-4.023-3.657-6.949
		c0.731-2.926,4.023-4.389,6.949-3.657l1.829,0.366c2.926,1.097,4.389,4.023,3.657,6.949
		C338.66,163.164,336.466,164.627,333.906,164.627z"/>
	<path style="fill:#33363A;" d="M400.466,219.484c-0.731,0-1.097,0-1.829-0.366l-24.137-8.046c-2.926-1.097-4.389-4.023-3.291-6.949
		c1.097-2.926,4.023-4.389,6.949-3.291l24.137,8.046c2.926,1.097,4.389,4.023,3.291,6.949
		C404.854,218.387,402.66,219.484,400.466,219.484z"/>
	<path style="fill:#33363A;" d="M358.774,205.221c-0.366,0-1.097,0-1.829-0.366l-4.023-1.463c-2.926-1.097-4.389-4.023-3.657-6.949
		c1.097-2.926,4.023-4.389,6.949-3.657l4.023,1.463c2.926,1.097,4.389,4.023,3.657,6.949
		C363.163,203.758,360.969,205.221,358.774,205.221z"/>
	<path style="fill:#33363A;" d="M338.294,198.638c-0.731,0-1.097,0-1.829-0.366l-1.829-0.366c-2.926-1.097-4.389-4.023-3.657-6.949
		c1.097-2.926,4.023-4.389,6.949-3.657l1.829,0.366c2.926,1.097,4.389,4.023,3.657,6.949
		C342.683,196.81,340.489,198.638,338.294,198.638z"/>
	<path style="fill:#33363A;" d="M322.569,193.153c-0.366,0-1.097,0-1.829-0.366l-1.829-0.366c-2.926-0.731-4.389-4.023-3.657-6.949
		c1.097-2.926,4.023-4.389,6.949-3.657l1.829,0.366c2.926,0.731,4.389,4.023,3.657,6.949
		C327.323,191.69,325.129,193.153,322.569,193.153z"/>
	<path style="fill:#33363A;" d="M386.934,247.278c-0.731,0-1.097,0-1.829-0.366l-24.137-8.046c-2.926-1.097-4.389-4.023-3.291-6.949
		c1.097-2.926,4.023-4.389,6.949-3.291l24.137,8.046c2.926,1.097,4.389,4.023,3.291,6.949
		C391.323,246.181,389.129,247.278,386.934,247.278z"/>
	<path style="fill:#33363A;" d="M345.243,233.016c-0.731,0-1.097,0-1.829-0.366l-4.389-1.463c-2.926-1.097-4.389-4.023-3.657-6.949
		c1.097-2.926,4.023-4.389,6.949-3.657l4.389,1.463c2.926,1.097,4.389,4.023,3.657,6.949
		C349.632,231.553,347.437,233.016,345.243,233.016z"/>
	<path style="fill:#33363A;" d="M324.763,226.433c-0.731,0-1.097,0-1.829-0.366l-1.829-0.366c-2.926-1.097-4.389-4.023-3.657-6.949
		c1.097-2.926,4.023-4.389,6.949-3.657l1.829,0.366c2.926,1.097,4.389,4.023,3.657,6.949
		C329.152,224.604,326.957,226.433,324.763,226.433z"/>
	<path style="fill:#33363A;" d="M309.037,220.947c-0.731,0-1.097,0-1.829-0.366l-1.829-0.366c-2.926-1.097-4.389-4.023-3.657-6.949
		c1.097-2.926,4.023-4.389,6.949-3.657l1.829,0.366c2.926,1.097,4.389,4.023,3.657,6.949
		C313.426,219.484,311.597,220.947,309.037,220.947z"/>
	<path style="fill:#33363A;" d="M373.037,275.438c-0.731,0-1.097,0-1.829-0.366l-22.674-7.68c-2.926-1.097-4.389-4.023-3.291-6.949
		c1.097-2.926,4.023-4.389,6.949-3.291l22.674,7.68c2.926,1.097,4.389,4.023,3.291,6.949
		C377.426,273.976,375.597,275.438,373.037,275.438z"/>
	<path style="fill:#33363A;" d="M334.272,261.907c-0.366,0-1.097,0-1.829-0.366l-4.023-1.097c-2.926-0.731-4.389-4.023-3.657-6.949
		c0.731-2.926,4.023-4.389,6.949-3.657l4.023,1.097c2.926,0.731,4.389,4.023,3.657,6.949
		C338.66,260.444,336.466,261.907,334.272,261.907z"/>
	<path style="fill:#33363A;" d="M315.254,255.69c-0.366,0-1.097,0-1.829-0.366l-1.463-0.366c-2.926-1.097-4.389-4.023-3.657-6.949
		c0.731-2.926,4.023-4.389,6.949-3.657l1.463,0.366c2.926,1.097,4.389,4.023,3.657,6.949
		C319.643,253.861,317.814,255.69,315.254,255.69z"/>
	<path style="fill:#33363A;" d="M300.626,250.57c-0.366,0-1.097,0-1.829-0.366l-1.463-0.366c-2.926-1.097-4.389-4.023-3.657-6.949
		c0.731-2.926,4.023-4.389,6.949-3.657l1.463,0.366c2.926,1.097,4.389,4.023,3.657,6.949
		C305.38,249.107,303.186,250.57,300.626,250.57z"/>
	<path style="fill:#33363A;" d="M358.774,302.867c-0.731,0-1.097,0-1.829-0.366l-24.137-8.046c-2.926-1.097-4.389-4.023-3.291-6.949
		c1.097-2.926,4.023-4.389,6.949-3.291l24.137,8.046c2.926,1.097,4.389,4.023,3.291,6.949
		C363.163,301.404,360.969,302.867,358.774,302.867z"/>
	<path style="fill:#33363A;" d="M317.083,288.238c-0.366,0-1.097,0-1.829-0.366l-4.023-1.463c-2.926-1.097-4.389-4.023-3.657-6.949
		c0.731-2.926,4.023-4.389,6.949-3.657l4.023,1.463c2.926,1.097,4.389,4.023,3.657,6.949
		C321.472,286.776,319.277,288.238,317.083,288.238z"/>
	<path style="fill:#33363A;" d="M296.603,281.656c-0.731,0-1.097,0-1.829-0.366l-1.829-0.366c-2.926-1.097-4.389-4.023-3.657-6.949
		c1.097-2.926,4.023-4.389,6.949-3.657l1.829,0.366c2.926,1.097,4.389,4.023,3.657,6.949
		C301.357,280.193,299.163,281.656,296.603,281.656z"/>
	<path style="fill:#33363A;" d="M343.78,330.296c-0.731,0-1.097,0-1.829-0.366l-24.137-8.046c-2.926-1.097-4.389-4.023-3.291-6.949
		c1.097-2.926,4.023-4.389,6.949-3.291l24.137,8.046c2.926,1.097,4.389,4.023,3.291,6.949
		C348.169,328.833,345.974,330.296,343.78,330.296z"/>
	<path style="fill:#33363A;" d="M302.089,315.667c-0.366,0-1.097,0-1.829-0.366l-4.023-1.463c-2.926-1.097-4.389-4.023-3.657-6.949
		c0.731-2.926,4.023-4.389,6.949-3.657l4.023,1.463c2.926,1.097,4.389,4.023,3.657,6.949
		C306.477,314.204,304.283,315.667,302.089,315.667z"/>
	<path style="fill:#33363A;" d="M327.689,356.993c-0.731,0-1.097,0-1.829-0.366l-24.137-8.046c-2.926-1.097-4.389-4.023-3.291-6.949
		c1.097-2.926,4.023-4.389,6.949-3.291l24.137,8.046c2.926,1.097,4.389,4.023,3.291,6.949
		C332.077,355.53,329.883,356.993,327.689,356.993z"/>
	<path style="fill:#33363A;" d="M289.654,343.827c-0.731,0-1.097,0-1.829-0.366l-4.023-1.463c-2.926-1.097-4.389-4.023-3.657-6.949
		c1.097-2.926,4.023-4.389,6.949-3.657l4.023,1.463c2.926,1.097,4.389,4.023,3.657,6.949
		C294.043,342.364,291.849,343.827,289.654,343.827z"/>
	<path style="fill:#33363A;" d="M309.769,383.324c-0.731,0-1.097,0-1.829-0.366l-24.137-8.046c-2.926-1.097-4.389-4.023-3.291-6.949
		c1.097-2.926,4.023-4.389,6.949-3.291l24.137,8.046c2.926,1.097,4.389,4.023,3.291,6.949
		C314.157,381.861,311.963,383.324,309.769,383.324z"/>
</g>
<path style="fill:#C17E25;" d="M401.563,348.947c0,62.537-59.611,65.097-133.12,65.097s-133.12-2.56-133.12-65.097
	c0-62.537,59.611-113.371,133.12-113.371S401.563,286.41,401.563,348.947z"/>
<path style="fill:#FFFFFF;" d="M401.563,348.947c0,62.537-59.611,65.097-133.12,65.097s-133.12-2.56-133.12-65.097
	c0-62.537,59.611-113.371,133.12-113.371S401.563,286.41,401.563,348.947z"/>
<path style="fill:#F4F3E9;" d="M401.563,348.947c0,62.537-59.611,65.097-133.12,65.097s-133.12-2.56-133.12-65.097
	c0-62.537,59.611,0.366,133.12,0.366S401.563,286.41,401.563,348.947z"/>
<path style="fill:#E0DECE;" d="M268.443,381.496c-66.194,0-121.051-50.834-131.657-15.726c10.24,46.08,65.463,47.909,131.657,47.909
	s121.051-2.194,131.657-47.909C389.494,331.027,334.637,381.496,268.443,381.496z"/>
<path style="fill:#33363A;" d="M268.443,419.53c-68.389,0-138.606,0-138.606-70.583c0-65.463,62.171-118.857,138.606-118.857
	s138.606,53.394,138.606,118.857C407.049,419.53,336.466,419.53,268.443,419.53z M268.443,241.061
	c-70.583,0-127.634,48.274-127.634,107.886c0,55.589,50.469,59.611,127.634,59.611s127.634-4.023,127.634-59.611
	C396.077,289.336,339.026,241.061,268.443,241.061z"/>
<path style="fill:#D3D1C1;" d="M332.809,330.661c0,60.343-28.891,66.926-64.366,66.926c-35.474,0-64.366-6.583-64.366-66.926
	c0-31.086,28.891-55.954,64.366-55.954C303.917,274.707,332.809,299.576,332.809,330.661z"/>
<path style="fill:#FFBC00;" d="M332.809,330.661c0,31.086-28.891,44.617-64.366,44.617c-35.474,0-64.366-13.531-64.366-44.617
	s28.891-55.954,64.366-55.954C303.917,274.707,332.809,299.576,332.809,330.661z"/>
<path style="fill:#FFCE00;" d="M268.443,285.313c33.646,0,61.074,22.309,64.366,50.469c0.366-1.829,0.366-3.657,0.366-5.486
	c0-31.086-28.891-55.954-64.366-55.954c-35.474,0-64.731,25.234-64.731,55.954c0,1.829,0,3.657,0.366,5.486
	C207.369,307.621,234.797,285.313,268.443,285.313z"/>
<path style="fill:#FF9100;" d="M332.809,330.661c0,31.086-28.891,44.617-64.366,44.617c-35.474,0-64.366-13.531-64.366-44.617
	s28.891,0,64.366,0C303.917,330.661,332.809,299.576,332.809,330.661z"/>
<path style="fill:#33363A;" d="M268.443,380.764c-43.154,0-69.851-19.017-69.851-50.103c0-34.011,31.451-61.44,69.851-61.44
	c38.766,0,70.217,27.429,70.217,61.44C338.294,361.381,311.597,380.764,268.443,380.764z M268.443,280.193
	c-32.549,0-58.88,22.674-58.88,50.469c0,36.206,45.349,39.131,58.88,39.131c13.531,0,59.246-2.926,59.246-39.131
	C327.323,302.867,300.992,280.193,268.443,280.193z"/>
<g>
	<path style="fill:#FFEF5A;" d="M223.094,320.787c-0.366,0-0.731,0-1.097,0c-4.023-0.731-6.949-4.389-6.217-8.411
		c2.926-20.48,31.817-33.646,46.08-33.646c4.023,0,7.314,3.291,7.314,7.314s-3.291,7.314-7.314,7.314
		c-9.509,0-29.989,9.509-31.817,20.846C229.677,318.227,226.386,320.787,223.094,320.787z"/>
	<path style="fill:#FFEF5A;" d="M221.997,337.244c-0.366,0-0.731,0-1.097,0c-4.023-0.731-6.949-4.389-6.217-8.411
		c0.731-4.754,5.12-7.68,9.143-7.68c4.023,0,7.314,3.291,7.314,7.314c0,2.926-1.829,5.486-4.023,6.583
		C225.654,336.513,223.826,337.244,221.997,337.244z"/>
	<path style="fill:#FFEF5A;" d="M222.729,345.656c0,0-0.366,0-0.731,0c-1.829-0.366-3.291-2.194-2.926-4.023
		c0.366-2.194,2.194-3.291,4.023-3.291c2.194,0,3.657,1.463,3.657,3.657c0,1.463-0.731,2.56-1.829,3.291
		C224.557,345.29,223.826,345.656,222.729,345.656z"/>
</g>
<g>
</g>
<g>
</g>
<g>
</g>
<g>
</g>
<g>
</g>
<g>
</g>
<g>
</g>
<g>
</g>
<g>
</g>
<g>
</g>
<g>
</g>
<g>
</g>
<g>
</g>
<g>
</g>
<g>
</g>
</svg>
