<svg id="Layer_1" enable-background="new 0 0 512 512" height="512" viewBox="0 0 512 512" width="512" xmlns="http://www.w3.org/2000/svg"><g id="Layer_2_00000042006347110489137750000016985778694965201855_"><g id="restaurant"><path d="m145.8 512c-25 0-45.3-20.3-45.3-45.4 0-1 0-2 .1-3l15.9-238.6h58.6l16 238.6c1.7 25-17.2 46.6-42.2 48.3-1 .1-2 .1-3.1.1z" fill="#2c5ede"/><path d="m220.7 0c-10.1 0-18.4 8.2-18.4 18.4v97.8c0 19.1-15.5 34.5-34.5 34.5v-132.3c0-10.2-8.2-18.4-18.4-18.4h-7.1c-10.1 0-18.4 8.2-18.4 18.4v132.3c-19.1 0-34.5-15.5-34.5-34.5v-97.8c0-10.2-8.2-18.4-18.4-18.4-10.1 0-18.4 8.2-18.4 18.4v135.8c0 51.5 41.7 93.2 93.2 93.2 51.5 0 93.2-41.7 93.2-93.2v-135.8c.1-10.2-8.2-18.4-18.3-18.4z" fill="#95baf9"/><path d="m459.3 454.9-19.6-416.4c-.9-20-16.4-36.3-36.3-38.3v-.2h-45.4c-29.1 0-52.6 23.6-52.6 52.6v142c0 20.7 12.1 39.4 30.9 47.9l50.5 22.9-8.8 189.5c-1.6 30.9 17.1 57.1 40.6 57.1 23.6 0 42.3-26.2 40.7-57.1z" fill="#2c5ede"/></g></g></svg>