<svg id="icons" height="512" viewBox="0 0 340 340" width="512" xmlns="http://www.w3.org/2000/svg"><path d="m134.121 163.932v22.8c0 21.161 21.431 38.315 47.867 38.315s47.868-17.154 47.868-38.315v-22.8z" fill="#3c3c4f"/><path d="m140.4 139.938 6.233 49.824c8.753 7.672 21.352 12.485 35.355 12.485l37.538-61.337z" fill="#929bb7"/><g fill="#3c3c4f"><path d="m134.121 139.938v23.994c0 9.952 4.742 19.016 12.514 25.828v-49.822z"/><path d="m229.856 163.932v-23.022l-47.823 37.343v23.993c26.416-.019 47.823-17.165 47.823-38.314z"/><path d="m141.909 138.083 4.724 27.686c8.753 7.672 21.352 12.485 35.355 12.485l35.443-12.562c7.72-6.8 12.425-15.839 12.425-25.754v-22.8z"/></g><path d="m182.033 178.253c14.032-.01 26.65-4.853 35.4-12.561v-48.539l-35.4.052z" fill="#dfe4ef"/><path d="m146.635 165.767v-48.51l-12.51.018v22.663c-.004 9.952 4.738 19.017 12.51 25.829z" fill="#dfe4ef"/><path d="m142.466 93.493 4.167 49.472c8.753 7.672 21.352 12.485 35.355 12.485l35.443-12.562c7.72-6.8 12.425-15.839 12.425-25.754l-4.148-23.641z" fill="#929bb7"/><path d="m134.125 117.275c.045 9.9 4.775 18.908 12.51 25.688v-49.47h-12.514v23.641.141z" fill="#3c3c4f"/><path d="m182.033 155.449c14.032-.01 26.65-4.853 35.4-12.561v-49.4h-35.4z" fill="#3c3c4f"/><path d="m141.909 91.717 4.725 27.637c8.755 7.694 21.372 12.523 35.4 12.523l35.4-12.523.566 7.876h11.9v-56.472z" fill="#3c3c4f"/><path d="m146.635 119.353v-46.445l-.738-2.15h-11.732v22.8c0 9.942 4.724 18.988 12.47 25.795z" fill="#dfe4ef"/><path d="m182.033 131.877c14.026 0 26.643-4.829 35.4-12.524v-46.445l-35.4 12.524z" fill="#dfe4ef"/><path d="m142.466 47.116 4.168 49.434c8.755 7.7 21.372 12.524 35.4 12.524l35.4-12.524c7.746-6.808 12.469-15.858 12.469-25.792v-23.642z" fill="#929bb7"/><path d="m182.033 109.074c14.026 0 26.643-4.83 35.4-12.525v-23.641l-35.4 12.524z" fill="#3c3c4f"/><path d="m146.635 96.549v-23.641l-8.846-25.792h-3.624v23.642c0 9.934 4.724 18.984 12.47 25.791z" fill="#3c3c4f"/><path d="m229.9 47.116c0 9.934-4.723 18.985-12.469 25.793l-35.4 12.523c-14.027 0-26.644-4.829-35.4-12.523l-12.466-25.793c0-11.539 6.373-21.887 16.456-28.912l31.412-9.4c12.5 0 23.882 3.836 32.408 10.117z" fill="#fff"/><path d="m229.866 46.043c-.366-10.723-6.232-20.343-15.429-27.121l-19.054 15.418-13.35-5.6v-19.94a55.049 55.049 0 0 0 -31.406 9.413l16.279 14.987-7.023 12.847h-25.683c-.012.358-.034.714-.034 1.073 0 9.934 4.724 18.984 12.47 25.792l19.331-14.46 16.022 3.185.038 23.8h.007c14.026 0 26.643-4.83 35.4-12.524l-18.944-14.173 6.61-12.7z" fill="#666684"/><ellipse cx="182.033" cy="46.043" fill="#fff" rx="26.617" ry="21.305"/><ellipse cx="182.033" cy="46.043" fill="#3c3c4f" rx="19.971" ry="15.985"/><path d="m41.389 242.238 9.854 48.634c8.757 7.672 21.357 12.485 35.357 12.485l35.441-12.557c7.72-6.8 12.425-15.839 12.425-25.754v-22.8z" fill="#4a73ba"/><path d="m51.245 290.87v-48.632h-12.514v22.8c0 9.955 4.742 19.02 12.514 25.832z" fill="#dbecfc"/><path d="m86.643 303.356c14.032-.01 26.651-4.853 35.4-12.561v-48.557h-35.4z" fill="#dbecfc"/><path d="m41.389 218.244 9.854 49.824c8.757 7.672 21.357 12.485 35.357 12.485l35.442-12.562c7.72-6.8 12.425-15.839 12.425-25.753v-23.994z" fill="#97bfef"/><path d="m51.245 218.244h-12.514v23.994c0 9.952 4.742 19.016 12.514 25.828z" fill="#4a73ba"/><path d="m86.643 280.552c14.032-.01 26.651-4.853 35.4-12.561v-49.747h-35.4z" fill="#4a73ba"/><path d="m42.82 195.575 8.423 48.5c8.757 7.671 21.357 12.485 35.357 12.485l35.441-12.56c7.72-6.8 12.425-15.839 12.425-25.754v-22.8z" fill="#4a73ba"/><path d="m51.245 244.072v-48.509l-12.509.018v22.663c-.005 9.956 4.737 19.017 12.509 25.828z" fill="#dbecfc"/><path d="m86.643 256.559c14.032-.011 26.651-4.853 35.4-12.562v-48.538l-35.4.052z" fill="#dbecfc"/><path d="m41.389 171.093 9.854 50.177c8.757 7.673 21.357 12.486 35.357 12.486l35.442-12.562c7.72-6.8 12.425-15.839 12.425-25.754v-23.64z" fill="#97bfef"/><path d="m51.245 171.8h-12.514v23.64c0 9.952 4.742 19.017 12.514 25.829z" fill="#4a73ba"/><path d="m86.643 233.755c14.032-.01 26.651-4.853 35.4-12.561v-49.394h-35.4z" fill="#4a73ba"/><path d="m41.962 149.064 9.282 48.6c8.755 7.694 21.372 12.523 35.4 12.523l35.4-12.523c7.746-6.808 12.468-15.859 12.468-25.792v-22.8z" fill="#4a73ba"/><path d="m51.245 197.659v-46.445l-.995-2.15h-11.475v22.8c0 9.936 4.725 18.987 12.47 25.795z" fill="#dbecfc"/><path d="m86.643 210.183c14.026 0 26.643-4.83 35.4-12.524v-46.446l-35.4 12.525z" fill="#dbecfc"/><path d="m41.962 125.422 9.282 49.434c8.755 7.694 21.372 12.523 35.4 12.523l35.4-12.523c7.746-6.808 12.468-15.858 12.468-25.792v-23.642z" fill="#97bfef"/><path d="m38.775 149.064c0 9.933 4.724 18.983 12.47 25.791v-44.476l-12.436-6.03z" fill="#4a73ba"/><path d="m86.643 187.379c14.026 0 26.643-4.829 35.4-12.524v-39.8h-35.4z" fill="#4a73ba"/><path d="m134.51 125.422c0 9.934-4.722 18.985-12.468 25.792l-35.4 12.524c-14.026 0-26.644-4.829-35.4-12.524l-12.467-25.792c0-11.539 6.373-21.887 16.456-28.912l31.412-9.4c12.5 0 23.882 3.835 32.408 10.117z" fill="#fff"/><path d="m134.477 124.349c-.37-10.723-6.232-20.345-15.429-27.121l-19.055 15.417-13.35-5.6v-19.938a55.048 55.048 0 0 0 -31.4 9.413l16.274 14.98-7.024 12.847h-25.684c-.012.358-.034.713-.034 1.073 0 9.934 4.724 18.984 12.47 25.792l19.331-14.46 16.024 3.186.037 23.8h.007c14.026 0 26.643-4.83 35.4-12.525l-18.944-14.167 6.61-12.7z" fill="#7ca8e8"/><ellipse cx="86.643" cy="124.349" fill="#fff" rx="26.617" ry="21.305"/><ellipse cx="86.643" cy="124.349" fill="#7ca8e8" rx="21.033" ry="16.836"/><path d="m218 263.043v-48.51l-12.509.019v22.662c-.001 9.952 4.741 19.017 12.509 25.829z" fill="#c12140"/><path d="m205.49 261.208v22.8c0 21.161 21.431 38.315 47.867 38.315s47.868-17.154 47.868-38.315v-22.8z" fill="#fcdbe5"/><path d="m253.4 322.326c14.032-.01 26.651-4.852 35.4-12.561v-48.557h-35.4z" fill="#c12140"/><path d="m218 309.84v-48.632h-12.51v22.8c0 9.956 4.742 19.02 12.51 25.832z" fill="#c12140"/><path d="m211.121 237.214 6.879 49.824c8.753 7.672 21.352 12.485 35.355 12.485l35.445-12.562c7.72-6.8 12.425-15.838 12.425-25.753v-23.994z" fill="#c12140"/><path d="m253.4 299.523c14.032-.011 26.651-4.853 35.4-12.562v-25.753h-35.4z" fill="#f487a4"/><path d="m218 237.214h-12.51v23.994c0 9.952 4.742 19.016 12.513 25.828z" fill="#f487a4"/><path d="m211.121 214.543 6.881 48.5c8.753 7.672 21.352 12.485 35.355 12.485l35.443-12.56c7.72-6.8 12.425-15.839 12.425-25.754v-22.8z" fill="#fcdbe5"/><path d="m253.4 275.529c14.032-.01 26.651-4.853 35.4-12.561v-48.539l-35.4.052z" fill="#c12140"/><path d="m218 263.043v-48.51l-12.509.019v22.662c-.001 9.952 4.741 19.017 12.509 25.829z" fill="#c12140"/><path d="m209.17 190.769 8.83 49.472c8.753 7.672 21.352 12.485 35.355 12.485l35.445-12.562c7.72-6.8 12.425-15.838 12.425-25.753v-23.642z" fill="#c12140"/><path d="m253.4 252.725c14.032-.01 26.651-4.853 35.4-12.561v-25.735l-35.4.052z" fill="#f487a4"/><path d="m218 190.769h-12.51v23.642c0 9.952 4.742 19.016 12.513 25.828z" fill="#f487a4"/><path d="m209.17 168.034 8.83 48.596c8.755 7.695 21.372 12.524 35.4 12.524l35.4-12.524c7.746-6.808 12.469-15.858 12.469-25.792v-22.8z" fill="#fcdbe5"/><path d="m253.4 229.154c14.027 0 26.643-4.83 35.4-12.525v-46.445l-35.4 12.524z" fill="#c12140"/><path d="m218 216.629v-46.445l-1.039-2.15h-11.43v22.8c.003 9.938 4.726 18.988 12.469 25.795z" fill="#c12140"/><path d="m211.121 144.393 6.879 49.433c8.755 7.695 21.372 12.524 35.4 12.524l35.4-12.524c7.746-6.807 12.469-15.858 12.469-25.792v-23.641z" fill="#c12140"/><path d="m253.4 206.35c14.027 0 26.643-4.83 35.4-12.525v-23.641l-35.4 12.524z" fill="#f487a4"/><path d="m205.534 168.034c0 9.934 4.723 18.984 12.469 25.792v-23.642l-.5-25.791h-11.969z" fill="#f487a4"/><path d="m301.235 143.319c.479 9.958-4.689 20.058-12.435 26.866l-35.4 12.523c-14.026 0-26.643-4.829-35.4-12.523l-12.469-25.792c0-11.54 6.373-21.888 16.455-28.913l31.412-9.4c12.5 0 23.883 3.836 32.408 10.117z" fill="#ea4e70"/><path d="m301.235 143.319c-.37-10.723-6.232-20.344-15.429-27.12l-19.055 15.417-13.35-5.6v-19.939a55.048 55.048 0 0 0 -31.401 9.413l16.279 14.982-7.023 12.847h-25.688c-.013.358-.034.714-.034 1.074 0 9.933 4.723 18.983 12.469 25.791l19.332-14.459 16.022 3.184.038 23.8h.006c14.027 0 26.643-4.83 35.4-12.524l-18.941-14.167 6.611-12.7z" fill="#fff"/><ellipse cx="253.401" cy="143.319" fill="#fff" rx="26.617" ry="21.305"/><ellipse cx="253.401" cy="143.319" fill="#ea4e70" rx="20.1" ry="16.089"/><path d="m114.66 269.242 7.519 49.434c8.755 7.694 21.372 12.523 35.4 12.523l35.4-12.523c7.746-6.808 12.468-15.859 12.468-25.792v-23.642z" fill="#ffb655"/><path d="m122.18 318.675v-49.433h-12.47v23.642c0 9.933 4.724 18.983 12.47 25.791z" fill="#e87b31"/><path d="m192.976 318.675v-49.433h-35.4v61.958c14.024 0 26.645-4.831 35.4-12.525z" fill="#e87b31"/><path d="m114.66 246.507 7.52 48.558c8.756 7.716 21.392 12.561 35.442 12.561l35.355-12.485c7.772-6.812 12.513-15.878 12.513-25.83v-22.8z" fill="#e87b31"/><path d="m157.578 307.626h.044c14 0 26.6-4.815 35.354-12.488v-46.481l-35.4 12.524z" fill="#ffe8cc"/><path d="m122.18 295.064v-46.407l-1-2.15h-11.43v22.8c.005 9.919 4.71 18.954 12.43 25.757z" fill="#ffe8cc"/><path d="m115.967 222.865 6.213 49.4c8.756 7.716 21.392 12.562 35.442 12.562l35.355-12.486c7.772-6.812 12.513-15.878 12.513-25.83v-23.646z" fill="#ffb655"/><path d="m122.18 272.26v-23.6l-11.939-25.791h-.486v23.641c0 9.912 4.705 18.947 12.425 25.75z" fill="#e87b31"/><path d="m157.578 284.822h.044c14 0 26.6-4.815 35.354-12.487v-23.678l-35.4 12.524z" fill="#e87b31"/><path d="m205.445 222.866c0 9.933-4.722 18.984-12.468 25.792l-35.4 12.523c-14.027 0-26.644-4.829-35.4-12.523l-12.467-25.792c0-11.54 6.373-21.888 16.456-28.913l31.412-9.4c12.5 0 23.882 3.836 32.408 10.117z" fill="#fff"/><path d="m205.49 222.865c0-11.634-6.31-21.417-15.507-28.194l-19.055 15.418-13.35-5.6v-19.939a55.046 55.046 0 0 0 -31.4 9.413l16.279 14.982-7.024 12.847h-25.689c-.012.358-.034.714-.034 1.073 0 9.934 4.724 18.984 12.47 25.792l19.331-14.46 16.023 3.185.037 23.8h.007c14.026 0 26.643-4.83 35.4-12.524l-18.941-14.168 6.61-12.7z" fill="#ffb655"/><ellipse cx="157.578" cy="221.792" fill="#fff" rx="26.617" ry="21.305"/><ellipse cx="157.578" cy="221.792" fill="#ffb655" rx="19.292" ry="15.442"/></svg>