<svg id="Layer_1" enable-background="new 0 0 510 510" height="512" viewBox="0 0 510 510" width="512" xmlns="http://www.w3.org/2000/svg" xmlns:xlink="http://www.w3.org/1999/xlink"><linearGradient id="lg1"><stop offset="0" stop-color="#e4f2ff"/><stop offset="1" stop-color="#b2cbff"/></linearGradient><linearGradient id="SVGID_1_" gradientTransform="matrix(1 0 0 -1 0 512)" gradientUnits="userSpaceOnUse" x1="287.688" x2="652.459" xlink:href="#lg1" y1="319.032" y2="-45.739"/><linearGradient id="lg2"><stop offset="0" stop-color="#3f3ced" stop-opacity="0"/><stop offset=".2796" stop-color="#3c3de4" stop-opacity=".28"/><stop offset=".7305" stop-color="#3541cc" stop-opacity=".731"/><stop offset="1" stop-color="#2f43bb"/></linearGradient><linearGradient id="SVGID_2_" gradientTransform="matrix(1 0 0 -1 0 512)" gradientUnits="userSpaceOnUse" x1="403.185" x2="906.876" xlink:href="#lg2" y1="275.319" y2="510.168"/><linearGradient id="SVGID_3_" gradientTransform="matrix(1 0 0 -1 0 512)" gradientUnits="userSpaceOnUse" x1="224.496" x2="496.143" y1="403.091" y2="71.079"><stop offset="0" stop-color="#ff7044"/><stop offset="1" stop-color="#f82814"/></linearGradient><linearGradient id="lg3"><stop offset="0" stop-color="#ff7044" stop-opacity="0"/><stop offset="1" stop-color="#ffa325"/></linearGradient><linearGradient id="SVGID_4_" gradientTransform="matrix(1 0 0 -1 0 512)" gradientUnits="userSpaceOnUse" x1="89.407" x2="418.599" xlink:href="#lg3" y1="422.056" y2="92.864"/><linearGradient id="SVGID_5_" gradientTransform="matrix(1 0 0 -1 0 512)" gradientUnits="userSpaceOnUse" x1="120.447" x2="449.639" xlink:href="#lg3" y1="453.097" y2="123.905"/><linearGradient id="SVGID_6_" gradientTransform="matrix(1 0 0 -1 0 512)" gradientUnits="userSpaceOnUse" x1="153.624" x2="482.816" xlink:href="#lg3" y1="486.274" y2="157.082"/><linearGradient id="SVGID_7_" gradientTransform="matrix(1 0 0 -1 0 512)" gradientUnits="userSpaceOnUse" x1="184.665" x2="513.857" xlink:href="#lg3" y1="517.315" y2="188.123"/><linearGradient id="SVGID_8_" gradientTransform="matrix(1 0 0 -1 0 512)" gradientUnits="userSpaceOnUse" x1="67.203" x2="504.016" xlink:href="#lg3" y1="125.354" y2="125.354"/><linearGradient id="SVGID_9_" gradientTransform="matrix(1 0 0 -1 0 512)" gradientUnits="userSpaceOnUse" x1="67.203" x2="504.016" xlink:href="#lg3" y1="197.174" y2="197.174"/><linearGradient id="SVGID_10_" gradientTransform="matrix(1 0 0 -1 0 512)" gradientUnits="userSpaceOnUse" x1="67.203" x2="504.016" xlink:href="#lg3" y1="269.53" y2="269.53"/><linearGradient id="SVGID_11_" gradientTransform="matrix(1 0 0 -1 0 512)" gradientUnits="userSpaceOnUse" x1="67.203" x2="504.016" xlink:href="#lg3" y1="342.712" y2="342.712"/><linearGradient id="SVGID_12_" gradientTransform="matrix(1 0 0 -1 0 512)" gradientUnits="userSpaceOnUse" x1="67.203" x2="504.016" xlink:href="#lg3" y1="415.068" y2="415.068"/><linearGradient id="SVGID_13_" gradientTransform="matrix(1 0 0 -1 0 512)" gradientUnits="userSpaceOnUse" x1="348.365" x2="712.939" xlink:href="#lg1" y1="266.04" y2="-98.534"/><linearGradient id="SVGID_14_" gradientTransform="matrix(1 0 0 -1 0 512)" gradientUnits="userSpaceOnUse" x1="463.845" x2="967.535" xlink:href="#lg2" y1="222.343" y2="457.192"/><linearGradient id="SVGID_15_" gradientTransform="matrix(1 0 0 -1 0 512)" gradientUnits="userSpaceOnUse" x1="348.46" x2="413.061" y1="255.547" y2="179.296"><stop offset="0" stop-color="#9b62cd"/><stop offset=".3003" stop-color="#985dcb"/><stop offset=".6716" stop-color="#8f4ec7"/><stop offset="1" stop-color="#833ac1"/></linearGradient><linearGradient id="SVGID_16_" gradientTransform="matrix(1 0 0 -1 0 512)" gradientUnits="userSpaceOnUse" x1="385.305" x2="321.206" y1="208.618" y2="375.637"><stop offset="0" stop-color="#9b62cd" stop-opacity="0"/><stop offset="1" stop-color="#ff75c8"/></linearGradient><linearGradient id="lg4"><stop offset="0" stop-color="#fff" stop-opacity="0"/><stop offset="1" stop-color="#fff"/></linearGradient><linearGradient id="SVGID_17_" gradientTransform="matrix(1 0 0 -1 0 512)" gradientUnits="userSpaceOnUse" x1="387.545" x2="142.95" xlink:href="#lg4" y1="227.342" y2="402.45"/><linearGradient id="SVGID_18_" gradientTransform="matrix(1 0 0 -1 0 512)" gradientUnits="userSpaceOnUse" x1="394.095" x2="228.931" xlink:href="#lg2" y1="98.134" y2="161.389"/><linearGradient id="SVGID_19_" gradientTransform="matrix(1 0 0 -1 0 512)" gradientUnits="userSpaceOnUse" x1="0" x2="284.693" xlink:href="#lg1" y1="171.783" y2="171.783"/><linearGradient id="SVGID_20_" gradientTransform="matrix(1 0 0 -1 0 512)" gradientUnits="userSpaceOnUse" x1="142.347" x2="142.347" xlink:href="#lg2" y1="93.022" y2="-13.782"/><linearGradient id="lg5"><stop offset="0" stop-color="#00adfb"/><stop offset="1" stop-color="#3f3ced"/></linearGradient><linearGradient id="SVGID_21_" gradientTransform="matrix(1 0 0 -1 0 512)" gradientUnits="userSpaceOnUse" x1="245.171" x2="270.948" xlink:href="#lg5" y1="115.026" y2="92.899"/><linearGradient id="SVGID_22_" gradientTransform="matrix(1 0 0 -1 0 512)" gradientUnits="userSpaceOnUse" x1="142.346" x2="142.346" xlink:href="#lg2" y1="79.116" y2="-4.342"/><linearGradient id="SVGID_23_" gradientTransform="matrix(1 0 0 -1 0 512)" gradientUnits="userSpaceOnUse" x1="162.257" x2="171.719" xlink:href="#lg5" y1="78.201" y2="33.731"/><linearGradient id="SVGID_24_" gradientTransform="matrix(1 0 0 -1 0 512)" gradientUnits="userSpaceOnUse" x1="78.692" x2="292.032" xlink:href="#lg1" y1="253.204" y2="30.747"/><linearGradient id="SVGID_25_" gradientTransform="matrix(1 0 0 -1 0 512)" gradientUnits="userSpaceOnUse" x1="109.195" x2="197.071" xlink:href="#lg5" y1="251.885" y2="79.448"/><linearGradient id="SVGID_26_" gradientTransform="matrix(1 0 0 -1 0 512)" gradientUnits="userSpaceOnUse" x1="89.157" x2="209.357" xlink:href="#lg5" y1="255.358" y2="100.495"/><linearGradient id="SVGID_27_" gradientTransform="matrix(1 0 0 -1 0 512)" gradientUnits="userSpaceOnUse" x1="181.769" x2="16.6" y1="146.314" y2="316.071"><stop offset="0" stop-color="#00adfb" stop-opacity="0"/><stop offset="1" stop-color="#18cefb"/></linearGradient><linearGradient id="SVGID_28_" gradientTransform="matrix(1 0 0 -1 0 512)" gradientUnits="userSpaceOnUse" x1="94.614" x2="200.801" xlink:href="#lg1" y1="240.363" y2="121.27"/><linearGradient id="SVGID_29_" gradientTransform="matrix(1 0 0 -1 0 512)" gradientUnits="userSpaceOnUse" x1="12.452" x2="44.563" xlink:href="#lg5" y1="124.453" y2="74.28"/><linearGradient id="SVGID_30_" gradientTransform="matrix(1 0 0 -1 0 512)" gradientUnits="userSpaceOnUse" x1="99.335" x2="137.555" xlink:href="#lg5" y1="205.654" y2="117.235"/><linearGradient id="SVGID_31_" gradientTransform="matrix(1 0 0 -1 0 512)" gradientUnits="userSpaceOnUse" x1="155.166" x2="193.386" xlink:href="#lg5" y1="229.788" y2="141.368"/><linearGradient id="SVGID_32_" gradientTransform="matrix(1 0 0 -1 0 512)" gradientUnits="userSpaceOnUse" x1="141.976" x2="24.936" xlink:href="#lg4" y1="187.368" y2="357.609"/><path d="m431.842 419.917h-226.889c-9.664 0-17.498-7.834-17.498-17.498v-357.484c0-9.664 7.834-17.498 17.498-17.498h226.889c9.664 0 17.498 7.834 17.498 17.498v357.484c.001 9.664-7.834 17.498-17.498 17.498z" fill="url(#SVGID_1_)"/><path d="m431.551 27.437h-4.906v351.995c0 9.825-7.965 17.79-17.79 17.79h-221.4v4.906c0 9.825 7.965 17.79 17.79 17.79h226.306c9.825 0 17.79-7.965 17.79-17.79v-356.902c0-9.825-7.965-17.789-17.79-17.789z" fill="url(#SVGID_2_)"/><path d="m422.034 404.201h-207.272c-5.988 0-10.842-4.854-10.842-10.842v-339.365c0-5.988 4.854-10.841 10.841-10.841h207.272c5.988 0 10.842 4.854 10.842 10.842v339.365c0 5.987-4.854 10.841-10.841 10.841z" fill="url(#SVGID_3_)"/><path d="m236.01 43.155v361.043h-21.245c-5.993 0-10.848-4.854-10.848-10.839v-339.364c0-5.985 4.854-10.84 10.848-10.84z" fill="url(#SVGID_4_)"/><path d="m268.817 43.155h32.807v361.043h-32.807z" fill="url(#SVGID_5_)"/><path d="m335.171 43.155h32.807v361.043h-32.807z" fill="url(#SVGID_6_)"/><path d="m432.879 53.995v339.364c0 5.985-4.854 10.839-10.848 10.839h-21.245v-361.043h21.245c5.994 0 10.848 4.855 10.848 10.84z" fill="url(#SVGID_7_)"/><path d="m432.879 369.095v24.263c0 5.985-4.854 10.839-10.848 10.839h-207.267c-5.993 0-10.848-4.854-10.848-10.839v-24.263z" fill="url(#SVGID_8_)"/><path d="m203.916 296.739h228.963v36.174h-228.963z" fill="url(#SVGID_9_)"/><path d="m203.916 224.383h228.963v36.174h-228.963z" fill="url(#SVGID_10_)"/><path d="m203.916 151.201h228.963v36.174h-228.963z" fill="url(#SVGID_11_)"/><path d="m203.916 78.845h228.963v36.174h-228.963z" fill="url(#SVGID_12_)"/><path d="m492.21 472.893h-226.306c-9.825 0-17.79-7.965-17.79-17.79v-356.901c0-9.825 7.965-17.79 17.79-17.79h226.306c9.825 0 17.79 7.965 17.79 17.79v356.901c0 9.825-7.965 17.79-17.79 17.79z" fill="url(#SVGID_13_)"/><path d="m276.012 174.634c0-.193.063-.546.193-1.063l17.971-58.936c.515-1.609 1.691-2.85 3.526-3.72 1.836-.869 3.945-1.304 6.329-1.304 2.382 0 4.493.435 6.328 1.304 1.836.87 3.01 2.111 3.527 3.72l18.067 58.936c.129.516.194.869.194 1.063 0 1.676-1.048 3.125-3.14 4.348-2.094 1.224-4.268 1.836-6.522 1.836-2.77 0-4.413-.933-4.927-2.802l-3.285-12.077h-20.386l-3.285 12.077c-.516 1.869-2.159 2.802-4.927 2.802-2.256 0-4.43-.611-6.522-1.836-2.095-1.223-3.141-2.673-3.141-4.348zm20.966-20.29h14.106l-7.053-25.893z" fill="#9b62cd"/><path d="m492.21 80.413h-4.906v351.995c0 9.825-7.965 17.79-17.79 17.79h-221.4v4.906c0 9.825 7.965 17.79 17.79 17.79h226.306c9.825 0 17.79-7.965 17.79-17.79v-356.902c0-9.825-7.965-17.789-17.79-17.789z" fill="url(#SVGID_14_)"/><path d="m449.082 260.278-62.047-61.121c-4.829-4.757-12.601-4.699-17.359.131l-61.12 62.047c-17.41 17.673-17.196 46.114.477 63.524 15.993 15.754 40.8 17.075 58.274 4.089-2.537 7.919-6.202 14.775-10.554 19.698-2.207 2.496-1.292 9.033 1.264 9.033h42.079c2.556 0 3.471-6.536 1.264-9.033-4.56-5.159-8.558-12.439-11.281-20.843 17.733 13.751 43.342 12.381 59.479-4.001 17.411-17.673 17.197-46.114-.476-63.524z" fill="url(#SVGID_15_)"/><path d="m462.477 292.276c0 11.383-4.296 22.78-12.917 31.526-16.14 16.377-41.752 17.744-59.482 4.003 1.367 4.199 3.041 8.119 4.952 11.634s4.059 6.626 6.333 9.207c2.204 2.497 1.284 9.026-1.27 9.026h-42.072c-2.553 0-3.474-6.529-1.27-9.026 1.632-1.841 3.167-3.948 4.589-6.291v-.014c2.358-3.906 4.38-8.44 5.971-13.392-7.909 5.887-17.34 8.83-26.755 8.83-9.96 0-19.92-3.292-28.123-9.891-.028-.014-.042-.014-.028-.028-14.201-17.535-13.252-43.286 2.943-59.733l61.114-62.049c4.757-4.826 12.527-4.896 17.367-.139l56.999 56.162c7.771 8.539 11.649 19.365 11.649 30.175z" fill="url(#SVGID_16_)"/><path d="m279.487 93.995c-9.825 0-17.789 7.965-17.789 17.79v356.901c0 1.303.149 2.569.415 3.792 1.223.266 2.49.415 3.793.415h226.304c9.825 0 17.79-7.965 17.79-17.79v-356.901c0-1.303-.149-2.569-.415-3.793-1.223-.266-2.49-.415-3.793-.415z" fill="url(#SVGID_17_)"/><path d="m259.582 252.963h-11.467v202.141c0 9.825 7.965 17.789 17.79 17.789h213.607z" fill="url(#SVGID_18_)"/><path d="m284.693 325.17c0-70.305-63.731-127.299-142.346-127.299s-142.347 56.994-142.347 127.299v30.095c0 70.305 63.731 127.299 142.346 127.299s142.346-56.994 142.346-127.299c.001-.099.001-29.997.001-30.095z" fill="url(#SVGID_19_)"/><path d="m259.582 252.963c-25.677-33.278-68.604-55.092-117.235-55.092s-91.558 21.814-117.235 55.092v174.508c25.677 33.278 68.604 55.092 117.235 55.092s91.558-21.814 117.235-55.092z" fill="url(#SVGID_20_)"/><path d="m238.746 448.92c17.141-14.117 30.395-31.947 38.168-52.066v-30.094l-38.168 52.066z" fill="url(#SVGID_21_)"/><path d="m58.855 458.367c23.455 15.217 52.298 24.196 83.491 24.196s60.036-8.979 83.491-24.196v-236.3c-23.455-15.217-52.298-24.196-83.491-24.196s-60.036 8.98-83.491 24.196z" fill="url(#SVGID_22_)"/><path d="m110.006 479.262c10.39 2.159 21.216 3.302 32.34 3.302s21.95-1.143 32.34-3.302v-278.089c-10.39-2.159-21.216-3.302-32.34-3.302-11.125 0-21.95 1.143-32.34 3.302z" fill="url(#SVGID_23_)"/><ellipse cx="142.346" cy="325.17" fill="url(#SVGID_24_)" rx="142.346" ry="127.299"/><path d="m110.005 201.172v62.894l-66.038-30.896c-17.087 14.617-30.105 33.003-37.393 53.666l70.613 32.973-69.408 46.951c7.774 20.119 21.027 37.949 38.168 52.066l64.059-43.276v73.618c10.39 2.159 21.216 3.302 32.34 3.302s21.95-1.143 32.34-3.302v-73.618l64.059 43.276c17.141-14.117 30.395-31.947 38.168-52.066l-69.408-46.952 70.613-32.973c-7.288-20.662-20.306-39.049-37.393-53.666l-66.039 30.897v-62.894h-.001c-8.207-1.682-18.199-3.065-29.598-3.259-13.798-.235-25.709 1.339-35.082 3.259z" fill="url(#SVGID_25_)"/><ellipse cx="142.346" cy="325.17" fill="url(#SVGID_26_)" rx="103.291" ry="92.372"/><path d="m229.678 238.339-54.991 25.728v-52.077c-10.343-2.357-21.177-3.612-32.34-3.612s-21.998 1.255-32.34 3.612v52.076l-54.991-25.728c-17.621 14.183-30.897 32.594-37.841 53.446l60.013 28.023-59.508 40.255c7.139 20.419 20.381 38.423 37.811 52.316l54.516-36.829v62.8c10.343 2.357 21.177 3.612 32.34 3.612s21.998-1.255 32.34-3.612v-62.8l54.516 36.829c17.43-13.893 30.672-31.897 37.811-52.316l-59.507-40.254 60.013-28.023c-6.945-20.853-20.221-39.263-37.842-53.446z" fill="url(#SVGID_27_)"/><ellipse cx="142.346" cy="325.17" fill="url(#SVGID_28_)" rx="91.683" ry="81.992"/><path d="m7.779 396.854c7.774 20.119 21.027 37.949 38.168 52.066v-30.094l-38.168-52.066z" fill="url(#SVGID_29_)"/><path d="m81.829 363.314v-11.848c0-3.502 1.299-7.003 3.898-10.505s5.74-6.635 9.42-9.405l11.146-8.346c3.855-2.781 7.113-5.687 9.779-8.714 2.665-3.027 3.999-5.973 3.999-8.837 0-2.291-.78-4.315-2.337-6.076-1.559-1.758-3.896-2.638-7.011-2.638-2.707 0-4.92.757-6.642 2.269-1.723 1.512-2.584 3.906-2.584 7.182 0 1.933-.899 3.613-2.695 5.04-1.799 1.428-4.173 2.142-7.129 2.142-5.591 0-8.386-3.278-8.386-9.833 0-7.041 2.718-12.686 8.156-16.935s11.823-6.374 19.157-6.374c7.559 0 14.183 2.219 19.874 6.658s8.536 10.423 8.536 17.954c0 4.909-1.301 9.534-3.904 13.87-2.602 4.336-5.734 7.978-9.393 10.922-3.659 2.946-7.339 5.647-11.038 8.102-3.701 2.454-6.863 4.848-9.486 7.179-2.624 2.333-3.934 4.48-3.934 6.444v1.104h32.013c1.546 0 2.889.81 4.031 2.428 1.14 1.62 1.711 3.521 1.711 5.706s-.567 4.128-1.7 5.827c-1.134 1.699-2.469 2.549-4.006 2.549h-43.22c-1.863 0-3.703-.569-5.524-1.709-1.821-1.142-2.731-2.527-2.731-4.156z" fill="url(#SVGID_30_)"/><path d="m143.378 347.325c0-3.156.789-5.342 2.367-6.556s3.946-1.821 7.102-1.821c3.803 0 6.332.607 7.587 1.821 1.254 1.214 1.882 2.955 1.882 5.22 0 2.348.99 4.169 2.974 5.463 1.982 1.295 4.511 1.942 7.588 1.942 7.364 0 11.047-3.803 11.047-11.411v-2.307c0-3.964-.952-6.939-2.853-8.923-1.903-1.982-4.553-2.974-7.952-2.974h-18.453c-2.671 0-4.553-.626-5.645-1.882-1.092-1.254-1.639-3.095-1.639-5.524 0-.565.08-1.739.243-3.521l3.278-30.593c.404-3.885 1.536-5.827 3.399-5.827h38.727c1.7 0 3.035.81 4.006 2.428.971 1.62 1.457 3.562 1.457 5.827 0 2.267-.485 4.209-1.457 5.827-.971 1.62-2.307 2.428-4.006 2.428h-26.586l-1.214 16.267h7.891c9.064 0 16.286 2.106 21.67 6.313 5.382 4.209 8.073 10.926 8.073 20.152v2.307c0 9.551-2.712 16.592-8.133 21.123-5.423 4.534-12.546 6.799-21.367 6.799-9.308 0-16.632-2.225-21.973-6.677-5.342-4.447-8.013-9.749-8.013-15.901z" fill="url(#SVGID_31_)"/><ellipse cx="142.346" cy="325.17" fill="url(#SVGID_32_)" rx="130.597" ry="116.792"/></svg>