<?xml version="1.0" encoding="iso-8859-1"?>
<!-- Generator: Adobe Illustrator 19.0.0, SVG Export Plug-In . SVG Version: 6.00 Build 0)  -->
<svg version="1.1" id="Capa_1" xmlns="http://www.w3.org/2000/svg" xmlns:xlink="http://www.w3.org/1999/xlink" x="0px" y="0px"
	 viewBox="0 0 512.002 512.002" style="enable-background:new 0 0 512.002 512.002;" xml:space="preserve">
<g>
	<path style="fill:#878787;" d="M77.784,218.792c-2.689,0-5.288-1.447-6.639-3.986C42.338,160.602,29.196,108.884,36.849,79.832
		c5.831-22.136,26.578-39.394,59.999-49.912c3.959-1.245,8.173,0.954,9.417,4.909c1.245,3.956-0.953,8.173-4.909,9.418
		c-19.699,6.199-44.361,18.068-49.982,39.411c-5.034,19.105,0.599,63.069,33.035,124.098c1.946,3.663,0.556,8.21-3.108,10.156
		C80.179,218.508,78.972,218.792,77.784,218.792z"/>
	<path style="fill:#878787;" d="M305.482,218.796c-1.188,0-2.395-0.283-3.518-0.88c-3.663-1.947-5.054-6.493-3.108-10.156
		c32.439-61.03,38.071-104.995,33.038-124.102c-5.586-21.206-29.993-33.051-49.485-39.253c-3.952-1.258-6.137-5.481-4.878-9.433
		c1.258-3.952,5.482-6.135,9.433-4.878c33.098,10.532,53.658,27.732,59.455,49.74c7.653,29.054-5.49,80.773-34.299,134.977
		C310.771,217.348,308.171,218.796,305.482,218.796z"/>
</g>
<path style="fill:#565656;" d="M430.292,261.066c-1.853-1.421-4.262-1.899-6.517-1.295c-8.827,2.369-18.217,2.369-27.045,0
	c-2.249-0.603-4.662-0.128-6.517,1.295c-1.853,1.421-2.94,3.624-2.94,5.959v112.688c0,47.603-38.727,86.33-86.33,86.33
	s-86.33-38.727-86.33-86.33v-64.334c40.188-7.381,75.614-34.445,102.787-78.649c6.636-10.794,3.252-24.973-7.543-31.61
	c-10.797-6.636-24.974-3.25-31.609,7.543c-24.005,39.049-53.146,58.847-86.614,58.847c-33.47,0-62.611-19.8-86.616-58.849
	c-6.636-10.793-20.814-14.179-31.61-7.543c-10.793,6.635-14.177,20.815-7.543,31.61c27.174,44.206,62.601,71.271,102.79,78.652
	v64.334c0,72.945,59.345,132.289,132.288,132.289c72.945,0,132.288-59.344,132.288-132.289V267.024
	C433.231,264.689,432.144,262.486,430.292,261.066z"/>
<path style="fill:#494949;" d="M430.292,261.066c-1.853-1.421-4.262-1.899-6.517-1.295c-8.827,2.369-18.217,2.369-27.045,0
	c-2.249-0.603-4.662-0.128-6.517,1.295c-1.853,1.421-2.94,3.624-2.94,5.959v32.93h45.958v-32.93
	C433.231,264.689,432.144,262.486,430.292,261.066z"/>
<path style="fill:#F2CA5A;" d="M410.252,142.484c-36.969,0-67.046,30.077-67.046,67.046s30.077,67.046,67.046,67.046
	c36.97,0,67.047-30.077,67.047-67.046C477.299,172.561,447.222,142.484,410.252,142.484z"/>
<path style="fill:#FFAE47;" d="M410.252,142.484c-6.208,0-12.214,0.866-17.923,2.452c28.292,7.861,49.123,33.832,49.123,64.594
	c0,30.761-20.831,56.733-49.123,64.594c5.709,1.586,11.715,2.452,17.923,2.452c36.97,0,67.047-30.077,67.047-67.046
	S447.222,142.484,410.252,142.484z"/>
<path style="fill:#565656;" d="M410.252,179.333c-16.651,0-30.197,13.547-30.197,30.198s13.547,30.198,30.197,30.198
	c16.652,0,30.198-13.547,30.198-30.198C440.45,192.879,426.903,179.333,410.252,179.333z"/>
<g>
	<path style="fill:#EF3A47;" d="M156.013,26.588c-2.536-16.744-16.581-28.549-31.328-26.317
		c-6.963,1.055-15.432,5.456-22.101,11.485c-8.437,7.627-12.395,16.37-11.144,24.618c1.25,8.248,7.62,15.426,17.938,20.21
		c6.552,3.039,13.903,4.729,20.151,4.729c1.528,0,2.992-0.101,4.361-0.308c7.385-1.119,13.745-5.486,17.91-12.294
		C155.711,42.319,157.207,34.462,156.013,26.588z"/>
	<path style="fill:#EF3A47;" d="M280.684,11.756c-6.669-6.029-15.138-10.43-22.101-11.485c-14.742-2.234-28.79,9.572-31.328,26.317
		c-1.194,7.874,0.302,15.73,4.212,22.124c4.165,6.809,10.526,11.175,17.91,12.294c1.37,0.207,2.832,0.308,4.361,0.308
		c6.248,0,13.599-1.69,20.151-4.729c10.318-4.784,16.689-11.963,17.938-20.21C293.079,28.126,289.121,19.383,280.684,11.756z"/>
</g>
<g>
</g>
<g>
</g>
<g>
</g>
<g>
</g>
<g>
</g>
<g>
</g>
<g>
</g>
<g>
</g>
<g>
</g>
<g>
</g>
<g>
</g>
<g>
</g>
<g>
</g>
<g>
</g>
<g>
</g>
</svg>
