<svg id="Layer_1" enable-background="new 0 0 512 512" height="512" viewBox="0 0 512 512" width="512" xmlns="http://www.w3.org/2000/svg"><g clip-rule="evenodd" fill-rule="evenodd"><path d="m326.23 374.43c0 6.141 2.543 11.926 7.136 16.015l1.675 1.492v15.362c0 7.011 5.709 12.72 12.72 12.72s12.72-5.709 12.72-12.72v-15.362l1.675-1.491c4.593-4.09 7.136-9.874 7.136-16.015 0-11.875-9.654-21.54-21.53-21.54-11.878-.001-21.532 9.664-21.532 21.539zm-160.53-251.081c0-1.657-1.344-3.001-3.001-3.001-1.662 0-3.001 1.339-3.001 3.001v6.275l-3.705.993c-9.006 2.414-15.79 9.552-15.32 19.197.573 11.747 11.334 16.468 21.598 18.153 7.766 1.275 17.457 3.975 18.572 13.135.358 2.942-.29 5.606-2.244 7.862-3.484 4.022-9.974 5.683-15.101 5.816-8.336.216-16.962-3.728-19.132-12.457-.4-1.608-2.042-2.567-3.643-2.17-1.597.397-2.583 2.026-2.184 3.624 2.121 8.503 8.932 14.22 17.314 16.208l3.846.913v6.25c0 1.657 1.343 3.001 3.001 3.001 1.652 0 3.001-1.348 3.001-3.001v-6.231l3.985-.826c4.923-1.02 10.106-3.336 13.45-7.204 3.059-3.538 4.221-7.879 3.66-12.505-1.486-12.228-12.711-16.559-23.554-18.338-7.137-1.171-16.166-3.897-16.578-12.526-.345-7.218 5.195-11.839 11.683-13.308 8.611-1.95 17.539 1.673 21.074 10.083.638 1.518 2.411 2.248 3.93 1.609 1.521-.639 2.247-2.407 1.608-3.929-2.888-6.882-8.285-11.564-15.505-13.423l-3.753-.966v-6.235zm155.308 209.481h-14.049v-24.26c0-22.499 18.302-40.802 40.802-40.802s40.797 18.303 40.797 40.802v24.259h-14.049v-24.259c0-14.744-12.005-26.743-26.748-26.743-14.745 0-26.753 11.997-26.753 26.743zm85.383 6.001-.011 95.251-117.249-.011v-95.24zm-243.691-110.37c-34.859 0-63.221-28.35-63.221-63.212 0-34.86 28.361-63.221 63.221-63.221 34.862 0 63.211 28.362 63.211 63.221 0 34.861-28.351 63.212-63.211 63.212zm139.997-127.551v-37.813l37.813 37.813zm1.399-44.904c-2.083-2.083-4.659-3.155-7.606-3.155h-202.511v-33.851h290.633v219.298l-33.85-14.502v-116.674c0-2.935-1.07-5.521-3.146-7.596z" fill="#9bc9ff"/><path d="m337.231 374.43c0 3.682 1.869 7.03 5.01 8.97 2.359 1.46 3.8 4.031 3.8 6.809v17.089c0 .932.787 1.724 1.719 1.724.928 0 1.719-.791 1.719-1.724v-17.089c0-2.778 1.441-5.35 3.8-6.809 3.141-1.94 5.01-5.288 5.01-8.97 0-5.811-4.723-10.539-10.529-10.539-5.81 0-10.529 4.728-10.529 10.539zm-16.001 0c0-14.64 11.9-26.54 26.53-26.54s26.53 11.9 26.53 26.54c0 7.661-3.221 14.772-8.81 19.749v13.119c0 9.771-7.949 17.72-17.72 17.72s-17.72-7.949-17.72-17.72v-13.119c-5.589-4.977-8.81-12.088-8.81-19.749zm26.531-101.662c-19.74 0-35.802 16.062-35.802 35.802v19.26h4.05v-19.26c0-17.498 14.24-31.743 31.752-31.743 17.508 0 31.747 14.245 31.747 31.743v19.26h4.05v-19.26c0-19.739-16.057-35.802-35.797-35.802zm15.746 35.802v19.26h-31.498v-19.26c0-8.533 7.21-15.742 15.752-15.742 8.537 0 15.746 7.21 15.746 15.742zm-69.376 35.261h107.26l-.01 85.25-107.251-.009v-85.241zm53.63-87.059c28.56 0 51.798 23.238 51.798 51.798v19.26h1.822c8.829 0 16.01 7.181 16.01 16.001v85.241c0 8.829-7.181 16.01-16.01 16.01h-107.25c-8.82 0-16.001-7.181-16.001-16.01v-85.241c0-8.82 7.181-16.001 16.001-16.001h1.832v-19.26c-.001-28.559 23.238-51.798 51.798-51.798zm105.108 22.758v86.178c0 60.703-43.148 110.74-105.108 122.164-61.96-11.424-105.113-61.461-105.113-122.164v-86.178l105.113-45.05zm-209.331 152.782h-184.411v-368.46l232.574.01v36.179c0 6.55 5.326 11.871 11.876 11.871h36.184v108.588l-108.263 46.402c-2.938 1.257-4.85 4.148-4.85 7.346v91.462c-.001 24.16 6.031 46.82 16.89 66.602zm64.159-336.402h20.743l-20.743-20.743zm-208.718-48.059h197.511c4.271 0 8.118 1.596 11.141 4.619l43.52 43.52c3.019 3.009 4.61 6.87 4.61 11.132v113.377l23.851 10.218v-206.717h-280.633zm369.891 226.396v91.462c0 69.061-49.241 125.879-119.739 138.169-.452.08-.909.122-1.37.122s-.918-.042-1.37-.122c-38.891-6.781-71.303-27.109-92.559-55.57h-194.95c-8.683 0-15.751-7.059-15.751-15.747v-368.963c0-8.678 7.068-15.746 15.751-15.746h24.096v-24.101c0-8.679 7.072-15.751 15.751-15.751h281.133c8.688 0 15.747 7.073 15.747 15.751v213.828l68.411 29.323c2.938 1.256 4.85 4.148 4.85 7.345zm-304.819-117.135c-12.112-1.982-12.323-6.23-12.394-7.831-.287-5.891 5.891-7.76 7.793-8.194 4.191-.946 12.149-.518 15.36 7.144 1.719 4.069 6.409 5.99 10.477 4.28 4.073-1.714 5.99-6.404 4.28-10.473-3.871-9.23-11.132-14.339-18.868-16.331v-2.359c0-4.422-3.588-8-8.001-8-4.422 0-8.001 3.579-8.001 8v2.439c-11.979 3.211-19.58 12.832-19.019 24.27.339 7.012 4.139 19.293 25.781 22.843 13.618 2.237 14.179 6.837 14.419 8.806.259 2.133-.391 3.211-1.06 3.984-2.02 2.331-6.621 3.979-11.452 4.092-5.509.155-12.512-2.053-14.15-8.665-1.069-4.28-5.406-6.889-9.7-5.816-4.29 1.06-6.899 5.406-5.83 9.686 2.51 10.063 10.51 17.371 21.011 19.862v2.298c0 4.412 3.579 8.001 8.001 8.001 4.412 0 8.001-3.588 8.001-8.001v-2.161c6.658-1.38 12.469-4.488 16.218-8.829 3.923-4.53 5.604-10.19 4.841-16.378-1.478-12.26-10.807-19.888-27.707-22.667zm56.86 8.137c0-32.101-26.111-58.221-58.212-58.221s-58.221 26.12-58.221 58.221 26.12 58.212 58.221 58.212 58.212-26.111 58.212-58.212zm15.997 0c0-40.921-33.287-74.222-74.208-74.222s-74.218 33.302-74.218 74.222c0 40.921 33.297 74.213 74.218 74.213 40.92 0 74.208-33.292 74.208-74.213zm-30.731 212.891h-109.699c-4.408 0-7.996 3.588-7.996 8.001 0 4.417 3.588 8 7.996 8h109.699c4.412 0 8.001-3.583 8.001-8 0-4.413-3.588-8.001-8.001-8.001zm-109.699-39.221h108.169c4.422 0 8.001-3.579 8.001-8.001 0-4.417-3.579-8-8.001-8h-108.169c-4.408 0-7.996 3.583-7.996 8 0 4.423 3.589 8.001 7.996 8.001zm168.212-110.448h37.719c4.412 0 8.001-3.584 8.001-8.001 0-4.421-3.588-8.001-8.001-8.001h-37.719c-4.422 0-8 3.579-8 8.001 0 4.418 3.579 8.001 8 8.001zm-168.212 55.227h108.169c4.422 0 8.001-3.588 8.001-7.996 0-4.422-3.579-8.001-8.001-8.001h-108.169c-4.408 0-7.996 3.579-7.996 8.001 0 4.408 3.589 7.996 7.996 7.996zm160.212-118.449c0 4.421 3.579 8.001 8 8.001h37.719c4.412 0 8.001-3.579 8.001-8.001s-3.588-8.001-8.001-8.001h-37.719c-4.421.001-8 3.58-8 8.001z" fill="#57a4ff"/></g></svg>