<svg id="Layer_1" enable-background="new 0 0 512 512" height="512" viewBox="0 0 512 512" width="512" xmlns="http://www.w3.org/2000/svg" xmlns:xlink="http://www.w3.org/1999/xlink"><linearGradient id="SVGID_1_" gradientUnits="userSpaceOnUse" x1="358.658" x2="12.949" y1="89.748" y2="435.457"><stop offset="0" stop-color="#e93528"/><stop offset="1" stop-color="#f8bc16"/></linearGradient><path d="m26.1 181.569h244.732c9.436 0 17.111-7.676 17.111-17.111v-138.347c0-9.435-7.676-17.111-17.111-17.111h-244.732c-9.435 0-17.111 7.676-17.111 17.111v138.347c0 9.435 7.676 17.111 17.111 17.111zm-3.111-155.458c0-1.716 1.396-3.111 3.111-3.111h244.732c1.716 0 3.111 1.396 3.111 3.111v138.347c0 1.716-1.396 3.111-3.111 3.111h-244.732c-1.716 0-3.111-1.396-3.111-3.111zm13.487 111.014h3.47c7.437 0 13.486 6.05 13.486 13.487v3.47c0 3.866 3.134 7 7 7h176.068c3.866 0 7-3.134 7-7v-3.47c0-7.437 6.051-13.487 13.487-13.487h3.469c3.866 0 7-3.134 7-7v-69.682c0-3.866-3.134-7-7-7h-3.469c-7.437 0-13.487-6.05-13.487-13.487v-3.469c0-3.866-3.134-7-7-7h-176.068c-3.866 0-7 3.134-7 7v3.469c0 7.437-6.05 13.487-13.486 13.487h-3.47c-3.866 0-7 3.134-7 7v69.682c0 3.867 3.134 7 7 7zm7-69.907c12.338-1.589 22.142-11.392 23.73-23.731h162.52c1.589 12.339 11.392 22.142 23.73 23.731v56.133c-12.339 1.589-22.142 11.393-23.73 23.731h-162.519c-1.589-12.338-11.393-22.142-23.73-23.731v-56.133zm104.99 77.506c27.261 0 49.439-22.179 49.439-49.44s-22.179-49.439-49.439-49.439-49.439 22.178-49.439 49.439 22.179 49.44 49.439 49.44zm0-84.879c19.541 0 35.439 15.898 35.439 35.439s-15.898 35.44-35.439 35.44-35.439-15.898-35.439-35.44 15.898-35.439 35.439-35.439zm-17.248 26.456c0-6.529 4.159-12.166 10.126-14.71-.046-3.827 2.995-6.989 6.832-7.082 3.874-.126 7.072 2.965 7.166 6.83l.003.141c1.842.748 3.544 1.801 5.031 3.129 2.883 2.575 3.133 7 .558 9.883-2.575 2.885-6.999 3.134-9.884.558-.641-.573-1.583-.901-2.585-.901-1.857 0-3.247 1.136-3.247 2.152s1.389 2.152 3.248 2.152c9.511 0 17.249 7.246 17.249 16.152 0 6.531-4.161 12.169-10.132 14.712-.13 3.673-3.104 6.653-6.825 6.743-.058.001-.116.002-.173.002-3.716 0-6.783-2.908-6.986-6.612-2.721-1.141-4.746-2.871-6.511-4.535-2.812-2.653-2.941-7.083-.288-9.895 2.653-2.814 7.084-2.941 9.896-.289 2.062 1.945 2.483 2.025 3.771 2.025 1.859 0 3.249-1.136 3.249-2.152s-1.39-2.152-3.249-2.152c-9.511.001-17.249-7.245-17.249-16.151zm369.921 248.505c-3.532-10.428-11.968-18.001-23.755-21.324-6.819-1.922-14.751-2.468-23.705-1.669-5.293-18.769-21.09-32.974-40.213-36.384 10.725-3.696 18.455-13.882 18.455-25.846 0-15.071-12.263-27.332-27.335-27.332s-27.335 12.261-27.335 27.332c0 11.962 7.728 22.147 18.45 25.844-23.897 4.218-42.113 25.117-42.113 50.204 0 2.992.842 7.433 4.763 11.776l-20.326 5.963c-2.664-5.441-6.626-10.222-11.592-13.865.304-1.266.474-2.56.474-3.874 0-25.088-18.214-45.986-42.11-50.204 10.723-3.697 18.45-13.882 18.45-25.844 0-15.071-12.263-27.332-27.335-27.332s-27.335 12.261-27.335 27.332c0 11.944 7.704 22.116 18.4 25.828-13.34 2.338-25.134 9.862-32.896 21.029-37.24-20.616-60.623-11.408-93.203 4.523-17.639 8.625-35.191 16.98-51.794 24.827l-3.479-8.354c-4.615-11.085-17.39-16.359-28.483-11.752l-34.673 14.398c-5.405 2.244-9.603 6.438-11.817 11.807-2.216 5.369-2.196 11.303.054 16.706l58.715 140.989c3.483 8.363 11.611 13.418 20.155 13.417 2.78 0 5.605-.535 8.328-1.666l34.674-14.397c5.405-2.244 9.602-6.438 11.817-11.807 2.216-5.37 2.196-11.303-.054-16.707l-3.933-9.444 22.599-10.988c8.255-4.014 16.552-4.721 25.367-2.161l72.122 20.941c5.311 1.542 10.798 2.201 16.366 2.201 19.17-.001 39.271-7.822 56.169-14.398 1.488-.579 2.948-1.147 4.376-1.697l135.356-52.16c21.913-8.446 35.448-35.094 28.396-55.912zm-109.889-85.223c0-7.351 5.982-13.332 13.335-13.332s13.335 5.98 13.335 13.332c0 7.353-5.982 13.335-13.335 13.335s-13.335-5.983-13.335-13.335zm-23.663 76.048c0-20.399 16.598-36.995 36.998-36.995 16.098 0 30.185 10.518 35.119 25.341-3.65.784-7.43 1.743-11.345 2.891l-52.666 15.451c-5.048-2.025-8.106-4.512-8.106-6.688zm-105.01-76.048c0-7.351 5.982-13.332 13.335-13.332s13.335 5.98 13.335 13.332c0 7.353-5.982 13.335-13.335 13.335s-13.335-5.983-13.335-13.335zm13.335 39.053c19.584 0 35.654 15.299 36.907 34.572l-63.077-16.902c-1.244-.871-2.469-1.707-3.682-2.519 6.898-9.463 17.854-15.151 29.852-15.151zm-144.48 181.155c-.788 1.91-2.296 3.407-4.245 4.217l-34.674 14.397c-3.968 1.646-8.539-.238-10.19-4.204l-58.715-140.99c-.812-1.948-.824-4.073-.036-5.983s2.296-3.407 4.245-4.217l34.673-14.398c.975-.404 1.984-.596 2.979-.596 3.057 0 5.965 1.808 7.211 4.8l58.716 140.989c.812 1.948.824 4.073.036 5.985zm336.276-92.138-135.355 52.16c-1.442.557-2.917 1.13-4.42 1.715-19.835 7.72-44.523 17.326-63.554 11.799l-72.123-20.941c-12.127-3.52-24.036-2.506-35.392 3.016l-21.869 10.633-40.524-97.307c16.823-7.95 34.634-16.425 52.556-25.189 34.504-16.871 54.428-24.315 95.65 4.917.677.48 1.435.837 2.237 1.052l65.394 17.522c12.617 3.381 20.133 16.396 16.752 29.015-3.381 12.616-16.392 20.132-29.016 16.751l-86.905-23.287c-3.732-.997-7.573 1.216-8.573 4.95s1.216 7.572 4.95 8.573l86.905 23.287c20.075 5.376 40.783-6.578 46.162-26.651 1.149-4.29 1.507-8.607 1.163-12.799l90.554-26.566c29.92-8.777 50.696-5.414 55.578 8.995 4.625 13.652-5.366 32.65-20.17 38.355zm-160.127-149.336c8.734 3.216 20.336 4.987 32.667 4.987 23.525 0 50.997-6.606 50.997-25.224 0-25.088-18.215-45.987-42.111-50.205 10.723-3.697 18.45-13.882 18.45-25.844 0-15.071-12.263-27.332-27.335-27.332s-27.335 12.261-27.335 27.332c0 11.962 7.728 22.147 18.45 25.844-23.898 4.218-42.114 25.117-42.114 50.205 0 5.038 2.381 14.365 18.331 20.237zm19.333-96.285c0-7.351 5.982-13.332 13.335-13.332s13.335 5.98 13.335 13.332c0 7.353-5.982 13.334-13.335 13.334s-13.335-5.982-13.335-13.334zm13.335 39.053c20.399 0 36.996 16.596 36.996 36.996 0 4.687-14.075 11.224-36.997 11.224-22.923 0-36.998-6.537-36.998-11.224 0-20.4 16.597-36.996 36.999-36.996z" fill="url(#SVGID_1_)"/></svg>