<svg height="512" viewBox="0 0 61 53" width="512" xmlns="http://www.w3.org/2000/svg"><g id="Page-1" fill="none" fill-rule="evenodd"><g id="022---Running" fill-rule="nonzero" transform="translate(-1)"><circle id="Oval" cx="49.5" cy="12.5" fill="#ffe0b2" r="4.5"/><path id="Shape" d="m49.5 8c-.5121672.00489153-1.0196359.09826576-1.5.276 1.7962.627062 2.9993814 2.3214908 2.9993814 4.224s-1.2031814 3.596938-2.9993814 4.224c.4803641.1777342.9878328.2711085 1.5.276 2.4852813-.0000001 4.4999999-2.0147187 4.4999999-4.5s-2.0147186-4.49999995-4.4999999-4.5z" fill="#dfc49c"/><circle id="Oval" cx="30" cy="4" fill="#ffe0b2" r="3"/><path id="Shape" d="m30 1c-.5281059.00274535-1.0459153.14635115-1.5.416.9273539.5298262 1.4996803 1.5159639 1.4996803 2.584s-.5723264 2.0541738-1.4996803 2.584c.4540847.26964885.9718941.41325465 1.5.416 1.6568542 0 3-1.34314575 3-3s-1.3431458-3-3-3z" fill="#dfc49c"/><path id="Shape" d="m57.59 30.94-10 2c-.194155.0397474-.3918182.0598487-.59.06-1.0412307.0007046-2.0075835-.5412109-2.55-1.43l-3.63-5.89-3.44 5.16 6.96 3.48c.5797156.2901533 1.0498467.7602844 1.34 1.34l5 10c.7378786 1.4802776.1384695 3.2785051-1.34 4.02-.4149378.2115088-.8742662.3211992-1.34.32-1.1362345.0010301-2.1747959-.642258-2.68-1.66l-4.56-9.1-7.76-3.89-8.66 4.33c-.4141308.2136916-.8739999.3235111-1.34.32-.5629364.0008211-1.1144585-.1587388-1.59-.46l-8-5c-.9641249-.5415676-1.5521479-1.5696091-1.5301754-2.6752082.0219724-1.1055991.650377-2.1094657 1.6352581-2.6122991.984881-.5028335 2.1665246-.4230916 3.0749173.2075073l6.57 4.1 3.91-1.95 3.88-1.94.03-.05 6.38-9.56-.04-.06h-6.08l-4.12 4.12c-.9304357.9289-2.357292 1.1437392-3.52.53h-.01v-.01c-.6629149-.3456298-1.1676941-.9327489-1.41-1.64-.390597-1.0878009-.1178816-2.3033322.7-3.12l5-5c.2252518-.223747.4852928-.4094906.77-.55.4166017-.2177931.8799045-.3310449 1.35-.33h9c1.0434209.0010701 2.0119618.542091 2.56 1.43l6.9 11.22 7.95-1.59c1.0651242-.2476199 2.1806124.1039304 2.9112968.9175061.7306844.8135756.9608067 1.9602863.6005927 2.9927838-.360214 1.0324974-1.2536973 1.7872087-2.3318895 1.9697101z" fill="#ffdc00"/><path id="Shape" d="m49.34 49.68c-.4149378.2115088-.8742662.3211992-1.34.32-.1372135-.0000402-.2742421-.0100667-.41-.03-.2595391-.029863-.5126906-.1007454-.75-.21-.1213349-.046504-.2384351-.1033812-.35-.17-.5049588-.2918886-.912098-.7268663-1.17-1.25l-4.56-9.1-7.76-3.89-8.66 4.33c-.4141308.2136916-.8739999.3235111-1.34.32-.5629364.0008211-1.1144585-.1587388-1.59-.46l-8-5c-.9641249-.5415676-1.5521479-1.5696091-1.5301754-2.6752082.0219724-1.1055991.650377-2.1094657 1.6352581-2.6122991.984881-.5028335 2.1665246-.4230916 3.0749173.2075073l6.57 4.1 3.91-1.95 3.17-1.59 4.35.5 2.79.32 6.96 3.48c.5797156.2901533 1.0498467.7602844 1.34 1.34l5 10c.7378786 1.4802776.1384695 3.2785051-1.34 4.02z" fill="#3f51b5"/><path id="Shape" d="m59.94 27.41c-.3265343-1.6232568-1.9064428-2.6750372-3.53-2.35l-1.15.23c1.1781374.5416908 1.8728371 1.7810267 1.7201387 3.0687067-.1526983 1.28768-1.117986 2.3301679-2.3901387 2.5812933l-8.835 1.767c.5683914.2807144 1.2144893.362753 1.835.233l10-2c.7806114-.1548564 1.4673667-.6143211 1.9083769-1.2767746.4410101-.6624535.5999342-1.4733073.4416231-2.2532254z" fill="#fec108"/><path id="Shape" d="m38.56 15.43 6.9 11.22 2.671-.534-6.571-10.686c-.5480382-.887909-1.5165791-1.4289299-2.56-1.43h-3c1.0434209.0010701 2.0119618.542091 2.56 1.43z" fill="#fec108"/><path id="Shape" d="m49.34 49.68c-.4149378.2115088-.8742662.3211992-1.34.32-.1372135-.0000402-.2742421-.0100667-.41-.03-.2575906-.0393284-.5094405-.1098463-.75-.21-.1213349-.046504-.2384351-.1033812-.35-.17 1.3714914-.7908013 1.8924315-2.511217 1.19-3.93l-5-10c-.2901533-.5797156-.7602844-1.0498467-1.34-1.34l-3.96-3.48 6.96 3.48c.5797156.2901533 1.0498467.7602844 1.34 1.34l5 10c.7378786 1.4802776.1384695 3.2785051-1.34 4.02z" fill="#283593"/><path id="Shape" d="m28.65 14.33c-.2847072.1405094-.5447482.326253-.77.55l-2.49 2.49-2.38-3.85-2.5 3.76 3.32 1.65-.95.95c-.8178816.8166678-1.090597 2.0321991-.7 3.12l-4.87-2.43-6.31 3.16c-.6824787.339695-1.49217335.3018588-2.14-.1l-5.83-3.65c-.67326607-.4096271-1.07422394-1.1496741-1.04967296-1.9373789.02455097-.7877048.470817-1.5013457 1.1682858-1.8682501.69746881-.3669045 1.53836261-.3303757 2.20138716.095629l4.79 3 5.67-2.84 4.68-7.01-.02-.05h-4.44l-3 3.01c-.5519753.5537617-1.3574499.7709832-2.1130092.5698394-.7555594-.2011439-1.34641605-.7900945-1.55000005-1.545s.01103391-1.56107774.56300925-2.1148394l3.65-3.65c.41191-.40960179.9691013-.63966785 1.55-.64h6.56c.7588898-.00122251 1.4636488.39283629 1.86 1.04z" fill="#f44335"/><path id="Shape" d="m30.98 29.62-.03.05-3.88 1.94-3.47-6.96c1.162708.6137392 2.5895643.3989 3.52-.53l.74-.74z" fill="#283593"/><path id="Shape" d="m22.88 19.88c-.8178816.8166678-1.090597 2.0321991-.7 3.12l-4.87-2.43-6.31 3.16c-.6824787.339695-1.49217335.3018588-2.14-.1l-5.83-3.65c-.67326607-.4096271-1.07422394-1.1496741-1.04967296-1.9373789.02455097-.7877048.470817-1.5013457 1.1682858-1.8682501.69746881-.3669045 1.53836261-.3303757 2.20138716.095629l4.79 3 5.67-2.84 4.7.85 3.32 1.65z" fill="#283593"/><g fill="#000"><path id="Shape" d="m44 12.5c0 3.0375661 2.4624339 5.5 5.5 5.5s5.5-2.4624339 5.5-5.5c0-3.03756612-2.4624339-5.5-5.5-5.5-3.0361953.0033068-5.4966932 2.46380465-5.5 5.5zm9 0c0 1.9329966-1.5670034 3.5-3.5 3.5s-3.5-1.5670034-3.5-3.5 1.5670034-3.5 3.5-3.5 3.5 1.5670034 3.5 3.5z"/><path id="Shape" d="m26 4c0 2.209139 1.790861 4 4 4s4-1.790861 4-4-1.790861-4-4-4-4 1.790861-4 4zm6 0c0 1.1045695-.8954305 2-2 2s-2-.8954305-2-2 .8954305-2 2-2 2 .8954305 2 2z"/><path id="Shape" d="m43.594 32.1c.8875798 1.4136918 2.5514228 2.1382238 4.191 1.825l10-2c1.4163379-.2650247 2.5806746-1.271337 3.0480381-2.6343566.4673634-1.3630196.1655149-2.8720696-.7901887-3.9504396-.9557036-1.0783699-2.4175427-1.5593801-3.8268494-1.2592038l-7.269 1.453-6.54-10.634c-.7254456-1.1853624-2.01728-1.9057866-3.407-1.9h-9c-.3108747.0033693-.6202967.0429699-.922.118l-4.677-7.6c-.5756054-.94570675-1.6038999-1.521491-2.711-1.518h-6.56c-.8457901.00191048-1.656737.33714021-2.257.933l-3.65 3.65c-.83246895.80067128-1.16675492 1.988989-.87381946 3.1062481s1.1672687 1.9886876 2.28549646 2.2779034c1.1182277.2892159 2.3054264-.0490227 3.103323-.8841515l2.707-2.716h2.208l-3.528 5.285-4.925 2.472-4.317-2.7c-.71843886-.4486034-1.58568109-.5933743-2.4108773-.402454-.82519621.1909204-1.54072462.701887-1.9891227 1.420454-.44773811.7162209-.59213876 1.5811454-.401347 2.40397.19079175.8228246.70109886 1.5359392 1.418347 1.98203l5.839 3.655c.9423943.5820918 2.1187989.6354272 3.11.141l5.863-2.936 4.1 2.046c.3076994.6681777.8027252 1.2326807 1.425 1.625l2.894 5.8-2.512 1.256-6.1-3.811c-1.8733499-1.1708437-4.3411563-.6013499-5.512 1.272s-.6013499 4.3411563 1.272 5.512l8 5c1.1856503.7269459 2.6606977.7971143 3.91.186l8.211-4.102 7.02 3.509 4.4 8.808c.6741721 1.3592914 2.0627172 2.2168538 3.58 2.211h-21c-.5522847 0-1 .4477153-1 1s.4477153 1 1 1h33c.5522847 0 1-.4477153 1-1s-.4477153-1-1-1h-11.993c.618826-.0021151 1.2288782-.1465021 1.783-.422.9488315-.4745844 1.6702645-1.3066641 2.0055822-2.3131797s.2570506-2.105013-.2175822-3.0538203l-5-10c-.3882212-.773012-1.0152051-1.4003467-1.788-1.789l-5.948-2.973 1.944-2.916zm-26.732-12.424-6.3 3.154c-.3738531.1855324-.81654068.1674327-1.174-.048l-5.83-3.651c-.26722167-.165451-.45739698-.4306709-.52835712-.7368507-.07096014-.3061799-.01684104-.6280173.15035712-.8941493.34811777-.5568951 1.08134041-.7268918 1.639-.38l4.79 3c.29593504.1851605.6670069.202596.979.046l5.67-2.84c.1552609-.077745.2876025-.1945779.384-.339l4.68-7.01c.1776656-.29544948.2065388-.65710431.078-.977-.1523085-.37886494-.5196662-.62706887-.928-.627h-4.442c-.2660316-.0002096-.5211817.10559311-.709.294l-2.994 3.005c-.4700089.4585751-1.2199911.4585751-1.69 0-.4617742-.4632451-.4617742-1.2127549 0-1.676l3.65-3.65c.2245758-.22168862.5274368-.34599454.843-.346h6.56c.4115402-.00132601.7938322.21257548 1.008.564l4.611 7.5c-.044.04-.094.07-.137.113l-1.6 1.6-1.712-2.783c-.1791259-.2897315-.4934144-.4683559-.834-.474-.3431607-.0172964-.6685186.1536219-.849.446l-2.5 3.76c-.1589087.2389259-.2075241.5346027-.1334818.8118306.0740422.2772278.2636068.5092913.5204818.6371694l2.079 1.033c-.5673389.579112-.943266 1.3184005-1.077 2.118l-3.31-1.651c-.281568-.1403067-.6127466-.1399363-.894.001zm5.108-2.787 1.009-1.517 1.144 1.85-.493.492zm3.4 9.075c.8111167-.0735815 1.5795952-.3963424 2.2-.924l2.083 4.16-2.134 1.067zm5.732 1.669-2.027-4.054 2.582-2.579h3.87zm8.882-2.508-3.434 5.157c-.1590483.2386699-.2079623.5341422-.1343122.8113342.07365.2771919.2627735.5094175.5193122.6376658l6.961 3.48c.38599.1943119.6991202.5077928.893.894l5 10c.2374745.4744545.276694 1.0238266.1090265 1.5272041-.1676674.5033774-.5284802.9195048-1.0030265 1.1567959-.9890547.4747445-2.1763853.0791152-2.683-.894l-4.553-9.106c-.0965712-.1937869-.2534294-.350996-.447-.448l-7.764-3.882c-.2819051-.1400157-.6130949-.1400157-.895 0l-8.653 4.33c-.6253245.3086099-1.365218.2750127-1.96-.089l-8-5c-.6073515-.3788802-.9664373-1.052998-.9419932-1.7684199.0244441-.715422.4287044-1.3634583 1.0605-1.7.6317956-.3365418 1.3951417-.3104603 2.0024932.0684199l6.573 4.109c.2954371.1844178.6655424.2018434.977.046l7.783-3.892c.1552609-.077745.2876025-.1945779.384-.339l6.412-9.614c.2071186-.351971.2009492-.7900017-.016-1.136-.1821499-.2945166-.5037073-.4738322-.85-.474h-6.081c-.2651948.0000566-.5195073.1054506-.707.293l-4.122 4.121c-.791167.755814-2.036833.755814-2.828 0-.2018431-.2041603-.3573666-.4493827-.456-.719l-.006-.02c-.2710076-.7265414-.0901096-1.5444979.462-2.089l.969-.969.012-.011 4.02-4.02c.3736083-.3765437.8825609-.5876167 1.413-.586h9c.6939893-.0011455 1.338344.3596931 1.7.952l6.905 11.22c.2192198.3567014.6374433.5390756 1.048.457l7.949-1.59c.7005978-.140584 1.4229776.1032755 1.8950258.639719.4720483.5364435.6220496 1.2839725.3935001 1.961-.2285496.6770275-.8009281 1.180697-1.5015259 1.321281l-10 2c-.8216484.1610323-1.6573484-.2022983-2.1-.913l-3.626-5.892c-.1786472-.2904973-.4930211-.4699242-.834-.476-.3387185-.0071821-.6571219.1610952-.842.445z"/><path id="Shape" d="m23 51h-2c-.5522847 0-1 .4477153-1 1s.4477153 1 1 1h2c.5522847 0 1-.4477153 1-1s-.4477153-1-1-1z"/></g></g></g></svg>