<svg id="Capa_1" enable-background="new 0 0 512.1 512.1" height="512" viewBox="0 0 512.1 512.1" width="512" xmlns="http://www.w3.org/2000/svg" xmlns:xlink="http://www.w3.org/1999/xlink"><linearGradient id="SVGID_1_" gradientTransform="matrix(1 0 0 -1 0 511.5)" gradientUnits="userSpaceOnUse" x1="35.325" x2="485.788" y1="415.855" y2="88.426"><stop offset="0" stop-color="#b791ff"/><stop offset="1" stop-color="#7024ea"/></linearGradient><g><path d="m472.4 79.75h-432.8c-21.8 0-39.6 17.8-39.6 39.6v273.4c0 21.8 17.8 39.6 39.6 39.6h432.9c21.8 0 39.6-17.8 39.6-39.6v-273.4c-.1-21.8-17.9-39.6-39.7-39.6zm25 313c0 13.8-11.2 25-25 25h-432.8c-13.8 0-25-11.2-25-25v-273.4c0-13.8 11.2-25 25-25h432.9c13.8 0 25 11.2 25 25v273.4zm-380.4-178.1h-56c-12.6 0-22.8 10.2-22.8 22.8v37.2c0 12.6 10.2 22.8 22.8 22.8h56c12.6 0 22.8-10.2 22.8-22.8v-37.2c0-12.6-10.2-22.8-22.8-22.8zm8.2 22.8v11.3h-17.1v-4.5c0-4-3.3-7.3-7.3-7.3h-4.5v-7.7h20.7c4.5-.1 8.2 3.6 8.2 8.2zm-31.7 23.1h-9v-9h9zm-32.5-31.4h20.7v7.7h-4.5c-4 0-7.3 3.3-7.3 7.3v4.5h-17.1v-11.3c0-4.5 3.7-8.2 8.2-8.2zm-8.2 45.5v-11.3h17.1v4.5c0 4 3.3 7.3 7.3 7.3h4.5v7.7h-20.7c-4.5 0-8.2-3.7-8.2-8.2zm64.2 8.2h-20.7v-7.7h4.5c4 0 7.3-3.3 7.3-7.3v-4.5h17.1v11.3c0 4.5-3.7 8.2-8.2 8.2zm201.9-79.6c-1.1-2.8-3.8-4.6-6.8-4.6s-5.7 1.8-6.8 4.6l-39.6 100.3c-1.5 3.7.4 8 4.1 9.5.9.3 1.8.5 2.7.5 2.9 0 5.6-1.7 6.8-4.6l12.3-31.1h41l11.7 29.7c1.5 3.7 5.7 5.6 9.5 4.1 3.7-1.5 5.6-5.7 4.1-9.5zm-21.5 59.9 14.8-37.4 14.8 37.4zm-37.4-57.3c0 4-3.3 7.3-7.3 7.3h-22.7v93c0 4-3.3 7.3-7.3 7.3s-7.3-3.3-7.3-7.3v-93h-22.7c-4 0-7.3-3.3-7.3-7.3s3.3-7.3 7.3-7.3h59.9c4.1 0 7.4 3.3 7.4 7.3zm212.5 4.1-31 46.1 31 46.1c2.2 3.3 1.4 7.9-2 10.1-1.2.8-2.7 1.2-4.1 1.2-2.3 0-4.6-1.1-6.1-3.2l-27.7-41.2-27.7 41.2c-1.4 2.1-3.7 3.2-6.1 3.2-1.4 0-2.8-.4-4.1-1.2-3.3-2.2-4.2-6.8-2-10.1l31-46.1-31-46.1c-2.2-3.3-1.4-7.9 2-10.1 3.3-2.2 7.9-1.4 10.1 2l27.7 41.2 27.7-41.2c2.2-3.3 6.8-4.2 10.1-2 3.6 2.2 4.5 6.8 2.2 10.1z" fill="url(#SVGID_1_)"/></g></svg>