<svg height="512" viewBox="0 0 64 64" width="512" xmlns="http://www.w3.org/2000/svg" xmlns:xlink="http://www.w3.org/1999/xlink"><linearGradient id="New_Gradient_Swatch_3" gradientUnits="userSpaceOnUse" x1="47" x2="47" y1="66.41" y2="3.277"><stop offset="0" stop-color="#006df0"/><stop offset="1" stop-color="#00e7f0"/></linearGradient><linearGradient id="New_Gradient_Swatch_3-3" x1="23" x2="23" xlink:href="#New_Gradient_Swatch_3" y1="66.41" y2="3.277"/><linearGradient id="New_Gradient_Swatch_3-4" x1="19" x2="19" xlink:href="#New_Gradient_Swatch_3" y1="66.41" y2="3.277"/><linearGradient id="New_Gradient_Swatch_3-5" gradientTransform="matrix(.966 .259 -.259 .966 10.429 -3.827)" x1="19.75" x2="19.75" xlink:href="#New_Gradient_Swatch_3" y1="66.41" y2="3.277"/><linearGradient id="New_Gradient_Swatch_3-6" gradientTransform="matrix(.866 .5 -.5 .866 24.442 -5.213)" x1="21.948" x2="21.948" xlink:href="#New_Gradient_Swatch_3" y1="66.41" y2="3.277"/><linearGradient id="New_Gradient_Swatch_3-7" gradientTransform="matrix(.707 .707 -.707 .707 41.08 -4.062)" x1="25.444" x2="25.444" xlink:href="#New_Gradient_Swatch_3" y1="66.41" y2="3.277"/><linearGradient id="New_Gradient_Swatch_3-8" gradientTransform="matrix(.5 .866 -.866 .5 59.218 -.452)" x1="30" x2="30" xlink:href="#New_Gradient_Swatch_3" y1="66.41" y2="3.277"/><linearGradient id="New_Gradient_Swatch_3-9" gradientTransform="matrix(.259 .966 -.966 .259 40.048 .421)" x1="19.75" x2="19.75" xlink:href="#New_Gradient_Swatch_3" y1="66.41" y2="3.277"/><linearGradient id="New_Gradient_Swatch_3-10" gradientTransform="matrix(.5 .866 -.866 .5 29.159 -8.507)" x1="21.948" x2="21.948" xlink:href="#New_Gradient_Swatch_3" y1="66.41" y2="3.277"/><linearGradient id="New_Gradient_Swatch_3-11" gradientTransform="matrix(.707 .707 -.707 .707 19.08 -13.175)" x1="25.444" x2="25.444" xlink:href="#New_Gradient_Swatch_3" y1="66.41" y2="3.277"/><linearGradient id="New_Gradient_Swatch_3-12" gradientTransform="matrix(.866 .5 -.5 .866 10.494 -13.266)" x1="30" x2="30" xlink:href="#New_Gradient_Swatch_3" y1="66.41" y2="3.277"/><linearGradient id="New_Gradient_Swatch_3-13" x1="52" x2="52" xlink:href="#New_Gradient_Swatch_3" y1="66.41" y2="3.277"/><linearGradient id="New_Gradient_Swatch_3-14" x1="56" x2="56" xlink:href="#New_Gradient_Swatch_3" y1="66.41" y2="3.277"/><linearGradient id="New_Gradient_Swatch_3-15" x1="54" x2="54" xlink:href="#New_Gradient_Swatch_3" y1="66.41" y2="3.277"/><linearGradient id="New_Gradient_Swatch_3-16" x1="40.589" x2="40.589" xlink:href="#New_Gradient_Swatch_3" y1="66.41" y2="3.277"/><linearGradient id="New_Gradient_Swatch_3-17" x1="41" x2="41" xlink:href="#New_Gradient_Swatch_3" y1="66.41" y2="3.277"/><linearGradient id="New_Gradient_Swatch_3-18" x1="42.713" x2="42.713" xlink:href="#New_Gradient_Swatch_3" y1="66.41" y2="3.277"/><linearGradient id="New_Gradient_Swatch_3-19" x1="39.286" x2="39.286" xlink:href="#New_Gradient_Swatch_3" y1="66.41" y2="3.277"/><linearGradient id="New_Gradient_Swatch_3-21" x1="32" x2="32" xlink:href="#New_Gradient_Swatch_3" y1="66.41" y2="3.277"/><path d="m48 52h-2v2h-2v2h2v2h2v-2h2v-2h-2z" fill="url(#New_Gradient_Swatch_3)"/><path d="m44 60h6v2h-6z" fill="url(#New_Gradient_Swatch_3)"/><path d="m34 56h-22a1 1 0 0 0 0 2h22a1 1 0 0 0 0-2z" fill="url(#New_Gradient_Swatch_3-3)"/><path d="m18 31h2v2h-2z" fill="url(#New_Gradient_Swatch_3-4)"/><path d="m18.75 36.694h2v2h-2z" fill="url(#New_Gradient_Swatch_3-5)" transform="matrix(.966 -.259 .259 .966 -9.083 6.396)"/><path d="m20.948 42h2v2h-2z" fill="url(#New_Gradient_Swatch_3-6)" transform="matrix(.866 -.5 .5 .866 -18.56 16.736)"/><path d="m24.443 46.557h2v2h-2z" fill="url(#New_Gradient_Swatch_3-7)" transform="matrix(.707 -.707 .707 .707 -26.175 31.92)"/><path d="m29 50.052h2v2h-2z" fill="url(#New_Gradient_Swatch_3-8)" transform="matrix(.5 -.866 .866 .5 -29.213 51.512)"/><path d="m18.75 25.306h2v2h-2z" fill="url(#New_Gradient_Swatch_3-9)" transform="matrix(.259 -.966 .966 .259 -10.772 38.574)"/><path d="m20.947 20h2v2h-2z" fill="url(#New_Gradient_Swatch_3-10)" transform="matrix(.5 -.866 .866 .5 -7.213 29.506)"/><path d="m24.444 15.443h2v2h-2z" fill="url(#New_Gradient_Swatch_3-11)" transform="matrix(.707 -.707 .707 .707 -4.175 22.808)"/><path d="m29 11.948h2v2h-2z" fill="url(#New_Gradient_Swatch_3-12)" transform="matrix(.866 -.5 .5 .866 -2.454 16.736)"/><path d="m51 12a1 1 0 0 1 1 1 1 1 0 0 0 2 0 3 3 0 0 0 -3-3 1 1 0 0 0 0 2z" fill="url(#New_Gradient_Swatch_3-13)"/><path d="m51 2a1 1 0 0 0 0 2 9.011 9.011 0 0 1 9 9 1 1 0 0 0 2 0 11.013 11.013 0 0 0 -11-11z" fill="url(#New_Gradient_Swatch_3-14)"/><path d="m51 8a5.006 5.006 0 0 1 5 5 1 1 0 0 0 2 0 7.008 7.008 0 0 0 -7-7 1 1 0 0 0 0 2z" fill="url(#New_Gradient_Swatch_3-15)"/><path d="m31 30a10 10 0 0 1 19.316-3.635l1.862-.73a12 12 0 0 0 -23.178 4.365v2h2z" fill="url(#New_Gradient_Swatch_3-16)"/><path d="m50.834 28.181a10.048 10.048 0 0 1 .166 1.819v4a10 10 0 0 1 -20 0h-2a12 12 0 0 0 24 0v-4a12.046 12.046 0 0 0 -.2-2.181z" fill="url(#New_Gradient_Swatch_3-17)"/><path d="m45.922 37.428 1.64 1.145a7.951 7.951 0 0 0 1.438-4.573v-4a8 8 0 0 0 -12.573-6.562l1.145 1.64a6 6 0 0 1 9.428 4.922v4a5.96 5.96 0 0 1 -1.078 3.428z" fill="url(#New_Gradient_Swatch_3-18)"/><path d="m36.078 26.573-1.64-1.146a7.953 7.953 0 0 0 -1.438 4.573v4a8 8 0 0 0 12.573 6.562l-1.146-1.64a6 6 0 0 1 -9.427-4.922v-4a5.955 5.955 0 0 1 1.078-3.427z" fill="url(#New_Gradient_Swatch_3-19)"/><path d="m41 36a2 2 0 0 1 -2-2h-2a4 4 0 0 0 8 0v-4a4 4 0 0 0 -8 0v2h2v-2a2 2 0 0 1 4 0v4a2 2 0 0 1 -2 2z" fill="url(#New_Gradient_Swatch_3-17)"/><path d="m42 13.051v-6.051a5.006 5.006 0 0 0 -5-5h-28a5.006 5.006 0 0 0 -5 5v50a5.006 5.006 0 0 0 5 5h28a5.006 5.006 0 0 0 5-5v-6.051a18.974 18.974 0 0 0 0-37.9zm-29-9.051h20v3a1 1 0 0 1 -1 1h-18a1 1 0 0 1 -1-1zm24 56h-28a3 3 0 0 1 -3-3v-50a3 3 0 0 1 3-3h2v3a3 3 0 0 0 3 3h18a3 3 0 0 0 3-3v-3h2a3 3 0 0 1 3 3v6.051a18.974 18.974 0 0 0 0 37.9v6.049a3 3 0 0 1 -3 3zm4-11a17 17 0 1 1 17-17 17.019 17.019 0 0 1 -17 17z" fill="url(#New_Gradient_Swatch_3-21)"/></svg>