<svg id="Layer_1" enable-background="new 0 0 68 68" height="512" viewBox="0 0 68 68" width="512" xmlns="http://www.w3.org/2000/svg"><g><path d="m42.87557 52.50624v1.58483h-29.40328v-42.23951h29.40328v12.08815c.37407-.17724.79734-.2658 1.23047-.2658h2.20499v-17.25612c0-2.10652-1.77187-3.91779-3.92765-3.91779h-28.42876c-2.15578 0-3.91785 1.76201-3.91785 3.91779v55.16435c0 2.18534 1.78172 3.91785 3.91785 3.91785h28.42876c2.18528 0 3.92765-1.79157 3.92765-3.91785v-8.68213h-1.9589c-.54145 0-1.04344-.13783-1.47656-.39377zm-17.20692-46.31483h5.00064c.55125 0 .98438.44298.98438.98438s-.43313.98438-.98438.98438h-5.00064c-.5414 0-.98438-.44298-.98438-.98438s.44299-.98438.98438-.98438zm5.75863 54.95761h-6.51656c-.54145 0-.98438-.43307-.98438-.98438 0-.54139.44292-.98438.98438-.98438h6.51656c.55125 0 .98438.44298.98438.98438 0 .55131-.43313.98438-.98438.98438z"/><path d="m34.24606 27.3026c.38292.38004 1.00681.38227 1.39197-.00673l4.1139-4.15235c.3802-.38356.3802-1.00168 0-1.38524l-4.1139-4.15235c-.3826-.38644-1.00552-.38837-1.39197-.00673-.38644.3826-.38933 1.006-.00673 1.39197l3.42753 3.45973-3.42753 3.45973c-.38259.38596-.37971 1.00937.00673 1.39197z"/><path d="m22.09615 17.5992c-.38596-.38356-1.00985-.38068-1.39197.00673l-4.11342 4.15235c-.3802.38356-.3802 1.00168 0 1.38524l4.11342 4.15235c.38234.38616 1.00524.38958 1.39197.00673.38644-.3826.38933-1.006.00673-1.39197l-3.42705-3.45973 3.42705-3.45973c.38259-.38597.37971-1.00937-.00673-1.39197z"/><path d="m29.75822 14.81767-5.77792 14.53971c-.20091.50517.04614 1.07762.55131 1.27805.5024.20056 1.0764-.0437 1.27805-.55131l5.77792-14.53972c.20091-.50517-.04614-1.07762-.55131-1.27805-.50709-.20331-1.07762.04615-1.27805.55132z"/><path d="m57.04675 36.04205-2.16209-.24435c-.2348-.93925-.61746-1.82624-1.10448-2.62634v-.00866l1.27848-1.80238c.29128-.4106.24393-.9714-.11205-1.32738l-1.54848-1.54842c-.37172-.37178-.96347-.40477-1.3743-.07673l-1.69616 1.35448c-.80875-.47831-1.69586-.84354-2.64376-1.06963l-.3683-2.19123c-.08358-.49718-.514-.86133-1.0182-.86133h-2.19567c-.52547 0-.96713.39467-1.02595.9169l-.24453 2.17038c-.93925.24357-1.82635.61752-2.6264 1.10448l-1.80978-1.28556c-.41114-.292-.97308-.24429-1.32906.11283l-1.54247 1.54722c-.37029.37142-.40327.96142-.07673 1.37178l1.35766 1.70625c-.48702.80882-.85226 1.69586-1.0784 2.64383l-2.18294.36794c-.49699.08381-.86085.51411-.86085 1.01808v2.18805c0 .52523.39431.96671.91618 1.02589l2.15374.24405c.24345.93919.61746 1.82624 1.11313 2.63505v.00865l-1.27649 1.79331c-.2923.41066-.24531.97236.11109 1.32876l1.5486 1.5486c.37124.37124.96202.40471 1.37286.0778l1.70523-1.35676c.80876.47831 1.6958.84354 2.63499 1.06969l.36836 2.19117c.08357.49717.514.86133 1.01814.86133h2.19568c.52547 0 .96713-.39468 1.02601-.91684l.24453-2.17044c.93925-.23486 1.8263-.60881 2.6264-1.10448l1.80972 1.28556c.41114.29199.97308.24435 1.32906-.11277l1.54284-1.54758c.37016-.3713.40327-.96106.07702-1.37142l-1.34961-1.69766c.47831-.81747.84354-1.70451 1.06969-2.65248l2.183-.368c.49694-.08375.86079-.51412.86079-1.01808v-2.18769c-.00002-.52533-.39452-.96687-.9165-1.02587zm-11.71962 6.48682c-2.33939 0-4.24398-1.89587-4.24398-4.24392 0-2.33939 1.90458-4.24397 4.24398-4.24397 2.33939 0 4.2352 1.90458 4.2352 4.24397.00001 2.34805-1.89581 4.24392-4.2352 4.24392z"/></g></svg>