<?xml version="1.0" encoding="iso-8859-1"?>
<!-- Generator: Adobe Illustrator 19.0.0, SVG Export Plug-In . SVG Version: 6.00 Build 0)  -->
<svg version="1.1" id="Capa_1" xmlns="http://www.w3.org/2000/svg" xmlns:xlink="http://www.w3.org/1999/xlink" x="0px" y="0px"
	 viewBox="0 0 426.667 426.667" style="enable-background:new 0 0 426.667 426.667;" xml:space="preserve">
<path style="fill:#64798A;" d="M44.577,338.938v27.395c0,10.997,8.915,19.911,19.911,19.911h31.138
	c10.997,0,19.911-8.915,19.911-19.911v-27.395H44.577z"/>
<path style="fill:#44C4A1;" d="M258.585,31.325H98.89c-37.533,0-67.958,30.426-67.958,67.958v251.481h285.657V89.328
	C316.588,57.294,290.62,31.325,258.585,31.325z"/>
<rect x="108.245" y="61.47" style="fill:#D5D6DB;" width="141.013" height="28.203"/>
<circle style="fill:#FCD462;" cx="99.157" cy="288.299" r="27.294"/>
<g>
	<path style="fill:#3EA69B;" d="M17.422,143.738C7.801,143.738,0,151.539,0,161.16v45.212c0,9.622,7.801,17.422,17.422,17.422H33.66
		v-80.057H17.422z"/>
	<path style="fill:#3EA69B;" d="M332.826,143.738h-16.238v80.057h16.238c9.622,0,17.422-7.8,17.422-17.422V161.16
		C350.249,151.539,342.449,143.738,332.826,143.738z"/>
</g>
<rect x="71.868" y="126.967" style="fill:#F6C358;" width="210.133" height="113.715"/>
<polygon style="fill:#FCD462;" points="71.869,240.686 71.869,126.969 282.018,126.969 "/>
<g>
	<path style="fill:#64798A;" d="M220.156,362.591v14.07c0,10.317,8.364,18.68,18.681,18.68h13.585
		c10.317,0,18.681-8.364,18.681-18.68v-14.07H220.156z"/>
	<path style="fill:#64798A;" d="M344.487,362.591v14.07c0,10.317,8.364,18.68,18.681,18.68h13.585
		c10.317,0,18.681-8.364,18.681-18.68v-14.07H344.487z"/>
</g>
<g>
	<path style="fill:#D15241;" d="M419.733,290.267H398.92v19.105h20.813c3.829,0,6.933-3.104,6.933-6.933V297.2
		C426.667,293.371,423.563,290.267,419.733,290.267z"/>
	<path style="fill:#D15241;" d="M199.342,290.267c-3.829,0-6.933,3.104-6.933,6.933v5.238c0,3.829,3.104,6.933,6.933,6.933h20.814
		v-19.105H199.342z"/>
</g>
<path style="fill:#E56353;" d="M348.059,227.95h-77.497c-29.848,0-54.044,24.197-54.044,54.044v86.055h185.586v-86.055
	C402.104,252.146,377.908,227.95,348.059,227.95z"/>
<path style="fill:#2D93BA;" d="M237.137,297.999h144.648c0,0,5.902-31.195-22.065-54.626c-2.149-1.8-4.934-2.688-7.737-2.688
	h-83.607c-3.29,0-6.416,1.301-8.757,3.612C251.137,252.672,232.152,274.5,237.137,297.999z"/>
<rect x="176.939" y="61.47" style="fill:#E1E6E9;" width="72.324" height="28.203"/>
<path style="fill:#27A2DB;" d="M237.137,297.999c-4.985-23.5,14-45.327,22.483-53.702c2.341-2.311,5.468-3.612,8.757-3.612h83.607
	c2.803,0,5.588,0.888,7.737,2.688L237.137,297.999z"/>
<g>
	<circle style="fill:#FCD462;" cx="258.304" cy="328.917" r="15.834"/>
	<circle style="fill:#FCD462;" cx="354.133" cy="328.917" r="15.834"/>
</g>
<g>
</g>
<g>
</g>
<g>
</g>
<g>
</g>
<g>
</g>
<g>
</g>
<g>
</g>
<g>
</g>
<g>
</g>
<g>
</g>
<g>
</g>
<g>
</g>
<g>
</g>
<g>
</g>
<g>
</g>
</svg>
